<?xml version="1.0" encoding="utf-8"?>
<!-- Generator: Adobe Illustrator 27.5.0, SVG Export Plug-In . SVG Version: 6.00 Build 0)  -->
<svg version="1.1" id="Layer_1" xmlns="http://www.w3.org/2000/svg" xmlns:xlink="http://www.w3.org/1999/xlink" x="0px" y="0px"
	 viewBox="0 0 4000 4000" style="enable-background:new 0 0 4000 4000;" xml:space="preserve">
<g>
	<g>
		<g>
			<g>
				<rect transform="matrix(-1 -1.224647e-16 1.224647e-16 -1 4000 4000)" style="fill:#BBEFFF;" width="4000" height="4000"/>
			</g>
		</g>
	</g>
	<g>
		<g>
			<g>
				<path style="fill:#ED1B24;" d="M787.237,2448.14c13.635-2.108,28.614-3.229,43.772-3.14h0.046
					c43.19,0.269,87.86,10.271,106.561,34.265c20.049,25.609,28.749,54.089,39.962,78.397
					c13.455,29.107,30.498,52.295,75.033,57.407c4.799,0.538,9.509,0.897,14.217,1.032c68.126,2.287,124.592-31.888,142.308,44.267
					l212.766-268.201l367.319-463.072l-738.538,311.974l-263.806,200.253C779.836,2444.956,779.343,2449.351,787.237,2448.14z"/>
			</g>
		</g>
		<g style="opacity:0.2;">
			<g>
				<path style="fill:#371A45;" d="M787.237,2448.14c13.635-2.108,28.614-3.229,43.772-3.14h0.046
					c43.19,0.269,87.86,10.271,106.561,34.265c20.049,25.609,28.749,54.089,39.962,78.397
					c13.455,29.107,30.498,52.295,75.033,57.407c4.799,0.538,9.509,0.897,14.217,1.032c68.126,2.287,124.592-31.888,142.308,44.267
					l212.766-268.201l367.319-463.072l-738.538,311.974l-263.806,200.253C779.836,2444.956,779.343,2449.351,787.237,2448.14z"/>
			</g>
		</g>
		<g style="opacity:0.35;">
			<g>
				<path style="fill:#371A45;" d="M831.055,2445.001c43.19,0.269,87.86,10.271,106.561,34.265
					c20.049,25.609,28.749,54.089,39.962,78.397c0.897-17.85,6.952-40.634,25.205-66.019
					c43.056-59.784,493.032-279.592,470.428-301.434C1459.352,2176.8,840.518,2440.964,831.055,2445.001z"/>
			</g>
		</g>
		<g style="opacity:0.35;">
			<g>
				<path style="fill:#371A45;" d="M1066.828,2616.102c68.126,2.287,124.592-31.888,142.308,44.267l212.766-268.201
					C1275.334,2482.675,1108.898,2589.103,1066.828,2616.102z"/>
			</g>
		</g>
		<g>
			<g>
				<path style="fill:#371A45;" d="M1208.201,2664.578l-0.884-3.796c-12.69-54.504-44.893-50.894-89.448-45.903
					c-19.763,2.215-42.161,4.729-65.459,2.039c-55.054-6.343-68.867-39.429-84.863-77.742
					c-8.176-19.582-16.631-39.831-31.421-58.764c-24.192-30.972-94.639-38.794-148.623-30.41c-5.5,0.837-7.261-0.847-7.771-2.422
					c-0.808-2.497,1.489-5.425,6.155-7.847l263.657-200.168l745.706-315.083L1208.201,2664.578z M1151.46,2608.502
					c27.4,0,48.401,8.738,58.599,47.68l573.091-722.502l-731.736,309.116l-263.662,200.21c-3.103,1.587-4.143,2.949-4.365,3.445
					c0.129-0.036,0.498,0.024,1.201,0.027c0.554,0,1.318-0.039,2.339-0.198c55.054-8.538,127.092-0.288,152.168,31.812
					c15.1,19.333,23.655,39.822,31.926,59.634c15.54,37.219,28.96,69.363,81.819,75.452c22.881,2.639,45.051,0.154,64.609-2.041
					C1129.553,2609.781,1140.979,2608.502,1151.46,2608.502z"/>
			</g>
		</g>
		<g>
			<g>
				<path style="fill:#371A45;" d="M1200.11,2700.621l-8.433-36.196c-9.023-38.752-24.492-38.911-72.021-33.589
					c-20.613,2.309-43.972,4.931-69.084,2.033c-64.404-7.422-81.404-48.132-97.842-87.505c-7.769-18.604-15.798-37.84-29.258-55.071
					c-19.419-24.861-84.414-32.034-133.508-24.427c-14.875,2.336-23.047-5.742-25.508-13.342
					c-2.571-7.935-0.491-18.855,12.688-26.313l264.482-200.798l2.073-0.876l803.171-339.294L1200.11,2700.621z M1150.72,2592.552
					c24.941,0,48.518,6.145,63.867,32.08l516.941-651.714l-671.792,283.794l-224.302,170.291
					c46.902,0.83,94.092,12.756,116.313,41.206c16.431,21.035,25.813,43.506,34.089,63.33c15.256,36.535,25.334,60.674,68.84,65.686
					c21.06,2.429,41.357,0.154,60.981-2.046C1127.175,2593.89,1139.099,2592.552,1150.72,2592.552z M786.894,2441.331h0.049H786.894
					z"/>
			</g>
		</g>
		<g>
			<g>
				<path style="fill:#ED1B24;" d="M2030.062,1818.97L809.147,2263.502c-102.527,37.33-164.931,141.329-149.63,249.361v0
					c0,0,176.778-104.167,308.188-180.823C1224.368,2182.322,2030.062,1818.97,2030.062,1818.97z"/>
			</g>
		</g>
		<g style="opacity:0.7;">
			<g>
				<path style="fill:#FFFFFF;" d="M659.505,2512.858c0,0,7.13-4.216,19.599-11.526c2.063-93.825,61.354-178.771,151.861-211.78
					l841.916-306.547c194.871-90.776,351.038-161.234,357.002-163.97l-1220.716,444.46
					C706.641,2300.854,644.211,2404.815,659.505,2512.858z"/>
			</g>
		</g>
		<g>
			<g>
				<path style="fill:#371A45;" d="M645.518,2541.937l-3.76-26.555c-16.394-115.73,51.423-228.75,161.253-268.738l1220.913-444.531
					l13.513,33.21c-8.049,3.63-807.773,364.678-1060.688,512.214c-129.875,75.759-306.355,179.741-308.122,180.784L645.518,2541.937
					z M1625.881,1985.223L815.286,2280.36c-85.246,31.038-140.918,113.486-140.078,202.446
					c53.384-31.424,182.49-107.361,283.462-166.26C1093.792,2237.723,1383.018,2098.79,1625.881,1985.223z"/>
			</g>
		</g>
		<g>
			<g>
				<path style="fill:#FFFFFF;" d="M1534.648,3212.319c75.212,53.147,238.51,46.599,212.811-172.402
					c0,0,157.422-18.343,286.141-80.146c63.955-30.722,120.825-72.163,147.779-127.417l-342.247-512.003
					c0,0-86.605,204.021-159.934,310.494c-41.934,60.861-103.333,116.16-156.346,152.04c-14.441,9.777-28.255,18.119-40.903,24.712
					C1392.295,2854.465,1432.57,3140.201,1534.648,3212.319z"/>
			</g>
		</g>
		<g style="opacity:0.35;">
			<g>
				<path style="fill:#371A45;" d="M1496.122,3171.461c11.526,16.908,24.443,30.902,38.526,40.858
					c75.212,53.147,238.51,46.599,212.811-172.402c0,0,157.377-18.343,286.096-80.146h0.045
					c12.782-6.145,25.295-12.692,37.315-19.734c2.242-1.301,4.485-2.646,6.728-4.037c17.312-10.45,33.547-21.932,48.168-34.489
					c1.166-1.031,2.332-2.018,3.499-3.05c5.068-4.485,9.957-9.104,14.576-13.903c1.39-1.435,2.781-2.87,4.126-4.351
					c2.736-2.96,5.382-5.92,7.894-8.97c1.121-1.345,2.242-2.736,3.364-4.126c2.557-3.229,5.024-6.503,7.356-9.867
					c1.076-1.525,2.108-3.05,3.094-4.575c1.166-1.704,2.242-3.408,3.319-5.158c0.987-1.615,1.973-3.274,2.915-4.978
					c0.718-1.211,1.39-2.422,2.063-3.678c0.493-0.852,0.942-1.749,1.39-2.646c0.718-1.301,1.346-2.557,1.974-3.857l-342.247-512.003
					c0,0,0,0.045-0.045,0.135c-0.045,0.045-0.045,0.09-0.045,0.134c-0.09,0.18-0.179,0.404-0.359,0.763
					c-0.852,2.018-2.96,6.952-6.144,14.217c-21.573,49.245-92.076,206.308-153.341,295.245
					c-41.934,60.861-103.333,116.16-156.346,152.04c58.608,67.795,137.17,121.742,227.756,153.499
					c32.712,11.468,26.083,59.469-8.5,61.829c-77.643,5.298-133.593-3.414-133.593-3.414
					C1713.463,3178.682,1574.025,3215.728,1496.122,3171.461z"/>
			</g>
		</g>
		<g>
			<g>
				<path style="fill:#371A45;" d="M1624.172,3257.808c-37.139,0.003-73.787-12.417-99.89-30.859
					c-74.185-52.409-116.316-202.83-109.124-310.437c4.27-63.884,24.49-107.038,58.472-124.797
					c54.902-28.696,138.022-94.463,190.791-171.057c71.494-103.777,157.319-305.298,158.179-307.322
					c3.87-9.121,14.417-13.379,23.521-9.507c9.121,3.87,13.379,14.399,9.507,23.521c-3.562,8.399-88.123,206.919-161.66,313.665
					c-56.233,81.623-145.02,151.819-203.716,182.497c-21.677,11.328-35.999,46.099-39.294,95.393
					c-6.409,95.894,30.63,233.953,94.028,278.743c33.469,23.643,91.731,35.288,133.779,10.288
					c43.018-25.574,60.603-82.945,50.854-165.906l-2.095-17.825l17.83-2.087c3.43-0.403,343.955-41.973,419.915-197.649
					c4.348-8.904,15.093-12.595,23.989-8.257c8.906,4.346,12.603,15.086,8.257,23.989
					c-74.817,153.333-356.467,204.302-430.544,215.198c8.628,111.526-32.639,161.245-69.871,183.379
					C1674.646,3252.125,1649.297,3257.808,1624.172,3257.808z"/>
			</g>
		</g>
		<g>
			<g>
				<path style="fill:#371A45;" d="M1864.644,3031.278c-0.833,0-1.68-0.078-2.527-0.24
					c-99.417-18.901-298.43-96.143-340.071-253.196c-1.904-7.182,2.375-14.548,9.558-16.452c7.168-1.907,14.548,2.373,16.453,9.558
					c35.437,133.657,210.239,212.959,319.084,233.655c7.302,1.387,12.095,8.43,10.706,15.73
					C1876.621,3026.785,1870.977,3031.278,1864.644,3031.278z"/>
			</g>
		</g>
		<g>
			<g>
				<path style="fill:#371A45;" d="M1748.904,3056.8c-9.408,0.831-17.479,0.592-26.077-0.202c-4.242-0.308-8.456-0.845-12.642-1.557
					c-4.203-0.583-8.383-1.38-12.522-2.358c-16.644-3.526-32.798-9.547-48.259-16.947c-15.397-7.679-29.893-17.374-42.612-28.908
					c-12.511-11.894-22.65-26.086-29.247-41.319c-0.57-1.318,0.035-2.85,1.354-3.421c0.968-0.419,2.05-0.204,2.783,0.461
					l0.129,0.119c11.92,10.842,24.122,19.874,37.494,26.836c13.479,6.786,27.437,11.972,41.761,16.063
					c14.449,3.873,29.194,6.364,43.92,8.892c7.377,1.202,14.797,2.259,22.201,3.313c7.268,1.052,15.149,2.044,21.715,3.149
					l1.403,0.236c9.794,1.648,16.396,10.923,14.749,20.716C1763.667,3050.115,1756.859,3056.096,1748.904,3056.8z"/>
			</g>
		</g>
		<g>
			<g>
				<path style="fill:#FFFFFF;" d="M2473.843,2637.034c37.583,30.273,74.449,53.73,102.974,66.602
					c239.99,108.267,362.923-106.338,339.556-215.906c-31.574-147.914-179.533-85.887-179.533-85.887
					c-53.954-5.606-100.014-32.427-130.243-87.367c-37.045-67.185-50.411-176.393-25.609-340.319
					c4.082-26.954,9.194-55.434,15.384-85.438l-46.195,66.602l-239.318,345.073
					C2254.573,2410.095,2367.101,2551.057,2473.843,2637.034z"/>
			</g>
		</g>
		<g style="opacity:0.35;">
			<g>
				<path style="fill:#371A45;" d="M2295.835,2363.676c0,2.063,0.045,4.126,0.135,6.234c0,0.314,0.044,0.628,0.044,0.897
					c0.09,1.839,0.18,3.723,0.359,5.606c0,0.314,0.045,0.583,0.045,0.897c0.179,1.973,0.359,3.947,0.628,5.92
					c0.179,1.704,0.448,3.454,0.718,5.158c0.09,0.897,0.224,1.794,0.403,2.646c1.031,6.189,2.377,12.334,3.992,18.523
					c0.583,2.198,1.211,4.396,1.883,6.593c0,0.045,0,0.045,0,0.09c0.584,1.928,1.211,3.902,1.839,5.875
					c0.135,0.404,0.269,0.808,0.404,1.256c0.673,2.018,1.391,4.036,2.153,6.054c0.763,2.242,1.615,4.44,2.512,6.638
					c0.404,1.076,0.852,2.153,1.301,3.184c0.897,2.287,1.883,4.53,2.87,6.772c0.135,0.314,0.269,0.628,0.404,0.897
					c0.583,1.39,1.256,2.781,1.883,4.171c1.076,2.377,2.242,4.754,3.409,7.131c0.673,1.435,1.39,2.87,2.153,4.26
					c2.377,4.665,4.934,9.329,7.58,13.993c1.076,1.884,2.198,3.768,3.319,5.651c7.445,12.513,15.742,24.892,24.757,37.001
					c1.076,1.48,2.198,2.915,3.319,4.396c1.076,1.48,2.198,2.915,3.364,4.395c2.242,2.871,4.53,5.785,6.862,8.656
					c2.242,2.736,4.485,5.472,6.772,8.208c6.054,7.221,12.378,14.352,18.836,21.348c1.256,1.345,2.511,2.736,3.812,4.081
					c14.352,15.294,29.422,29.87,44.715,43.504c1.929,1.704,3.902,3.408,5.831,5.157c0.449,0.359,0.852,0.718,1.256,1.077
					c2.736,2.377,5.471,4.709,8.208,6.997c4.081,3.453,8.162,6.817,12.244,10.091c37.583,30.273,74.449,53.73,102.974,66.602
					c196.396,88.578,314.396-39.019,337.987-148.363c-50.322,82.389-155.673,144.326-308.476,75.392
					c-0.263-0.118-0.527-0.238-0.791-0.358c-53.46-24.318-77.24-87.099-54.899-141.415c24.273-59.012,42.402-118.481,55.958-174.417
					c-37.045-67.185-50.411-176.393-25.609-340.319l-30.811-18.837l-224.338,323.5l-14.98,21.573
					C2300.499,2320.62,2295.835,2341.879,2295.835,2363.676z"/>
			</g>
		</g>
		<g>
			<g>
				<path style="fill:#371A45;" d="M2702.183,2751.09c-41.946,0.002-86.699-10.332-132.749-31.111
					c-86.592-39.072-235.767-163.96-278.989-287.563c-18.149-51.899-16.648-99.072,4.46-140.208
					c4.521-8.818,15.332-12.297,24.153-7.771c8.813,4.524,12.292,15.337,7.771,24.153c-16.448,32.048-17.292,69.724-2.517,111.982
					c38.442,109.931,177.271,229.426,259.878,266.701c117.205,52.881,194.226,21.721,238.201-13.73
					c61.563-49.634,87.202-131.56,76.426-182.09c-7.8-36.565-23.975-61.526-48.074-74.194c-45.403-23.86-106.375,0.906-106.987,1.16
					l-4.204,1.74l-4.563-0.459c-54.419-5.684-97.925-30.334-129.312-73.261c-63.284-86.558-72.327-241.787-26.877-461.375
					c2.009-9.705,11.506-15.942,21.204-13.933c9.702,2.009,15.94,11.501,13.933,21.204
					c-42.698,206.297-35.54,355.998,20.706,432.927c24.348,33.303,57.942,52.891,99.902,58.269
					c17.468-6.353,80.085-25.649,132.681,1.858c34.099,17.832,56.533,50.998,66.682,98.579
					c12.859,60.29-13.962,157.011-88.997,217.507C2803.977,2734.478,2755.342,2751.087,2702.183,2751.09z"/>
			</g>
		</g>
		<g>
			<g>
				<path style="fill:#FFFFFF;" d="M1689.558,2872.315c127.911,58.663,285.557,71.58,446.792,11.302
					c288.382-107.818,399.699-411.047,442.62-629.016c27-136.97,27-240.259,27-240.259l-642.291-392.613
					c-34.4,116.564-81.492,196.89-134.28,258.603c-101.135,118.448-222.948,168.59-315.292,275.511
					c-32.247,37.36-60.906,81.626-83.779,138.182c-0.852,2.063-1.704,4.171-2.511,6.279c-7.266,18.568-13.097,37.18-17.582,55.748
					C1358.255,2570.387,1486.39,2779.073,1689.558,2872.315z"/>
			</g>
		</g>
		<g style="opacity:0.35;">
			<g>
				<path style="fill:#371A45;" d="M2136.35,2883.617c207.295-77.5,323.096-255.957,387.769-431.139
					c-68.171,154.193-179.892,301.434-362.967,369.875c-430.019,160.786-834.741-199.132-717.056-559.499
					c-5.741,11.885-11.167,24.353-16.28,37.449C1283.804,2668.384,1696.869,3047.946,2136.35,2883.617z"/>
			</g>
		</g>
		<g>
			<g>
				<path style="fill:#371A45;" d="M1923.008,2940.896c-43.848,0-87.371-4.841-129.907-14.58
					c-105.486-24.15-200.281-76.55-274.136-151.535c-132.676-134.702-172.988-314.527-107.837-481.028
					c56.384-144.089,146.394-211.108,241.689-282.065c111.602-83.096,227.002-169.021,293.633-395.02l6.611-22.429l670.847,410.027
					v10.061c0,7.19-0.676,178.308-59.463,373.957c-78.486,261.204-224.351,438.301-421.829,512.141
					C2070.671,2927.327,1996.394,2940.896,1923.008,2940.896z M1974.011,1649.095c-70.833,220.901-187.156,307.524-299.766,391.372
					c-91.057,67.8-177.065,131.841-229.705,266.362c-59.841,152.93-22.463,318.452,99.985,442.773
					c116.982,118.767,332.231,211.929,585.522,117.214c235.432-88.032,347.349-313.972,399.78-488.01
					c49.561-164.514,56.924-315.158,58.013-354.534L1974.011,1649.095z"/>
			</g>
		</g>
		<g style="opacity:0.35;">
			<g>
				<path style="fill:#371A45;" d="M1829.399,1880.332c130.692,273.538,448.899,439.75,749.571,374.27
					c27-136.97,27-240.259,27-240.259l-642.291-392.613C1929.279,1738.293,1882.187,1818.619,1829.399,1880.332z"/>
			</g>
		</g>
		<g style="opacity:0.35;">
			<g>
				<path style="fill:#371A45;" d="M1957.097,1885.033c94.671-6.857,161.511-123.719,142.38-254.128
					c-57.134,138.025-205.113-85.449-216.376-150.038C1640.848,1546.594,1783.482,1901.357,1957.097,1885.033z"/>
			</g>
		</g>
		<g style="opacity:0.7;">
			<g>
				<path style="fill:#FFFFFF;" d="M2159.771,1509.912c38.037,126.966,183.013,85.973,168.633-29.326
					C2302.055,1336.198,2130.406,1381.753,2159.771,1509.912z"/>
			</g>
		</g>
		<g>
			<g>
				<g>
					<path style="fill:#FFFFFF;" d="M3169.906,1842.624c-511.565,805.007-1654.619,134.627-1248.258-689.149
						C2425.757,317.01,3606.652,1011.075,3169.906,1842.624z"/>
				</g>
			</g>
			<g>
				<g>
					<path style="fill:#FFFFFF;" d="M3169.906,1842.624c-511.565,805.007-1654.619,134.627-1248.258-689.149
						C2425.757,317.01,3606.652,1011.075,3169.906,1842.624z"/>
				</g>
			</g>
			<g>
				<g>
					<path style="fill:#FFFFFF;" d="M3169.906,1842.624c-511.565,805.007-1654.619,134.627-1248.258-689.149
						C2425.757,317.01,3606.652,1011.075,3169.906,1842.624z"/>
				</g>
			</g>
			<g>
				<g>
					<path style="fill:#371A45;" d="M2559.731,2219.217c-123.601,0-248.218-32.868-361.719-96.682
						c-159.243-89.531-278.916-229.583-336.968-394.356c-64.907-184.226-48.188-385.044,48.352-580.75l0.549-1.006
						c118.423-196.499,283.022-323.75,476.003-368.003c171.13-39.246,354.485-10.662,516.267,80.474
						c162.126,91.326,282.922,233.909,340.137,401.484c64.121,187.803,43.252,391.335-60.354,588.596l-0.564,0.974
						c-120.322,189.341-284.497,311.543-474.778,353.396C2658.364,2213.968,2609.126,2219.217,2559.731,2219.217z
						 M1933.645,1160.035c-207.361,421.033-1.445,781.707,277.759,938.682c285.779,160.676,689.258,141.663,946.67-262.947
						c222.949-425.046,16.753-791.953-269.268-953.069C2605.574,723.15,2185.938,741.91,1933.645,1160.035z M3169.905,1842.623
						h0.051H3169.905z"/>
				</g>
			</g>
			<g style="opacity:0.35;">
				<g>
					<path style="fill:#293856;" d="M3169.906,1842.599c-429.745,703-1454.113,293.322-1319.989-487.149
						c39.826,255.164,127.23,267.882,257.324,401.008c398.483,436.01,1052.354,143.056,1148.767-367.425
						C3278.925,1547.932,3246.718,1707.285,3169.906,1842.599z"/>
				</g>
			</g>
			<g>
				<g>
					<path style="fill:#371A45;" d="M2559.731,2224.72c-124.543,0-250.081-33.108-364.414-97.39
						c-160.408-90.185-280.964-231.291-339.463-397.324c-65.41-185.654-48.601-387.947,48.606-585.01l0.774-1.414
						c119.211-197.805,285.015-325.93,479.485-370.522c172.471-39.544,357.217-10.767,520.198,81.04
						c163.306,91.99,284.99,235.644,342.644,404.502c64.622,189.267,43.635,394.302-60.691,592.932l-0.791,1.367
						c-121.125,190.605-286.497,313.645-478.24,355.818C2659.158,2219.427,2609.517,2224.72,2559.731,2224.72z M1938.479,1162.676
						c-205.657,417.756-1.362,775.518,275.623,931.245c283.474,159.375,683.718,140.457,939.204-260.908
						c221.05-421.699,16.528-785.696-267.2-945.52C2605.161,729.236,2188.892,747.911,1938.479,1162.676z M3169.905,1842.623h0.051
						H3169.905z"/>
				</g>
			</g>
			<g>
				<g>
					<path style="fill:#371A45;" d="M3060.103,1988.644c-709.228,445.262-1344.451-379.142-811.062-882.19
						C2880.72,579.294,3627.431,1353.192,3060.103,1988.644z"/>
				</g>
			</g>
			<g>
				<g>
					<path style="fill:#21102B;" d="M3239.157,1487.587c24.003,756.494-1056.265,849.34-1191.723,161.32
						C2405.332,2046.594,3046.464,1859.278,3239.157,1487.587z"/>
				</g>
			</g>
			<g>
				<g>
					<path style="fill:#371A45;" d="M2621.553,2201.451c-91.194,0-183.535-20.478-270.261-60.854
						c-144.67-67.351-261.211-182.598-328.157-324.512c-73.843-156.541-81.292-331.204-21.545-505.107
						c66.604-178.782,213.496-326.404,403.154-405.403c190.325-79.277,399.775-79.372,574.646-0.276l2.373,1.326
						c147.234,99.583,247.72,256.624,282.944,442.197c33.274,175.303,3.752,358.254-81.001,501.941l-0.061,0.105
						c-100.652,167.72-237.761,280.847-396.509,327.153C2733.428,2193.685,2677.708,2201.451,2621.553,2201.451z M2698.213,878.077
						c-93.933,0-189.79,19.026-281.147,57.08c-181.492,75.598-321.931,216.514-385.308,386.619
						c-123.367,359.104,74.131,669.224,333.059,789.768c225.352,104.909,567.795,95.285,791.306-277.095
						c156.819-265.928,117.307-690.898-191.184-900.513C2882.122,896.7,2791.104,878.077,2698.213,878.077z M3169.905,1842.623
						h0.049H3169.905z"/>
				</g>
			</g>
			<g>
				<g>
					<path style="fill:#371A45;" d="M2651.042,2135.335c-36.885,0-73.452-3.115-109.575-9.395
						c-153.132-26.614-289.824-108.96-384.895-231.868c-87.793-113.499-131.868-251.848-124.104-389.561
						c8.574-152.109,78.918-294.575,203.423-412l0.872-0.774c149.541-124.797,316.179-186.567,481.938-178.562
						c149.043,7.178,288.862,70.83,393.708,179.236c107.285,110.928,167.048,257.126,168.281,411.667
						c1.375,172.649-69.958,344.622-206.294,497.327l-1.807,2.024l-2.297,1.443
						C2932.952,2091.099,2789.932,2135.335,2651.042,2135.335z M2261.765,1120.794c-261.389,246.897-225.996,554.458-74.875,749.829
						c166.453,215.193,496.938,330.281,860.723,103.23c284.07-319.976,218.66-667.224,37.249-854.795
						C2902.424,930.435,2577.207,857.886,2261.765,1120.794z M3060.103,1988.643h0.049H3060.103z"/>
				</g>
			</g>
			<g>
				<g>
					<path style="fill:#FFFFFF;" d="M1746.078,1658.839c54.719,331.833,391.899,304.921,371.593-17.139
						C2073.086,1291.804,1712.654,1320.531,1746.078,1658.839z"/>
				</g>
			</g>
			<g>
				<g>
					<path style="fill:#371A45;" d="M1951.375,1914.898c-91.082,0-195.073-76.287-224.204-252.942l-0.161-1.233
						c-18.003-182.195,73.54-276.458,166.211-286.936c54.089-6.121,109.946,15.254,153.279,58.633
						c47.859,47.908,79.043,119.438,90.183,206.858l0.115,1.216c10.999,174.463-76.111,263.018-167.319,273.386
						C1963.521,1914.556,1957.473,1914.898,1951.375,1914.898z M1765.09,1656.336c27.148,163.311,122.737,228.284,200.056,219.46
						c73.086-8.308,142.627-83.345,133.438-232.28c-21.189-164.609-117.139-241.143-201.055-231.646
						C1823.042,1420.296,1749.9,1500.394,1765.09,1656.336z"/>
				</g>
			</g>
			<g>
				<g>
					<path style="fill:#FFFFFF;" d="M1733.327,1677.61c44.627,268.863,297.566,252.968,281.183-7.521
						C1979.307,1383.198,1704.443,1400.776,1733.327,1677.61z"/>
				</g>
			</g>
			<g>
				<g>
					<path style="fill:#371A45;" d="M1892.615,1891.6c-71.331,0-153.77-63.713-178.193-210.852l-0.154-1.147
						c-15.676-150.254,54.609-227.476,126.548-235.642c80.972-9.165,173.196,64.724,192.715,223.796l0.105,1.13
						c8.945,142.241-57.686,213.972-127.688,221.963C1901.558,1891.348,1897.107,1891.6,1892.615,1891.6z M1752.329,1675.047
						c21.975,131.292,92.7,184.187,149.272,177.72c51.904-5.925,100.991-64.155,93.816-180.908
						c-16.611-133.936-88.167-196.909-150.278-189.817C1791.458,1488.135,1739.578,1551.126,1752.329,1675.047z"/>
				</g>
			</g>
			<g style="opacity:0.6;">
				<g>
					<path style="fill:#FFFFFF;" d="M2266.269,1708.21c18.536,50.972,86.635,33.129,71.628-24.12
						C2319.362,1633.122,2251.264,1650.965,2266.269,1708.21z"/>
				</g>
			</g>
			<g style="opacity:0.6;">
				<g>
					<path style="fill:#FFFFFF;" d="M3135.335,1537.316c79.67-496.372-434.713-556.417-589.6-449.903
						C2875.272,1107.273,3022.798,1309.413,3135.335,1537.316z"/>
				</g>
			</g>
			<g style="opacity:0.35;">
				<g>
					<path style="fill:#371A45;" d="M2028.632,1731.027c4.528-38.071-1.37-77.518-15.078-113.512
						c-46.413,182.586-230.378,103.851-274.042-26.45C1701.477,1860.833,1976.455,1984.27,2028.632,1731.027z"/>
				</g>
			</g>
		</g>
		<g>
			<g>
				<path style="fill:#371A45;" d="M2745.591,2417.527c-1.113,0.729-3.633,2.493-5.518,3.959c-2.023,1.635-4.058,3.234-6.045,5.02
					c-2.035,1.683-3.965,3.531-5.87,5.42c-1.967,1.81-3.777,3.802-5.61,5.779c-7.272,7.931-13.978,16.54-19.514,25.935
					c-3.07,4.517-5.219,9.583-7.85,14.387c-2.336,4.956-4.448,10.054-6.53,15.165c-1.616,5.294-3.677,10.463-5.011,15.881
					c-1.2,5.453-2.938,10.802-3.815,16.375c-0.796,5.585-1.917,11.14-2.501,16.796c-0.374,5.686-0.792,11.383-1.304,17.104
					c-0.364,10.74,0.66,21.31,3.781,31.442c6.36,20.134,18.986,38.63,36.627,55.859l0.14,0.137c0.604,0.59,0.616,1.559,0.026,2.163
					c-0.364,0.374-0.883,0.519-1.361,0.438c-25.741-4.554-48.203-24.404-58.781-49.847c-5.402-12.65-8.182-26.373-9.059-39.91
					c-0.162-6.422-0.231-12.869-0.254-19.328c0.16-6.459,0.895-12.94,1.344-19.436c2.75-25.899,10.308-51.962,23.668-75.24
					c6.353-11.81,14.508-22.643,23.551-32.669c2.252-2.521,4.57-4.985,7.087-7.281c2.437-2.363,4.924-4.682,7.584-6.861
					c2.544-2.268,5.354-4.337,8.146-6.406c3.016-2.117,5.472-3.852,9.59-6.215c8.58-4.922,19.525-1.957,24.447,6.622
					c4.738,8.256,2.17,18.702-5.674,23.865L2745.591,2417.527z"/>
			</g>
		</g>
		<g>
			<g>
				<path style="fill:#FFFFFF;" d="M2783.754,2390.229c0,0-87.676,21.45-120.408,105.268c0,0-34-2.311-40.454-40.847
					c-7.534-44.984,28.553-110.287,92.709-114.876C2764.281,2336.293,2783.754,2390.229,2783.754,2390.229z"/>
			</g>
		</g>
		<g style="opacity:0.35;">
			<g>
				<path style="fill:#371A45;" d="M2622.878,2454.631c6.458,38.571,40.454,40.858,40.454,40.858
					c32.74-83.824,120.42-105.262,120.42-105.262s-4.26-11.795-13.768-23.994c-25.707,5.614-68.823,20.25-101.312,58.072
					c-12.377,14.409-35.841,11.407-43.03-6.175c-0.086-0.21-0.17-0.421-0.254-0.634
					C2621.892,2430.277,2620.949,2443.104,2622.878,2454.631z"/>
			</g>
		</g>
		<g>
			<g>
				<path style="fill:#371A45;" d="M2674.973,2513.829l-12.815-0.872c-16.531-1.123-49.614-14.15-56.526-55.415
					c-4.88-29.138,5.107-63.786,26.069-90.422c20.913-26.572,50.266-42.483,82.651-44.8c61.211-4.302,84.883,59.255,85.862,61.968
					l6.614,18.313l-18.882,4.619c-1.448,0.371-79.539,20.989-108.301,94.644L2674.973,2513.829z M2719.934,2357.12
					c-1.011,0-2.039,0.037-3.083,0.112c-22.432,1.604-42.903,12.803-57.644,31.533c-14.829,18.845-22.31,43.572-19.055,62.996
					c2.073,12.38,8.018,18.94,13.521,22.409c27.7-55.598,77.031-82.502,105.063-93.872
					C2751.221,2369.469,2738.567,2357.12,2719.934,2357.12z"/>
			</g>
		</g>
		<g>
			<g>
				<path style="fill:#FFFFFF;" d="M1657.805,2074.351l331.169,96.606c115.667-143.429,255.419-471.593,255.419-471.593
					s38.705-1.39,82.389-21.124c32.651-14.755,68.081-39.781,92.211-82.12c7.714-13.41,14.262-28.614,19.195-45.792
					c48.482-168.32-148.766-293.495-315.921-244.206C1859.494,1383.667,1886.089,1764.126,1657.805,2074.351z"/>
			</g>
		</g>
		<g style="opacity:0.35;">
			<g>
				<path style="fill:#371A45;" d="M2152.54,1648.684c48.393,22.29,117.775,28.659,174.241,29.556
					c32.651-14.755,68.081-39.781,92.211-82.12c-92.48,4.575-326.82,3.409-356.062-122.394
					C2062.931,1473.725,2005.434,1580.916,2152.54,1648.684z"/>
			</g>
		</g>
		<g>
			<g>
				<path style="fill:#371A45;" d="M1652.99,2070.826c6.865-16.353,15.264-31.359,22.816-46.885
					c7.939-15.251,15.618-30.571,23.755-45.578c15.906-30.258,31.058-60.847,45.881-91.707
					c14.559-30.992,28.862-62.238,41.674-94.214c13.092-31.858,24.9-64.353,36.821-96.901
					c23.882-65.069,46.594-131.19,76.897-195.359c15.22-32.004,32.504-63.513,53.798-92.897
					c21.13-29.402,47.04-56.335,77.491-77.479l11.512-7.773c3.778-2.688,8.016-4.634,12.008-6.978l12.161-6.727
					c4.183-1.967,8.436-3.79,12.656-5.682c4.243-1.829,8.423-3.846,12.726-5.502l13.077-4.488c4.388-1.425,8.665-3.121,13.148-4.307
					l13.466-3.516c36.171-8.228,73.734-9.66,110.199-4.048c36.516,5.291,71.94,17.542,104.204,35.778
					c32.213,18.252,61.139,43.438,82.515,74.817c10.641,15.684,19.247,32.957,25.076,51.251c5.842,18.29,8.64,37.585,8.567,56.733
					c-0.063,19.169-3.051,38.151-8.151,56.336c-5.21,17.966-12.517,35.549-22.188,51.892c-19.261,32.8-48.046,59.892-80.942,77.923
					c-16.429,9.097-33.777,16.199-51.566,21.521c-8.906,2.632-17.924,4.835-27.059,6.58c-4.57,0.873-9.169,1.627-13.828,2.248
					c-4.79,0.632-9.049,1.124-14.686,1.416l15.863-10.9c-17.906,41.547-36.583,82.296-55.817,123.011
					c-19.238,40.663-39.095,81.051-59.937,121.003c-10.217,20.068-21.161,39.805-31.803,59.69
					c-10.978,19.729-21.256,39.859-32.738,59.412c-2.793,4.927-5.717,9.777-8.622,14.636c-3.002,4.823-6.221,9.513-9.353,14.253
					c-3.103,4.76-6.421,9.381-9.658,14.049l-4.897,6.972l-5.299,6.75c-7.201,8.91-14.515,17.677-22.61,25.883
					c-8.431,7.999-16.985,15.82-26.497,22.668c-2.778,2.001-6.654,1.37-8.655-1.409c-1.301-1.807-1.49-4.075-0.701-5.992
					l0.045-0.107c17.593-42.357,40.338-79.36,63.296-117.388c5.664-9.52,11.825-18.72,17.41-28.325
					c5.652-9.556,11.3-19.121,16.77-28.785c10.674-19.507,21.327-39.023,31.475-58.853c20.593-39.476,40.272-79.498,59.346-119.813
					c19.032-40.283,37.682-80.989,55.233-121.714l4.44-10.302l11.425-0.599c3.032-0.159,7.413-0.594,11.226-1.124
					c3.947-0.525,7.917-1.176,11.874-1.932c7.917-1.512,15.786-3.435,23.53-5.722c15.472-4.63,30.436-10.779,44.388-18.505
					c27.968-15.388,51.431-37.634,67.439-64.769c8.024-13.553,14.175-28.289,18.636-43.663c4.248-15.258,6.671-30.851,6.731-46.408
					c0.06-15.544-2.164-31.044-6.897-45.854c-4.73-14.807-11.743-28.933-20.586-41.966c-17.745-26.056-42.427-47.841-70.586-63.759
					c-28.167-15.912-59.485-26.812-91.714-31.45c-32.192-4.975-65.219-3.646-96.761,3.508l-11.732,3.067
					c-3.911,1.021-7.717,2.57-11.584,3.82l-11.565,3.942c-3.792,1.457-7.433,3.253-11.161,4.853l-11.112,4.955l-10.614,5.905
					c-3.483,2.058-7.217,3.704-10.505,6.083l-10.062,6.812c-26.631,18.489-49.675,42.236-69.041,69.19
					c-19.489,26.884-35.814,56.494-50.393,87.17c-29.081,61.508-51.672,126.989-75.598,192.259
					c-23.975,65.276-48.141,131.09-77.205,195.249c-14.889,31.918-31.775,62.991-50.479,92.95
					c-9.784,14.734-19.646,29.397-31.088,42.974c-10.89,13.917-23.271,26.768-36.251,38.907c-2.452,2.293-6.299,2.164-8.593-0.288
					c-1.686-1.803-2.063-4.361-1.168-6.5L1652.99,2070.826z"/>
			</g>
		</g>
		<g>
			<g>
				<path style="fill:#371A45;" d="M2065.502,1433.348c7.103,11.53,10.785,21.12,14.232,31.16
					c3.906,9.877,7.474,20.095,12.465,30.222c5.077,10.079,11.876,19.443,19.446,28.306c0.934,1.161,1.875,2.314,2.517,2.912
					c0.663,0.754,1.445,1.52,2.343,2.287c0.801,0.779,1.736,1.544,2.722,2.303c0.923,0.776,1.938,1.53,3.018,2.267
					c4.209,2.98,8.933,5.812,13.965,8.376c20.269,10.266,43.551,17.418,66.973,22.481c23.518,5.035,47.618,8.008,71.571,8.563
					c23.917,0.553,47.86-1.234,70.171-6.83c22.213-5.515,42.892-15.316,56.27-30.361c6.768-7.438,11.456-16.217,14.412-25.849
					c2.787-9.709,3.687-20.32,3.04-31.246c-0.341-5.466-1.057-11.01-2.081-16.566c-1.067-5.576-3.153-10.963-5.116-16.392
					c-2.03-5.413-3.203-11.085-3.833-17.164c-0.287-6.185,0.06-12.744,3.86-21.142l0.148-0.328
					c1.866-4.125,6.625-6.041,10.803-4.479c8.611,3.239,14.02,8.221,17.911,13.924c3.889,5.674,6.449,12.052,7.946,18.719
					c1.532,6.675,2.286,13.566,3.604,20.354c1.185,6.845,2.147,13.796,2.573,20.903c0.844,14.186-0.239,29.043-4.44,43.564
					c-4.33,14.462-11.855,28.38-22.067,39.601c-10.059,11.393-22.351,20.042-35.005,26.685
					c-12.737,6.552-25.968,11.286-39.258,14.567c-26.619,6.642-53.391,8.489-79.781,7.908c-26.416-0.623-52.534-3.853-78.271-9.355
					c-25.734-5.63-51.105-13.184-75.851-25.659c-6.183-3.163-12.321-6.775-18.386-11.073c-1.517-1.048-3.029-2.171-4.53-3.408
					c-1.503-1.171-2.999-2.404-4.481-3.799c-2.832-2.428-6.268-6.225-8.081-8.527c-8.812-10.281-16.621-21.534-24.307-33.168
					c-7.517-11.732-13.938-24.871-16.429-39.366c-2.445-14.312-1.851-30.431,10.427-43.661c2.395-2.581,6.428-2.732,9.009-0.337
					c0.425,0.394,0.784,0.833,1.077,1.302L2065.502,1433.348z"/>
			</g>
		</g>
		<g>
			<g>
				<path style="fill:#FFFFFF;" d="M2445.215,1511.147c0,0-137.666-11.333-159.757,30.545
					c-26.727,50.666,18.188,76.776,62.09,85.903c42.517,8.839,73.68,13.709,95.12-19.328
					C2471.936,1563.168,2445.215,1511.147,2445.215,1511.147z"/>
			</g>
		</g>
		<g style="opacity:0.35;">
			<g>
				<path style="fill:#371A45;" d="M2347.547,1627.604c42.517,8.835,73.688,13.679,95.126-19.33
					c16.325-25.161,15.204-52.474,11.033-71.714c-2.063,8.521-5.562,17.177-11.033,25.564c-21.438,33.01-52.608,28.166-95.126,19.33
					c-26.057-5.427-52.474-16.819-64.045-35.79C2261.121,1593.743,2304.805,1618.679,2347.547,1627.604z"/>
			</g>
		</g>
		<g>
			<g>
				<path style="fill:#371A45;" d="M2393.606,1651.624c-16.458,0-33.477-3.54-49.619-6.895
					c-22.849-4.751-63.435-17.505-78.525-49.543c-6.025-12.798-10.134-33.882,4.519-61.66
					c26.155-49.59,151.755-41.877,176.67-39.819l9.69,0.798l4.441,8.647c1.279,2.493,30.957,61.646-3.433,114.641
					C2440.242,1644.151,2417.52,1651.624,2393.606,1651.624z M2405.872,1527.073c-49.714,0-96.992,7.729-104.934,22.783
					c-6.448,12.222-7.695,22.17-3.811,30.415c6.201,13.164,26.382,24.451,53.984,30.19c46.548,9.68,63.22,9.324,76.877-11.721
					c16.948-26.118,10.142-56.313,5.139-70.891C2424.111,1527.332,2414.949,1527.073,2405.872,1527.073z"/>
			</g>
		</g>
		<g>
			<g>
				<path style="fill:#FFFFFF;" d="M1446.094,2303.712c0,0-122.726,185.141-214.496,276.742
					c-66.745,66.623-162.792,118.805-226.606,138.632c-96.814,30.08-109.789,318.171-22.663,407.237
					c64.24,65.671,226.096,88.351,241.094-131.522c0,0,375.99,3.635,486.531-145.519l0,0c27.893-30.945,31.811-76.661,9.59-111.901
					L1446.094,2303.712z"/>
			</g>
		</g>
		<g style="opacity:0.35;">
			<g>
				<path style="fill:#371A45;" d="M937.61,3037.631c9.597,36.507,24.443,67.992,44.715,88.712
					c64.225,65.66,226.086,88.309,241.111-131.544c0,0,375.974,3.633,486.528-145.537c15.832-17.536,23.905-39.871,23.905-62.296
					c0-0.171,0-0.343-0.001-0.514c-0.145-26.392-32.146-39.675-51.618-21.859c-2.616,2.394-5.092,4.843-7.313,7.303
					c-210.748,235.236-583.608,123.292-583.608,123.292c125.585,215.965-100.585,247.076-143.987,153.788
					C945.282,3044.549,940.66,3041.712,937.61,3037.631z"/>
			</g>
		</g>
		<g>
			<g>
				<path style="fill:#371A45;" d="M1090.156,3189.6c-46.816,0.002-92.756-22.217-120.652-50.735
					c-62.903-64.302-76.951-219.084-50.608-323.308c15.884-62.837,43.814-102.121,80.774-113.604
					c59.309-18.428,153.22-68.284,219.255-134.197c88.921-88.757,191.885-272.166,192.915-274.009
					c4.829-8.648,15.759-11.736,24.412-6.907c8.647,4.832,11.741,15.762,6.909,24.409c-4.302,7.7-106.414,189.595-198.889,281.902
					c-70.334,70.205-170.579,123.374-233.958,143.064c-23.694,7.363-44.336,39.485-56.633,88.132
					c-23.469,92.852-12.209,234.553,41.472,289.429c29.202,29.851,83.062,51.128,129.485,34.004
					c47.222-17.405,75.193-70.728,80.886-154.202l1.15-16.877l16.919,0.158c3.694,0.105,368.14,1.807,471.946-138.262l1.465-1.733
					c0.078-0.085,14.021-15.117,17.39-34.712c1.677-9.766,10.969-16.304,20.72-14.641c9.766,1.68,16.321,10.955,14.641,20.72
					c-4.763,27.705-21.592,47.703-25.996,52.542c-102.937,137.317-408.159,150.696-483.882,151.875
					c-11.88,112.063-61.917,153.719-102.832,168.799C1121.758,3187.083,1105.903,3189.598,1090.156,3189.6z"/>
			</g>
		</g>
		<g>
			<g>
				<path style="fill:#371A45;" d="M2186.201,1840.87c-0.403,0-0.811-0.017-1.223-0.054
					c-12.915-1.165-316.655-30.095-346.06-167.336c-1.555-7.268,3.071-14.419,10.337-15.977c7.297-1.55,14.421,3.071,15.977,10.337
					c20.977,97.903,239.668,138.711,322.166,146.174c7.4,0.669,12.856,7.212,12.188,14.612
					C2198.955,1835.613,2193.086,1840.87,2186.201,1840.87z"/>
			</g>
		</g>
		<g>
			<g>
				<path style="fill:#371A45;" d="M1343.657,3001.988c-0.674,0-1.355-0.051-2.043-0.156c-2.39-0.364-59.224-9.473-115.757-56.533
					c-51.802-43.123-113.047-127.6-110.625-285.151c0.112-7.432,6.05-13.479,13.66-13.245c7.429,0.112,13.359,6.228,13.245,13.659
					c-1.802,117.32,31.807,205.865,99.893,263.179c50.833,42.791,103.149,51.411,103.672,51.494
					c7.329,1.15,12.358,8.02,11.223,15.351C1355.896,2997.232,1350.181,3001.988,1343.657,3001.988z"/>
			</g>
		</g>
		<g>
			<g>
				<path style="fill:#371A45;" d="M1223.845,3009.794c-5.001,0.443-8.701,0.438-12.888,0.23c-4.069-0.211-8.081-0.643-12.058-1.296
					c-3.992-0.573-7.899-1.536-11.819-2.445c-3.854-1.16-7.745-2.206-11.517-3.608c-15.194-5.365-29.249-14.001-41.273-24.582
					c-11.979-10.59-22.318-22.975-29.364-36.854c-3.995-6.651-6.436-14.045-9.13-21.111c-1.5-3.469-2.026-7.324-2.969-10.956
					c-0.872-3.665-1.609-7.34-2.35-10.964c-0.238-1.165,0.514-2.302,1.678-2.54c0.87-0.178,1.725,0.197,2.201,0.883l0.166,0.241
					c4.205,6.083,7.64,12.336,11.813,18.046c4.5,5.515,8.177,11.379,13.225,16.147c8.966,10.356,19.742,18.521,30.817,25.367
					c11.133,6.879,23.231,11.685,35.558,15.478c3.116,0.848,6.235,1.688,9.325,2.615c3.17,0.608,6.288,1.501,9.446,2.134
					c3.17,0.587,6.317,1.308,9.474,1.774l8.821,1.452l1.954,0.321c8.153,1.342,13.676,9.039,12.334,17.192
					C1236.156,3004.2,1230.485,3009.205,1223.845,3009.794z"/>
			</g>
		</g>
		<g>
			<g>
				<path style="fill:#FFFFFF;" d="M2532.204,2494.643l-24.073-34.329c-11.716-16.708-28.282-29.413-47.456-36.396l-320.483-116.716
					c-5.294-1.898-19.839,66.533-21.692,71.843l32.127,83.957L2532.204,2494.643z"/>
			</g>
		</g>
		<g>
			<g>
				<path style="fill:#371A45;" d="M2523.083,2506.37c-0.479,0-0.959-0.02-1.445-0.059l-379.875-31.504l-36.572-95.566l1.506-4.319
					c0.33-1.06,1.694-6.765,2.9-11.802c13.655-57.058,17.051-63.073,24.009-66.836c3.34-1.804,7.28-2.117,10.806-0.847
					l320.54,116.736c21.689,7.898,40.159,22.063,53.413,40.962l18.579,26.496c3.823,5.452,4.141,12.427,0.828,18.201
					C2534.7,2503.189,2529.163,2506.37,2523.083,2506.37z M2516.472,2493.98c0,0,0,0.002,0.002,0.002L2516.472,2493.98z
					 M2159.492,2451.194l347.163,28.789l-8.76-12.493c-10.298-14.685-24.648-25.691-41.499-31.826l-310.361-113.03
					c-4.048,12.549-9.678,36.079-12.124,46.304c-1.03,4.302-1.748,7.292-2.285,9.436L2159.492,2451.194z"/>
			</g>
		</g>
		<g>
			<g>
				<path style="fill:#FFFFFF;" d="M1909.007,2715.117c51.801,37.988,133.966,97.548,135.849,94.543l71.535-127.462l158.453-282.373
					c1.031-1.839-85.304-64.718-134.638-92.615c-20.675-11.706-43.594,16.415-57.138,37.898l-100.193,158.005l-85.753,135.222
					C1880.528,2664.392,1885.73,2698.029,1909.007,2715.117z"/>
			</g>
		</g>
		<g style="opacity:0.35;">
			<g>
				<path style="fill:#371A45;" d="M1909.007,2715.117c51.801,37.988,133.966,97.548,135.849,94.543l71.535-127.462l40.006-164.105
					c0,0-80.999,54.627-144.775,11.033c-11.616-7.938-21.079-16.774-28.748-26.013l-85.753,135.222
					C1880.528,2664.392,1885.73,2698.029,1909.007,2715.117z"/>
			</g>
		</g>
		<g>
			<g>
				<path style="fill:#371A45;" d="M2044.663,2822.313c-7.068,0-23.14-9.185-143.032-97.122
					c-28.538-20.93-35.149-62.034-15.049-93.576l185.92-293.203c33.882-53.799,60.813-49.468,73.843-42.087
					c30.403,17.2,71.152,45.417,87.261,56.753c13.269,9.333,25.74,18.376,35.115,25.456c15.586,11.773,22.7,17.144,17.095,27.324
					l-230.337,410.41l-2.888,4.624l-5.522,1.128C2046.284,2822.171,2045.542,2822.313,2044.663,2822.313z M2044.878,2809.644h0.049
					H2044.878z M2130.098,2317.088c-9.019,0-22.705,12.837-36.462,34.68l-185.955,293.259c-13.059,20.493-9.214,46.838,8.735,60.002
					c78.535,57.605,110.5,79.575,123.491,87.927l219.092-390.398c-20.669-16.02-83.794-61.184-124.963-84.477
					C2132.854,2317.413,2131.533,2317.088,2130.098,2317.088z"/>
			</g>
		</g>
		<g>
			<g>
				<path style="fill:#FFFFFF;" d="M2048.669,2810.333l260.576,38.93c41.172,0.09,70.728-5.741,94.408-43.684l12.065-19.33
					l120.87-193.615c8.162-13.051,13.365-26.91,15.742-40.32c5.561-31.799-15.518-53.057-45.209-71.714l-217.924-79.608
					c-34.848-12.737-73.868,0.045-94.453,30.902l-22.739,37.09l-160.472,261.742
					C1991.8,2762.882,2011.354,2804.771,2048.669,2810.333z"/>
			</g>
		</g>
		<g style="opacity:0.35;">
			<g>
				<path style="fill:#371A45;" d="M2048.669,2810.333l260.576,38.93c41.172,0.09,70.728-5.741,94.408-43.684l12.065-19.33
					c-57.766,7.042-148.004,3.05-210.748-70.772c-59.919-70.414-50.142-174.779-32.964-246.493l-160.472,261.742
					C1991.8,2762.882,2011.354,2804.771,2048.669,2810.333z"/>
			</g>
		</g>
		<g>
			<g>
				<path style="fill:#371A45;" d="M2310.166,2861.781c-0.315,0-0.625,0-0.938,0l-1.824-0.137l-260.588-38.928
					c-21.692-3.24-40.176-17.043-49.443-36.921c-9.268-19.878-7.954-42.908,3.508-61.604l183.22-298.843
					c24.109-36.179,68.979-50.872,109.37-36.111l219.17,80.056l1.121,0.703c27.534,17.312,58.201,42.556,50.869,84.465
					c-2.681,15.332-8.706,30.818-17.427,44.785l-132.927,212.949C2385.881,2857.689,2347.329,2861.781,2310.166,2861.781z
					 M2261.519,2408.565c-22.166,0-43.464,10.904-56.36,30.249l-182.964,298.442c-7.173,11.697-7.961,25.539-2.163,37.973
					c5.798,12.437,16.907,20.732,30.476,22.759l259.675,38.792c39.333-0.02,63.025-6.001,82.888-37.823l132.927-212.951
					c7.031-11.265,11.875-23.66,14.009-35.852c3.774-21.584-7.375-38.533-38.445-58.293l-216.67-79.143
					C2277.214,2409.913,2269.312,2408.565,2261.519,2408.565z"/>
			</g>
		</g>
		<g>
			<g>
				<path style="fill:#22A7F0;" d="M2240.898,2630.132c-3.8,7.347-42.958,62.271-42.958,62.271s-15.434-7.982-34.386-17.783
					c-23.677-12.244-27.437-52.015-8.398-88.83c19.039-36.815,53.667-56.733,77.344-44.489
					c15.979,8.263,34.385,17.782,34.385,17.782S2247.088,2618.162,2240.898,2630.132z"/>
			</g>
		</g>
		<g>
			<g>
				<path style="fill:#22A7F0;" d="M2240.898,2630.132c-3.8,7.347-42.958,62.271-42.958,62.271s-15.434-7.982-34.386-17.783
					c-23.677-12.244-27.437-52.015-8.398-88.83c19.039-36.815,53.667-56.733,77.344-44.489
					c15.979,8.263,34.385,17.782,34.385,17.782S2247.088,2618.162,2240.898,2630.132z"/>
			</g>
		</g>
		<g style="opacity:0.35;">
			<g>
				<path style="fill:#371A45;" d="M2240.898,2630.132c-3.8,7.347-42.958,62.271-42.958,62.271s-15.434-7.982-34.386-17.783
					c-23.677-12.244-27.437-52.015-8.398-88.83c19.039-36.815,53.667-56.733,77.344-44.489
					c15.979,8.263,34.385,17.782,34.385,17.782S2247.088,2618.162,2240.898,2630.132z"/>
			</g>
		</g>
		<g>
			<g>
				<path style="fill:#371A45;" d="M2201.826,2708.485l-44.014-22.759c-30.266-15.654-36.309-62.073-13.76-105.676
					c10.295-19.909,25.142-36.152,41.804-45.735c18.418-10.596,37.021-12.058,52.385-4.116l43.899,22.702l-3.403,10.156
					c-2.058,6.14-20.291,60.349-26.736,72.815v0.002c-3.904,7.549-34.578,50.73-43.884,63.784L2201.826,2708.485z M2217.19,2550.177
					c-7.373,0-14.517,3.303-18.87,5.808c-12.373,7.117-24.06,20.073-32.061,35.549c-15.574,30.115-14.182,63.079,3.037,71.985
					l24.744,12.795c16.96-23.919,33.716-48.062,35.754-51.924c3.647-7.058,14.009-36.252,21.809-59.136l-24.846-12.849
					C2223.667,2550.806,2220.405,2550.177,2217.19,2550.177z M2240.898,2630.132h0.049H2240.898z"/>
			</g>
		</g>
		<g>
			<g>
				
					<ellipse transform="matrix(0.4594 -0.8883 0.8883 0.4594 -1124.2572 3416.0515)" style="fill:#22A7F0;" cx="2244.079" cy="2631.577" rx="75.046" ry="48.265"/>
			</g>
			<g>
				<path style="fill:#371A45;" d="M2224.98,2714.388c-7.361,0-14.502-1.626-21.116-5.046
					c-30.266-15.654-36.309-62.073-13.76-105.676c10.295-19.909,25.142-36.152,41.804-45.735
					c18.416-10.596,37.024-12.061,52.385-4.116c30.264,15.652,36.309,62.07,13.76,105.676l0,0
					C2280.432,2693.567,2251.311,2714.388,2224.98,2714.388z M2263.242,2573.792c-7.373,0-14.517,3.306-18.87,5.808
					c-12.373,7.117-24.058,20.073-32.061,35.549c-15.574,30.115-14.182,63.079,3.037,71.985
					c17.217,8.911,44.924-9.011,60.498-39.128l0,0c15.574-30.115,14.182-63.081-3.037-71.985
					C2269.719,2574.422,2266.458,2573.792,2263.242,2573.792z M2286.951,2653.748H2287H2286.951z"/>
			</g>
		</g>
		<g style="opacity:0.6;">
			<g>
				<path style="fill:#FFFFFF;" d="M2272.81,2576.021c-3.091-1.599-6.353-2.229-9.568-2.229c-7.373,0-14.517,3.303-18.87,5.808
					c-12.373,7.117-24.058,20.073-32.061,35.549c-1.128,2.18-2.139,4.375-3.088,6.574c7.897-13.94,18.708-25.544,30.149-32.123
					c4.353-2.505,11.497-5.808,18.87-5.808c3.215,0,6.477,0.63,9.568,2.229c15.973,8.262,18.301,37.224,6.125,65.411
					c0.645-1.137,1.309-2.259,1.912-3.426C2291.421,2617.891,2290.029,2584.927,2272.81,2576.021z"/>
			</g>
		</g>
		<g style="opacity:0.35;">
			<g>
				<path style="fill:#371A45;" d="M2239.607,2663.237c-23.678-12.244-27.438-52.015-8.398-88.83c0.32-0.62,0.68-1.196,1.01-1.806
					c-11.805,8.369-22.845,21.018-31.01,36.806c-19.039,36.815-15.28,76.586,8.398,88.83c23.278,12.038,57.107-7.052,76.334-42.683
					C2270.217,2666.699,2253.13,2670.23,2239.607,2663.237z"/>
			</g>
		</g>
		<g>
			<g>
				<g>
					<path style="fill:#FFFFFF;" d="M1572.861,2095.438c0,0,138.462,222.699,402.841,327.321
						c41.264,16.329,64.393,61.216,50.389,102.783c-7.389,21.93-24.201,39.456-59.087,39.399
						c-145.599-0.24-491.065-272.971-494.313-380.624C1469.655,2083.738,1572.861,2095.438,1572.861,2095.438z"/>
				</g>
			</g>
			<g style="opacity:0.35;">
				<g>
					<path style="fill:#371A45;" d="M1472.686,2184.333c3.248,107.655,348.711,380.368,494.306,380.621
						c34.914,0.042,51.708-17.466,59.101-39.392c7.222-21.464,4.573-43.811-5.427-62.665c-0.043,0.252-0.128,0.463-0.213,0.715
						c-7.393,21.927-24.23,39.476-59.101,39.434c-132.818-0.21-432-227.261-485.93-348.804
						C1473.37,2162.953,1472.344,2172.927,1472.686,2184.333z"/>
				</g>
			</g>
			<g>
				<g>
					<path style="fill:#371A45;" d="M1967.163,2582.442c-0.063,0-0.122,0-0.188,0c-83.989-0.139-215.857-79.5-311.257-153.721
						c-95.625-74.397-198.518-177.534-200.52-243.877c-1.038-34.417,8.831-61.436,29.331-80.305
						c35.122-32.329,88.066-26.741,90.303-26.49l8.418,0.952l4.468,7.188c1.36,2.18,138.843,219.158,394.424,320.298
						c50.728,20.073,77.319,74.822,60.535,124.644C2031.523,2564.224,2004.707,2582.44,1967.163,2582.442z M1563.103,2112.532
						c-12.715,0.02-38.101,2.214-54.998,17.876c-12.61,11.687-18.64,29.646-17.922,53.382
						c2.795,92.698,335.105,363.418,476.851,363.652c0.049,0,0.1,0,0.149,0c22.864,0,35.92-8.481,42.324-27.488
						c10.835-32.16-6.843-67.705-40.244-80.923C1727.515,2343.365,1590.852,2154.027,1563.103,2112.532z"/>
				</g>
			</g>
		</g>
		<g>
			<g>
				<path style="fill:#371A45;" d="M2238.911,2847.069c-2.19,0-4.407-0.557-6.438-1.729c-6.179-3.562-8.298-11.46-4.736-17.637
					l94.624-164.084c3.789-6.577,10.269-11.016,17.776-12.178l27.773-4.297l106.121-170.867c3.757-6.06,11.721-7.923,17.783-4.155
					c6.057,3.762,7.92,11.723,4.155,17.783l-106.34,171.221c-3.843,6.184-10.171,10.368-17.363,11.477l-27.749,4.295
					l-94.407,163.706C2247.72,2844.752,2243.376,2847.069,2238.911,2847.069z"/>
			</g>
		</g>
	</g>
</g>
</svg>
