<?xml version="1.0" encoding="utf-8"?>
<!-- Generator: Adobe Illustrator 27.5.0, SVG Export Plug-In . SVG Version: 6.00 Build 0)  -->
<svg version="1.1" xmlns="http://www.w3.org/2000/svg" xmlns:xlink="http://www.w3.org/1999/xlink" x="0px" y="0px"
	 viewBox="0 0 500 500" style="enable-background:new 0 0 500 500;" xml:space="preserve">
<g id="BACKGROUND">
	<rect style="fill:#B9E1E0;" width="500" height="500"/>
</g>
<g id="OBJECTS">
	<g>
		<path style="fill:#329164;" d="M76.878,305.716c-0.565-9.414-8.356-16.88-17.911-16.88c-6.373,0-11.957,3.327-15.146,8.33
			c-1.94-2.346-4.872-3.84-8.154-3.84c-4.679,0-8.642,3.042-10.036,7.254c-1.812-0.615-3.747-0.963-5.767-0.963
			c-4.401,0-8.427,1.587-11.551,4.214c-2.407-1.682-5.244-2.782-8.313-3.118v35.696c3.632-0.396,6.939-1.866,9.592-4.096
			c2.912,2.035,6.449,3.237,10.271,3.237c4.12,0,7.903-1.401,10.934-3.733c2.754,6.389,9.103,10.864,16.502,10.864
			c4.975,0,9.477-2.023,12.73-5.291c2.653,1.545,5.728,2.445,9.02,2.445c9.923,0,17.966-8.044,17.966-17.966
			C87.016,314.756,82.873,308.628,76.878,305.716z"/>
	</g>
	<g>
		<path style="fill:#329164;" d="M485.118,290.151c-6.373,0-11.957,3.327-15.146,8.33c-1.94-2.345-4.872-3.84-8.154-3.84
			c-4.679,0-8.642,3.042-10.036,7.254c-1.812-0.615-3.747-0.963-5.767-0.963c-4.4,0-8.427,1.587-11.55,4.214
			c-2.912-2.035-6.449-3.237-10.271-3.237c-9.922,0-17.966,8.044-17.966,17.966s8.044,17.966,17.966,17.966
			c4.401,0,8.427-1.587,11.551-4.214c2.912,2.035,6.449,3.237,10.271,3.237c4.12,0,7.904-1.401,10.934-3.733
			c2.754,6.389,9.103,10.864,16.502,10.864c4.975,0,9.477-2.023,12.73-5.291c2.653,1.545,5.728,2.446,9.02,2.446
			c1.748,0,3.433-0.262,5.031-0.728v-41.959C497.047,293.471,491.481,290.151,485.118,290.151z"/>
	</g>
	<g>
		<rect x="75.902" y="116.714" style="fill:#D1484A;" width="136.262" height="83.355"/>
		<rect x="76.142" y="250.464" style="fill:#DA4B4D;" width="153.033" height="76.517"/>
		<polygon style="fill:#675862;" points="63.499,118.714 224.567,118.714 143.16,40.8 		"/>
		<polygon style="fill:#675862;" points="76.215,200.069 48.963,238.152 238.389,238.152 212.478,200.069 		"/>
		<polygon style="fill:#675862;" points="280.431,166.811 249.746,226.091 463.034,226.091 433.858,166.811 		"/>
		<rect x="294.861" y="225.88" style="fill:#DA4B4D;" width="153.732" height="101.789"/>
		<rect x="326.938" y="259.887" style="fill:#F2F2F2;" width="89.576" height="67.782"/>
		<g>
			<rect x="96.299" y="146.6" style="fill:#FFFFFF;" width="31.573" height="40.487"/>
			<rect x="98.762" y="149.011" style="fill:#4699A1;" width="26.646" height="35.29"/>
			<g>
				<g>
					<g>
						<polygon style="fill:#6CC6C3;" points="125.408,149.011 120.069,149.011 98.762,172.152 98.762,183.926 102.37,183.926 
							125.408,158.903 						"/>
					</g>
				</g>
			</g>
			<rect x="110.65" y="148.132" style="fill:#FFFFFF;" width="2.87" height="37.06"/>
			<rect x="97.351" y="165.705" style="fill:#FFFFFF;" width="29.832" height="2.87"/>
			<rect x="93.211" y="183.926" style="fill:#FFFFFF;" width="37.75" height="3.837"/>
		</g>
		<g>
			<rect x="92.299" y="268.829" style="fill:#FFFFFF;" width="31.573" height="40.486"/>
			<rect x="94.762" y="271.24" style="fill:#4699A1;" width="26.646" height="35.29"/>
			<g>
				<g>
					<g>
						<polygon style="fill:#6CC6C3;" points="121.408,271.24 116.069,271.24 94.762,294.381 94.762,306.155 98.37,306.155 
							121.408,281.132 						"/>
					</g>
				</g>
			</g>
			<rect x="106.65" y="270.361" style="fill:#FFFFFF;" width="2.87" height="37.06"/>
			<rect x="93.351" y="287.934" style="fill:#FFFFFF;" width="29.832" height="2.87"/>
			<rect x="89.211" y="306.155" style="fill:#FFFFFF;" width="37.75" height="3.837"/>
		</g>
		<g>
			<rect x="159.603" y="146.08" style="fill:#FFFFFF;" width="31.573" height="40.486"/>
			<rect x="162.067" y="148.491" style="fill:#4699A1;" width="26.646" height="35.29"/>
			<g>
				<g>
					<g>
						<polygon style="fill:#6CC6C3;" points="188.713,148.491 183.373,148.491 162.067,171.632 162.067,183.406 165.674,183.406 
							188.713,158.383 						"/>
					</g>
				</g>
			</g>
			<rect x="173.955" y="147.612" style="fill:#FFFFFF;" width="2.87" height="37.06"/>
			<rect x="160.655" y="165.185" style="fill:#FFFFFF;" width="29.832" height="2.87"/>
			<rect x="156.515" y="183.406" style="fill:#FFFFFF;" width="37.75" height="3.837"/>
		</g>
		<g>
			<rect x="63.499" y="118.964" style="fill:#E8D8D2;" width="161.069" height="16"/>
			<rect x="63.499" y="127.464" style="fill:#FFFFFF;" width="161.069" height="3.5"/>
		</g>
		<g>
			<rect x="48.963" y="242.464" style="fill:#E8D8D2;" width="187.356" height="12"/>
			<rect x="48.963" y="246.964" style="fill:#FFFFFF;" width="174.882" height="3.5"/>
		</g>
		<rect x="63.499" y="118.714" style="fill:#463347;" width="161.069" height="4.375"/>
		<rect x="48.963" y="238.089" style="fill:#463347;" width="185.195" height="4.375"/>
		<g>
			<rect x="299.692" y="230.177" style="fill:#E8D8D2;" width="163.342" height="12"/>
			<rect x="299.692" y="234.677" style="fill:#FFFFFF;" width="163.294" height="3.5"/>
		</g>
		<rect x="299.692" y="225.802" style="fill:#463347;" width="163.342" height="4.375"/>
		<polygon style="fill:#FFFFFF;" points="149.075,254.479 140.304,263.292 131.408,254.479 		"/>
		<rect x="135.983" y="150.75" style="fill:#FF6C64;" width="7.171" height="3.309"/>
		<rect x="139.055" y="191.512" style="fill:#FF6C64;" width="7.171" height="3.309"/>
		<rect x="87.679" y="192.726" style="fill:#FF6C64;" width="7.172" height="3.309"/>
		<rect x="83.074" y="259.983" style="fill:#FF6C64;" width="7.172" height="3.309"/>
		<rect x="109.521" y="259.983" style="fill:#FF6C64;" width="7.172" height="3.309"/>
		<rect x="77.983" y="290.722" style="fill:#FF6C64;" width="7.172" height="3.309"/>
		<rect x="104.5" y="313.559" style="fill:#FF6C64;" width="7.171" height="3.309"/>
		<rect x="127.823" y="286.338" style="fill:#FF6C64;" width="7.171" height="3.309"/>
		<rect x="157.957" y="258.328" style="fill:#FF6C64;" width="7.171" height="3.309"/>
		<rect x="197.902" y="301.803" style="fill:#FF6C64;" width="5.586" height="3.309"/>
		<rect x="200.578" y="278.969" style="fill:#FF6C64;" width="5.586" height="3.309"/>
		<rect x="194.756" y="266.202" style="fill:#FF6C64;" width="5.586" height="3.309"/>
		<rect x="80.508" y="171.997" style="fill:#FF6C64;" width="7.172" height="3.309"/>
		<rect x="109.935" y="139.214" style="fill:#FF6C64;" width="7.171" height="3.309"/>
		<rect x="75.902" y="142.059" style="fill:#FF6C64;" width="7.172" height="3.309"/>
		<rect x="166.302" y="192.726" style="fill:#FF6C64;" width="7.171" height="3.309"/>
		<rect x="197.983" y="140.868" style="fill:#FF6C64;" width="7.171" height="3.309"/>
		<rect x="139.255" y="166.401" style="fill:#FF6C64;" width="7.172" height="3.309"/>
		<rect x="309.437" y="251.17" style="fill:#FF6C64;" width="7.172" height="3.309"/>
		<rect x="431.942" y="264.547" style="fill:#FF6C64;" width="7.172" height="3.309"/>
		<rect x="313.022" y="292.124" style="fill:#FF6C64;" width="7.171" height="3.309"/>
		<rect x="416.515" y="251.535" style="fill:#FF6C64;" width="7.172" height="3.309"/>
		<rect x="370.316" y="251.535" style="fill:#FF6C64;" width="7.172" height="3.309"/>
		<rect x="428.978" y="295.433" style="fill:#FF6C64;" width="7.171" height="3.309"/>
		<rect x="311.733" y="313.309" style="fill:#FF6C64;" width="7.171" height="3.309"/>
		<g>
			<g>
				<g>
					<rect x="206.164" y="170.214" style="fill:#FF6C64;" width="93.527" height="157.455"/>
				</g>
			</g>
		</g>
		<g>
			<g>
				<g>
					<polygon style="fill:#675862;" points="188.23,171.964 314.421,171.964 250.641,98.437 					"/>
				</g>
			</g>
		</g>
		<g>
			<rect x="230.173" y="201.454" style="fill:#FFFFFF;" width="45.374" height="40.487"/>
			<rect x="233.714" y="203.864" style="fill:#4699A1;" width="38.292" height="35.29"/>
			<g>
				<g>
					<g>
						<polygon style="fill:#6CC6C3;" points="272.007,203.864 262.215,203.864 233.714,234.819 233.714,239.154 244.171,239.154 
							272.007,208.921 						"/>
					</g>
				</g>
			</g>
			<rect x="251.425" y="203.167" style="fill:#FFFFFF;" width="2.87" height="37.06"/>
			<rect x="231.686" y="220.559" style="fill:#FFFFFF;" width="42.872" height="2.87"/>
			<rect x="225.735" y="238.779" style="fill:#FFFFFF;" width="54.25" height="3.837"/>
		</g>
		<g>
			<polygon style="fill:#463347;" points="324.43,180.363 368.851,180.363 346.399,155.047 			"/>
			<rect x="324.439" y="180.363" style="fill:#E8D8D2;" width="44.375" height="36.467"/>
			<g>
				<rect x="330.758" y="184.373" style="fill:#FFFFFF;" width="31.965" height="28.522"/>
				<rect x="333.252" y="186.071" style="fill:#4699A1;" width="26.976" height="24.861"/>
				<g>
					<g>
						<g>
							<polygon style="fill:#6CC6C3;" points="360.229,186.071 353.33,186.071 333.252,207.879 333.252,210.933 340.619,210.933 
								360.229,189.634 							"/>
						</g>
					</g>
				</g>
				<rect x="345.729" y="185.58" style="fill:#FFFFFF;" width="2.022" height="26.108"/>
				<rect x="331.823" y="197.832" style="fill:#FFFFFF;" width="30.202" height="2.022"/>
			</g>
		</g>
		<g>
			<polygon style="fill:#463347;" points="387.558,180.363 431.979,180.363 409.527,155.047 			"/>
			<rect x="387.568" y="180.363" style="fill:#E8D8D2;" width="44.375" height="36.467"/>
			<g>
				<rect x="393.886" y="184.373" style="fill:#FFFFFF;" width="31.965" height="28.522"/>
				<rect x="396.38" y="186.071" style="fill:#4699A1;" width="26.976" height="24.861"/>
				<g>
					<g>
						<g>
							<polygon style="fill:#6CC6C3;" points="423.357,186.071 416.458,186.071 396.38,207.879 396.38,210.933 403.747,210.933 
								423.357,189.634 							"/>
						</g>
					</g>
				</g>
				<rect x="408.858" y="185.58" style="fill:#FFFFFF;" width="2.022" height="26.108"/>
				<rect x="394.951" y="197.832" style="fill:#FFFFFF;" width="30.202" height="2.022"/>
			</g>
		</g>
		<g>
			<rect x="230.173" y="268.887" style="fill:#FFFFFF;" width="45.374" height="40.486"/>
			<rect x="233.714" y="271.298" style="fill:#4699A1;" width="38.292" height="35.29"/>
			<g>
				<g>
					<g>
						<polygon style="fill:#6CC6C3;" points="272.007,271.298 262.215,271.298 233.714,302.253 233.714,306.588 244.171,306.588 
							272.007,276.355 						"/>
					</g>
				</g>
			</g>
			<rect x="251.425" y="270.6" style="fill:#FFFFFF;" width="2.87" height="37.06"/>
			<rect x="231.686" y="287.992" style="fill:#FFFFFF;" width="42.872" height="2.87"/>
			<rect x="225.735" y="306.213" style="fill:#FFFFFF;" width="54.25" height="3.837"/>
		</g>
		<g>
			<rect x="188.23" y="171.964" style="fill:#E8D8D2;" width="126.19" height="15.375"/>
			<rect x="188.23" y="179.839" style="fill:#FFFFFF;" width="126.19" height="3.5"/>
		</g>
		<rect x="188.23" y="171.964" style="fill:#463347;" width="126.19" height="4.375"/>
		<polygon style="fill:#FFFFFF;" points="201.716,254.479 192.945,263.292 184.049,254.479 		"/>
		<rect x="138.079" y="254.464" style="fill:#FFFFFF;" width="4.325" height="72.517"/>
		<rect x="190.72" y="254.464" style="fill:#FFFFFF;" width="4.325" height="72.517"/>
		<g>
			<rect x="147.321" y="265.648" style="fill:#FFFFFF;" width="37.097" height="61.332"/>
			<g>
				<rect x="167.623" y="272.043" style="fill:#B89D98;" width="12.318" height="21.535"/>
				<rect x="167.623" y="299.051" style="fill:#B89D98;" width="12.318" height="21.535"/>
				<rect x="151.799" y="272.043" style="fill:#B89D98;" width="12.318" height="21.535"/>
				<rect x="151.799" y="299.051" style="fill:#B89D98;" width="12.318" height="21.535"/>
			</g>
		</g>
		<g>
			<g>
				<path style="fill:#594C55;" d="M136.894,65.047c2.577,0,4.667-2.089,4.667-4.667h-9.333
					C132.227,62.958,134.316,65.047,136.894,65.047z"/>
			</g>
		</g>
		<g>
			<g>
				<path style="fill:#594C55;" d="M146.227,65.047c2.577,0,4.667-2.089,4.667-4.667h-9.333
					C141.561,62.958,143.65,65.047,146.227,65.047z"/>
			</g>
		</g>
		<g>
			<g>
				<path style="fill:#594C55;" d="M162.957,215.705c2.577,0,4.667-2.089,4.667-4.667h-9.333
					C158.29,213.616,160.379,215.705,162.957,215.705z"/>
			</g>
		</g>
		<g>
			<g>
				<path style="fill:#594C55;" d="M172.29,215.705c2.577,0,4.667-2.089,4.667-4.667h-9.333
					C167.623,213.616,169.713,215.705,172.29,215.705z"/>
			</g>
		</g>
		<g>
			<g>
				<path style="fill:#594C55;" d="M123.872,213.002c2.577,0,4.667-2.089,4.667-4.667h-9.333
					C119.205,210.913,121.295,213.002,123.872,213.002z"/>
			</g>
		</g>
		<g>
			<g>
				<path style="fill:#594C55;" d="M136.486,227.989c2.577,0,4.667-2.089,4.667-4.667h-9.333
					C131.82,225.9,133.909,227.989,136.486,227.989z"/>
			</g>
		</g>
		<g>
			<g>
				<path style="fill:#594C55;" d="M145.82,227.989c2.577,0,4.667-2.089,4.667-4.667h-9.333
					C141.153,225.9,143.242,227.989,145.82,227.989z"/>
			</g>
		</g>
		<g>
			<g>
				<path style="fill:#594C55;" d="M84.544,228.424c2.577,0,4.667-2.089,4.667-4.667h-9.333
					C79.877,226.335,81.966,228.424,84.544,228.424z"/>
			</g>
		</g>
		<g>
			<g>
				<path style="fill:#594C55;" d="M93.877,228.424c2.577,0,4.667-2.089,4.667-4.667h-9.333
					C89.211,226.335,91.3,228.424,93.877,228.424z"/>
			</g>
		</g>
		<g>
			<g>
				<path style="fill:#594C55;" d="M245.079,125.422c2.577,0,4.667-2.089,4.667-4.667h-9.333
					C240.413,123.333,242.502,125.422,245.079,125.422z"/>
			</g>
		</g>
		<g>
			<g>
				<path style="fill:#594C55;" d="M254.413,125.422c2.577,0,4.667-2.089,4.667-4.667h-9.333
					C249.746,123.333,251.835,125.422,254.413,125.422z"/>
			</g>
		</g>
		<g>
			<g>
				<path style="fill:#594C55;" d="M278.564,146.047c2.577,0,4.667-2.089,4.667-4.667h-9.333
					C273.897,143.958,275.986,146.047,278.564,146.047z"/>
			</g>
		</g>
		<g>
			<g>
				<path style="fill:#594C55;" d="M192.882,230.323c2.577,0,4.667-2.089,4.667-4.667h-9.333
					C188.216,228.233,190.305,230.323,192.882,230.323z"/>
			</g>
		</g>
		<g>
			<g>
				<path style="fill:#594C55;" d="M94.851,210.669c2.577,0,4.667-2.089,4.667-4.667h-9.333
					C90.184,208.579,92.274,210.669,94.851,210.669z"/>
			</g>
		</g>
		<g>
			<g>
				<path style="fill:#594C55;" d="M441.897,223.069c2.577,0,4.667-2.089,4.667-4.667h-9.333
					C437.23,220.98,439.319,223.069,441.897,223.069z"/>
			</g>
		</g>
		<g>
			<g>
				<path style="fill:#594C55;" d="M451.23,223.069c2.577,0,4.667-2.089,4.667-4.667h-9.333
					C446.563,220.98,448.653,223.069,451.23,223.069z"/>
			</g>
		</g>
		<g>
			<g>
				<path style="fill:#594C55;" d="M379.73,207.194c2.577,0,4.667-2.089,4.667-4.667h-9.333
					C375.063,205.105,377.153,207.194,379.73,207.194z"/>
			</g>
		</g>
		<g>
			<g>
				<path style="fill:#594C55;" d="M314.421,204.861c2.577,0,4.667-2.089,4.667-4.667h-9.333
					C309.754,202.771,311.843,204.861,314.421,204.861z"/>
			</g>
		</g>
		<g>
			<g>
				<path style="fill:#594C55;" d="M309.754,219.861c2.577,0,4.667-2.089,4.667-4.667h-9.333
					C305.087,217.771,307.176,219.861,309.754,219.861z"/>
			</g>
		</g>
		<g>
			<g>
				<path style="fill:#594C55;" d="M378.569,177.236c2.577,0,4.667-2.089,4.667-4.667h-9.333
					C373.902,175.146,375.991,177.236,378.569,177.236z"/>
			</g>
		</g>
		<g>
			<g>
				<path style="fill:#594C55;" d="M322.271,174.297c2.577,0,4.667-2.089,4.667-4.667h-9.333
					C317.605,172.208,319.694,174.297,322.271,174.297z"/>
			</g>
		</g>
		<g>
			<g>
				<path style="fill:#594C55;" d="M283.23,165.533c2.577,0,4.667-2.089,4.667-4.667h-9.333
					C278.564,163.443,280.653,165.533,283.23,165.533z"/>
			</g>
		</g>
		<g>
			<g>
				<path style="fill:#594C55;" d="M212.164,160.725c2.577,0,4.667-2.089,4.667-4.667h-9.333
					C207.497,158.635,209.587,160.725,212.164,160.725z"/>
			</g>
		</g>
		<g>
			<g>
				<path style="fill:#594C55;" d="M177.602,93.509c2.577,0,4.667-2.089,4.667-4.667h-9.333
					C172.936,91.42,175.025,93.509,177.602,93.509z"/>
			</g>
		</g>
		<g>
			<g>
				<path style="fill:#594C55;" d="M194.852,107.124c2.577,0,4.667-2.089,4.667-4.667h-9.333
					C190.186,105.035,192.275,107.124,194.852,107.124z"/>
			</g>
		</g>
		<g>
			<g>
				<path style="fill:#594C55;" d="M116.102,110.624c2.577,0,4.667-2.089,4.667-4.667h-9.333
					C111.435,108.535,113.525,110.624,116.102,110.624z"/>
			</g>
		</g>
		<g>
			<g>
				<path style="fill:#594C55;" d="M116.102,90.124c2.577,0,4.667-2.089,4.667-4.667h-9.333
					C111.435,88.035,113.525,90.124,116.102,90.124z"/>
			</g>
		</g>
		<g>
			<g>
				<path style="fill:#594C55;" d="M106.769,110.624c2.577,0,4.667-2.089,4.667-4.667h-9.333
					C102.102,108.535,104.191,110.624,106.769,110.624z"/>
			</g>
		</g>
		<g>
			<path style="fill:#FFFFFF;" d="M156.971,104.791h-27.805V86.628c0,0,3.7-9.586,13.902-9.586c10.202,0,13.902,9.586,13.902,9.586
				V104.791z"/>
			<path style="fill:#4699A1;" d="M153.402,101.229h-20.667v-13.5c0,0,2.75-7.125,10.333-7.125c7.583,0,10.333,7.125,10.333,7.125
				V101.229z"/>
			<g>
				<g>
					<g>
						<path style="fill:#6CC6C3;" d="M153.402,87.729c0,0-1.941-4.982-7.021-6.607l-13.646,14.821v5.286h9.581l11.086-12.041V87.729
							z"/>
					</g>
				</g>
			</g>
		</g>
		<g>
			<path style="fill:#FFFFFF;" d="M265.228,160.474h-27.804v-18.163c0,0,3.7-9.586,13.902-9.586c10.202,0,13.902,9.586,13.902,9.586
				V160.474z"/>
			<path style="fill:#4699A1;" d="M261.659,156.913h-20.667v-13.5c0,0,2.75-7.125,10.333-7.125c7.583,0,10.333,7.125,10.333,7.125
				V156.913z"/>
			<g>
				<g>
					<g>
						<path style="fill:#6CC6C3;" d="M261.659,143.413c0,0-1.941-4.982-7.021-6.607l-13.646,14.821v5.286h9.581l11.086-12.041
							V143.413z"/>
					</g>
				</g>
			</g>
		</g>
		<rect x="210.983" y="196.848" style="fill:#E68883;" width="7.171" height="3.309"/>
		<rect x="278.311" y="254.464" style="fill:#E68883;" width="7.171" height="3.309"/>
		<rect x="249.983" y="258.233" style="fill:#E68883;" width="7.171" height="3.309"/>
		<rect x="285.483" y="213.54" style="fill:#E68883;" width="7.171" height="3.309"/>
		<rect x="220.902" y="251.535" style="fill:#E68883;" width="7.171" height="3.309"/>
		<rect x="252.86" y="192.003" style="fill:#E68883;" width="7.172" height="3.309"/>
		<rect x="217.316" y="275.12" style="fill:#E68883;" width="7.172" height="3.309"/>
		<rect x="283.571" y="290.863" style="fill:#E68883;" width="7.171" height="3.309"/>
		<rect x="252.86" y="319.714" style="fill:#E68883;" width="7.172" height="3.309"/>
		<rect x="212.164" y="288.722" style="fill:#E68883;" width="7.171" height="3.309"/>
		<g>
			<rect x="327.047" y="264.547" style="fill:#E8D8D2;" width="89.577" height="2.5"/>
			<rect x="327.047" y="272.553" style="fill:#E8D8D2;" width="89.577" height="2.5"/>
			<rect x="327.047" y="280.559" style="fill:#E8D8D2;" width="89.577" height="2.5"/>
			<rect x="327.047" y="288.565" style="fill:#E8D8D2;" width="89.577" height="2.5"/>
			<rect x="327.047" y="296.571" style="fill:#E8D8D2;" width="89.577" height="2.5"/>
			<rect x="327.047" y="304.577" style="fill:#E8D8D2;" width="89.577" height="2.5"/>
			<rect x="327.047" y="312.583" style="fill:#E8D8D2;" width="89.577" height="2.5"/>
			<rect x="327.047" y="320.589" style="fill:#E8D8D2;" width="89.577" height="2.5"/>
		</g>
	</g>
	<polygon style="fill:#FF6C64;" points="249.209,29.801 249.209,73.846 365.209,73.846 352.569,51.896 365.209,29.801 	"/>
	<text transform="matrix(1 0 0 1 260.0252 63.7842)" style="fill:#FFFFFF; font-family:'OpenSans-Semibold'; font-size:34px;">RENT</text>
	<rect x="249.209" y="73.776" style="fill:#FFFFFF;" width="2.927" height="26.619"/>
	<path style="fill:#FFFFFF;" d="M464.958,65.463c-1.114,0-2.165,0.262-3.1,0.725c-1.375-4.588-5.629-7.933-10.665-7.933
		c-0.783,0-1.548,0.082-2.286,0.236c-0.952-5.182-5.49-9.109-10.946-9.109c-5.879,0-10.691,4.557-11.102,10.332
		c-1.278-0.511-2.671-0.795-4.132-0.795c-3.486,0-6.598,1.604-8.639,4.114c-0.874-0.29-1.806-0.45-2.777-0.45
		c-4.858,0-8.796,3.938-8.796,8.795c0,4.858,3.938,8.795,8.796,8.795c1.693,0,3.274-0.479,4.616-1.308
		c1.882,1.455,4.24,2.322,6.801,2.322c2.605,0,4.999-0.896,6.896-2.396c1.575,4.237,5.654,7.256,10.439,7.256
		c4.142,0,7.754-2.265,9.672-5.622c0.479,0.062,0.966,0.098,1.461,0.098c3.299,0,6.262-1.435,8.3-3.715
		c1.281,1.605,3.252,2.634,5.465,2.634c3.86,0,6.989-3.128,6.989-6.989C471.947,68.592,468.818,65.463,464.958,65.463z"/>
	<path style="fill:#FFFFFF;" d="M76.529,49.608c-0.854,0-1.66,0.201-2.376,0.555c-1.054-3.517-4.314-6.08-8.174-6.08
		c-0.6,0-1.187,0.063-1.752,0.181c-0.73-3.971-4.208-6.981-8.389-6.981c-4.506,0-8.194,3.493-8.509,7.918
		c-0.979-0.392-2.047-0.61-3.167-0.61c-2.672,0-5.057,1.229-6.621,3.153c-0.669-0.222-1.384-0.345-2.129-0.345
		c-3.723,0-6.741,3.018-6.741,6.741s3.018,6.741,6.741,6.741c1.298,0,2.509-0.367,3.537-1.003c1.442,1.115,3.25,1.779,5.213,1.779
		c1.996,0,3.831-0.687,5.285-1.836c1.207,3.247,4.333,5.561,8,5.561c3.175,0,5.943-1.736,7.413-4.309
		c0.367,0.047,0.741,0.075,1.12,0.075c2.528,0,4.799-1.1,6.361-2.848c0.982,1.23,2.492,2.019,4.188,2.019
		c2.958,0,5.357-2.398,5.357-5.357C81.886,52.007,79.487,49.608,76.529,49.608z"/>
	<g>
		<g>
			
				<ellipse transform="matrix(0.0634 -0.998 0.998 0.0634 199.8823 456.3159)" style="fill:#FFFFFF;" cx="343.052" cy="121.667" rx="12.708" ry="12.707"/>
			<path style="fill:#FFFFFF;" d="M367.217,123.984c0,5.2-4.215,9.416-9.416,9.416c-5.2,0-9.415-4.216-9.415-9.416
				c0-5.2,4.215-9.415,9.415-9.415C363.002,114.569,367.217,118.785,367.217,123.984z"/>
			<path style="fill:#FFFFFF;" d="M335.021,125.791c0,4.792-3.884,8.677-8.676,8.677c-4.792,0-8.676-3.885-8.676-8.677
				c0-4.792,3.885-8.676,8.676-8.676C331.136,117.115,335.021,121,335.021,125.791z"/>
			<path style="fill:#FFFFFF;" d="M375.79,126.815c0,3.968-3.217,7.185-7.185,7.185c-3.968,0-7.185-3.217-7.185-7.185
				c0-3.968,3.217-7.185,7.185-7.185C372.573,119.631,375.79,122.848,375.79,126.815z"/>
			<path style="fill:#FFFFFF;" d="M321.929,126.666c0,2.764-2.241,5.005-5.006,5.005c-2.764,0-5.006-2.241-5.006-5.005
				c0-2.765,2.241-5.006,5.006-5.006C319.688,121.661,321.929,123.902,321.929,126.666z"/>
		</g>
	</g>
	<g>
		<rect x="0" y="420.667" style="fill:#73B973;" width="500" height="79.333"/>
		<rect x="0" y="326.267" style="fill:#73B973;" width="500" height="58.333"/>
		<rect x="0" y="365.333" style="fill:#6B534B;" width="500" height="55.333"/>
		<polygon style="fill:#6B534B;" points="199.803,366.208 131.441,366.208 143.752,326.267 180.85,326.267 		"/>
	</g>
	<g>
		<g>
			<g>
				<polygon style="fill:#FFFFFF;" points="207.276,365.333 199.919,365.333 199.919,323.966 203.638,320.213 207.276,323.966 				
					"/>
				<polygon style="fill:#FFFFFF;" points="225.369,365.333 218.013,365.333 218.013,323.966 221.731,320.213 225.369,323.966 				
					"/>
				<polygon style="fill:#FFFFFF;" points="243.463,365.333 236.106,365.333 236.106,323.966 239.825,320.213 243.463,323.966 				
					"/>
				<polygon style="fill:#FFFFFF;" points="279.65,365.333 272.294,365.333 272.294,323.966 276.012,320.213 279.65,323.966 				"/>
				<polygon style="fill:#FFFFFF;" points="315.838,365.333 308.481,365.333 308.481,323.966 312.199,320.213 315.838,323.966 				
					"/>
				<polygon style="fill:#FFFFFF;" points="261.557,365.333 254.2,365.333 254.2,323.966 257.919,320.213 261.557,323.966 				"/>
				<polygon style="fill:#FFFFFF;" points="297.744,365.333 290.387,365.333 290.387,323.966 294.106,320.213 297.744,323.966 				
					"/>
				<polygon style="fill:#FFFFFF;" points="333.931,365.333 326.574,365.333 326.574,323.966 330.293,320.213 333.931,323.966 				
					"/>
				<polygon style="fill:#FFFFFF;" points="352.025,365.333 344.668,365.333 344.668,323.966 348.387,320.213 352.025,323.966 				
					"/>
				<polygon style="fill:#FFFFFF;" points="370.118,365.333 362.762,365.333 362.762,323.966 366.48,320.213 370.118,323.966 				
					"/>
				<polygon style="fill:#FFFFFF;" points="406.306,365.333 398.949,365.333 398.949,323.966 402.668,320.213 406.306,323.966 				
					"/>
				<polygon style="fill:#FFFFFF;" points="388.212,365.333 380.855,365.333 380.855,323.966 384.574,320.213 388.212,323.966 				
					"/>
				<polygon style="fill:#FFFFFF;" points="424.399,365.333 417.042,365.333 417.042,323.966 420.761,320.213 424.399,323.966 				
					"/>
				<polygon style="fill:#FFFFFF;" points="442.493,365.333 435.136,365.333 435.136,323.966 438.855,320.213 442.493,323.966 				
					"/>
				<polygon style="fill:#FFFFFF;" points="460.586,365.333 453.23,365.333 453.23,323.966 456.948,320.213 460.586,323.966 				"/>
				<polygon style="fill:#FFFFFF;" points="478.106,365.333 470.749,365.333 470.749,323.966 474.468,320.213 478.106,323.966 				
					"/>
				<polygon style="fill:#FFFFFF;" points="496.199,365.333 488.842,365.333 488.842,323.966 492.561,320.213 496.199,323.966 				
					"/>
			</g>
			<rect x="199.919" y="351" style="fill:#FFFFFF;" width="300.081" height="3.5"/>
			<rect x="199.919" y="335" style="fill:#FFFFFF;" width="300.081" height="3.5"/>
		</g>
		<g>
			<g>
				<polygon style="fill:#FFFFFF;" points="22.879,365.333 15.522,365.333 15.522,323.966 19.241,320.213 22.879,323.966 				"/>
				<polygon style="fill:#FFFFFF;" points="40.972,365.333 33.616,365.333 33.616,323.966 37.334,320.213 40.972,323.966 				"/>
				<polygon style="fill:#FFFFFF;" points="77.16,365.333 69.803,365.333 69.803,323.966 73.522,320.213 77.16,323.966 				"/>
				<polygon style="fill:#FFFFFF;" points="59.066,365.333 51.709,365.333 51.709,323.966 55.428,320.213 59.066,323.966 				"/>
				<polygon style="fill:#FFFFFF;" points="95.253,365.333 87.897,365.333 87.897,323.966 91.615,320.213 95.253,323.966 				"/>
				<polygon style="fill:#FFFFFF;" points="113.347,365.333 105.99,365.333 105.99,323.966 109.709,320.213 113.347,323.966 				"/>
				<polygon style="fill:#FFFFFF;" points="131.441,365.333 124.084,365.333 124.084,323.966 127.802,320.213 131.441,323.966 				
					"/>
				<g>
					<polygon style="fill:#FFFFFF;" points="4.785,323.966 1.147,320.213 0,321.371 0,365.333 4.785,365.333 					"/>
				</g>
			</g>
			<rect y="351" style="fill:#FFFFFF;" width="131.441" height="3.5"/>
			<rect y="335" style="fill:#FFFFFF;" width="131.441" height="3.5"/>
		</g>
	</g>
	<path style="fill:#329164;" d="M122.925,467.641c0,0,1.098-4.236,3.652-7.002c2.555-2.768,7.307-7.914,7.307-7.914
		s-9.109,4.072-10.959,5.326c-1.85,1.256-4.262,2.893-4.262,2.893v-11.568l-4.109,7.762c0,0-0.607-5.885,0.76-11.568
		c1.367-5.682,4.414-14.764,4.414-14.764l-16.59,26.637l-4.566-12.938v12.33l-9.894-18.875l2.435,19.635
		c0,0-3.156-5.771-7.001-10.197c-3.846-4.428-10.96-9.895-10.96-9.895s4.172,6.539,6.393,14.004
		c2.221,7.463,2.131,9.438,2.131,9.438l-11.873-7.307l8.828,14.004h44.904"/>
	<path style="fill:#329164;" d="M415.884,482.031c0,0,1.098-4.236,3.652-7.002c2.555-2.768,7.307-7.914,7.307-7.914
		s-9.109,4.072-10.959,5.326c-1.85,1.256-4.262,2.893-4.262,2.893v-11.568l-4.109,7.762c0,0-0.607-5.885,0.76-11.568
		c1.367-5.682,4.414-14.764,4.414-14.764l-16.59,26.637l-4.566-12.938v12.33l-9.894-18.875l2.435,19.635
		c0,0-3.156-5.771-7.001-10.197c-3.846-4.428-10.96-9.895-10.96-9.895s4.172,6.539,6.393,14.004
		c2.221,7.463,2.131,9.438,2.131,9.438l-11.873-7.307l8.828,14.004h44.904"/>
	<path style="fill:#329164;" d="M261.288,457.503c0,0,0.796-3.07,2.647-5.075c1.852-2.006,5.296-5.736,5.296-5.736
		s-6.602,2.951-7.943,3.86c-1.341,0.91-3.089,2.096-3.089,2.096v-8.384l-2.978,5.625c0,0-0.44-4.265,0.551-8.384
		c0.991-4.118,3.199-10.7,3.199-10.7l-12.024,19.305l-3.31-9.377v8.936l-7.171-13.68l1.765,14.231c0,0-2.287-4.183-5.074-7.391
		c-2.787-3.209-7.943-7.171-7.943-7.171s3.024,4.739,4.633,10.15c1.609,5.409,1.544,6.84,1.544,6.84l-8.605-5.296l6.398,10.15
		h32.545"/>
</g>
<g id="DESIGNED_BY_FREEPIK">
	<g id="XMLID_76_">
		<g>
			<g id="XMLID_486_">
				<path id="XMLID_507_" style="fill:#FFFFFF;" d="M181.087,466.631c-0.246,0-0.435,0.084-0.567,0.255
					c-0.133,0.169-0.199,0.421-0.199,0.753v2.393c-0.304-0.332-0.617-0.579-0.937-0.739c-0.321-0.159-0.715-0.24-1.182-0.24
					c-0.807,0-1.458,0.283-1.953,0.849c-0.494,0.565-0.742,1.355-0.742,2.369c0,0.478,0.063,0.923,0.188,1.335
					c0.124,0.412,0.307,0.77,0.549,1.074c0.241,0.304,0.526,0.539,0.857,0.703c0.33,0.164,0.689,0.246,1.078,0.246
					c0.293,0,0.563-0.04,0.809-0.122c0.247-0.081,0.477-0.199,0.689-0.356c0.212-0.155,0.427-0.359,0.644-0.607v0.16
					c0,0.297,0.072,0.525,0.217,0.686c0.145,0.16,0.328,0.24,0.549,0.24c0.226,0,0.409-0.077,0.552-0.231
					c0.143-0.154,0.213-0.386,0.213-0.694v-7.146c0-0.306-0.066-0.534-0.199-0.69C181.521,466.709,181.332,466.631,181.087,466.631z
					 M180.021,473.471c-0.141,0.307-0.329,0.534-0.564,0.682c-0.236,0.149-0.496,0.224-0.781,0.224c-0.281,0-0.54-0.078-0.778-0.236
					c-0.237-0.154-0.424-0.387-0.561-0.696c-0.136-0.309-0.205-0.682-0.205-1.121c0-0.416,0.064-0.78,0.193-1.096
					c0.128-0.314,0.31-0.556,0.543-0.724c0.233-0.168,0.499-0.253,0.795-0.253c0.285,0,0.547,0.083,0.787,0.246
					c0.239,0.165,0.429,0.402,0.569,0.713c0.141,0.31,0.21,0.682,0.21,1.113C180.232,472.78,180.163,473.164,180.021,473.471z"/>
				<path id="XMLID_504_" style="fill:#FFFFFF;" d="M188.452,472.551c0.233-0.122,0.35-0.385,0.35-0.793
					c0-0.439-0.113-0.87-0.338-1.294c-0.225-0.423-0.564-0.769-1.019-1.035c-0.453-0.268-0.996-0.4-1.628-0.4
					c-0.487,0-0.93,0.078-1.33,0.234c-0.4,0.156-0.737,0.381-1.009,0.674c-0.273,0.293-0.48,0.644-0.623,1.054
					c-0.143,0.408-0.214,0.853-0.214,1.332c0,1.017,0.289,1.822,0.867,2.415c0.577,0.593,1.387,0.891,2.427,0.891
					c0.456,0,0.858-0.06,1.207-0.179c0.352-0.119,0.641-0.268,0.874-0.447c0.231-0.181,0.404-0.368,0.519-0.565
					c0.115-0.196,0.172-0.366,0.172-0.514c0-0.166-0.052-0.294-0.155-0.386c-0.103-0.09-0.237-0.137-0.403-0.137
					c-0.154,0-0.273,0.036-0.356,0.107c-0.202,0.189-0.366,0.34-0.492,0.451c-0.126,0.111-0.265,0.216-0.415,0.312
					c-0.15,0.098-0.305,0.168-0.466,0.215c-0.16,0.044-0.337,0.066-0.531,0.066c-0.289,0-0.553-0.069-0.792-0.213
					c-0.239-0.142-0.432-0.354-0.576-0.635c-0.145-0.281-0.219-0.605-0.222-0.974h3.168
					C187.89,472.731,188.219,472.671,188.452,472.551z M184.297,471.813c0.056-0.547,0.212-0.96,0.472-1.238
					c0.259-0.28,0.59-0.418,0.994-0.418c0.423,0,0.764,0.137,1.024,0.411c0.259,0.275,0.409,0.689,0.448,1.245H184.297z"/>
				<path id="XMLID_503_" style="fill:#FFFFFF;" d="M193.878,472.114c-0.319-0.17-0.729-0.316-1.231-0.439
					c-0.424-0.104-0.756-0.19-0.997-0.262c-0.242-0.069-0.434-0.16-0.576-0.27c-0.143-0.108-0.213-0.247-0.213-0.418
					c0-0.186,0.097-0.342,0.291-0.466c0.194-0.125,0.437-0.187,0.73-0.187c0.286,0,0.511,0.047,0.677,0.142
					c0.166,0.096,0.31,0.223,0.433,0.38c0.151,0.19,0.284,0.332,0.401,0.427c0.116,0.096,0.258,0.143,0.424,0.143
					c0.23,0,0.408-0.061,0.532-0.178c0.124-0.119,0.186-0.272,0.186-0.457c0-0.171-0.058-0.345-0.175-0.523
					c-0.116-0.178-0.286-0.34-0.51-0.485c-0.223-0.147-0.502-0.265-0.837-0.351c-0.333-0.088-0.71-0.131-1.13-0.131
					c-0.535,0-0.99,0.085-1.367,0.259c-0.378,0.172-0.665,0.402-0.858,0.69c-0.194,0.289-0.291,0.597-0.291,0.92
					c0,0.364,0.105,0.671,0.315,0.921c0.21,0.249,0.489,0.45,0.84,0.602c0.35,0.152,0.804,0.298,1.362,0.436
					c0.494,0.119,0.849,0.244,1.065,0.375c0.216,0.131,0.323,0.338,0.323,0.622c0,0.187-0.104,0.352-0.311,0.497
					c-0.208,0.144-0.474,0.216-0.798,0.216c-0.4,0-0.715-0.071-0.947-0.213c-0.232-0.144-0.431-0.357-0.597-0.647
					c-0.082-0.149-0.169-0.267-0.261-0.351c-0.091-0.082-0.221-0.124-0.39-0.124c-0.194,0-0.355,0.064-0.481,0.19
					c-0.128,0.126-0.19,0.277-0.19,0.456c0,0.27,0.099,0.537,0.296,0.805c0.198,0.267,0.505,0.489,0.92,0.667
					c0.415,0.179,0.914,0.267,1.495,0.267c0.609,0,1.127-0.082,1.552-0.246c0.425-0.164,0.747-0.405,0.964-0.725
					c0.218-0.318,0.327-0.701,0.327-1.148c0-0.297-0.082-0.561-0.246-0.792C194.438,472.485,194.197,472.283,193.878,472.114z"/>
				<path id="XMLID_502_" style="fill:#FFFFFF;" d="M196.486,469.04c-0.238,0-0.431,0.081-0.579,0.243
					c-0.149,0.162-0.222,0.404-0.222,0.724v4.636c0,0.316,0.073,0.559,0.222,0.73c0.148,0.17,0.341,0.255,0.579,0.255
					c0.238,0,0.433-0.083,0.588-0.249c0.154-0.166,0.232-0.412,0.232-0.736v-4.683c0-0.289-0.078-0.515-0.232-0.677
					C196.919,469.121,196.724,469.04,196.486,469.04z"/>
				<path id="XMLID_501_" style="fill:#FFFFFF;" d="M196.504,466.701c-0.217,0-0.409,0.073-0.573,0.223
					c-0.165,0.149-0.246,0.337-0.246,0.567c0,0.254,0.08,0.449,0.24,0.587c0.16,0.139,0.353,0.209,0.579,0.209
					c0.217,0,0.405-0.071,0.564-0.212c0.158-0.14,0.238-0.335,0.238-0.584c0-0.258-0.081-0.453-0.244-0.588
					C196.9,466.769,196.714,466.701,196.504,466.701z"/>
				<path id="XMLID_498_" style="fill:#FFFFFF;" d="M203.626,469.04c-0.217,0-0.396,0.077-0.535,0.232
					c-0.139,0.154-0.208,0.372-0.208,0.652v0.221c-0.289-0.376-0.602-0.652-0.938-0.829c-0.336-0.175-0.734-0.264-1.193-0.264
					c-0.384,0-0.736,0.068-1.056,0.204c-0.321,0.137-0.604,0.34-0.849,0.608c-0.245,0.269-0.433,0.6-0.566,0.992
					c-0.133,0.391-0.199,0.83-0.199,1.317c0,0.653,0.108,1.228,0.327,1.727c0.217,0.499,0.529,0.887,0.934,1.163
					c0.406,0.277,0.88,0.416,1.422,0.416c0.45,0,0.84-0.091,1.166-0.272c0.327-0.182,0.615-0.447,0.864-0.797
					c-0.008,0.531-0.02,0.916-0.036,1.155c-0.016,0.24-0.07,0.465-0.164,0.673c-0.093,0.21-0.255,0.374-0.486,0.49
					c-0.231,0.117-0.557,0.175-0.977,0.175c-0.205,0-0.387-0.018-0.545-0.056c-0.159-0.038-0.294-0.095-0.406-0.172
					c-0.112-0.078-0.216-0.17-0.309-0.279c-0.093-0.108-0.183-0.217-0.27-0.324c-0.178-0.209-0.386-0.314-0.624-0.314
					c-0.189,0-0.352,0.062-0.486,0.187c-0.135,0.124-0.202,0.285-0.202,0.483c0,0.262,0.119,0.516,0.357,0.763
					c0.238,0.248,0.576,0.449,1.014,0.605c0.439,0.156,0.938,0.234,1.496,0.234c0.609,0,1.119-0.061,1.528-0.184
					c0.409-0.122,0.741-0.312,0.994-0.563c0.253-0.254,0.438-0.574,0.551-0.961c0.115-0.39,0.173-0.852,0.173-1.39v-4.706
					c0-0.384-0.051-0.679-0.155-0.882C204.146,469.143,203.938,469.04,203.626,469.04z M202.6,473.405
					c-0.151,0.29-0.346,0.508-0.586,0.653c-0.239,0.143-0.493,0.217-0.762,0.217c-0.455,0-0.826-0.168-1.113-0.505
					c-0.287-0.337-0.43-0.834-0.43-1.49c0-0.648,0.139-1.149,0.418-1.501c0.279-0.352,0.649-0.529,1.113-0.529
					c0.475,0,0.857,0.185,1.148,0.554c0.291,0.367,0.436,0.882,0.436,1.542C202.825,472.762,202.749,473.114,202.6,473.405z"/>
				<path id="XMLID_497_" style="fill:#FFFFFF;" d="M210.978,470.107c-0.165-0.339-0.417-0.602-0.753-0.788
					c-0.337-0.186-0.718-0.279-1.146-0.279c-0.44,0-0.828,0.088-1.166,0.264c-0.339,0.177-0.651,0.452-0.935,0.828v-0.195
					c0-0.194-0.034-0.358-0.104-0.493c-0.07-0.134-0.162-0.234-0.276-0.303c-0.115-0.067-0.244-0.101-0.387-0.101
					c-0.233,0-0.417,0.076-0.552,0.228c-0.134,0.153-0.201,0.384-0.201,0.692v4.683c0,0.316,0.076,0.559,0.226,0.73
					c0.15,0.17,0.342,0.255,0.576,0.255c0.241,0,0.438-0.082,0.59-0.246c0.152-0.164,0.228-0.411,0.228-0.739v-2.03
					c0-0.66,0.04-1.111,0.119-1.353c0.11-0.3,0.284-0.537,0.522-0.71c0.237-0.173,0.5-0.258,0.788-0.258
					c0.444,0,0.74,0.142,0.888,0.425c0.148,0.282,0.223,0.691,0.223,1.226v2.7c0,0.316,0.074,0.559,0.226,0.73
					c0.15,0.17,0.346,0.255,0.587,0.255c0.238,0,0.431-0.083,0.579-0.249c0.148-0.166,0.223-0.412,0.223-0.736v-3.016
					c0-0.357-0.017-0.648-0.048-0.878C211.155,470.521,211.085,470.306,210.978,470.107z"/>
				<path id="XMLID_494_" style="fill:#FFFFFF;" d="M217.821,472.551c0.233-0.122,0.35-0.385,0.35-0.793
					c0-0.439-0.113-0.87-0.338-1.294c-0.226-0.423-0.565-0.769-1.019-1.035c-0.453-0.268-0.996-0.4-1.628-0.4
					c-0.487,0-0.93,0.078-1.33,0.234c-0.399,0.156-0.736,0.381-1.009,0.674c-0.274,0.293-0.481,0.644-0.624,1.054
					c-0.142,0.408-0.213,0.853-0.213,1.332c0,1.017,0.289,1.822,0.866,2.415c0.578,0.593,1.387,0.891,2.428,0.891
					c0.455,0,0.858-0.06,1.208-0.179c0.351-0.119,0.64-0.268,0.872-0.447c0.232-0.181,0.405-0.368,0.52-0.565
					s0.172-0.366,0.172-0.514c0-0.166-0.051-0.294-0.154-0.386c-0.103-0.09-0.238-0.137-0.404-0.137
					c-0.154,0-0.273,0.036-0.357,0.107c-0.201,0.189-0.366,0.34-0.492,0.451c-0.128,0.111-0.266,0.216-0.415,0.312
					c-0.151,0.098-0.307,0.168-0.466,0.215c-0.161,0.044-0.338,0.066-0.532,0.066c-0.288,0-0.553-0.069-0.792-0.213
					c-0.239-0.142-0.431-0.354-0.576-0.635c-0.145-0.281-0.218-0.605-0.223-0.974h3.169
					C217.26,472.731,217.588,472.671,217.821,472.551z M213.666,471.813c0.056-0.547,0.212-0.96,0.471-1.238
					c0.259-0.28,0.591-0.418,0.995-0.418c0.424,0,0.765,0.137,1.024,0.411c0.259,0.275,0.409,0.689,0.448,1.245H213.666z"/>
				<path id="XMLID_491_" style="fill:#FFFFFF;" d="M224.206,466.631c-0.245,0-0.434,0.084-0.567,0.255
					c-0.132,0.169-0.199,0.421-0.199,0.753v2.393c-0.304-0.332-0.617-0.579-0.938-0.739c-0.32-0.159-0.714-0.24-1.181-0.24
					c-0.808,0-1.458,0.283-1.953,0.849c-0.495,0.565-0.741,1.355-0.741,2.369c0,0.478,0.062,0.923,0.187,1.335
					c0.124,0.412,0.308,0.77,0.549,1.074c0.241,0.304,0.527,0.539,0.857,0.703c0.33,0.164,0.689,0.246,1.077,0.246
					c0.293,0,0.563-0.04,0.811-0.122c0.247-0.081,0.476-0.199,0.688-0.356c0.211-0.155,0.426-0.359,0.644-0.607v0.16
					c0,0.297,0.072,0.525,0.217,0.686c0.145,0.16,0.328,0.24,0.549,0.24c0.226,0,0.41-0.077,0.552-0.231
					c0.143-0.154,0.213-0.386,0.213-0.694v-7.146c0-0.306-0.065-0.534-0.199-0.69C224.641,466.709,224.452,466.631,224.206,466.631z
					 M223.141,473.471c-0.14,0.307-0.328,0.534-0.564,0.682c-0.235,0.149-0.495,0.224-0.781,0.224c-0.281,0-0.54-0.078-0.776-0.236
					c-0.238-0.154-0.425-0.387-0.562-0.696c-0.137-0.309-0.205-0.682-0.205-1.121c0-0.416,0.064-0.78,0.193-1.096
					c0.129-0.314,0.31-0.556,0.543-0.724c0.233-0.168,0.5-0.253,0.795-0.253c0.285,0,0.547,0.083,0.787,0.246
					c0.239,0.165,0.43,0.402,0.57,0.713c0.141,0.31,0.21,0.682,0.21,1.113C223.352,472.78,223.282,473.164,223.141,473.471z"/>
				<path id="XMLID_488_" style="fill:#FFFFFF;" d="M233.586,469.434c-0.406-0.254-0.877-0.382-1.415-0.382
					c-0.467,0-0.859,0.084-1.175,0.252c-0.317,0.168-0.627,0.411-0.932,0.728v-2.476c0-0.297-0.068-0.524-0.202-0.686
					c-0.135-0.159-0.326-0.239-0.576-0.239c-0.237,0-0.423,0.084-0.555,0.252c-0.133,0.168-0.198,0.416-0.198,0.744v7.075
					c0,0.305,0.068,0.535,0.205,0.692c0.136,0.156,0.319,0.233,0.549,0.233c0.226,0,0.412-0.077,0.558-0.233
					c0.146-0.157,0.22-0.388,0.22-0.692v-0.16c0.178,0.204,0.322,0.36,0.43,0.463c0.109,0.102,0.241,0.203,0.395,0.3
					c0.154,0.098,0.341,0.175,0.561,0.234c0.22,0.06,0.454,0.089,0.704,0.089c0.407,0,0.781-0.082,1.119-0.246
					c0.338-0.164,0.626-0.397,0.864-0.698c0.237-0.3,0.418-0.656,0.543-1.064c0.124-0.41,0.187-0.859,0.187-1.35
					c0-0.666-0.112-1.241-0.336-1.725C234.305,470.06,233.991,469.69,233.586,469.434z M232.796,473.845
					c-0.295,0.354-0.646,0.531-1.053,0.531c-0.479,0-0.866-0.174-1.161-0.521c-0.295-0.346-0.442-0.841-0.442-1.486
					c0-0.439,0.069-0.818,0.208-1.137c0.139-0.318,0.328-0.561,0.57-0.729c0.24-0.168,0.516-0.253,0.825-0.253
					c0.3,0,0.564,0.085,0.79,0.253c0.225,0.168,0.399,0.406,0.521,0.715c0.123,0.309,0.184,0.677,0.184,1.104
					C233.238,472.983,233.09,473.49,232.796,473.845z"/>
				<path id="XMLID_487_" style="fill:#FFFFFF;" d="M240.529,469.138c-0.112-0.065-0.23-0.098-0.353-0.098
					c-0.171,0-0.302,0.029-0.395,0.089c-0.093,0.059-0.181,0.174-0.264,0.344c-0.083,0.171-0.176,0.406-0.279,0.706l-1.3,3.71
					l-1.372-3.988c-0.091-0.277-0.195-0.489-0.314-0.638c-0.119-0.148-0.295-0.223-0.528-0.223c-0.135,0-0.265,0.035-0.389,0.107
					c-0.124,0.07-0.222,0.166-0.294,0.284c-0.071,0.118-0.107,0.247-0.107,0.386c0,0.13,0.062,0.341,0.185,0.628l1.994,5.021
					l-0.148,0.363c-0.111,0.265-0.209,0.465-0.294,0.601c-0.085,0.138-0.181,0.234-0.288,0.289c-0.106,0.056-0.254,0.083-0.44,0.083
					c-0.074,0-0.163-0.012-0.266-0.035c-0.083-0.024-0.168-0.036-0.256-0.036c-0.221,0-0.388,0.051-0.5,0.151
					c-0.113,0.101-0.169,0.245-0.169,0.431c0,0.272,0.119,0.461,0.356,0.564c0.237,0.103,0.593,0.153,1.068,0.153
					c0.487,0,0.873-0.073,1.161-0.223c0.287-0.147,0.517-0.361,0.691-0.638c0.174-0.277,0.353-0.659,0.535-1.146l2.113-5.531
					c0.051-0.143,0.095-0.283,0.13-0.421c0.037-0.14,0.061-0.246,0.078-0.321c0-0.123-0.032-0.239-0.093-0.35
					C240.729,469.291,240.642,469.203,240.529,469.138z"/>
			</g>
			<g id="XMLID_450_">
				<g id="XMLID_465_">
					<path id="XMLID_485_" style="fill:#FFFFFF;" d="M262.93,466.626c-0.533,0-0.954,0.068-1.26,0.204
						c-0.308,0.137-0.527,0.353-0.654,0.652c-0.13,0.301-0.191,0.702-0.191,1.211v0.486h-0.387c-0.543,0-0.815,0.192-0.815,0.582
						c0,0.175,0.066,0.316,0.196,0.424c0.132,0.111,0.315,0.164,0.559,0.164h0.446v4.293c0,0.319,0.074,0.563,0.228,0.73
						c0.154,0.17,0.344,0.254,0.573,0.254c0.243,0,0.439-0.084,0.589-0.254c0.155-0.168,0.23-0.411,0.23-0.73v-4.293h0.395
						c0.291,0,0.517-0.036,0.681-0.107c0.166-0.071,0.245-0.24,0.245-0.503c0-0.374-0.307-0.56-0.926-0.56h-0.395v-0.386
						c0-0.321,0.043-0.567,0.122-0.739c0.087-0.172,0.273-0.26,0.565-0.26c0.107,0,0.241,0.014,0.39,0.034
						c0.155,0.026,0.268,0.038,0.33,0.038c0.134,0,0.252-0.055,0.348-0.16c0.101-0.107,0.15-0.235,0.15-0.385
						C264.35,466.855,263.879,466.626,262.93,466.626z"/>
					<path id="XMLID_484_" style="fill:#FFFFFF;" d="M268.089,469.292c-0.32-0.171-0.647-0.256-0.99-0.256
						c-0.342,0-0.61,0.085-0.818,0.256c-0.202,0.171-0.4,0.421-0.593,0.755c-0.014-0.334-0.08-0.584-0.198-0.755
						c-0.119-0.171-0.313-0.256-0.583-0.256c-0.525,0-0.788,0.364-0.788,1.094v4.513c0,0.323,0.078,0.569,0.226,0.733
						c0.149,0.169,0.34,0.251,0.579,0.251c0.236,0,0.432-0.081,0.586-0.247c0.15-0.163,0.233-0.41,0.233-0.737v-1.355
						c0-0.486,0.014-0.899,0.045-1.238c0.033-0.337,0.089-0.631,0.17-0.878c0.084-0.243,0.201-0.426,0.353-0.554
						c0.149-0.122,0.345-0.186,0.582-0.186c0.172,0,0.374,0.036,0.602,0.107c0.227,0.073,0.371,0.112,0.433,0.112
						c0.158,0,0.305-0.063,0.441-0.194c0.135-0.126,0.204-0.292,0.204-0.488C268.571,469.69,268.411,469.463,268.089,469.292z"/>
					<path id="XMLID_481_" style="fill:#FFFFFF;" d="M274.176,472.549c0.232-0.122,0.351-0.386,0.351-0.791
						c0-0.44-0.112-0.87-0.339-1.296c-0.222-0.423-0.565-0.77-1.018-1.033c-0.453-0.271-0.997-0.403-1.629-0.403
						c-0.488,0-0.931,0.078-1.329,0.232c-0.401,0.156-0.735,0.381-1.008,0.675c-0.276,0.295-0.484,0.644-0.624,1.055
						c-0.145,0.41-0.218,0.854-0.218,1.333c0,1.017,0.292,1.823,0.87,2.418c0.576,0.593,1.385,0.889,2.429,0.889
						c0.453,0,0.857-0.061,1.207-0.179c0.349-0.117,0.64-0.269,0.874-0.446c0.232-0.183,0.404-0.368,0.522-0.567
						c0.111-0.194,0.167-0.365,0.167-0.512c0-0.167-0.048-0.294-0.152-0.386c-0.104-0.093-0.237-0.139-0.405-0.139
						c-0.152,0-0.271,0.038-0.355,0.108c-0.202,0.189-0.367,0.34-0.493,0.449c-0.128,0.113-0.264,0.217-0.415,0.313
						c-0.15,0.097-0.308,0.17-0.466,0.213c-0.16,0.048-0.336,0.069-0.531,0.069c-0.29,0-0.552-0.07-0.792-0.212
						c-0.241-0.145-0.432-0.356-0.578-0.636c-0.145-0.28-0.216-0.606-0.222-0.974h3.171
						C273.615,472.73,273.942,472.67,274.176,472.549z M270.021,471.809c0.055-0.545,0.213-0.956,0.472-1.236
						c0.26-0.279,0.592-0.417,0.995-0.417c0.426,0,0.764,0.136,1.024,0.412c0.261,0.273,0.407,0.688,0.446,1.241H270.021z"/>
					<path id="XMLID_478_" style="fill:#FFFFFF;" d="M280.916,472.549c0.232-0.122,0.352-0.386,0.352-0.791
						c0-0.44-0.116-0.87-0.341-1.296c-0.223-0.423-0.564-0.77-1.013-1.033c-0.46-0.271-1.003-0.403-1.634-0.403
						c-0.486,0-0.932,0.078-1.33,0.232c-0.4,0.156-0.736,0.381-1.009,0.675c-0.273,0.295-0.48,0.644-0.622,1.055
						c-0.145,0.41-0.217,0.854-0.217,1.333c0,1.017,0.29,1.823,0.867,2.418c0.58,0.593,1.387,0.889,2.43,0.889
						c0.453,0,0.859-0.061,1.208-0.179c0.347-0.117,0.641-0.269,0.872-0.446c0.234-0.183,0.408-0.368,0.518-0.567
						c0.116-0.194,0.171-0.365,0.171-0.512c0-0.167-0.047-0.294-0.15-0.386c-0.104-0.093-0.238-0.139-0.406-0.139
						c-0.151,0-0.271,0.038-0.355,0.108c-0.202,0.189-0.367,0.34-0.492,0.449c-0.128,0.113-0.264,0.217-0.415,0.313
						c-0.152,0.097-0.307,0.17-0.469,0.213c-0.157,0.048-0.335,0.069-0.527,0.069c-0.291,0-0.556-0.07-0.795-0.212
						c-0.238-0.145-0.431-0.356-0.575-0.636c-0.144-0.28-0.218-0.606-0.222-0.974h3.17
						C280.354,472.73,280.682,472.67,280.916,472.549z M276.762,471.809c0.053-0.545,0.211-0.956,0.47-1.236
						c0.26-0.279,0.592-0.417,0.995-0.417c0.425,0,0.764,0.136,1.026,0.412c0.257,0.273,0.407,0.688,0.446,1.241H276.762z"/>
					<path id="XMLID_475_" style="fill:#FFFFFF;" d="M286.927,469.434c-0.42-0.256-0.883-0.386-1.38-0.386
						c-0.414,0-0.789,0.09-1.113,0.267c-0.331,0.177-0.648,0.453-0.952,0.828v-0.195c0-0.296-0.071-0.519-0.218-0.677
						c-0.144-0.156-0.329-0.234-0.561-0.234c-0.232,0-0.418,0.078-0.553,0.228c-0.133,0.154-0.2,0.382-0.2,0.691v6.995
						c0,0.354,0.052,0.619,0.146,0.807c0.102,0.183,0.301,0.274,0.606,0.274c0.518,0,0.778-0.359,0.778-1.068v-2.434
						c0.286,0.358,0.586,0.635,0.9,0.816c0.313,0.188,0.704,0.28,1.165,0.28c0.386,0,0.742-0.076,1.08-0.228
						c0.334-0.152,0.622-0.372,0.868-0.653c0.245-0.283,0.44-0.632,0.58-1.05c0.14-0.419,0.21-0.878,0.21-1.376
						c0-0.677-0.122-1.261-0.366-1.758C287.675,470.068,287.346,469.692,286.927,469.434z M286.45,473.438
						c-0.137,0.311-0.32,0.546-0.552,0.704c-0.23,0.153-0.48,0.232-0.748,0.232c-0.454,0-0.828-0.179-1.133-0.536
						c-0.307-0.358-0.459-0.863-0.459-1.504c0-0.687,0.154-1.204,0.461-1.559c0.307-0.35,0.685-0.526,1.131-0.526
						c0.281,0,0.54,0.083,0.77,0.247c0.229,0.163,0.411,0.397,0.542,0.705c0.13,0.306,0.196,0.674,0.196,1.101
						C286.658,472.745,286.588,473.123,286.45,473.438z"/>
					<path id="XMLID_474_" style="fill:#FFFFFF;" d="M289.9,469.036c-0.238,0-0.428,0.08-0.58,0.245
						c-0.145,0.162-0.222,0.402-0.222,0.722v4.642c0,0.313,0.076,0.555,0.222,0.728c0.152,0.17,0.342,0.254,0.58,0.254
						c0.237,0,0.432-0.082,0.588-0.251c0.154-0.164,0.231-0.41,0.231-0.732v-4.688c0-0.286-0.077-0.513-0.231-0.675
						C290.332,469.116,290.138,469.036,289.9,469.036z"/>
					<path id="XMLID_473_" style="fill:#FFFFFF;" d="M289.917,466.696c-0.217,0-0.407,0.076-0.571,0.223
						c-0.166,0.149-0.247,0.339-0.247,0.568c0,0.253,0.08,0.446,0.242,0.586c0.158,0.138,0.35,0.209,0.576,0.209
						c0.22,0,0.408-0.071,0.566-0.21c0.157-0.14,0.236-0.335,0.236-0.585c0-0.257-0.082-0.454-0.244-0.591
						C290.314,466.764,290.13,466.696,289.917,466.696z"/>
					<path id="XMLID_472_" style="fill:#FFFFFF;" d="M297.258,474.066l-1.662-2.614l0.86-0.788c0.438-0.396,0.659-0.715,0.659-0.951
						c0-0.192-0.068-0.354-0.2-0.483c-0.138-0.128-0.306-0.193-0.509-0.193c-0.169,0-0.313,0.044-0.432,0.131
						c-0.121,0.086-0.29,0.251-0.517,0.486l-1.822,1.913v-3.933c0-0.329-0.074-0.582-0.221-0.751
						c-0.147-0.171-0.344-0.257-0.593-0.257c-0.256,0-0.457,0.093-0.596,0.283c-0.136,0.188-0.207,0.462-0.207,0.82v6.913
						c0,0.323,0.073,0.569,0.215,0.733c0.141,0.169,0.339,0.251,0.588,0.251c0.213,0,0.405-0.084,0.566-0.254
						c0.164-0.168,0.247-0.407,0.247-0.719v-1.29l0.88-0.83l1.428,2.352c0.182,0.278,0.329,0.472,0.436,0.58
						c0.106,0.109,0.261,0.16,0.458,0.16c0.227,0,0.413-0.073,0.554-0.222c0.142-0.151,0.214-0.351,0.214-0.609
						c0-0.089-0.029-0.189-0.082-0.288C297.47,474.406,297.379,474.262,297.258,474.066z"/>
					<path id="XMLID_471_" style="fill:#FFFFFF;" d="M299.449,473.84c-0.25,0-0.458,0.087-0.629,0.261
						c-0.171,0.174-0.257,0.382-0.257,0.623c0,0.286,0.091,0.51,0.268,0.665c0.18,0.159,0.39,0.238,0.634,0.238
						c0.237,0,0.444-0.079,0.624-0.241c0.174-0.157,0.264-0.38,0.264-0.662c0-0.243-0.09-0.454-0.264-0.626
						C299.909,473.927,299.698,473.84,299.449,473.84z"/>
					<path id="XMLID_470_" style="fill:#FFFFFF;" d="M306.835,472.913c-0.166,0-0.308,0.054-0.422,0.156
						c-0.113,0.104-0.219,0.245-0.318,0.427c-0.177,0.31-0.381,0.538-0.616,0.689c-0.23,0.15-0.509,0.225-0.834,0.225
						c-0.24,0-0.463-0.045-0.666-0.141c-0.201-0.094-0.372-0.229-0.516-0.409c-0.144-0.18-0.252-0.398-0.325-0.652
						c-0.075-0.256-0.114-0.537-0.114-0.842c0-0.647,0.146-1.161,0.439-1.533c0.293-0.375,0.682-0.561,1.158-0.561
						c0.333,0,0.606,0.074,0.82,0.226c0.219,0.148,0.424,0.375,0.623,0.674c0.108,0.158,0.209,0.27,0.299,0.339
						c0.09,0.068,0.201,0.104,0.338,0.104c0.202,0,0.377-0.068,0.524-0.203c0.143-0.135,0.214-0.3,0.214-0.491
						c0-0.192-0.062-0.397-0.192-0.617c-0.127-0.218-0.314-0.424-0.556-0.62c-0.245-0.192-0.54-0.353-0.891-0.475
						c-0.353-0.123-0.736-0.184-1.156-0.184c-0.674,0-1.26,0.139-1.747,0.418c-0.485,0.279-0.858,0.674-1.113,1.184
						c-0.259,0.511-0.387,1.098-0.387,1.765c0,0.981,0.281,1.765,0.841,2.35c0.563,0.582,1.345,0.876,2.349,0.876
						c0.469,0,0.894-0.065,1.269-0.192c0.377-0.125,0.688-0.294,0.935-0.502c0.248-0.207,0.434-0.425,0.553-0.656
						c0.122-0.229,0.183-0.445,0.183-0.646c0-0.169-0.067-0.331-0.199-0.482C307.198,472.99,307.033,472.913,306.835,472.913z"/>
					<path id="XMLID_467_" style="fill:#FFFFFF;" d="M313.646,469.949c-0.288-0.29-0.628-0.518-1.026-0.674
						c-0.4-0.161-0.847-0.239-1.336-0.239c-0.482,0-0.924,0.078-1.326,0.234c-0.398,0.158-0.737,0.38-1.02,0.669
						c-0.281,0.288-0.498,0.637-0.649,1.045c-0.146,0.408-0.224,0.857-0.224,1.349c0,0.485,0.076,0.93,0.22,1.332
						c0.151,0.401,0.368,0.75,0.656,1.048c0.285,0.292,0.627,0.521,1.017,0.676c0.393,0.159,0.835,0.239,1.326,0.239
						c0.492,0,0.937-0.08,1.336-0.234c0.394-0.157,0.735-0.382,1.02-0.675c0.286-0.291,0.501-0.642,0.656-1.05
						c0.146-0.408,0.222-0.854,0.222-1.336c0-0.488-0.075-0.932-0.221-1.339C314.148,470.593,313.934,470.246,313.646,469.949z
						 M312.455,473.865c-0.29,0.372-0.682,0.558-1.171,0.558c-0.324,0-0.604-0.086-0.846-0.253c-0.24-0.168-0.424-0.409-0.554-0.728
						c-0.13-0.316-0.193-0.685-0.193-1.108c0-0.429,0.066-0.803,0.197-1.124c0.131-0.321,0.314-0.564,0.556-0.728
						c0.242-0.163,0.521-0.246,0.84-0.246c0.489,0,0.881,0.183,1.171,0.555c0.289,0.368,0.436,0.882,0.436,1.543
						C312.891,472.983,312.744,473.496,312.455,473.865z"/>
					<path id="XMLID_466_" style="fill:#FFFFFF;" d="M323.569,469.31c-0.32-0.172-0.705-0.262-1.146-0.262
						c-0.381,0-0.726,0.081-1.038,0.241c-0.314,0.161-0.607,0.408-0.882,0.738c-0.191-0.326-0.431-0.572-0.725-0.735
						c-0.292-0.162-0.642-0.244-1.048-0.244c-0.395,0-0.748,0.079-1.07,0.241c-0.319,0.156-0.62,0.403-0.903,0.738v-0.153
						c0-0.262-0.073-0.467-0.222-0.616c-0.15-0.145-0.334-0.222-0.557-0.222c-0.226,0-0.412,0.078-0.556,0.239
						c-0.14,0.156-0.21,0.389-0.21,0.694v4.636c0,0.336,0.078,0.592,0.235,0.765c0.156,0.171,0.358,0.258,0.605,0.258
						c0.248,0,0.447-0.087,0.603-0.258c0.149-0.173,0.227-0.429,0.227-0.765v-2.189c0-0.683,0.086-1.206,0.253-1.566
						c0.169-0.369,0.517-0.55,1.048-0.55c0.264,0,0.459,0.071,0.582,0.22c0.121,0.142,0.197,0.33,0.226,0.552
						c0.027,0.226,0.04,0.544,0.04,0.952v2.581c0,0.342,0.078,0.594,0.232,0.767c0.148,0.17,0.35,0.255,0.595,0.255
						c0.254,0,0.454-0.085,0.61-0.255c0.156-0.174,0.23-0.426,0.23-0.767v-2.153c0-0.694,0.063-1.178,0.178-1.452
						c0.109-0.21,0.259-0.384,0.45-0.508c0.192-0.125,0.395-0.191,0.609-0.191c0.264,0,0.463,0.071,0.596,0.215
						c0.128,0.142,0.209,0.318,0.238,0.528c0.029,0.21,0.044,0.486,0.044,0.836v2.726c0,0.336,0.078,0.592,0.234,0.765
						c0.157,0.171,0.356,0.258,0.604,0.258c0.252,0,0.458-0.085,0.611-0.255c0.154-0.174,0.229-0.426,0.229-0.767v-3.163
						c0-0.629-0.068-1.091-0.206-1.386C324.128,469.734,323.889,469.484,323.569,469.31z"/>
				</g>
				<g id="XMLID_451_">
					<path id="XMLID_464_" style="fill:#FFFFFF;" d="M245.273,471.94c-0.001-0.003-0.001-0.006-0.001-0.011
						C245.272,471.935,245.272,471.938,245.273,471.94z"/>
					<path id="XMLID_463_" style="fill:#FFFFFF;" d="M245.355,472.458c0.001,0,0.001,0,0.001,0c-0.03-0.147-0.055-0.294-0.073-0.438
						C245.301,472.166,245.326,472.314,245.355,472.458z"/>
					<path id="XMLID_462_" style="fill:#FFFFFF;" d="M245.892,473.963c-0.004-0.007-0.007-0.014-0.011-0.021
						C245.885,473.949,245.888,473.956,245.892,473.963z"/>
					<path id="XMLID_461_" style="fill:#FFFFFF;" d="M245.84,473.862c-0.014-0.027-0.027-0.056-0.04-0.084
						C245.813,473.808,245.826,473.835,245.84,473.862z"/>
					<path id="XMLID_460_" style="fill:#FFFFFF;" d="M245.506,473.038c0.079,0.25,0.175,0.492,0.285,0.724
						c-0.113-0.236-0.206-0.479-0.284-0.724H245.506z"/>
					<path id="XMLID_459_" style="fill:#FFFFFF;" d="M250.736,465.178l-0.076-0.259c0.299-0.063,0.523-0.329,0.523-0.646
						c0-0.363-0.296-0.659-0.66-0.659c-0.365,0-0.66,0.296-0.66,0.659c0,0.317,0.225,0.583,0.522,0.646l0.084,0.289
						c-1.021,0.141-1.834,0.539-1.834,0.539l0.144,0.44c0.617-0.206,1.153-0.331,1.639-0.383c0.476-0.051,0.834-0.073,1.126-0.073
						c0.314,0,0.545,0.025,0.81,0.069l0.075-0.477C252.43,465.324,251.697,465.1,250.736,465.178z"/>
					<path id="XMLID_458_" style="fill:#FFFFFF;" d="M245.453,467.685c-0.017,0.024-0.497,0.466-0.876,1.28
						c-0.016-0.025-0.035-0.051-0.056-0.074c-0.114-0.124-0.273-0.188-0.474-0.185c-0.003,0-0.006,0-0.01,0
						c-0.125,0-0.21-0.041-0.266-0.092c0.056-0.07,0.089-0.16,0.089-0.258c0-0.23-0.188-0.419-0.419-0.419
						c-0.23,0-0.418,0.189-0.418,0.419c0,0.231,0.188,0.417,0.418,0.417c0.037,0,0.071-0.005,0.105-0.012
						c0.102,0.113,0.266,0.213,0.504,0.208c0.123-0.001,0.214,0.031,0.273,0.098c0.07,0.075,0.093,0.185,0.1,0.267
						c0,0.002,0,0.004-0.002,0.004c-0.272,0.743-0.194,1.668-0.194,1.668l0.661,0.025c0.014-0.336,0.062-0.926,0.232-1.393
						c0.329-0.906,0.741-1.473,0.758-1.496l0.003-0.005c0.024-0.031,0.047-0.061,0.071-0.089l-0.196-0.142L245.453,467.685z"/>
					<path id="XMLID_457_" style="fill:#FFFFFF;" d="M257.294,466.284c-0.23,0-0.419,0.186-0.419,0.417
						c0,0.037,0.006,0.071,0.015,0.103c-0.114,0.105-0.214,0.268-0.21,0.507c0.002,0.123-0.03,0.212-0.097,0.273
						c-0.053,0.047-0.119,0.072-0.185,0.088c-0.492-0.689-1.098-1.109-1.098-1.109l-0.474,0.509c0.358,0.326,0.725,0.733,1.08,1.243
						c0.246,0.352,0.499,0.807,0.71,1.259l0.64-0.304c0,0-0.292-0.722-0.703-1.369c0.071-0.025,0.143-0.064,0.206-0.12
						c0.125-0.113,0.188-0.272,0.184-0.474c-0.001-0.13,0.041-0.218,0.093-0.275c0.071,0.054,0.16,0.089,0.258,0.089
						c0.232,0,0.418-0.188,0.418-0.419C257.712,466.471,257.525,466.284,257.294,466.284z"/>
					<path id="XMLID_456_" style="fill:#FFFFFF;" d="M255.633,472.034c-0.88,0.429-2.33,0.996-4.236,1.262
						c-0.749,0.104-1.475,0.143-2.143,0.143c-0.869,0-1.637-0.065-2.227-0.14c-0.672-0.085-1.198-0.188-1.52-0.261
						c0.078,0.244,0.171,0.487,0.284,0.724c0.002,0.006,0.005,0.013,0.008,0.017c0.013,0.028,0.027,0.057,0.04,0.084
						c0.014,0.027,0.027,0.055,0.041,0.079c0.004,0.008,0.007,0.015,0.011,0.021c0.189,0.356,0.417,0.684,0.675,0.968
						c0.899,0.984,1.816,1.139,1.825,1.141l0.015,0.002l0.013,0.005c0.009,0.003,0.821,0.265,2.057,0.265
						c1.215,0,2.409-0.244,3.545-0.729c0.842-0.431,1.639-1.085,2.033-1.668c0.305-0.452,0.526-0.934,0.656-1.434
						c0.069-0.267,0.124-0.692,0.092-1.141C256.555,471.539,256.163,471.776,255.633,472.034z"/>
					<path id="XMLID_452_" style="fill:#FFFFFF;" d="M252.322,466.152c-0.265-0.044-0.477-0.068-0.777-0.068
						c-0.279,0-0.626,0.022-1.088,0.07c-0.465,0.049-0.982,0.171-1.583,0.373c-0.842,0.282-1.603,0.725-2.204,1.279l-0.02,0.02
						c-0.089,0.081-0.274,0.254-0.488,0.525c-0.025,0.037-0.408,0.578-0.709,1.407c-0.226,0.622-0.216,1.527-0.216,1.537v0.002
						c0,0.212,0.013,0.423,0.036,0.632c0,0.005,0,0.008,0.001,0.011c0.002,0.027,0.007,0.053,0.01,0.08
						c0.018,0.144,0.043,0.291,0.074,0.438c0.438,0.112,3.048,0.721,5.966,0.314c1.828-0.255,3.218-0.795,4.061-1.204
						c0.701-0.34,1.151-0.647,1.325-0.773c-0.174-0.643-0.651-1.65-1.089-2.279C254.367,466.726,253.016,466.267,252.322,466.152z
						 M248.679,471.41c-0.971,0-1.759-0.786-1.759-1.759c0-0.972,0.788-1.76,1.759-1.76c0.973,0,1.761,0.788,1.761,1.76
						C250.439,470.624,249.651,471.41,248.679,471.41z M253.828,470.113c-0.601,0-1.088-0.488-1.088-1.09
						c0-0.602,0.487-1.089,1.088-1.089s1.09,0.487,1.09,1.089C254.918,469.625,254.429,470.113,253.828,470.113z"/>
				</g>
			</g>
		</g>
	</g>
</g>
</svg>
