<?xml version="1.0" encoding="utf-8"?>
<!-- Generator: Adobe Illustrator 27.5.0, SVG Export Plug-In . SVG Version: 6.00 Build 0)  -->
<svg version="1.1" id="Layer_1" xmlns="http://www.w3.org/2000/svg" xmlns:xlink="http://www.w3.org/1999/xlink" x="0px" y="0px"
	 viewBox="0 0 4000 4000" style="enable-background:new 0 0 4000 4000;" xml:space="preserve">
<g>
	<g>
		<rect style="fill:#EADCDC;" width="4000" height="4000"/>
	</g>
	<g>
		<g>
			<ellipse style="fill:#C9B5B5;" cx="2069.833" cy="3304.561" rx="1350.583" ry="131.055"/>
		</g>
		<g>
			<g>
				<g>
					<path style="fill:#F7A500;" d="M1641.366,2417.16c0,0,91.39,122.977,236.922,149.53
						c161.509,29.468,272.341-77.655,272.341-77.655l-60.596-299.707l-116.425-14.298c0,0-67.404,113.021-89.192,125.277
						s-159.319-42.553-159.319-42.553L1641.366,2417.16z"/>
				</g>
				<g>
					<path style="fill:#E87400;" d="M2150.628,2489.035l-41.646-205.979c-30.014,64.482-90.514,171.496-165.333,182.017
						c-103.113,14.5-223.373-61.006-275.697-98.528l-26.587,50.616c0,0,91.39,122.977,236.922,149.53
						C2039.797,2596.158,2150.628,2489.035,2150.628,2489.035z"/>
				</g>
				<g>
					<path style="fill:#E83131;" d="M1884.416,2300.307L1884.416,2300.307c-21.788,12.254-159.319-42.553-159.319-42.553
						l-83.731,159.406c0,0,91.39,122.977,236.922,149.53c3.767,0.688,7.479,1.227,11.19,1.769
						C1943.675,2539.49,1973.227,2392.011,1884.416,2300.307z"/>
				</g>
				<g style="opacity:0.6;">
					<path style="fill:#FFFFFF;" d="M1973.607,2175.031c0,0-67.404,113.021-89.192,125.276
						c-21.787,12.256-159.319-42.553-159.319-42.553l-10.81,20.579c45.974,28.139,144.5,81.479,198.074,58.647
						c31.55-13.445,73.003-105.313,104.694-156.614L1973.607,2175.031z"/>
				</g>
				<g>
					<path style="fill:#A50000;" d="M1667.952,2366.545l-26.587,50.616c0,0,91.39,122.977,236.922,149.53
						c3.767,0.688,7.479,1.227,11.19,1.769c25.761-13.77,45.92-54.332,50.48-102.935
						C1837.681,2477.755,1719.654,2403.62,1667.952,2366.545z"/>
				</g>
				<g>
					<path style="fill:#3D1400;" d="M1935.133,2587.883c-19.016,0-38.943-1.66-59.717-5.449
						c-150.015-27.373-243.008-150.503-246.892-155.733l-6.001-8.071l95.11-181.069l13.386,5.332
						c58.789,23.418,130.874,46.001,146.133,43.101c12.212-8.408,52.102-67.837,82.712-119.155l5.342-8.96l138.223,16.977
						l64.619,319.595l-6.299,6.089C2157.572,2504.577,2069.61,2587.883,1935.133,2587.883z M1660.421,2415.29
						c22.441,26.626,104.053,114.37,220.737,135.659c130.02,23.735,226.787-46.997,251.948-67.847l-56.469-279.302l-94.668-11.621
						c-20.732,34.253-68.206,109.975-89.709,122.075c-21.943,12.354-96.223-11.719-159.67-36.357L1660.421,2415.29z
						 M1641.366,2417.16h0.049H1641.366z M1877.679,2285.871L1877.679,2285.871L1877.679,2285.871z"/>
				</g>
				<g>
					<path style="fill:#3D1400;" d="M1889.422,2584.504c-5.725,0-11.26-3.076-14.138-8.481c-4.153-7.803-1.196-17.49,6.604-21.641
						c18.801-10.01,34.749-40.61,40.625-77.954c9.646-61.289-8.894-122.964-49.592-164.985c-6.147-6.348-5.984-16.479,0.364-22.627
						c6.348-6.143,16.477-5.977,22.625,0.361c47.651,49.204,69.414,121.064,58.215,192.222
						c-7.612,48.374-28.994,86.216-57.197,101.226C1894.532,2583.903,1891.959,2584.504,1889.422,2584.504z"/>
				</g>
			</g>
			<g>
				<g>
					<path style="fill:#5CA6FF;" d="M957.777,3088.733v92.365c0,14.811,11.215,27.217,25.951,28.706l865.1,88.631h1528.694
						c23.689,0,42.894-19.204,42.894-42.894v-55.001c0-22.78-17.807-41.586-40.553-42.83l-1349.348-73.745L957.777,3088.733z"/>
				</g>
				<g>
					<path style="fill:#5CA6FF;" d="M957.777,3088.733v92.365c0,14.811,11.215,27.217,25.951,28.706l865.1,88.631h1528.694
						c23.689,0,42.894-19.204,42.894-42.894v-55.001c0-22.78-17.807-41.586-40.553-42.83l-1349.348-73.745L957.777,3088.733z"/>
				</g>
				<g style="opacity:0.5;">
					<path style="fill:#FFFFFF;" d="M1848.828,3209.084h1571.587v-8.543c0-18.801-12.142-34.865-29.166-40.613H1848.828V3209.084z"
						/>
				</g>
				<g>
					<path style="fill:#3D7BE0;" d="M3414.628,3179.106v35.607c0,18.813-15.252,34.065-34.065,34.065H1843.041l-865.1-88.631
						c-8.294-0.838-15.473-5.135-20.164-11.373v32.323c0,14.812,11.215,27.217,25.951,28.706l865.1,88.631h1528.694
						c23.689,0,42.894-19.204,42.894-42.894v-55.001C3420.416,3192.739,3418.288,3185.429,3414.628,3179.106z"/>
				</g>
				<g>
					<polygon style="fill:#FFFFFF;" points="1774.186,3167.07 2361.08,3160.508 1781.606,3085.072 1665.739,3085.586 
						1552.59,3086.089 					"/>
				</g>
				<g>
					<path style="fill:#3D7BE0;" d="M1848.828,3239.792v-79.865l-655.557-72.241l-235.494,1.047v92.365
						c0,14.812,11.215,27.217,25.951,28.706l865.1,88.631h146.566l-101.037-8.918
						C1868.59,3287.242,1848.828,3265.66,1848.828,3239.792z"/>
				</g>
				<g>
					<path style="fill:#3D1400;" d="M3377.523,3318.434H1847.806l-1.016-0.102l-865.1-88.628
						c-25.022-2.529-43.914-23.428-43.914-48.604v-112.28l1093.24-4.858l0.589,0.034l1349.348,73.745
						c33.342,1.816,59.463,29.404,59.463,62.798v55C3440.416,3290.221,3412.203,3318.434,3377.523,3318.434z M1849.852,3278.434
						h1527.671c12.625,0,22.893-10.268,22.893-22.895v-55c0-12.153-9.507-22.197-21.643-22.856l-1348.767-73.716l-1052.229,4.678
						v72.456c0,4.561,3.423,8.35,7.964,8.809L1849.852,3278.434z"/>
				</g>
				<g>
					<path style="fill:#3D1400;" d="M1925.267,3318.434h-20.857c-41.675,0-75.581-33.906-75.581-75.581v-102.949l1569.597,2.017
						c11.047,0.015,19.99,8.979,19.976,20.024c-0.015,11.04-8.967,19.976-20,19.976c-0.01,0-0.017,0-0.027,0l-1529.546-1.968v62.9
						c0,19.619,15.962,35.581,35.581,35.581h20.857c11.045,0,20,8.955,20,20C1945.267,3309.479,1936.312,3318.434,1925.267,3318.434
						z"/>
				</g>
				<g>
					<circle style="fill:#3D1400;" cx="2099.542" cy="3229.181" r="29.106"/>
				</g>
				<g>
					<path style="fill:#3D1400;" d="M2793.191,3249.278h-128.206c-5.358,0-9.702-4.344-9.702-9.702v-20.79
						c0-5.358,4.344-9.702,9.702-9.702h128.206c5.358,0,9.702,4.344,9.702,9.702v20.79
						C2802.894,3244.934,2798.55,3249.278,2793.191,3249.278z"/>
				</g>
				<g>
					<path style="fill:#3D1400;" d="M3004.139,3249.278h-128.206c-5.358,0-9.702-4.344-9.702-9.702v-20.79
						c0-5.358,4.344-9.702,9.702-9.702h128.206c5.358,0,9.702,4.344,9.702,9.702v20.79
						C3013.841,3244.934,3009.497,3249.278,3004.139,3249.278z"/>
				</g>
			</g>
			<g>
				<g>
					<path style="fill:#FFB6B6;" d="M2185.358,3011.037c-51.043,4.88-102.939,56.966-94.028,83.765
						c6.72,20.211,27.143,22.015,127.092,27.24c100.969,5.278,206.638-2.014,249.541-29.515
						C2357.267,3000.733,2185.358,3011.037,2185.358,3011.037z"/>
				</g>
				<g>
					<path style="fill:#E87474;" d="M2218.422,3122.043c100.969,5.278,206.639-2.015,249.541-29.516
						c-110.696-91.794-282.604-81.49-282.604-81.49c-14.531,1.389-29.125,6.611-42.372,13.979l50.875,63.206
						c0,0-75.28-5.974-100.546-13.235c-3.005,7.282-3.879,14.122-1.986,19.815
						C2098.051,3115.014,2118.473,3116.818,2218.422,3122.043z"/>
				</g>
				<g>
					<path style="fill:#3D1400;" d="M2277.279,3139.548c-25.481,0-46.873-0.854-59.692-1.528
						c-103.269-5.396-131.025-6.846-141.438-38.169c-4.282-12.876-1.03-28.154,9.407-44.18
						c17.654-27.109,57.083-56.621,98.281-60.562c0.188-0.019,0.376-0.034,0.566-0.044c7.275-0.439,179.529-9.59,293.772,85.146
						c3.931,3.257,6.069,8.198,5.757,13.291c-0.31,5.098-3.037,9.736-7.334,12.495
						C2432.852,3134.035,2341.927,3139.548,2277.279,3139.548z M2186.563,3026.994c-29.578,2.973-60.916,25.747-74.194,46.138
						c-5.959,9.155-6.436,14.873-5.854,16.621c3.252,9.78,30.205,11.997,112.742,16.313c92.422,4.819,173.125-1.675,217.644-16.777
						C2334.803,3020.724,2193.543,3026.662,2186.563,3026.994z"/>
				</g>
				<g>
					<g>
						<path style="fill:#FFFFFF;" d="M2170.927,3052.432c-20.901,18.338-42.279,63.067-42.279,63.067"/>
					</g>
					<g>
						<path style="fill:#3D1400;" d="M2172.246,3053.935c-11.907,14.493-19.433,32.036-26.441,49.297
							c-5.07,10.353-5.62,29.41-21.57,25.247c-7.523-2.299-10.797-11.654-6.413-18.154c11.04-16.641,22.798-32.297,36.751-46.524
							c4.675-4.648,9.574-9.118,15.035-12.871c0.917-0.63,2.17-0.398,2.8,0.518
							C2172.947,3052.228,2172.856,3053.261,2172.246,3053.935L2172.246,3053.935z"/>
					</g>
				</g>
				<g>
					<g>
						<path style="fill:#FFFFFF;" d="M2220.045,3061.647c-11.823,20.752-23.551,59.249-23.551,59.249"/>
					</g>
					<g>
						<path style="fill:#3D1400;" d="M2221.783,3062.636c-6.985,19.858-10.659,41.016-13.81,61.758
							c-2.567,15.812-25.858,12.649-24.083-3.299c1.659-6.655,5.79-12.403,8.613-18.467c7.744-14.491,15.754-28.903,25.804-41.973
							C2219.652,3058.826,2222.68,3060.56,2221.783,3062.636L2221.783,3062.636z"/>
					</g>
				</g>
			</g>
			<g>
				<g>
					<path style="fill:#A50000;" d="M3276.416,2361.924c0,0,72.738-62.809,127.319-35.745
						c33.702,45.277,24.974,120.314,80.681,139.092c68.085,22.95,96.34-72.006,120.34-85.475c0,0-98.213-261.63-367.659-291.915
						S3276.416,2361.924,3276.416,2361.924z"/>
				</g>
				<g>
					<path style="fill:#3D1400;" d="M3505.057,2484.889c-8.03,0-16.599-1.372-25.754-4.458
						c-41.946-14.136-53.989-53.721-64.617-88.643c-5.676-18.652-11.533-37.896-21.492-52.803
						c-36.694-14.512-88.835,20.024-106.338,35.063c-6.694,5.747-16.794,5-22.559-1.689c-5.762-6.689-5.022-16.772,1.66-22.544
						c3.298-2.847,81.504-69.395,144.883-37.974l3.438,1.704l2.29,3.076c14.705,19.756,21.836,43.188,28.733,65.85
						c9.592,31.528,17.876,58.755,44.224,67.636c33.555,11.323,54.526-15.093,78.445-50.801
						c10.325-15.41,18.481-27.588,28.958-33.467c7.705-4.312,17.458-1.582,21.782,6.128c4.324,7.705,1.582,17.456-6.123,21.782
						c-3.809,2.134-12.029,14.409-18.032,23.369C3576.89,2443.488,3549.154,2484.889,3505.057,2484.889z"/>
				</g>
				<g>
					<path style="fill:#3D1400;" d="M3403.748,2342.179c-5.125,0-10.156-2.456-13.252-7.012
						c-57.317-84.419-153.672-93.042-154.639-93.12c-8.794-0.703-15.378-8.394-14.695-17.188
						c0.681-8.799,8.313-15.342,17.134-14.722c4.561,0.347,112.461,9.531,178.674,107.051c4.963,7.314,3.062,17.261-4.25,22.227
						C3409.969,2341.286,3406.842,2342.179,3403.748,2342.179z"/>
				</g>
			</g>
			<g>
				<g>
					<path style="fill:#E87400;" d="M3227.224,2985.924c50.383,37.447,123.234,36.766,128.961,56.952
						c7.707,27.166-96.28,94.197-227.685,80.323c-131.539-13.888-35.404-162.466-35.404-162.466L3227.224,2985.924z"/>
				</g>
				<g>
					<path style="fill:#3D1400;" d="M3164.708,3141.11c-12.319,0-24.961-0.635-37.886-1.997
						c-38.293-4.043-63.892-19.033-76.082-44.551c-26.128-54.692,23.21-133.691,28.923-142.52
						c4.802-7.417,14.709-9.536,22.124-4.741c7.42,4.8,9.541,14.707,4.741,22.124c-12.798,19.854-42.595,78.589-26.902,111.372
						c7.08,14.785,24.087,23.696,50.554,26.489c116.262,12.285,199.846-40.068,209.583-59.473
						c-5.876-3.276-20.317-7.28-31.252-10.318c-27.527-7.636-61.785-17.138-90.83-38.73c-7.092-5.273-8.569-15.293-3.298-22.388
						c5.271-7.09,15.298-8.56,22.385-3.296c24.263,18.032,55.332,26.65,80.298,33.579c28.655,7.949,49.36,13.696,54.512,31.851
						c2.075,7.31,1.951,19.116-10.43,33.823C3335.135,3103.234,3259.918,3141.105,3164.708,3141.11z M3341.82,3049.264h0.051
						H3341.82z"/>
				</g>
			</g>
			<g>
				<g>
					<path style="fill:#F7A500;" d="M2108.416,2430.69c-92.596,119.489-181.106,551.149,228.766,663.489
						c100.766,35.404,727.132,61.961,804.085,43.951c115.064-26.93,287.319-218.93,252.596-506.93
						c-34.376-285.12-187.234-517.447-319.66-569.191C2941.777,2010.265,2108.416,2430.69,2108.416,2430.69z"/>
				</g>
				<g>
					<path style="fill:#E87400;" d="M3398.369,2704.893c-27.669,87.304-91.309,197.043-193.783,246.307
						c-190.744,91.7-425.34-10.893-353.216-200.241c-31.969,31.969-42.699,104.241-42.699,104.241s-553.354,67.419-770.211-64.209
						c24.081,127.858,106.714,250.561,298.722,303.188c100.766,35.404,727.132,61.961,804.085,43.951
						C3246.211,3113.569,3398.698,2951.677,3398.369,2704.893z"/>
				</g>
				<g style="opacity:0.6;">
					<path style="fill:#FFFFFF;" d="M2864.176,2918.254c3.113,2.422,6.506,4.411,10.208,5.855
						c33.981,13.257,79.499-22.059,101.668-78.882c22.169-56.823,12.594-113.634-21.387-126.892
						c-7.949-3.101-16.532-3.514-25.298-1.645c16.672-17.84,36.58-35.077,60.07-51.448c0,0-147.943,26.553-180.018,175.659
						l-91.004,83.507c19.02,97.805,174.001,218.791,286.341,196.323C2930.337,3068.762,2877.714,2995.719,2864.176,2918.254z"/>
				</g>
				<g>
					<path style="fill:#E87400;" d="M2990.882,2063.724l83.321,105.179c80.53,4.766,234.56,246.459,286.301,299.917
						c-60.852-207.766-180.135-365.327-286.301-406.81C3057.066,2055.313,3028.169,2056.54,2990.882,2063.724z"/>
				</g>
				<g>
					<path style="fill:#FFF9ED;" d="M2967.65,2670.671c0,0-3.234-54.351-52-142.79l-305.619-330.478
						c-249.113,105.903-501.615,233.286-501.615,233.286c-92.596,119.489-181.107,551.149,228.766,663.489
						c92.738,32.583,630.63,57.67,775.743,47.422c3.51-2.641,6.843-5.365,9.959-8.19
						C2710.894,3120.741,2749.777,2713.3,2967.65,2670.671z"/>
				</g>
				<g>
					<path style="fill:#EFBF8B;" d="M2837.571,2455.19c1.748-2.128,3.396-4.208,5.042-6.285l-232.582-251.5
						c-249.113,105.904-501.616,233.286-501.616,233.286c-10.359,13.368-20.661,30.667-30.226,50.965
						c77.407,197.541,167.49,293.467,198.701,293.194C2324.572,2774.433,2690.507,2634.243,2837.571,2455.19z"/>
				</g>
				<g>
					<path style="fill:#EFBF8B;" d="M2101.961,2833.691c37.214,104.276,121.286,197.546,282.136,241.633
						c75.275,26.448,443.837,47.956,657.576,49.638c-180.892-33.689-245.955-158.803-233.016-269.759
						C2808.175,2855.261,2351.104,2964.054,2101.961,2833.691z"/>
				</g>
				<g>
					<path style="fill:#3D1400;" d="M3021.676,3163.732c-211.816,0.005-610.588-23.071-690.427-50.44
						c-151.58-41.723-254.556-132.314-297.825-262.017c-56.712-169.995,1.79-358.774,59.184-432.837l2.766-3.569l4.033-2.036
						c2.087-1.055,211.399-106.479,434.209-204.204c457.393-200.61,525.488-173.984,547.864-165.249
						c134.976,52.739,296.152,286.138,332.239,585.43c20.308,168.447-28.43,291.001-72.893,364.146
						c-52.024,85.586-126.746,148.677-195.002,164.648C3127.738,3161.838,3082.374,3163.732,3021.676,3163.732z M2121.563,2446.467
						c-53.081,72.168-99.206,245.234-50.195,392.148c39.463,118.291,130.674,197.788,271.099,236.279l1.343,0.42
						c93.601,32.876,716.929,61.123,792.898,43.345c103.242-24.16,270.832-206.919,237.3-485.063
						c-33.84-280.659-185.747-505.547-307.083-552.959c-22.563-8.818-118.125-10.425-517.241,164.624
						C2345.098,2334.992,2151.988,2431.222,2121.563,2446.467z"/>
				</g>
				<g>
					<path style="fill:#3D1400;" d="M3183.002,3144.379c-100.552,30.23-226.749-2.684-305.608-69.693
						c-86.275-70.566-111.571-201.296-60.503-299.849c25.18-48.794,69.158-85.457,120.238-103.207
						c16.659-5.796,33.972-9.827,51.613-10.327c2.231-0.061,4.092,1.697,4.155,3.928c0.052,1.822-1.117,3.406-2.765,3.95
						c-38.905,14.346-73.501,35.666-102.287,64.089c-16.803,16.315-30.968,35.583-41.054,56.597
						c-26.237,55.543-24.727,125.725,0.701,181.045c48.167,100.501,171.552,147.453,278.137,142.873
						c15.678-0.983,31.147-3.171,45.326-7.545C3196.082,3099.236,3207.755,3135.511,3183.002,3144.379L3183.002,3144.379z"/>
				</g>
			</g>
			<g>
				<g>
					<path style="fill:#E83131;" d="M2066.203,2252.647c-25.872,110.979,21.447,181.787,24.511,195.404
						c31.319,123.234,140.936,256,189.958,265.192c16.73,3.137,538.118-122.894,686.979-496"/>
				</g>
				<g>
					<path style="fill:#A50000;" d="M2940.618,2218.305l-874.415,34.343c-5.73,24.581-7.859,47.181-7.685,67.635
						c122.942,97.733,454.555,83.981,454.555,83.981s-94.655,119.485-370.4,45.427c167.672,151.071,351.785,70.531,351.785,70.531
						s-202.894,121.872-238.44,108.255c-17.974-6.885-82.313-61.813-122.87-97.358c45.42,76.722,105.162,138,137.901,144.138
						C2287.181,2678.282,2772.472,2561.176,2940.618,2218.305z"/>
				</g>
				<g style="opacity:0.6;">
					<path style="fill:#FFFFFF;" d="M2134.288,2448.052c-2.378-13.754-50.383-84.426-24.51-195.404l857.144-33.665
						c0.236-0.584,0.495-1.154,0.729-1.74l-901.447,35.404c-25.872,110.979,21.447,181.787,24.51,195.404
						c31.319,123.234,140.936,256,189.958,265.191c2.129,0.399,12.467-1.307,29.135-5.335
						C2255.479,2693.839,2150.628,2542.577,2134.288,2448.052z"/>
				</g>
				<g>
					<path style="fill:#3D1400;" d="M2279.805,2733.107c-1.145,0-2.087-0.068-2.82-0.205
						c-60.371-11.323-173.091-151.787-205.657-279.922l-0.039-0.156c-0.459-1.348-2.156-5.103-3.528-8.14
						c-13.198-29.209-44.106-97.617-21.038-196.577c2.507-10.757,13.247-17.451,24.019-14.937
						c10.757,2.51,17.444,13.262,14.937,24.019c-19.993,85.757,7.007,145.508,18.535,171.025c2.957,6.548,4.939,10.933,5.93,15.098
						c30.2,118.55,133.684,239.463,172.424,249.863c21.472-2.5,151.743-35.684,291.995-109.36
						c130.034-68.311,300.564-188.643,374.509-373.984c4.094-10.259,15.728-15.259,25.989-11.162
						c10.259,4.092,15.256,15.728,11.165,25.986c-79.797,200.005-262.905,327.622-402.461,399.463
						C2445.843,2695.114,2306.781,2733.107,2279.805,2733.107z M2281.141,2693.307c-0.003,0-0.005,0-0.005,0
						S2281.138,2693.307,2281.141,2693.307z"/>
				</g>
				<g>
					<path style="fill:#3D1400;" d="M2216.018,2473.586c30.598,8.416,62.695,13.144,94.353,14.673
						c31.225,1.622,62.758-0.721,92.985-7.637c8.802-2.225,17.787,3.297,19.668,12.202c2.064,9.325-4.746,18.541-14.255,19.338
						c-33.717,3.439-67.49,1.814-100.589-4.024c-32.64-5.692-64.315-14.412-94.942-27.051
						C2208.648,2479.162,2211.204,2472.025,2216.018,2473.586L2216.018,2473.586z"/>
				</g>
			</g>
			<g>
				<g>
					<path style="fill:#FFB6B6;" d="M2891.047,3057.527c-50.807,6.914-100.583,61.029-90.61,87.452
						c7.521,19.927,27.993,22.38,128.077,22.146c115.39-0.27,203.561-5.881,248.327-41.773
						C3006.622,3166.301,2891.047,3057.527,2891.047,3057.527z"/>
				</g>
				<g>
					<path style="fill:#E87474;" d="M2891.047,3057.527c-14.882,2.025-29.663,8.118-42.893,16.36
						c21.667,30.954,60.943,57.399,60.943,57.399s-56.115,7.385-109.197-0.353c-1.116,5.163-1.013,9.939,0.537,14.045
						c7.522,19.927,27.993,22.38,128.077,22.146c115.391-0.27,203.561-5.881,248.327-41.773
						C3006.622,3166.301,2891.047,3057.527,2891.047,3057.527z"/>
				</g>
				<g>
					<path style="fill:#3D1400;" d="M2913.412,3183.146c-89.344,0-116.699-2.729-127.942-32.52
						c-4.795-12.695-2.153-28.086,7.632-44.517c16.56-27.798,54.778-58.857,95.786-64.439c4.788-0.654,9.587,0.889,13.103,4.185l0,0
						c1.101,1.025,111.782,102.28,271.109,63.94c7.28-1.723,14.809,1.787,18.108,8.511c3.298,6.729,1.489,14.844-4.358,19.531
						c-46.746,37.476-130.108,44.986-258.296,45.288C2923.319,3183.136,2918.27,3183.146,2913.412,3183.146z M2886.348,3074.66
						c-27.292,6.445-54.221,28.467-65.754,47.827c-5.591,9.385-5.837,15.117-5.188,16.841c3.657,9.683,25.767,12.031,113.071,11.797
						c46.023-0.107,86.431-1.162,120.923-4.272C2963.663,3133.688,2905.064,3090.256,2886.348,3074.66z M2891.046,3057.526h0.049
						H2891.046z"/>
				</g>
				<g>
					<g>
						<path style="fill:#FFFFFF;" d="M2878.279,3099.465c-20.152,19.158-36.785,65.623-36.785,65.623"/>
					</g>
					<g>
						<path style="fill:#3D1400;" d="M2879.657,3100.915c-11.123,14.853-17.034,32.876-22.339,50.476
							c-4.062,10.785-2.655,29.559-18.878,27.09c-7.74-1.508-11.966-10.515-8.244-17.437c9.31-17.627,19.56-34.235,32.462-49.375
							c4.336-4.941,8.954-9.692,14.243-13.655c0.89-0.667,2.151-0.486,2.819,0.405
							C2880.29,3099.18,2880.24,3100.216,2879.657,3100.915L2879.657,3100.915z"/>
					</g>
				</g>
				<g>
					<g>
						<path style="fill:#FFFFFF;" d="M2927.726,3106.712c-10.985,21.207-20.587,60.413-20.587,60.413"/>
					</g>
					<g>
						<path style="fill:#3D1400;" d="M2929.502,3107.631c-6.153,20.127-8.694,41.478-10.708,62.349
							c-1.684,15.93-25.115,14.066-24.23-1.954C2893.918,3164.551,2928.501,3090.263,2929.502,3107.631L2929.502,3107.631z"/>
					</g>
				</g>
			</g>
			<g>
				<g>
					<g>
						<path style="fill:#E83131;" d="M3013.948,2174.009c206.808-84.255,439.83-43.915,543.319,122.894
							c0,0-121.872-284.596-470.468-269.617L3013.948,2174.009z"/>
					</g>
					<g style="opacity:0.6;">
						<path style="fill:#FFFFFF;" d="M3070.718,2059.673c108.916,0.455,306.159,23.247,443.244,165.629
							c-61.419-83.226-193.243-208.067-427.164-198.016L3070.718,2059.673z"/>
					</g>
					<g>
						<path style="fill:#3D1400;" d="M3543.67,2305.338c-94.661-152.578-314.905-201.572-523.684-116.509
							c-8.178,3.33-17.52-0.591-20.854-8.784c-3.335-8.184,0.596-17.52,8.779-20.854c154.065-62.759,314.556-56.333,433.059,8.169
							c-0.044-0.039-0.093-0.083-0.135-0.122c-94.863-88.257-213.667-130.02-353.352-123.965
							c-8.704,0.381-16.292-6.47-16.672-15.298c-0.378-8.828,6.472-16.294,15.301-16.675
							c185.659-7.937,307.783,68.193,377.575,133.491c75.627,70.762,106.99,142.778,108.286,145.811L3543.67,2305.338z"/>
					</g>
				</g>
				<g>
					<g>
						<path style="fill:#E83131;" d="M3557.267,2296.903c34.042,70.809,57.434,209.033,140.255,229.447
							c96.681,23.83,91.571-114.092,91.571-114.092C3713.862,2453.499,3615.82,2405.839,3557.267,2296.903z"/>
					</g>
					<g style="opacity:0.6;">
						<path style="fill:#FFFFFF;" d="M3557.267,2296.903c16.558,34.439,30.612,84.81,50.193,129.834
							c85.404,54.009,149.008,31.017,180.498,11.27c1.531-14.987,1.135-25.749,1.135-25.749
							C3713.862,2453.498,3615.82,2405.839,3557.267,2296.903z"/>
					</g>
					<g>
						<path style="fill:#3D1400;" d="M3718.892,2545.148c-7.961,0-16.367-1.089-25.198-3.262
							c-70.081-17.275-100-101.304-126.399-175.439c-8.303-23.315-16.145-45.337-24.448-62.612l28.513-14.507
							c32.146,59.81,78.137,102.28,126.174,116.514c29.714,8.813,58.713,6.167,83.867-7.612l22.72-12.456l0.959,25.894
							c0.125,3.364,2.566,82.852-40.039,117.524C3751.986,2539.816,3736.529,2545.148,3718.892,2545.148z M3610.408,2391.379
							c21.028,55.547,46.995,108.604,90.942,119.434c18.382,4.531,32.603,2.422,43.494-6.441
							c17.659-14.37,24.78-44.448,27.227-67.529c-26.35,8.272-54.812,8.223-83.628-0.317
							C3661.156,2428.439,3634.622,2412.917,3610.408,2391.379z"/>
					</g>
				</g>
			</g>
			<g>
				<g>
					<g>
						<path style="fill:#F7A500;" d="M1940.245,1509.158c-102.128-117.787-47.513-342.266,89.872-394.213
							c136.851-51.745,200.17,70.128,203.575,145.021"/>
					</g>
					<g style="opacity:0.6;">
						<path style="fill:#FFFFFF;" d="M2163.783,1319.333l69.909-59.366c-3.404-74.894-66.723-196.766-203.575-145.021
							c-45.358,17.15-81.685,53.113-106.337,97.827c238.034-218.438,257.452,57.372,240.465,105.066
							C2164.057,1318.367,2163.925,1318.846,2163.783,1319.333z"/>
					</g>
					<g>
						<path style="fill:#3D1400;" d="M1940.255,1529.159c-5.601,0-11.165-2.336-15.12-6.899
							c-53.242-61.404-71.133-153.049-47.859-245.151c21.997-87.061,76.492-154.678,145.769-180.872
							c70.337-26.589,119.692-9.414,148.711,9.678c53.374,35.117,79.602,102.222,81.917,153.145
							c0.5,11.035-8.037,20.386-19.072,20.889c-11.096,0.471-20.386-8.039-20.888-19.072
							c-1.792-39.458-22.566-94.324-63.943-121.546c-30.896-20.329-68.772-22.244-112.578-5.676
							c-57.053,21.57-102.337,78.862-121.135,153.254c-19.771,78.247-4.712,158.386,39.299,209.15
							c7.236,8.345,6.338,20.976-2.007,28.21C1949.564,1527.551,1944.896,1529.159,1940.255,1529.159z"/>
					</g>
					<g>
						<path style="fill:#FFF0CF;" d="M1981.267,1190.009c40.008-47.407,74.366-47.149,74.286-20.421
							c2.725,51.346-64.472,128.536-52.669,197.953l-61.493,78.696C1889.247,1323.022,1956.416,1219.456,1981.267,1190.009z"/>
					</g>
					<g>
						<path style="fill:#EFBF8B;" d="M2055.555,1169.796c-75.729,21.23-121.295,167.065-90.85,246.604l38.179-48.859
							C1991.095,1298.217,2058.091,1221.143,2055.555,1169.796z"/>
					</g>
					<g>
						<path style="fill:#3D1400;" d="M2045.882,1137.99c37.721,30.017,9.556,85.063-3.352,120.246
							c-7.32,18.47-14.488,36.568-19.248,54.539c-4.799,17.93-7.194,35.701-4.625,52.083c2.654,20.668-27.144,25.836-31.547,5.366
							c-4.002-22.366-0.413-45.137,6.083-66.167c6.33-20.417,15.201-39.011,23.969-57.039
							c13.004-29.688,43.272-73.497,22.972-103.515C2037.647,1139.949,2042.471,1135.367,2045.882,1137.99L2045.882,1137.99z"/>
					</g>
				</g>
				<g>
					<path style="fill:#F7A500;" d="M1860.926,1688.903c-41.362,100.085-93.276,123.234-114.383,204.255l24.17,1.702
						c0,0-36.766,66.383-24.17,129.021l24.851-17.39c0,0-17.622,227.346,427.575,311.518
						c448.34,84.766,917.29-13.554,953.872-388.085c21.447-219.574-142.262-551.547-316.596-659.064
						c-126.128-77.787-233.362-92.596-351.319-104.851c0,0,40.17-71.83-71.49-11.234c0,0,20.085-89.872-105.447,24.255
						c0,0-231.688,33.306-335.064,207.574C1898.713,1511.711,1902.288,1588.818,1860.926,1688.903z"/>
				</g>
				<g>
					<path style="fill:#E87400;" d="M3152.841,1929.924c6.117-62.63-2.848-134.407-22.808-207.509
						c-38.052,251.489-271.115,442.421-737.021,452.615c-397.199,8.691-540.223-137.426-548.936-257.872l-67.915,21.447
						l39.83-94.979l-34.723,14.809l8.976-52.132c-18.312,25.427-34.158,50.229-43.699,86.855l24.17,1.702
						c0,0-36.766,66.383-24.17,129.021l24.851-17.39c0,0-17.622,227.346,427.575,311.517
						C2647.309,2402.775,3116.259,2304.455,3152.841,1929.924z"/>
				</g>
				<g style="opacity:0.6;">
					<path style="fill:#FFFFFF;" d="M2836.245,1270.86c-126.128-77.787-233.362-92.596-351.319-104.851
						c0,0,40.17-71.83-71.49-11.234c0,0,20.085-89.872-105.447,24.255c0,0-231.688,33.306-335.064,207.574
						c-74.213,125.107-70.638,202.213-112,302.298c-23.468,56.787-50.328,88.806-73.036,120.682l0,0
						c113.888-56.799,140.99-319.654,264.761-442.043c85.552-84.596,195.85-135.66,282.147-156.615c0,0,58.553-52.981,58.553-53.768
						c0-0.787-11.921,48.278-11.921,48.278l78.936-35.458l-22.419,40.948c126.078,7.957,289.362,38.147,412.596,132.445
						c139.481,106.73,259.808,291.33,302.298,586.553v0C3174.288,1710.35,3010.579,1378.377,2836.245,1270.86z"/>
				</g>
				<g>
					<path style="fill:#E87400;" d="M2169.682,1784.021c0,0,23.993-81.424,62.989-74.953c30.298,5.027,46.638,80.261,46.638,80.261
						C2216.671,1765.839,2169.682,1784.021,2169.682,1784.021z"/>
				</g>
				<g>
					<path style="fill:#FFF0CF;" d="M2537.011,1953.413c-205.277-16-203.234-137.872-320.681-134.809
						c-111.975,2.921-97.702,83.404-202.213,102.128c-119.082,21.334-183.489-101.787-174.922-186.966
						c-0.001,0.001-0.003,0.001-0.004,0.002c-36.338,64.687-75.118,92.097-92.648,159.39l24.17,1.702
						c0,0-36.766,66.383-24.17,129.021l24.851-17.39c0,0-17.622,227.346,427.575,311.517
						c442.151,83.596,904.314-10.895,952.079-372.752C2925.086,1688.919,2737.079,1969.008,2537.011,1953.413z"/>
				</g>
				<g>
					<path style="fill:#EFBF8B;" d="M3151.048,1945.257c-25.366-28.777-50.251-50.744-74.732-67.177
						c-97.972,170.967-319.746,288.317-683.305,296.951c-373.331,8.867-552.851-108.936-574.768-249.715l-42.083,13.289
						l39.83-94.979l-34.723,14.809l8.982-52.167c-18.316,25.442-34.162,50.257-43.706,86.891l24.17,1.702
						c0,0-36.766,66.383-24.17,129.021l24.851-17.39c0,0-17.622,227.346,427.575,311.517
						C2641.12,2401.605,3103.283,2307.114,3151.048,1945.257z"/>
				</g>
				<g>
					<path style="fill:#3D1400;" d="M2206.118,1893.924c-26.809,3.575-69.401-41.63-61.529-58.493
						c11.827-25.336,101.888-31.359,110.184-10.67C2263.054,1845.413,2228.133,1890.989,2206.118,1893.924z"/>
				</g>
				<g style="opacity:0.4;">
					<path style="fill:#FFFFFF;" d="M2192.698,1851.891c-10.556,1.625-29.247-9.199-25.911-16.346
						c5.012-10.737,44.935-13.349,46.694-4.522C2215.174,1839.521,2199.426,1851.313,2192.698,1851.891z"/>
				</g>
				<g>
					<path style="fill:#3D1400;" d="M2127.781,1955.332c26.785-12.656,55.981-19.135,85.512-20.003
						c9.867-0.109,19.855,0.701,29.608,2.972c4.91,1.145,7.962,6.052,6.819,10.962c-0.902,3.88-4.143,6.568-7.875,7.009
						c-9.253,1.45-18.313,1.878-27.454,2.832l-27.476,2.224c-16.39,1.485-39.486,4.018-55.653,5.488
						C2124.582,1967.733,2121.746,1958.224,2127.781,1955.332L2127.781,1955.332z"/>
				</g>
				<g>
					<path style="fill:#FFFFFF;" d="M2442.799,1718.009c3.064-114.128,92.879-171.294,176.426-157.393
						c91.745,15.265,117.447,118.84,106.213,190.584c0,0,6.096,188.654-163.594,195.658
						C2393.794,1953.794,2442.799,1718.009,2442.799,1718.009z"/>
				</g>
				<g>
					<path style="fill:#3D1400;" d="M2438.8,1717.902c-3.902-44.542,9.711-91.652,40.825-125.286
						c66.858-73.215,196.505-69.06,239.404,27.701c19.067,41.157,23.514,88.497,10.36,131.503c-0.674,2.129-2.948,3.311-5.079,2.637
						c-1.729-0.549-2.836-2.153-2.825-3.875c-0.235-21.14-2.186-41.729-6.336-61.67c-7.508-37.853-25.472-76.657-58.468-97.056
						c-31.497-19.843-73.648-21.089-108.869-9.622c-37.247,12.328-67.559,40.692-84.083,76.658
						c-8.677,18.23-13.808,38.386-16.931,59.223C2446.29,1722.782,2439.069,1722.616,2438.8,1717.902L2438.8,1717.902z"/>
				</g>
				<g>
					<path style="fill:#3D1400;" d="M2126.203,1662.605c2.894-1.702,10.809-54.553-2.553-74.808
						c-13.533-20.515-142.945-103.586-149.217-98.261c-6.272,5.325,85.893,112.699,103.004,130.942
						C2105.856,1650.775,2123.309,1664.307,2126.203,1662.605z"/>
				</g>
				<g>
					<path style="fill:#3D1400;" d="M2395.272,1601.003c-9.578,21.868-16.792,43.698-12.207,67.751
						c0.383,2.801-3.314,4.562-5.257,2.568c-16.471-15.321-13.065-42.385-1.171-59.399c2.461-3.464,14.177-19.724,18.409-14.092
						C2395.727,1598.806,2395.745,1599.998,2395.272,1601.003L2395.272,1601.003z"/>
				</g>
				<g>
					<path style="fill:#3D1400;" d="M2143.993,1565.7c27.228,11.738,38.304,50.163,20.76,74.373
						c-1.025,1.372-2.969,1.653-4.341,0.627c-0.772-0.576-1.199-1.445-1.241-2.339c-0.287-6.493-0.302-12.939-0.801-18.975
						c-0.916-11.721-3.048-22.86-8.46-33.235c-2.498-5.445-6.25-10.365-9.815-16.018
						C2138.401,1567.655,2141.36,1564.359,2143.993,1565.7L2143.993,1565.7z"/>
				</g>
				<g>
					<path style="fill:#FFFFFF;" d="M1908.416,1707.286c-1.532-60.255,28.331-165.145,106.043-163.745
						c75.574,1.362,98.043,104.51,93.979,152.51c4.233,70.979,0,233.362-88.757,228.077
						C1892.798,1916.575,1908.416,1707.286,1908.416,1707.286z"/>
				</g>
				<g>
					<path style="fill:#3D1400;" d="M1904.417,1707.387c-4.366-52.977,7.601-112.19,46.906-151.639
						c28.222-28.374,77.978-34.302,111.193-10.399c44.881,32.336,61.066,99.414,49.909,151.039
						c-1.086,4.412-7.681,3.831-7.973-0.674c-5.843-44.72-18.788-101.228-56.825-128.408c-24.17-16.183-58.135-13.538-80.156,6.312
						c-24.009,20.841-37.625,53.078-46.334,83.796c-4.371,16.218-7.545,32.927-8.728,49.868
						C1912.16,1712.058,1904.802,1712.207,1904.417,1707.387L1904.417,1707.387z"/>
				</g>
				<g>
					<path style="fill:#3D1400;" d="M2492.178,2366.608c-94.229,0-194.153-9.517-296.926-28.945
						c-189.641-35.854-321.843-101.416-392.937-194.868c-29.583-38.882-42.122-74.907-47.361-100.386l-21.992,15.391l-6.025-29.976
						c-8.743-43.474,3.289-87.576,13.813-115.024l-19.631-1.382l6.072-23.301c11.987-46.025,33.186-74.964,55.627-105.601
						c20.056-27.378,40.793-55.689,59.624-101.253c14.973-36.228,23.796-69.099,33.137-103.901
						c15.872-59.131,32.283-120.276,80.144-200.96c98.701-166.387,304.143-209.377,343.242-216.172
						c58.12-52.083,93.406-68.352,117.475-54.353c7.209,4.189,11.912,10.471,14.734,17.632
						c36.609-16.531,58.215-17.283,71.851-3.474c8.24,8.345,9.817,18.906,8.645,28.728
						c115.569,12.866,216.377,31.87,335.073,105.073c183.245,113.013,347.769,455.195,326.001,678.03
						c-11.97,122.568-68.267,222.368-167.322,296.626C2884.549,2319.108,2702.635,2366.603,2492.178,2366.608z M1794.605,1965.834
						l-3.269,42.205c-0.122,1.968-2.678,52.422,44.997,113.369c45.098,57.651,145.266,135.151,366.35,176.948
						c321.47,60.786,612.585,22.7,778.745-101.865c89.697-67.246,140.671-157.583,151.506-268.511
						c9.8-100.327-20.442-231.865-82.971-360.886c-61.001-125.867-144.822-230.244-224.216-279.209
						c-119.861-73.923-221.921-89.414-342.89-101.982l-30.218-3.14l14.829-26.516c0.728-1.326,1.445-2.866,2.087-4.426
						c-8.032,2.104-22.388,7.402-46.582,20.532l-38.647,20.974l9.59-42.915c0.559-2.644,0.791-6.05,0.676-8.689
						c-7.571,2.048-28.223,11.262-73.149,52.104l-4.539,4.126l-6.069,0.874c-2.209,0.32-223.579,34.246-320.708,197.981
						c-45.059,75.957-60.745,134.402-75.916,190.925c-9.263,34.502-18.838,70.181-34.802,108.809
						c-20.676,50.027-43.862,81.682-64.321,109.612c-16.475,22.49-31.189,42.576-41.624,68.85l29.941,2.109l-15.198,27.437
						c-0.251,0.459-21.233,39.194-23.999,82.559L1794.605,1965.834z"/>
				</g>
				<g>
					
						<ellipse transform="matrix(0.0873 -0.9962 0.9962 0.0873 544.2654 4195.835)" style="fill:#3D1400;" cx="2561.842" cy="1800.906" rx="152.954" ry="111.129"/>
				</g>
				<g>
					<path style="fill:#3D1400;" d="M2418.884,1684.988c-2.638-4-11.404-56.766,7.83-77.277
						c26.677-28.448,196.851-108.766,200.17-104.17c3.319,4.596-117.863,112.856-153.702,143.489
						C2446.94,1669.46,2421.522,1688.988,2418.884,1684.988z"/>
				</g>
				<g>
					
						<ellipse transform="matrix(0.0873 -0.9962 0.9962 0.0873 69.4469 3637.3896)" style="fill:#3D1400;" cx="2019.68" cy="1780.797" rx="143.474" ry="87.129"/>
				</g>
				<g>
					<path style="fill:#3D1400;" d="M2559.315,1298.742c20.573,8.842,42.564,17.438,63.275,11.272
						c6.479-2.369,9.279-6.646,12.797-13.777c4.377-8.999,7.338-20.813,11.539-33.14c0.821-3.671,6.12-4.439,7.916-1.155
						c13.382,23.504,12.229,59.177-13.574,74.578c-17.888,10.003-42.354,7.073-58.471-2.347
						c-12.819-7.283-22.805-17.295-29.28-29.919C2551.573,1300.675,2555.883,1296.691,2559.315,1298.742L2559.315,1298.742z"/>
				</g>
				<g>
					<path style="fill:#3D1400;" d="M2629.959,1450.373c-4.122-16.371-6.473-53.351-25.333-55.227
						c-19.151-2.862-35.286,2.488-55.731,6.299c-2.449,0.694-5.051-0.798-5.52-3.337c-0.192-1.001-0.02-1.99,0.421-2.827
						c7.118-13.017,18.361-21.984,31.911-27.788c35.634-14.509,71.399,4.064,71.315,44.246c0.204,14.499-3,27.685-9.188,40.036
						C2636.117,1455.451,2630.305,1454.356,2629.959,1450.373L2629.959,1450.373z"/>
				</g>
				<g>
					<path style="fill:#3D1400;" d="M2731.631,1315.654c-9.74,8-19.294,15.742-26.64,23.623
						c-9.074,9.373-14.369,20.105-8.316,32.136c6.481,14.86,17.639,24.851,29.44,38.73c1.81,1.778,1.8,4.766-0.157,6.431
						c-0.78,0.671-1.736,1.016-2.69,1.045c-14.851,0.193-28.207-5.036-39.952-14.135c-29.099-22.825-28.214-65.334,6.196-84.28
						c12.618-7.298,25.802-10.847,39.662-11.162C2733.229,1307.838,2734.975,1313.475,2731.631,1315.654L2731.631,1315.654z"/>
				</g>
				<g>
					
						<ellipse transform="matrix(0.1142 -0.9935 0.9935 0.1142 497.4182 4050.9644)" style="fill:#FFFFFF;" cx="2520.377" cy="1746.544" rx="34.043" ry="26.478"/>
				</g>
				<g>
					
						<ellipse transform="matrix(0.0365 -0.9993 0.9993 0.0365 204.0852 3651.939)" style="fill:#FFFFFF;" cx="1995.938" cy="1720.131" rx="30.513" ry="23.732"/>
				</g>
				<g>
					<g>
						<path style="fill:#F7A500;" d="M2790.799,1305.924c74.723-190.298,260.596-229.107,369.702-109.277
							c90.087,98.941,81.532,375.83-182.298,363.575C2878.458,1539.797,2766.61,1436.919,2790.799,1305.924z"/>
					</g>
					<g style="opacity:0.6;">
						<path style="fill:#FFFFFF;" d="M3181.955,1226.763c-6.314-11.207-13.49-21.368-21.454-30.115
							c-109.106-119.83-294.979-81.021-369.702,109.277C2790.799,1305.924,2984.23,1068.604,3181.955,1226.763z"/>
					</g>
					<g>
						<path style="fill:#FFF0CF;" d="M3209.637,1312.116c-3.612-17.852-8.317-36.744-14.369-56.859
							c-0.029-0.075-0.055-0.152-0.084-0.227c-62.678-122.993-284.901-32.305-304.301,134.64
							c66.213,7.83,51.575,43.574,42.383,58.723c54.468,22.979,23.49,63.83,23.49,63.83c6.54,20.88,28.413,38.106,56.898,47.864
							C3174.979,1550.793,3224.494,1420.985,3209.637,1312.116z"/>
					</g>
					<g>
						<path style="fill:#EFBF8B;" d="M3022.35,1304.466c36.54-78.416,119.345-79.067,174.261-44.56
							c-0.457-1.559-0.869-3.076-1.342-4.65c-0.029-0.075-0.055-0.152-0.084-0.227c-62.678-122.993-284.901-32.305-304.301,134.64
							c66.213,7.83,51.575,43.574,42.383,58.723c54.468,22.979,23.49,63.83,23.49,63.83
							C3014.969,1465.881,2980.586,1394.094,3022.35,1304.466z"/>
					</g>
					<g>
						<path style="fill:#3D1400;" d="M2953.569,1509.804c9.256-36.711-16.883-42.031-45.115-50.607c0,0,9.616-20.025,9.616-20.025
							c2.591-5.398,4.261-10.867,4.016-14.25c-0.331-3.104-0.478-3.296-2.59-5.181c-11.851-8.928-36.014-10.547-51.186-13.787
							c0,0,2.708-18.593,2.708-18.593c5.425-38.313,21.275-74.891,44.6-105.439c46.183-59.34,119.244-101.716,196.172-94.122
							c38.297,3.675,74.88,28.411,90.565,63.676c4.181,9.436-9.187,16.099-14.26,7.255c-15.487-29.423-45.551-47.487-78.424-49.033
							c-98.494-3.261-191.113,85.435-198.92,182.279c0,0.001-17.517-22.169-17.517-22.169c25.221,1.776,56.641,11.594,65.444,39.014
							c5.865,16.905-1.402,36.544-10.213,48.791c0,0-8.287-25.598-8.287-25.598
							C3015.664,1469.879,2952.245,1534.646,2953.569,1509.804L2953.569,1509.804z"/>
					</g>
					<g>
						<path style="fill:#3D1400;" d="M2787.075,1304.462c45.353-195.488,283.176-272.325,406.519-97.207
							c84.476,139.419,28.638,346.673-152.047,359.411c0,0.001-16.033,0.946-16.033,0.946c-15.297-0.336-32.439-1.083-47.497-3.395
							c-4.881-0.665-4.527-7.833,0.371-7.99c41.001-2.742,81.191-10.554,115.631-28.369
							c106.283-53.588,123.438-204.302,65.812-299.041c-72.761-104.242-205.971-105.642-293.193-17.526
							c-28.215,27.277-51.04,60.463-72.117,96.095C2792.434,1311.39,2785.898,1308.85,2787.075,1304.462L2787.075,1304.462z"/>
					</g>
				</g>
			</g>
			<g>
				<g>
					<path style="fill:#FFB6B6;" d="M1749.132,2308.807c7.114,59.245-46.491,128.027-99.61,129.713
						c-64.34,2.042-93.957-64.341-80.653-120.295C1580.994,2267.231,1742.634,2254.689,1749.132,2308.807z"/>
				</g>
				<g>
					<path style="fill:#E87474;" d="M1721.522,2323.882l4.267-23.575l3.627-15.994c-44.881-23.15-150.82-6.999-160.547,33.912
						c-11.09,46.64,7.665,100.49,51.47,115.955C1699.288,2438.769,1724.55,2344.406,1721.522,2323.882z"/>
				</g>
				<g>
					<path style="fill:#3D1400;" d="M1646.741,2450.568c-27.3,0-51.518-11.323-68.476-32.1
						c-21.765-26.665-29.839-66.143-21.072-103.018c9.729-40.913,82.437-56.094,128.491-53.457
						c44.736,2.554,72.205,19.092,75.361,45.381l0,0c4.026,33.53-8.943,71.445-34.692,101.421
						c-22.053,25.669-49.919,40.879-76.45,41.719C1648.846,2450.549,1647.791,2450.568,1646.741,2450.568z M1673.873,2285.661
						c-44.971,0-88.745,16.055-93.33,35.342c-6.968,29.306-0.564,61.611,16.316,82.29c12.957,15.874,31.008,23.828,52.283,23.237
						c19.819-0.63,41.328-12.798,59.006-33.374c21.121-24.585,32.258-56.357,29.07-82.92c-1.563-13.008-22.327-22.539-52.9-24.282
						C1680.843,2285.759,1677.352,2285.661,1673.873,2285.661z"/>
				</g>
				<g>
					<g>
						<path style="fill:#442F1B;" d="M1646.798,2164.137c0,0-74.595,189.711-77.617,211.064
							c-5.106,36.085,53.787,54.128,72.254,32.844c11.776-13.572,72.427-212.589,72.427-212.589"/>
						<path style="fill:#3D1400;" d="M1617.34,2429.088c-9.958,0-20.21-2.358-28.975-6.352
							c-22.036-10.039-33.941-28.901-31.067-49.214c3.13-22.114,70.645-194.224,78.333-213.774c2.424-6.172,9.39-9.199,15.559-6.777
							c6.167,2.427,9.202,9.39,6.775,15.557c-28.64,72.842-74.844,193.818-76.902,208.354
							c-1.938,13.696,11.421,21.357,17.256,24.019c12.988,5.923,28.584,5.591,34.053-0.723
							c7.922-11.299,45.754-128.618,70.012-208.218c1.931-6.343,8.635-9.927,14.978-7.983c6.34,1.934,9.912,8.638,7.981,14.976
							c-18.46,60.576-62.708,202.969-74.844,216.958C1642.435,2425.202,1630.128,2429.088,1617.34,2429.088z"/>
					</g>
					<g>
						<g>
							<path style="fill:#E87474;" d="M1589.692,2313.591c0,0,35.352,19.994,25.793,53.622
								c-8.073,28.402-58.157,30.168-76.806-4.988c-17.761-33.482,9.746-84.858,57.562-65.917L1589.692,2313.591z"/>
						</g>
						<g>
							<path style="fill:#3D1400;" d="M1581.934,2400.588c-22.383,0-43.052-12.373-53.855-32.739
								c-11.782-22.212-8.164-50.957,8.799-69.907c15.75-17.593,39.595-22.373,63.784-12.788l10.989,4.355l-7.415,19.565
								c14.409,11.602,30.718,33.535,22.793,61.421c-4.641,16.318-19.455,27.72-38.664,29.751
								C1586.212,2400.475,1584.066,2400.588,1581.934,2400.588z M1576.414,2304.269c-8.482,0-15.906,3.262-21.653,9.683
								c-10.227,11.421-12.532,29.355-5.481,42.646c8.206,15.469,24.277,21.084,36.56,19.78c3.523-0.371,15.239-2.368,18.103-12.446
								c6.897-24.268-19.888-39.741-20.159-39.897l-8.962-5.068l5.486-14.478C1578.99,2304.342,1577.689,2304.269,1576.414,2304.269
								z"/>
						</g>
					</g>
					<g>
						<g>
							<path style="fill:#FFB6B6;" d="M1600.219,2263.199c0,0,36.196,20.471,26.409,54.901
								c-8.266,29.079-59.544,30.888-78.638-5.106c-18.185-34.281,9.979-86.883,58.936-67.49L1600.219,2263.199z"/>
						</g>
						<g>
							<path style="fill:#E87474;" d="M1558.202,2285.517c-4.442-8.374-6.101-17.84-5.384-27.084
								c-11.326,15.03-14.064,37.15-4.828,54.561c19.094,35.995,70.372,34.186,78.638,5.106c1.425-5.013,1.853-9.72,1.582-14.121
								C1610.559,2319.059,1573.734,2314.796,1558.202,2285.517z"/>
						</g>
						<g>
							<path style="fill:#3D1400;" d="M1592.276,2351.984c-22.81,0-43.875-12.607-54.888-33.364
								c-12.009-22.637-8.32-51.934,8.97-71.25c16.038-17.92,40.33-22.793,64.985-13.022l10.991,4.355l-7.566,19.966
								c14.729,11.787,31.506,34.199,23.401,62.715c-4.717,16.592-19.79,28.188-39.338,30.254
								C1596.637,2351.872,1594.449,2351.984,1592.276,2351.984z M1586.62,2253.361c-8.762,0-16.438,3.379-22.38,10.015
								c-10.547,11.782-12.922,30.283-5.649,43.994c8.464,15.952,25.034,21.772,37.717,20.4c3.65-0.386,15.796-2.461,18.777-12.949
								c7.124-25.063-20.493-41.016-20.771-41.177l-8.965-5.069l5.662-14.941C1589.52,2253.454,1588.055,2253.361,1586.62,2253.361z
								"/>
						</g>
					</g>
					<g>
						<g>
							<path style="fill:#FFB6B6;" d="M1630.541,2205.854c0,0,36.114,20.517,26.385,54.963
								c-9.447,33.447-58.122,32.792-78.638-5.106c-18.383-33.958,10.213-87.064,59.169-67.671L1630.541,2205.854z"/>
						</g>
						<g style="opacity:0.6;">
							<path style="fill:#FFFFFF;" d="M1630.541,2205.855l6.916-17.814c-4.166-1.65-8.172-2.738-12.027-3.394l-12.249,21.533
								l-10.553,3.575c0,0,45.052,11.943,46.318,65.199c3.577-3.711,6.363-8.411,7.98-14.136
								C1666.655,2226.371,1630.541,2205.855,1630.541,2205.855z"/>
						</g>
						<g>
							<path style="fill:#E87474;" d="M1590.941,2234.164c-6.307-11.651-7.082-25.555-3.404-38.012
								c-14.97,14.853-19.684,40.285-9.25,59.559c20.516,37.898,69.192,38.554,78.638,5.106c0.394-1.393,0.686-2.754,0.935-4.102
								C1639.477,2270.482,1606.802,2263.461,1590.941,2234.164z"/>
						</g>
						<g>
							<path style="fill:#3D1400;" d="M1623.416,2297.077c-22.307,0.005-43.686-13.496-55.681-35.654
								c-12.117-22.383-8.491-51.636,8.816-71.133c16.152-18.203,40.574-23.208,65.325-13.408l11.082,4.39l-7.813,20.122
								c14.68,11.812,31.372,34.219,23.33,62.686c-5.176,18.32-19.746,30.532-38.979,32.666
								C1627.467,2296.969,1625.435,2297.077,1623.416,2297.077z M1617.247,2195.925c-8.887,0-16.689,3.472-22.747,10.293
								c-10.566,11.909-12.947,30.318-5.661,43.779c9.563,17.661,25.984,24.268,38.01,22.891c5.474-0.605,15.161-3.404,18.53-15.332
								c7.009-24.819-19.673-40.63-20.813-41.294l-8.879-5.151l5.74-14.937C1620.011,2196.008,1618.616,2195.925,1617.247,2195.925z
								"/>
						</g>
					</g>
					<g>
						<path style="fill:#BDDDFF;" d="M1919.844,1959.549c55.188,126.652,40.542,255.201-32.714,287.122
							c-17.26,7.521-57.525,25.067-57.525,25.067s-132.858-99.78-175.044-196.591c-40.978-94.041-24.811-262.055-24.811-262.055
							s38.663-16.848,57.525-25.067C1760.531,1756.104,1864.656,1832.898,1919.844,1959.549z"/>
					</g>
					<g>
						<g>
							<path style="fill:#FFFFFF;" d="M1880.08,1888.036c-31.3-45.02-68.71-78.299-105.722-95.042l-147.183,64.135
								c-0.617,18.148-0.877,40.602-0.02,64.851l27.93,64.097L1880.08,1888.036z"/>
						</g>
						<g>
							<path style="fill:#FFFFFF;" d="M1919.844,1959.549c-5.05-11.589-10.518-22.75-16.326-33.458l-193.81,84.453l33.492,76.859
								l192.939-84.073C1931.613,1988.81,1926.215,1974.17,1919.844,1959.549z"/>
						</g>
					</g>
					<g>
						<path style="fill:#6FA3D1;" d="M1868.681,2249.054c50.101-21.831,72.768-88.868,64.45-169.575l-138.497,60.147l-56.03,50.887
							c37.13,38.272,73.649,67.709,86.314,77.611C1838.23,2262.323,1857.923,2253.742,1868.681,2249.054z"/>
					</g>
					<g>
						<path style="fill:#3D1400;" d="M1827.989,2285.534l-5.591-4.199c-5.527-4.151-135.881-102.813-178.838-201.392
							c-41.741-95.791-26.428-261.013-25.757-268.001l0.676-7.029l63.999-27.891c39.524-17.227,87.464-7.402,134.978,27.642
							c45.598,33.628,85.867,86.934,113.389,150.093c58.721,134.756,41.624,267.813-38.921,302.915L1827.989,2285.534z
							 M1641.124,1821.225c-2.42,32.405-10.181,169.68,24.438,249.128c35.637,81.782,140.564,167.7,165.771,187.544l51.003-22.227
							c67.07-29.229,78.962-150.947,26.506-271.328c-25.862-59.35-63.377-109.199-105.632-140.364
							c-40.334-29.746-79.8-38.609-111.145-24.954L1641.124,1821.225z"/>
					</g>
					<g>
						
							<ellipse transform="matrix(0.9167 -0.3995 0.3995 0.9167 -671.8834 860.9969)" style="fill:#BDDDFF;" cx="1729.677" cy="2042.415" rx="144.688" ry="250.149"/>
					</g>
					<g>
						<path style="fill:#FFFFFF;" d="M1862.319,1984.616c-55.189-126.652-159.313-203.446-232.569-171.525
							c-43.257,18.849-66.06,71.401-66.134,137.349c3.795-55.267,25.404-98.422,63.208-114.895
							c70.685-30.801,171.155,43.298,224.407,165.505c48.941,112.316,40.924,226.117-15.561,267.724
							C1903.619,2232.517,1915.945,2107.683,1862.319,1984.616z"/>
					</g>
					<g>
						<path style="fill:#3D1400;" d="M1793.45,2291.13c-73.542,0-158.184-73.135-207.417-186.123
							c-27.522-63.159-39.146-128.943-32.732-185.237c6.685-58.665,32.131-100.456,71.655-117.678
							c80.535-35.11,189.639,42.986,248.362,177.729l0,0c58.723,134.761,41.628,267.817-38.919,302.92
							C1821.385,2288.41,1807.62,2291.13,1793.45,2291.13z M1665.919,1817.726c-10.959,0-21.489,2.058-31.377,6.367
							c-31.338,13.655-51.721,48.599-57.395,98.394c-5.943,52.165,5.027,113.579,30.889,172.93
							c44.724,102.642,122.019,171.68,185.403,171.689c10.957,0,21.487-2.061,31.374-6.367
							c67.073-29.229,78.962-150.947,26.504-271.328v-0.002C1806.593,1886.772,1729.298,1817.726,1665.919,1817.726z"/>
					</g>
					<g>
						
							<ellipse transform="matrix(0.9167 -0.3995 0.3995 0.9167 -672.8836 859.5844)" style="fill:#6FA3D1;" cx="1725.789" cy="2044.109" rx="106.857" ry="202.316"/>
					</g>
					<g>
						<path style="fill:#3D1400;" d="M1782.164,2242.56c-55.259,0-121.538-60.469-161.67-152.573
							c-22.097-50.713-32.432-103.074-29.099-147.441c3.472-46.196,21.362-78.599,50.378-91.243
							c59.045-25.73,142.2,38.809,189.312,146.924l0,0c22.097,50.715,32.432,103.079,29.099,147.444
							c-3.472,46.196-21.362,78.604-50.378,91.245C1801.058,2240.729,1791.773,2242.56,1782.164,2242.56z M1668.822,1861.813
							c-7.273,0-14.204,1.345-20.657,4.158c-23.316,10.159-37.81,37.778-40.816,77.771c-3.14,41.819,6.736,91.489,27.813,139.858
							c42.078,96.558,119.111,160.049,168.252,138.647c23.315-10.161,37.81-37.778,40.815-77.773
							c3.14-41.821-6.736-91.489-27.813-139.856C1779.866,1920.741,1716.925,1861.813,1668.822,1861.813z"/>
					</g>
					<g>
						<path style="fill:#7BE6FF;" d="M1823.75,2001.423c-40.448-92.825-109.973-154.028-162.921-147.15
							c-41.087,34.098-43.595,126.689-3.147,219.514c40.448,92.825,109.973,154.028,162.921,147.15
							C1861.69,2186.839,1864.198,2094.247,1823.75,2001.423z"/>
					</g>
					<g>
						
							<ellipse transform="matrix(0.9013 -0.4332 0.4332 0.9013 -692.6319 945.908)" style="fill:#A4F2FF;" cx="1729.683" cy="1993.084" rx="59.518" ry="107.34"/>
					</g>
					<g>
						<g style="opacity:0.8;">
							
								<ellipse transform="matrix(0.9013 -0.4332 0.4332 0.9013 -679.0439 927.459)" style="fill:#FFFFFF;" cx="1695.99" cy="1954.04" rx="31.902" ry="43.801"/>
						</g>
						<g style="opacity:0.8;">
							
								<ellipse transform="matrix(0.9013 -0.4332 0.4332 0.9013 -714.8786 935.6173)" style="fill:#FFFFFF;" cx="1695.99" cy="2036.776" rx="17.673" ry="24.265"/>
						</g>
					</g>
					<g>
						<path style="fill:#27A2D8;" d="M1837.543,2199.9c23.259-42.195,20.208-117.183-11.528-193.101
							c10.694,132.998-44.783,134.53-116.317,102.837C1729.212,2141.926,1770.286,2193.035,1837.543,2199.9z"/>
					</g>
					<g>
						<path style="fill:#3D1400;" d="M1812.315,2229.469c-55.901,0-122.571-62.075-161.968-152.49
							c-41.614-95.493-39.353-191.746,5.371-228.865l1.782-1.477l2.297-0.298c57.615-7.544,129.673,56.389,171.284,151.887
							c41.611,95.496,39.353,191.751-5.369,228.87l-1.782,1.479l-2.297,0.298
							C1818.565,2229.269,1815.457,2229.469,1812.315,2229.469z M1820.604,2220.939h0.049H1820.604z M1664.176,1861.952
							c-36.973,33.398-36.775,122.317,0.84,208.635c37.612,86.323,102.554,147.026,152.241,142.671
							c36.97-33.398,36.772-122.319-0.842-208.64l0,0C1778.8,1918.297,1713.831,1857.599,1664.176,1861.952z"/>
					</g>
					<g>
						<g>
							<path style="fill:#FFB6B6;" d="M1697.862,2313.584c-20.766,28.596-53.787,35.404-67.245,13.617
								c-18.346-29.702,16.737-103.812,78.819-86.809c53.447,14.638,52.936,81.192,24.851,112.851L1697.862,2313.584z"/>
						</g>
						<g>
							<path style="fill:#E87474;" d="M1700.416,2285.063c-7.319,2.479-27.915,54.903-73.711,31.969
								c0.792,3.741,2.07,7.187,3.913,10.169c13.458,21.788,46.479,14.979,67.245-13.617l22.869,24.899
								C1726.118,2303.371,1706.473,2283.011,1700.416,2285.063z"/>
						</g>
						<g style="opacity:0.6;">
							<path style="fill:#FFFFFF;" d="M1709.437,2240.392c-62.082-17.003-97.165,57.106-78.819,86.808
								c3.877,6.276,9.406,10.105,15.77,11.799c-10.012-31.027,7.153-75.372,49.73-76.905c46.085-1.659,46.213,64.469,38.17,91.149
								C1762.373,2321.584,1762.884,2255.031,1709.437,2240.392z"/>
						</g>
						<g>
							<path style="fill:#3D1400;" d="M1701.099,2315.935c-10.65,24.477-40.378,44.803-67.572,30.796
								c-44.144-27.503-14.479-101.142,26.113-118.293c26.081-12.502,58.585-7.662,80.8,10.49
								c21.776,17.572,28.692,49.756,22.151,74.829c-3.89,16.484-12.534,31.814-25.311,42.141c-3.35,2.844-8.323-1.479-6.068-5.166
								c13.027-22.782,15.21-54.248,1.741-75.781c-11.782-18.871-39.991-25.705-59.342-16.533
								c-9.991,4.453-18.821,13.054-25.287,23.467c-26.291,48.839,10.155,61.37,46.301,29.347
								C1697.749,2308.244,1702.95,2312.123,1701.099,2315.935L1701.099,2315.935z"/>
						</g>
					</g>
				</g>
			</g>
			<g>
				<g>
					<g>
						<path style="fill:#FFB6B6;" d="M2572.756,2391.541c0,0-84-35.234-144.255-11.49c-41.444,16.332-34.723,62.809-34.723,62.809
							c-18.638,22.979-24,63.063,10.213,78.127c-6.638,25.532,12.51,63.625,71.874,46.894c0,0,38.679,27.915,96.892,7.49V2391.541z"
							/>
					</g>
					<g>
						<path style="fill:#E87474;" d="M2572.756,2575.371v-93.021c-19.127,28.132-12.402,79.324-118.128,30.212
							c0,0-12.936,33.873-27.96,19.705s15.875-48.045,15.875-48.045s-41.617,0-39.83-21.447
							c1.787-21.447,37.787-35.234,37.787-35.234s-24.104-8.257-32.562-33.558c-18.294,20.217-14.162,48.877-14.162,48.877
							c-18.638,22.979-24,63.063,10.213,78.127c-6.638,25.532,12.511,63.625,71.874,46.894
							C2475.864,2567.882,2514.543,2595.796,2572.756,2575.371z"/>
					</g>
					<g style="opacity:0.6;">
						<path style="fill:#FFFFFF;" d="M2572.756,2418.278v-26.736c0,0-84-35.234-144.255-11.489
							c-30.135,11.875-34.801,39.675-35.105,53.969l14.88,4.739C2420.965,2384.459,2499.01,2397.531,2572.756,2418.278z"/>
					</g>
					<g>
						<path style="fill:#3D1400;" d="M2530.584,2598.859c-27.234,0-47.295-8.496-57.205-13.833
							c-39.172,8.985-60.579-4.653-70.068-13.955c-10.957-10.733-16.897-26.104-16.553-41.479
							c-11.167-7.817-18.84-18.901-22.031-32.104c-4.536-18.745,0.398-41.362,12.605-59.297
							c-0.816-22.012,7.531-58.14,45.302-73.027c65.562-25.825,152.634,10.088,156.309,11.621
							c8.149,3.418,11.982,12.798,8.564,20.942c-3.416,8.145-12.781,11.982-20.933,8.574c-0.979-0.41-78.896-32.378-132.207-11.362
							c-29.326,11.558-24.956,44.248-24.756,45.635l1.003,6.929l-4.412,5.439c-8.906,10.981-13.076,25.859-10.374,37.026
							c1.812,7.49,6.589,12.847,14.607,16.377l12.463,5.488l-3.425,13.184c-1.763,6.777-0.52,16.582,6.233,23.203
							c8.774,8.599,25.051,10.122,45.816,4.263l7.439-2.095l6.265,4.521c1.23,0.854,33.255,22.549,82.229,5.366
							c8.345-2.925,17.468,1.46,20.396,9.8c2.925,8.34-1.462,17.471-9.8,20.396
							C2560.596,2596.594,2544.635,2598.859,2530.584,2598.859z"/>
					</g>
					<g>
						<path style="fill:#3D1400;" d="M2429.687,2434.58c-14.621,7.352-28.238,20.089-33.008,35.625
							c-11.255,17.842-37.837,2.012-27.484-16.389c7.577-8.876,17.676-15.275,28.117-19.961c9.68-4.286,20.125-6.589,30.513-7.055
							c2.237-0.132,4.158,1.572,4.293,3.809C2432.224,2432.364,2431.198,2433.898,2429.687,2434.58L2429.687,2434.58z"/>
					</g>
					<g>
						<path style="fill:#3D1400;" d="M2447.421,2487.788c-17.055,12.679-29.095,33.821-27.414,54.998
							c-2.759,22.323-35.647,17.351-31.462-4.673c3.848-13.586,11.454-26.235,21.208-36.23c9.443-9.857,21.39-16.953,34.04-21.225
							c2.091-0.752,4.397,0.332,5.151,2.424C2449.589,2484.862,2448.887,2486.756,2447.421,2487.788L2447.421,2487.788z"/>
					</g>
					<g>
						<path style="fill:#3D1400;" d="M2457.99,2528.269c11.947,12.339,25.05,24.291,39.934,32.266
							c4.585,2.366,9.264,4.124,12.81,4.419c9.104,0.759,15.869,8.755,15.111,17.859c-0.932,12.884-16.034,19.348-26.388,12.089
							c-13.615-7.544-21.773-17.845-29.973-29.538c-7.132-10.5-12.974-21.286-18.218-32.761
							C2449.352,2528.459,2455.042,2524.825,2457.99,2528.269L2457.99,2528.269z"/>
					</g>
				</g>
				<g>
					<g>
						<path style="fill:#F7A500;" d="M3074.203,2168.903c-156.255,49.021-318.298,190.638-501.447,222.638
							c0,0-21.106,124.596,0,183.83c0,0,112.341,55.149,268.936,37.447c156.596-17.702,222.638-104.17,222.638-104.17
							L3074.203,2168.903z"/>
					</g>
					<g>
						<path style="fill:#E87400;" d="M2564.365,2468.833c-2.116,36.857-1.478,78.841,8.391,106.538
							c0,0,112.34,55.149,268.936,37.447s222.638-104.17,222.638-104.17S2694.288,2614.179,2564.365,2468.833z"/>
					</g>
					<g>
						<path style="fill:#E83131;" d="M2572.756,2575.371c0,0,84.183,41.276,208.344,40.914
							c50.039-52.156,63.313-209.426-41.516-281.089c-0.001,0-0.001-0.001-0.002-0.001
							c-53.843,25.418-109.292,46.294-166.825,56.347C2572.756,2391.541,2551.65,2516.137,2572.756,2575.371z"/>
					</g>
					<g>
						<path style="fill:#A50000;" d="M2814.086,2545.538c-95.367,1.602-194.35-14.76-249.721-76.705
							c-2.116,36.857-1.478,78.841,8.391,106.538c0,0,84.183,41.276,208.344,40.914
							C2796.204,2600.541,2807.918,2575.19,2814.086,2545.538z"/>
					</g>
					<g style="opacity:0.6;">
						<path style="fill:#FFFFFF;" d="M3074.203,2168.903L3074.203,2168.903c-156.256,49.021-318.298,190.638-501.447,222.638
							c0,0-21.106,124.596,0,183.83c0,0,1.694,0.829,4.904,2.234c5.177-80.408,29.82-158.489,29.82-158.489
							C2847.99,2370.605,2898.033,2277.298,3074.203,2168.903L3074.203,2168.903z"/>
					</g>
					<g>
						<path style="fill:#3D1400;" d="M2781.094,2632.292c-3.984,0-7.974-1.479-11.074-4.458c-6.377-6.118-6.587-16.245-0.469-22.622
							c24.238-25.259,37.476-78.55,32.19-129.585c-3.271-31.577-16.868-90.088-71.189-127.222
							c-7.295-4.985-9.165-14.941-4.177-22.236c4.985-7.3,14.941-9.165,22.239-4.18c48.152,32.92,78.325,86.309,84.956,150.342
							c6.284,60.669-10.164,122.974-40.928,155.039C2789.5,2630.641,2785.301,2632.292,2781.094,2632.292z"/>
					</g>
					<g>
						<path style="fill:#3D1400;" d="M3075.4,2172.719c-126.652,54.834-236.906,141.099-364.344,194.867
							c-43.076,18.275-88.475,32.845-135.546,39.715l13.021-13.088c-4.622,29.434-7.811,60.12-8.807,89.988
							c-0.802,28.367-0.471,59.464,8.103,85.798c0,0-8.02-8.992-8.02-8.992c8.964,3.788,19.506,7.323,29.039,10.466
							c130.102,39.814,279.181,39.074,399.706-29.218c18.354-10.362,36.44-22.266,52.6-36.036c1.638-1.68,4.457-1.647,5.978,0.178
							c1.148,1.348,1.246,3.24,0.38,4.678c-24.538,39.029-63.189,66.461-104.202,85.982
							c-120.676,54.178-278.456,48.458-397.602-7.323c0-0.002-5.888-2.807-5.888-2.807c-12.553-34.043-12.946-68.857-12.076-103.787
							c1.016-35.371,5.488-69.918,10.69-104.971c69.432-12.893,136.57-40.803,200.15-71.861
							c103.1-49.674,201.463-114.749,314.424-141.224c2.166-0.475,4.308,0.895,4.784,3.06
							C3078.215,2170.077,3077.167,2171.995,3075.4,2172.719L3075.4,2172.719z"/>
					</g>
				</g>
			</g>
			<g>
				<g>
					<path style="fill:#3D7BE0;" d="M1777.801,3207.181l72.229-65.527c9.658-8.762,13.232-22.401,9.111-34.773l-475.941-1428.968
						c-15.244-45.77-65.197-69.997-110.577-53.63L607.33,1864.22c-28.432,10.254-53.604,27.926-72.906,51.183l-25.418,30.625
						L1777.801,3207.181z"/>
				</g>
				<g>
					<path style="fill:#3D1400;" d="M1777.806,3227.179c-5.444,0-10.872-2.212-14.817-6.563c-7.422-8.179-6.807-20.83,1.375-28.252
						l72.229-65.523c3.786-3.432,5.19-8.789,3.574-13.642l-475.942-1428.965c-5.657-16.98-17.639-30.632-33.743-38.442
						c-16.104-7.808-34.238-8.767-51.074-2.695l-665.293,239.937c-25.056,9.036-47.29,24.646-64.302,45.144l-25.418,30.625
						c-7.053,8.503-19.661,9.668-28.164,2.617c-8.499-7.056-9.67-19.663-2.617-28.164l25.418-30.625
						c21.565-25.981,49.751-45.769,81.514-57.224l665.293-239.936c27.058-9.763,56.216-8.225,82.099,4.331
						c25.884,12.554,45.147,34.5,54.236,61.792l475.942,1428.97c6.621,19.878,0.874,41.821-14.646,55.903l-72.231,65.527
						C1787.411,3225.466,1782.601,3227.179,1777.806,3227.179z"/>
				</g>
				<g>
					<path style="fill:#5CA6FF;" d="M1758.208,3211.65l-799.896-61.72c-47.149-3.638-87.524-35.183-102.458-80.052l-355.008-1066.57
						c-11.042-33.173,6.214-69.125,39.001-81.263l675.602-250.092c41.304-15.29,87.049,6.752,100.83,48.584l476.628,1446.843
						C1800.453,3190.292,1782.258,3213.506,1758.208,3211.65z"/>
				</g>
				<g style="opacity:0.5;">
					<polygon style="fill:#FFFFFF;" points="669.295,2509.39 732.239,2698.495 1477.053,2208.582 1326.548,1751.712 					"/>
				</g>
				<g>
					<path style="fill:#3D7BE0;" d="M1710.239,3157.443l-144.492-439.825l-665.271,306.168
						c14.734,44.266,54.566,75.387,101.081,78.976L1710.239,3157.443z"/>
				</g>
				<g>
					
						<ellipse transform="matrix(0.9395 -0.3425 0.3425 0.9395 -763.8333 509.2711)" style="fill:#FFFFFF;" cx="1059.905" cy="2417.16" rx="115.404" ry="211.929"/>
				</g>
				<g>
					<path style="fill:#3D1400;" d="M1760.843,3231.755c-1.387,0-2.776-0.054-4.172-0.161l-799.897-61.724
						c-55.313-4.268-102.373-41.035-119.897-93.672L481.868,2009.626c-14.531-43.652,7.886-90.361,51.035-106.336l675.601-250.093
						c25.12-9.297,52.236-8.017,76.365,3.611c24.126,11.626,42.026,32.036,50.405,57.473l476.628,1446.839
						c5.642,17.129,2.368,35.83-8.757,50.024C1792.884,3224.235,1777.306,3231.755,1760.843,3231.755z M1759.747,3191.711
						c6.653,0.483,10.547-3.496,11.917-5.244c1.37-1.748,4.333-6.499,2.246-12.832l-476.628-1446.838
						c-4.949-15.027-15.525-27.085-29.775-33.953c-14.253-6.872-30.276-7.625-45.115-2.131L546.79,1940.8
						c-22.8,8.442-34.646,33.125-26.968,56.194L874.83,3063.561c12.424,37.329,45.798,63.398,85.019,66.426L1759.747,3191.711z"/>
				</g>
			</g>
		</g>
	</g>
</g>
</svg>
