<?xml version="1.0" encoding="utf-8"?>
<!-- Generator: Adobe Illustrator 27.5.0, SVG Export Plug-In . SVG Version: 6.00 Build 0)  -->
<svg version="1.1" xmlns="http://www.w3.org/2000/svg" xmlns:xlink="http://www.w3.org/1999/xlink" x="0px" y="0px"
	 viewBox="0 0 500 500" style="enable-background:new 0 0 500 500;" xml:space="preserve">
<g id="BACKGROUND">
	<rect style="fill:#122126;" width="500" height="500"/>
</g>
<g id="OBJECTS">
	<g>
		<path style="fill:#22414D;" d="M198.193,38.506c-46.969,31.074-81.09,80.977-93.004,136.02
			c-1.353,6.251-2.336,13.173,0.857,18.714c3.193,5.541,12.318,7.694,15.859,2.368c-5.823,8.616-1.523,21.031,4.179,29.728
			c5.702,8.696,12.923,17.576,12.49,27.965c-0.157,3.768-1.532,7.75-5.125,9.519c-2.219,1.092-4.954,0.823-6.675-0.953
			c-3.528-3.641,0.104-9.676-1.262-14.471c-1.241-4.357-6.534-6.509-10.996-5.728c-4.463,0.782-8.212,3.719-11.626,6.697
			c-7.858,6.854-15.063,14.456-21.487,22.669c-2.419,3.092-4.861,7.096-2.806,10.71c1.033,1.817,2.959,2.91,5.024,3.23
			c3.716,0.576,7.134-0.999,10.409-2.538c-14.262,13.039-27.689,29.215-36.387,46.471C46.171,351.668,46.52,380,58.546,402.47
			c1.764,3.296,4.164,6.763,7.831,7.495c3.666,0.732,7.897-3.49,5.793-6.58c8.296,14.252,23.521,23.659,39.174,28.847
			c3.208,1.063,6.624,1.893,9.945,1.27c3.321-0.624,6.507-3.048,7.06-6.381c7.514,3.325,16.164,5.097,24.064,2.838
			c5.849-1.673,10.383-6.168,14.794-10.358c4.411-4.189,9.339-8.413,15.359-9.287c6.02-0.874,13.117,3.207,13.136,9.291
			c0.012,3.827-2.462,8.323,0.278,11.031c1.053,1.041,2.622,1.413,4.066,1.086c2.642-0.599,4.298-2.859,5.157-5.264
			c1.755-4.914,0.365-10.801-3.403-14.41c-6.725-6.442,0.984-19.369,9.819-22.317c8.834-2.947,19.551,3.159,21.52,12.261
			c0.914,4.225,0.155,8.615,0.298,12.936c0.198,5.963,2.784,12.751,10.663,12.354c2.975-0.15,5.776-1.427,8.038-3.364
			c7.606-6.514,14.314-14.074,19.883-22.397c0.437,4.299,3.867,7.871,7.934,9.332c4.067,1.461,8.929,0.386,12.002-2.653
			c-3.039,3.796,2.02,11.338,6.029,14.089c4.009,2.752,9.159,3.062,14.021,3.155c13.724,0.263,27.728-0.521,40.575-5.353
			c12.848-4.832,24.516-14.224,29.403-27.05c1.757-4.61,1.941-9.649,6.538-12.496c2.559-1.585,5.937-1.473,8.071,0.651
			c4.238,4.219-2.389,11.05,1.633,14.423c1.788,1.499,4.445,1.298,6.216-0.221c18.61-15.957,29.415-39.878,31.504-64.249
			c0.54-6.304,0.404-13.144-4.26-17.934c-2.296-2.358-5.596-3.61-8.815-2.92c-4.95,1.061-6.583,5.571-7.446,9.776
			c-0.734,3.579-1.164,7.376-3.614,10.222c-1.345,1.562-3.273,2.594-5.331,2.486c-3.956-0.208-5.474-4.246-4.824-7.539
			c0.205-1.04,0.579-2.023,1.052-2.967c1.348-2.691,2.296-5.565,2.583-8.56c1.038-10.823,8.806-21.353,16.001-29.552
			c8.194-9.337,17.853-17.668,23.651-28.655c5.798-10.987,6.619-25.967-2.233-34.683c-6.114-6.02-14.607-10.814-22.464-5.408
			c-1.774,1.221-4.097,1.496-6.046,0.581c-4.236-1.989-2.275-7.018-1.09-10.866c2.479-8.053-0.399-17.48-6.954-22.775
			c-6.555-5.295-16.376-6.127-23.728-2.01c-4.21-4.549-5.858-12.07-6.548-18.23c-1.361-12.165-2.722-24.329-4.083-36.493
			c-0.155-1.385-0.058-2.804,0.427-4.111c2.254-6.082,9.62-3.818,12.356,0.534c2.319,3.688,2.621,8.26,4.07,12.369
			c1.604,4.547,5.797,9.092,10.737,7.292c2.037-0.742,3.56-2.46,4.319-4.492c1.581-4.229,0.264-8.536-1.236-12.548
			c-12.04-32.187-38.072-58.836-69.902-71.75c-1.608-0.652-3.434,0.188-3.966,1.839l-0.538,1.667
			c-0.316,0.98-0.023,1.991,0.563,2.838c0.53,0.766,0.344,2.35-0.35,3.506c-1.041,1.733-3.525,2.084-5.411,1.356
			c-1.885-0.728-3.328-2.252-4.767-3.672c-14.996-14.809-36.673-22.577-57.662-20.663c-8.45,0.771-19.113,2.16-27.3,4.391
			c-1.883,0.513-3.865,1.031-5.753,0.221c-1.128-0.484-1.996-1.528-2.044-2.754c-0.135-3.424,5.728-4.357,4.992-8.376
			c-0.124-0.676-0.452-1.31-0.906-1.826c-1.465-1.662-3.629-2.089-5.714-2.273C213.553,28.271,206.699,32.879,198.193,38.506z"/>
		<path style="fill:#FC614B;" d="M393.908,334.227c1.383,3.62,3.813,6.992,7.29,8.703c3.477,1.711,8.074,1.409,10.8-1.344
			c1.986-2.005,2.719-4.888,3.886-7.457c0.733-1.614,1.805-3.259,3.493-3.8c2.665-0.854,5.341,1.476,6.573,3.989
			c2.801,5.716,1.449,12.503-0.005,18.699c-2.329,9.922-5.104,20.401-12.521,27.391c-1.363,1.285-2.934,2.46-4.771,2.828
			c-1.837,0.369-3.98-0.266-4.906-1.895c-2.106-3.708,3.28-8.26,1.729-12.233c-0.932-2.389-4.088-3.219-6.54-2.467
			c-2.451,0.752-4.363,2.63-6.225,4.392c-6.763,6.398-14.208,12.074-22.169,16.903c-1.848,1.121-4.014,2.234-6.076,1.585
			c-2.915-0.918-3.719-4.685-3.444-7.729c0.949-10.536,8.421-19.121,13.448-28.428c3.312-6.132,5.631-12.798,6.838-19.662
			c0.618-3.517,1.888-12.037,7.304-11.262C392.996,323.067,392.728,331.137,393.908,334.227z"/>
		<g>
			<g>
				<path style="fill:#FFF3C9;" d="M392.586,333.695c1.383,3.62,3.813,6.992,7.29,8.703c0.439,0.216,0.895,0.399,1.364,0.55
					c-0.013-0.007-0.028-0.012-0.041-0.018c-3.477-1.711-5.907-5.084-7.29-8.703c-1.169-3.06-0.924-10.995-5.177-11.756
					C391.628,324.481,391.553,330.993,392.586,333.695z"/>
				<path style="fill:#FFF3C9;" d="M425.95,334.318c-0.907-1.851-2.599-3.598-4.492-4.051c1.338,0.766,2.48,2.114,3.169,3.52
					c2.801,5.716,1.449,12.503-0.006,18.699c-2.329,9.922-5.104,20.401-12.521,27.391c-1.364,1.285-2.934,2.46-4.771,2.828
					c-0.737,0.148-1.52,0.127-2.257-0.048c1.039,0.622,2.372,0.822,3.579,0.579c1.837-0.369,3.408-1.543,4.771-2.828
					c7.417-6.99,10.192-17.469,12.521-27.391C427.399,346.821,428.751,340.034,425.95,334.318z"/>
				<path style="fill:#FFF3C9;" d="M397.614,366.11c-2.451,0.752-4.363,2.63-6.225,4.392c-6.763,6.398-14.208,12.074-22.168,16.903
					c-1.744,1.058-3.771,2.09-5.726,1.659c0.294,0.19,0.617,0.346,0.973,0.458c2.061,0.65,4.228-0.464,6.076-1.585
					c7.96-4.828,15.405-10.505,22.169-16.903c1.863-1.762,3.774-3.64,6.225-4.392c1.103-0.339,2.342-0.339,3.463-0.039
					C401.023,365.801,399.177,365.63,397.614,366.11z"/>
			</g>
		</g>
		<path style="fill:#FC614B;" d="M370.179,173.159c0.236,3.497,0.517,7.092,2.05,10.244c1.533,3.152,4.628,5.8,8.133,5.747
			c2.751-0.042,5.227-1.68,7.94-2.139c5.451-0.921,10.742,3.263,12.906,8.351c2.164,5.088,1.916,10.839,1.495,16.352
			c-0.159,2.072-0.333,4.192,0.202,6.201c0.534,2.009,1.933,3.921,3.939,4.463c2.351,0.635,4.729-0.703,7.122-1.157
			c4.412-0.837,9.011,1.523,11.738,5.091c2.727,3.568,3.823,8.144,4.102,12.626c0.888,14.243-6.388,28.713-18.35,36.495
			c-2.034,1.324-4.344,2.5-6.764,2.309c-3.652-0.287-6.386-3.628-7.559-7.098c-2.197-6.498-0.448-13.565,0.319-20.381
			c0.768-6.816,0.057-14.725-5.382-18.904c-2.474-1.901-5.644-2.766-8.02-4.79c-2.946-2.51-4.288-6.757-3.318-10.503
			c0.572-2.211,1.856-4.175,2.559-6.349c0.702-2.174,0.677-4.859-1.008-6.401c-1.467-1.342-3.711-1.383-5.657-0.971
			c-1.945,0.412-3.832,1.199-5.821,1.245c-3.691,0.085-7.043-2.47-8.934-5.642c-1.891-3.171-2.59-6.893-3.206-10.534
			c-0.956-5.647-1.756-11.615-0.426-17.27c0.903-3.839,5.296-12.755,9.664-6.877C369.954,166.029,369.958,169.883,370.179,173.159z"
			/>
		<path style="fill:#FFF3C9;" d="M366.993,165.252c2.051,2.76,2.055,6.615,2.276,9.891c0.236,3.497,0.517,7.092,2.05,10.244
			c1.533,3.152,4.628,5.8,8.133,5.747c2.751-0.042,5.227-1.68,7.94-2.139c5.451-0.921,10.742,3.263,12.906,8.351
			c2.164,5.088,1.916,10.839,1.494,16.352c-0.159,2.073-0.333,4.192,0.202,6.201c0.534,2.009,1.933,3.921,3.939,4.463
			c2.351,0.635,4.729-0.703,7.122-1.157c4.412-0.837,9.011,1.523,11.738,5.091c2.727,3.568,3.823,8.144,4.102,12.626
			c0.385,6.179-0.77,12.399-3.174,18.098c3.011-6.224,4.514-13.177,4.083-20.082c-0.279-4.482-1.376-9.058-4.102-12.626
			c-2.727-3.568-7.326-5.929-11.738-5.091c-2.392,0.454-4.771,1.792-7.122,1.157c-2.007-0.542-3.405-2.454-3.939-4.463
			c-0.535-2.009-0.36-4.129-0.202-6.201c0.422-5.513,0.669-11.264-1.495-16.352c-2.164-5.088-7.455-9.272-12.906-8.351
			c-2.713,0.459-5.188,2.097-7.94,2.139c-3.505,0.053-6.599-2.595-8.133-5.747c-1.533-3.152-1.814-6.746-2.05-10.244
			c-0.221-3.275-0.225-7.13-2.276-9.891c-3.632-4.888-7.279,0.453-8.925,4.599C360.852,164.289,363.928,161.128,366.993,165.252z"/>
		<path style="fill:#FC614B;" d="M55.999,379.594c0.63,3.451,2.059,7.447,5.465,8.288c2.018,0.499,4.145-0.32,6.208-0.067
			c3.724,0.456,6.081,4.079,8.113,7.233c6.97,10.82,17.472,20.844,30.329,21.434c4.351,0.199,8.699-0.708,13.049-0.493
			c5.159,0.255,10.111,2.075,15.231,2.758c15.46,2.063,30.374-6.346,42.558-16.085c2.385-1.907,4.934-5.143,3.169-7.635
			c-1.552-2.191-4.895-1.502-7.479-0.774c-15.455,4.357-32.876,1.047-45.656-8.674c-3.385-2.575-6.462-5.569-10.067-7.825
			c-3.605-2.256-7.943-3.751-12.108-2.89c-4.165,0.861-7.886,4.64-7.597,8.883c0.181,2.66,1.749,5.614,0.172,7.763
			c-1.465,1.996-4.552,1.634-6.838,0.684c-7.993-3.325-13.489-11.156-15.741-19.515c-2.252-8.358-1.645-17.227-0.233-25.768
			c0.964-5.831,2.252-12.048-0.122-17.46c-0.692-1.578-2.801-5.464-4.783-5.66c-2.508-0.248-3.724,3.144-4.821,5.051
			c-2.93,5.098-5.243,10.547-6.905,16.187C54.65,356.194,53.906,368.13,55.999,379.594z"/>
		<g>
			<path style="fill:#FFF2C6;" d="M97.977,390.184c0.389-0.223,0.736-0.519,1.02-0.907c1.577-2.149,0.009-5.103-0.172-7.763
				c-0.09-1.325,0.21-2.604,0.794-3.764c-1.575,1.624-2.559,3.742-2.406,5.996C97.36,385.893,98.408,388.231,97.977,390.184z"/>
			<path style="fill:#FFF2C6;" d="M178.563,400.43c-12.183,9.738-27.098,18.149-42.558,16.085
				c-5.12-0.683-10.072-2.503-15.231-2.758c-4.351-0.215-8.698,0.692-13.049,0.493c-12.857-0.589-23.359-10.614-30.329-21.434
				c-2.032-3.154-4.389-6.776-8.113-7.233c-2.063-0.253-4.19,0.565-6.208,0.067c-3.405-0.841-4.834-4.837-5.464-8.288
				c-2.093-11.464-1.349-23.4,1.943-34.566c1.663-5.639,3.975-11.088,6.905-16.187c0.336-0.585,0.684-1.31,1.077-2.027
				c-1.177,1.075-1.961,2.992-2.689,4.259c-2.93,5.098-5.243,10.547-6.905,16.187c-3.292,11.167-4.036,23.103-1.943,34.566
				c0.63,3.451,2.059,7.447,5.465,8.288c2.018,0.499,4.145-0.32,6.208-0.067c3.724,0.456,6.081,4.079,8.113,7.233
				c6.97,10.82,17.472,20.844,30.329,21.434c4.351,0.199,8.699-0.708,13.049-0.493c5.159,0.255,10.111,2.075,15.231,2.758
				c15.46,2.063,30.374-6.346,42.558-16.085c1.219-0.975,2.478-2.297,3.184-3.69C179.635,399.508,179.096,400.004,178.563,400.43z"
				/>
		</g>
		<path style="fill:#2F5A6A;" d="M33.369,324.6c-0.147,3.174,0.781,7.354,3.947,7.622c3.026,0.256,4.685-3.339,5.668-6.212
			c2.856-8.342,7.507-16.065,13.544-22.491c-0.39,1.679,2.028,2.856,3.567,2.079c1.539-0.776,2.254-2.544,2.843-4.164
			c2.811-7.734,5.621-15.468,8.432-23.202c0.746-2.052,1.474-4.418,0.415-6.328c-1.099-1.982-3.791-2.598-5.977-2.003
			c-9.284,2.525-17.973,14.763-22.613,22.521C37.383,302.139,33.894,313.278,33.369,324.6z"/>
		<path style="fill:#2F5A6A;" d="M397.872,93.725c6.83,9.941,11.544,21.329,13.74,33.189c1.091,5.895,1.263,12.792-3.032,16.974
			c-3.341,3.253-8.57,3.959-11.458,7.889c-0.737,1.002-1.212,2.2-1.265,3.443c-0.23,5.48,6.505,7.435,11.398,9.522
			c8.242,3.515,14.263,11.758,15.105,20.678c0.247,2.624,0.095,5.359,1.67,7.663c0.777,1.137,2.017,1.949,3.394,1.971
			c3.026,0.047,4.41-3.288,5.004-6.086c1.676-7.893,1.995-16.071,0.95-24.071c-0.197-1.507-0.714-2.936-1.269-4.351
			c-0.691-1.758,0.118-3.678,2.684-3.748c1.589-0.043,3.118,0.663,4.232,1.797c0.024,0.025,0.049,0.05,0.073,0.075
			c1.737,1.815,4.849,0.786,5.185-1.704c1.59-11.78-1.022-24.128-6.365-34.843c-6.694-13.425-17.359-24.519-29.097-33.86
			c-1.812-1.442-3.72-2.881-5.961-3.46c-2.242-0.579-4.916-0.094-6.31,1.755C395.156,88.407,395.647,93.083,397.872,93.725z"/>
		<path style="fill:#2F5A6A;" d="M375.688,421.647c-6.419,5.213-14.146,8.506-21.213,12.798c-3.039,1.845-6.283,4.447-6.308,8.002
			c-0.035,4.977,6.476,7.584,11.254,6.192c4.778-1.393,8.456-5.136,12.781-7.598c2.436-1.387,5.475-2.364,7.995-1.136
			c2.52,1.228,3.258,5.523,0.709,6.689c6.709,0.823,13.434-2.208,18.52-6.66c5.086-4.452,8.803-10.225,12.423-15.933
			c1.937-3.053,3.927-6.301,4.062-9.914c0.135-3.613-2.357-7.591-5.971-7.714c-2.789-0.095-5.096,1.981-7.397,3.56
			c-2.301,1.578-5.622,2.672-7.704,0.815c-2.815-2.509-2.729-14.048-8.339-6.154c-1.712,2.409-1.961,6.377-3.634,9.076
			C380.979,416.711,378.461,419.395,375.688,421.647z"/>
		<path style="fill:#FC614B;" d="M220.473,53.066c-2.937,0.213-6.639-0.219-7.629-2.992c-0.576-1.612,0.049-3.495-0.645-5.059
			c-1.134-2.554-4.754-2.548-7.451-1.818c-10.253,2.777-18.746,9.847-26.477,17.132c-13.075,12.32-25.027,25.833-35.658,40.315
			c-11.276,15.36-21.295,32.453-23.578,51.371c-0.394,3.264-0.097,7.367,2.902,8.713c1,0.449,2.162,0.492,3.107,1.049
			c2.654,1.562,1.823,5.507,1.047,8.487c-2.861,10.982,0.313,23.341,8.111,31.585c-5.085-15.292-3.241-31.977-0.22-47.807
			c3.619-18.963,9.016-37.988,19.815-53.99c14.006-20.754,36.69-35.113,61.169-40.376c7.552-1.624,22.128-2.507,26.695-9.712
			c-2.178-1.792-6.828,0.757-9.343,1.331C228.421,52.183,224.459,52.777,220.473,53.066z"/>
		<g>
			<g>
				<path style="fill:#FFF3C9;" d="M223.239,54.182c3.986-0.289,7.948-0.883,11.843-1.772c1.591-0.363,4.036-1.514,6.169-1.859
					c0.143-0.192,0.281-0.387,0.409-0.588c-2.178-1.792-6.828,0.757-9.343,1.331c-3.896,0.889-7.858,1.483-11.843,1.772
					c-1.148,0.083-2.41,0.065-3.584-0.15C218.493,54.141,221.072,54.339,223.239,54.182z"/>
				<path style="fill:#FFF3C9;" d="M121.799,153.129c2.284-18.917,12.302-36.01,23.579-51.371
					c10.631-14.482,22.583-27.994,35.658-40.315c7.731-7.285,16.224-14.355,26.477-17.132c1.221-0.331,2.631-0.509,3.914-0.373
					c-1.559-1.451-4.436-1.351-6.679-0.743c-10.253,2.777-18.746,9.847-26.477,17.132c-13.075,12.32-25.027,25.833-35.658,40.315
					c-11.276,15.36-21.295,32.453-23.578,51.371c-0.394,3.264-0.097,7.367,2.902,8.713c0.596,0.267,1.246,0.398,1.877,0.572
					C121.65,159.599,121.448,156.035,121.799,153.129z"/>
				<path style="fill:#FFF3C9;" d="M128.855,171.378c0.777-2.98,1.607-6.925-1.047-8.488c-0.689-0.406-1.494-0.54-2.267-0.757
					c2.038,1.746,1.272,5.354,0.549,8.128c-2.861,10.982,0.313,23.341,8.111,31.585c-0.432-1.301-0.798-2.615-1.133-3.934
					C128.188,190.12,126.532,180.296,128.855,171.378z"/>
			</g>
		</g>
		<path style="fill:#FC614B;" d="M141.898,240.859c3.594,7.939,2.325,17.856-3.152,24.634c-3.229,3.996-8.187,6.988-13.298,6.453
			c-5.11-0.534-9.745-5.555-8.639-10.573c0.455-2.064,1.771-4.107,1.164-6.132c-0.539-1.798-2.511-2.864-4.387-2.922
			c-1.877-0.058-3.678,0.68-5.387,1.459c-7.036,3.206-13.716,7.388-19.05,12.986c-1.243,1.305-2.442,2.741-2.942,4.473
			c-0.5,1.732-0.132,3.829,1.309,4.913c3.034,2.284,7.916-1.279,11.019,0.911c1.656,1.169,1.985,3.597,1.305,5.507
			c-0.68,1.909-2.14,3.42-3.558,4.868c-4.027,4.109-8.053,8.218-12.08,12.328c6.178-1.592,12.662-3.351,17.216-7.82
			c3.876-3.803,6.082-9.336,10.75-12.111c4.057-2.411,9.072-2.202,13.747-2.84c6.737-0.919,13.331-3.879,17.856-8.955
			c4.525-5.076,6.726-12.379,4.921-18.935c-1.371-4.983-4.803-9.103-7.116-13.724c-0.859-1.716-3.509-13.804-6.354-8.533
			C133.396,230.23,140.467,237.697,141.898,240.859z"/>
		<path style="fill:#FC614B;" d="M330.365,69.989c2.725-1.167,5-3.361,7.885-4.044c3.477-0.823,7.047,0.718,10.196,2.408
			c14.672,7.877,27.063,19.948,35.322,34.41c1.5,2.626,2.806,6.122,0.885,8.458c-2.335,2.838-6.969,1.225-10.465,2.358
			c-2.811,0.91-4.717,3.65-5.446,6.513c-0.728,2.863-0.477,5.873-0.22,8.816c-2.966-1.428-5.082-4.487-5.372-7.767
			c-0.29-3.28,1.256-6.662,3.926-8.588c1.909-1.377,4.359-2.083,5.809-3.937c1.486-1.9,1.534-4.623,0.726-6.896
			c-0.808-2.273-2.349-4.199-3.873-6.069c-4.42-5.423-8.983-10.828-14.602-14.997c-5.618-4.169-12.453-7.05-19.443-6.752
			c-4.769,0.203-10.11,1.716-13.929-1.147c-2.123-1.591-2.32-5.132,0.843-4.419c0.991,0.223,1.949,1.712,3.125,2.048
			C327.213,70.806,328.967,70.588,330.365,69.989z"/>
		<g>
			<g>
				<path style="fill:#FFF3C9;" d="M372.699,114.198c-2.811,0.91-4.717,3.65-5.446,6.513c-0.593,2.33-0.534,4.757-0.354,7.167
					c0.507,0.393,1.043,0.75,1.622,1.029c-0.257-2.943-0.508-5.953,0.22-8.816c0.619-2.432,2.095-4.763,4.245-5.971
					C372.891,114.146,372.793,114.167,372.699,114.198z"/>
				<path style="fill:#FFF3C9;" d="M321.119,68.955c0.991,0.223,1.949,1.712,3.125,2.048c1.481,0.423,3.235,0.204,4.633-0.395
					c0.246-0.106,0.486-0.227,0.725-0.348c-1.241,0.378-2.647,0.471-3.87,0.122c-1.177-0.336-2.134-1.825-3.125-2.048
					c-1.094-0.247-1.777,0.022-2.126,0.536C320.677,68.88,320.886,68.903,321.119,68.955z"/>
				<path style="fill:#FFF3C9;" d="M383.768,102.762c-8.258-14.462-20.649-26.532-35.322-34.41
					c-3.148-1.69-6.719-3.231-10.196-2.408c-0.788,0.187-1.529,0.491-2.248,0.852c0.251-0.084,0.5-0.17,0.76-0.232
					c3.477-0.823,7.048,0.717,10.196,2.408c14.673,7.877,27.063,19.948,35.322,34.41c1.5,2.626,2.806,6.122,0.884,8.458
					c-0.299,0.364-0.637,0.652-1.004,0.885c0.964-0.252,1.824-0.693,2.492-1.505C386.574,108.885,385.267,105.388,383.768,102.762z"
					/>
			</g>
		</g>
		<path style="fill:#FC614B;" d="M439.543,137.013c1.016,3.078,1.535,6.934-0.831,9.149c-2.301,2.154-6.178,1.585-8.669,3.516
			c-1.775,1.376-2.471,3.777-2.436,6.023c0.035,2.246,0.685,4.429,1.112,6.634c0.544,2.811,0.728,5.692,0.544,8.549
			c-0.087,1.353-0.413,2.931-1.646,3.495c-1.285,0.588-2.784-0.321-3.649-1.438c-1.971-2.546-2.192-6.163-4.312-8.586
			c-1.315-1.503-3.201-2.357-4.811-3.539s-3.054-3.003-2.768-4.98c0.257-1.775,1.841-3.076,3.493-3.774s3.461-0.974,5.096-1.712
			c4.916-2.22,7.17-8.269,6.563-13.628c-0.607-5.359-3.466-10.172-6.406-14.694c-2.939-4.522-6.084-9.071-7.388-14.304
			c-0.285-1.145-0.471-2.391-0.005-3.474c0.673-1.565,2.62-2.322,4.286-1.969c1.666,0.353,3.028,1.609,3.901,3.072
			c1.258,2.108,1.669,4.35,3.16,6.343c1.956,2.613,3.886,5.248,5.72,7.948C434.173,125.052,437.485,130.777,439.543,137.013z"/>
	</g>
	<g>
		<g>
			<g>
				<path style="fill:#FFFDE6;" d="M105.395,157.39c-7.898,0.891-8.62,1.613-9.511,9.51c-0.891-7.898-1.613-8.62-9.51-9.51
					c7.897-0.891,8.62-1.613,9.51-9.511C96.775,155.777,97.497,156.499,105.395,157.39z"/>
			</g>
			<g>
				<path style="fill:#FFFDE6;" d="M340.63,258.87c-7.898,0.891-8.62,1.613-9.511,9.51c-0.891-7.898-1.613-8.62-9.51-9.51
					c7.898-0.891,8.62-1.613,9.51-9.511C332.01,257.257,332.733,257.979,340.63,258.87z"/>
			</g>
			<g>
				<path style="fill:#FFFDE6;" d="M66.094,114.445c-4.472,0.504-4.881,0.913-5.386,5.386c-0.504-4.472-0.913-4.881-5.386-5.386
					c4.472-0.504,4.881-0.913,5.386-5.386C61.212,113.532,61.621,113.941,66.094,114.445z"/>
			</g>
			<g>
				<path style="fill:#FFFDE6;" d="M432.715,348.562c-4.472,0.505-4.881,0.913-5.386,5.386c-0.504-4.472-0.913-4.881-5.386-5.386
					c4.472-0.504,4.881-0.913,5.386-5.386C427.834,347.648,428.243,348.057,432.715,348.562z"/>
			</g>
			<g>
				<path style="fill:#FFFDE6;" d="M104.774,226.361c-2.159,0.244-2.357,0.441-2.6,2.6c-0.243-2.159-0.441-2.357-2.6-2.6
					c2.159-0.243,2.357-0.441,2.6-2.6C102.417,225.92,102.614,226.118,104.774,226.361z"/>
			</g>
			<g>
				<path style="fill:#FFFDE6;" d="M425.6,303.201c-2.159,0.244-2.357,0.441-2.6,2.6c-0.243-2.159-0.441-2.357-2.6-2.6
					c2.159-0.243,2.357-0.441,2.6-2.6C423.243,302.76,423.441,302.957,425.6,303.201z"/>
			</g>
			<g>
				<path style="fill:#FFFDE6;" d="M322.796,444.531c-2.159,0.244-2.357,0.441-2.6,2.6c-0.243-2.159-0.441-2.357-2.6-2.6
					c2.159-0.243,2.357-0.441,2.6-2.6C320.44,444.09,320.637,444.287,322.796,444.531z"/>
			</g>
			<g>
				<path style="fill:#FFFDE6;" d="M403.086,77.708c-9.483,1.07-10.35,1.937-11.42,11.42c-1.07-9.483-1.937-10.35-11.42-11.42
					c9.483-1.069,10.35-1.937,11.42-11.42C392.736,75.772,393.603,76.639,403.086,77.708z"/>
			</g>
			<g>
				<path style="fill:#FFFDE6;" d="M356.626,73.944c-6.183,0.697-6.748,1.263-7.446,7.446c-0.697-6.183-1.263-6.749-7.446-7.446
					c6.183-0.697,6.749-1.263,7.446-7.446C349.878,72.681,350.443,73.247,356.626,73.944z"/>
			</g>
			<g>
				<path style="fill:#FFFDE6;" d="M289.217,42.774c-6.183,0.697-6.749,1.263-7.446,7.446c-0.697-6.183-1.263-6.748-7.446-7.446
					c6.183-0.697,6.749-1.263,7.446-7.446C282.468,41.512,283.033,42.077,289.217,42.774z"/>
			</g>
			<g>
				<path style="fill:#FFFDE6;" d="M138.491,106.418c-7.866,0.887-8.585,1.606-9.472,9.472c-0.887-7.866-1.606-8.585-9.472-9.472
					c7.866-0.887,8.585-1.606,9.472-9.472C129.906,104.811,130.626,105.531,138.491,106.418z"/>
			</g>
			<g>
				<path style="fill:#FFFDE6;" d="M88.135,254.444c-15.723,1.773-17.161,3.211-18.934,18.934
					c-1.773-15.723-3.211-17.161-18.934-18.934c15.723-1.773,17.161-3.211,18.934-18.934
					C70.974,251.233,72.412,252.671,88.135,254.444z"/>
			</g>
			<g>
				<path style="fill:#FFFDE6;" d="M158.231,156.664c-5.839,0.658-6.373,1.192-7.032,7.031c-0.658-5.839-1.192-6.373-7.031-7.031
					c5.839-0.659,6.373-1.193,7.031-7.032C151.858,155.472,152.392,156.006,158.231,156.664z"/>
			</g>
			<g>
				<path style="fill:#FFFDE6;" d="M294.458,426.917c-5.839,0.659-6.373,1.193-7.031,7.031c-0.659-5.839-1.193-6.373-7.031-7.031
					c5.839-0.659,6.373-1.193,7.031-7.031C288.085,425.724,288.619,426.258,294.458,426.917z"/>
			</g>
			<g>
				<path style="fill:#FFFDE6;" d="M382.354,268.38c-6.483,0.731-7.076,1.324-7.808,7.807c-0.731-6.483-1.324-7.076-7.807-7.807
					c6.483-0.731,7.076-1.324,7.807-7.808C375.278,267.056,375.871,267.649,382.354,268.38z"/>
			</g>
			<path style="fill:#FFFDE6;" d="M363.209,111.942c0,2.196-1.78,3.975-3.975,3.975s-3.975-1.78-3.975-3.975
				c0-2.195,1.78-3.975,3.975-3.975S363.209,109.747,363.209,111.942z"/>
			<path style="fill:#FFFDE6;" d="M102.173,404.638c0,1.556-1.261,2.817-2.817,2.817s-2.817-1.261-2.817-2.817
				s1.261-2.817,2.817-2.817S102.173,403.083,102.173,404.638z"/>
			<path style="fill:#FFFDE6;" d="M347.199,426.917c0,1.556-1.261,2.817-2.817,2.817c-1.556,0-2.817-1.261-2.817-2.817
				s1.261-2.817,2.817-2.817C345.938,424.1,347.199,425.361,347.199,426.917z"/>
			<path style="fill:#FFFDE6;" d="M72.018,195.055c0,1.556-1.261,2.817-2.817,2.817c-1.556,0-2.817-1.261-2.817-2.817
				c0-1.555,1.261-2.817,2.817-2.817C70.757,192.238,72.018,193.499,72.018,195.055z"/>
			<path style="fill:#FFFDE6;" d="M432.963,240.532c0,1.556-1.261,2.817-2.817,2.817c-1.556,0-2.817-1.261-2.817-2.817
				c0-1.555,1.261-2.817,2.817-2.817C431.701,237.715,432.963,238.976,432.963,240.532z"/>
			<path style="fill:#FFFDE6;" d="M151.199,55.453c0,1.556-1.261,2.817-2.817,2.817s-2.817-1.261-2.817-2.817
				c0-1.556,1.261-2.817,2.817-2.817S151.199,53.898,151.199,55.453z"/>
			<path style="fill:#FFFDE6;" d="M391.548,226.841c0,1.556-1.261,2.817-2.817,2.817s-2.817-1.261-2.817-2.817
				s1.261-2.817,2.817-2.817S391.548,225.286,391.548,226.841z"/>
			<path style="fill:#FFFDE6;" d="M393.009,164.395c0,1.556-1.261,2.817-2.817,2.817s-2.817-1.261-2.817-2.817
				c0-1.556,1.261-2.817,2.817-2.817S393.009,162.84,393.009,164.395z"/>
		</g>
		<g>
			<g>
				<g>
					<path style="fill:#FFFDE6;" d="M234.946,385.072c-7.222,8.919-15.499,17.514-23.569,25.689
						c-8.176,8.078-16.759,16.346-25.689,23.569c7.217-8.924,15.495-17.518,23.569-25.689
						C217.437,400.567,226.021,392.3,234.946,385.072L234.946,385.072z"/>
				</g>
				<g>
					<path style="fill:#FFFDE6;" d="M245.148,409.701c-11.413,1.199-23.344,1.425-34.83,1.499
						c-11.493-0.07-23.409-0.292-34.83-1.499c11.413-1.207,23.344-1.43,34.83-1.499C221.81,408.276,233.726,408.5,245.148,409.701
						L245.148,409.701z"/>
				</g>
				<g>
					<path style="fill:#FFFDE6;" d="M234.946,434.329c-8.919-7.222-17.514-15.499-25.689-23.569
						c-8.078-8.176-16.346-16.759-23.569-25.689c8.924,7.217,17.518,15.495,25.689,23.569
						C219.451,416.82,227.718,425.404,234.946,434.329L234.946,434.329z"/>
				</g>
				<g>
					<path style="fill:#FFFDE6;" d="M210.318,444.531c-1.2-11.414-1.425-23.344-1.499-34.83c0.07-11.493,0.292-23.408,1.499-34.83
						c1.207,11.413,1.43,23.343,1.499,34.83C211.742,421.193,211.518,433.109,210.318,444.531L210.318,444.531z"/>
				</g>
			</g>
			<g>
				<g>
					<path style="fill:#FFFDE6;" d="M329.879,38.149c-5.693,8.606-13.148,16.084-21.765,21.765
						C313.795,51.297,321.272,43.842,329.879,38.149L329.879,38.149z"/>
				</g>
				<g>
					<path style="fill:#FFFDE6;" d="M334.387,49.031c-10.131,2.061-20.651,2.077-30.78,0
						C313.736,46.955,324.256,46.971,334.387,49.031L334.387,49.031z"/>
				</g>
				<g>
					<path style="fill:#FFFDE6;" d="M329.879,59.914c-8.606-5.693-16.084-13.148-21.765-21.765
						C316.731,43.83,324.186,51.307,329.879,59.914L329.879,59.914z"/>
				</g>
				<g>
					<path style="fill:#FFFDE6;" d="M318.996,64.422c-2.061-10.131-2.076-20.651,0-30.78
						C321.073,43.771,321.057,54.291,318.996,64.422L318.996,64.422z"/>
				</g>
			</g>
		</g>
	</g>
	<g>
		
			<path style="fill:#0B0B0B;stroke:#0B0B0B;stroke-width:1.5;stroke-linecap:round;stroke-linejoin:round;stroke-miterlimit:10;" d="
			M302.625,278.619c-4.418-3.264-9.727-5.589-15.219-5.518c-6.204,0.08-11.93,3.139-17.372,6.121
			c-12.775,6.998-25.822,14.21-35.477,25.117c-9.655,10.907-15.411,26.428-10.958,40.297c3.807,11.855,14.064,20.288,23.823,28.022
			c3.612,2.863,7.59,5.863,12.199,5.937c5.505,0.089,10.089-3.979,14.039-7.814c12.815-12.445,25.47-25.213,35.685-39.867
			c4.109-5.895,7.876-12.247,9.215-19.307C321.027,298.59,312.683,286.052,302.625,278.619z"/>
		
			<path style="fill:#56D7B8;stroke:#0B0B0B;stroke-width:1.5;stroke-linecap:round;stroke-linejoin:round;stroke-miterlimit:10;" d="
			M264.859,457.403c0,0,3.224,8.101,4.547,8.845c1.323,0.744,2.48-0.579,2.149-1.323c-0.331-0.744-4.216-8.018-4.216-8.101
			C267.339,456.742,266.512,455.502,264.859,457.403z"/>
		
			<path style="fill:#56D7B8;stroke:#0B0B0B;stroke-width:1.5;stroke-linecap:round;stroke-linejoin:round;stroke-miterlimit:10;" d="
			M233.277,449.724c0,0,0.507,8.704,1.528,9.827c1.021,1.123,2.536,0.232,2.457-0.578c-0.079-0.81-1.475-8.938-1.449-9.017
			C235.839,449.878,235.445,448.44,233.277,449.724z"/>
		
			<path style="fill:#FFF4BC;stroke:#0B0B0B;stroke-width:1.5;stroke-linecap:round;stroke-linejoin:round;stroke-miterlimit:10;" d="
			M309.911,373.085c0,0-9.424,1.86-10.168,9.672c-0.744,7.812,8.804,21.327,26.411,26.163s33.479-0.248,31.495-14.384
			C355.666,380.401,309.911,373.085,309.911,373.085z"/>
		
			<path style="fill:#FFF4BC;stroke:#0B0B0B;stroke-width:1.5;stroke-linecap:round;stroke-linejoin:round;stroke-miterlimit:10;" d="
			M180.83,356.718c0.62-0.248,12.152-0.23,13.888,11.727c1.736,11.957-5.456,24.729-22.567,31.92s-27.626-1.517-27.639-6.896
			C144.499,388.089,180.83,356.718,180.83,356.718z"/>
		
			<path style="fill:#378A84;stroke:#0B0B0B;stroke-width:1.5;stroke-linecap:round;stroke-linejoin:round;stroke-miterlimit:10;" d="
			M246.92,301.002l1.109,27.114c0,0-17.477,8.266-20.783,12.896c-3.307,4.629,23.807,36.207,31.082,34.223
			c7.274-1.984,51.252-44.97,50.591-48.111c-0.661-3.141-22.485-4.464-22.485-4.464l-6.117-42.159L246.92,301.002z"/>
		
			<path style="fill:#FC614B;stroke:#0B0B0B;stroke-width:1.5;stroke-linecap:round;stroke-linejoin:round;stroke-miterlimit:10;" d="
			M261.676,391.065c0,0-2.728-13.144-5.952-23.683c-3.224-10.54-25.419-23.931-25.171-36.579s18.228-27.279,18.228-27.279
			s-30.131-2.728-37.447,4.092c-7.316,6.82-18.6,20.956-14.384,37.075s29.883,23.807,36.207,31.619
			C239.481,384.121,256.446,399.629,261.676,391.065z"/>
		
			<path style="fill:#FC614B;stroke:#0B0B0B;stroke-width:1.5;stroke-linecap:round;stroke-linejoin:round;stroke-miterlimit:10;" d="
			M310.241,361.182c0,0-19.013,4.795-29.594,14.88s-18.186,19.84-24.469,16.864c-6.282-2.976-4.96-18.848,13.888-38.687
			c18.848-19.84,39.183-23.973,38.026-47.284c-1.157-23.311-23.214-25.963-30.751-22.981c-7.538,2.982,18.021-21.327,23.477-22.65
			c5.456-1.323,41.828,3.141,41.994,35.876C342.977,329.935,329.802,353.411,310.241,361.182z"/>
		<path style="fill:none;stroke:#0B0B0B;stroke-width:1.5;stroke-linecap:round;stroke-linejoin:round;stroke-miterlimit:10;" d="
			M214.681,311.748c0,0-13.061,15.541-4.299,34.554c8.762,19.013,22.981,11.904,36.207,31.909"/>
		<path style="fill:none;stroke:#0B0B0B;stroke-width:1.5;stroke-linecap:round;stroke-linejoin:round;stroke-miterlimit:10;" d="
			M292.303,270.912c0,0,27.573,0.288,38.191,27.875"/>
		<path style="fill:none;stroke:#0B0B0B;stroke-width:1.5;stroke-linecap:round;stroke-linejoin:round;stroke-miterlimit:10;" d="
			M284.119,276.864c0,0,26.783,2.452,30.007,28.257"/>
		<path style="fill:none;stroke:#0B0B0B;stroke-width:1.5;stroke-linecap:round;stroke-linejoin:round;stroke-miterlimit:10;" d="
			M233.033,306.375c0,0-15.872,11.259-13.144,26.957c2.728,15.698,26.42,21.881,29.578,45.697"/>
		<g>
			<path style="fill:#56D7B8;" d="M211.903,317.49c-23.595-0.002-30.933-17-35.317-27.156c-0.514-1.19-0.985-2.28-1.435-3.23
				c-4.398-9.268-16.207-42.082-17.307-45.142c-9.629-6.79-8.572-21.867-8.272-24.753c-6.651-4.838-5.939-16.759-5.904-17.273
				l-1.157-51.286c-3.027-15.304,8.067-19.633,10.406-20.366c8.168-25.468,23.143-44.077,44.512-55.309
				c15.544-8.17,34.056-12.312,55.023-12.312c17.354,0,30.062,2.992,30.189,3.022c40.719,11.542,57.957,39.091,65.254,60.172
				c6.066,17.527,7.713,37.348,4.76,57.318c-2.752,18.612-9.379,35.899-18.66,48.679c-15.522,21.374-35.405,41.919-55.987,57.852
				c-21.039,16.287-41.433,26.614-57.425,29.081c-3.022,0.466-5.94,0.702-8.674,0.702C211.906,317.49,211.905,317.49,211.903,317.49
				z"/>
			<path style="fill:#0B0B0B;" d="M252.452,61.414c17.467,0,30.014,3.002,30.014,3.002c83.987,23.807,82.499,121.517,50.921,164.999
				c-31.578,43.482-79.689,81.507-112.92,86.633c-3.077,0.475-5.922,0.694-8.565,0.694c-25.898,0-31.874-21.106-36.074-29.957
				c-4.629-9.754-17.36-45.3-17.36-45.3c-10.416-7.109-8.101-24.634-8.101-24.634c-6.779-4.464-5.952-16.864-5.952-16.864
				l-1.157-51.417c-3.307-16.533,10.25-19.674,10.25-19.674C171.705,71.524,220.382,61.414,252.452,61.414 M252.452,59.914
				c-21.09,0-39.72,4.171-55.372,12.399c-21.449,11.274-36.506,29.905-44.761,55.383c-3.112,1.085-13.519,5.902-10.556,21.037
				l1.153,51.224c-0.065,1.115-0.556,12.515,5.87,17.598c-0.333,3.77-0.918,18.086,8.432,24.882
				c1.552,4.324,12.875,35.759,17.256,44.991c0.442,0.932,0.919,2.036,1.424,3.206c4.165,9.648,11.918,27.608,36.005,27.608
				c2.775,0,5.733-0.239,8.793-0.711c16.116-2.486,36.632-12.866,57.77-29.229c20.637-15.976,40.573-36.575,56.135-58.005
				c9.351-12.876,16.026-30.281,18.795-49.011c2.97-20.089,1.313-40.032-4.793-57.673c-7.355-21.249-24.728-49.017-65.728-60.639
				c-0.02-0.006-0.04-0.011-0.06-0.016C282.296,62.833,269.896,59.914,252.452,59.914L252.452,59.914z"/>
		</g>
		<path style="fill:#378A84;" d="M341.152,110.203c6.068,29.366,1.15,60.56-10.959,81.474
			c-26.925,46.506-70.858,89.291-103.384,97.816c-32.525,8.525-41.808-15.279-47.419-24.504
			c-5.61-9.225-21.939-43.268-21.939-43.268c-11.093-5.997-10.598-23.667-10.598-23.667c-0.956-0.497-1.79-1.149-2.524-1.903
			l0.086,3.835c0,0-0.827,12.4,5.952,16.864c0,0-2.315,17.525,8.101,24.634c0,0,12.73,35.546,17.36,45.3
			c4.629,9.754,11.408,34.388,44.639,29.263c33.231-5.125,81.342-43.151,112.92-86.633
			C354.068,200.938,361.839,149.205,341.152,110.203z"/>
		<path style="fill:#378A84;" d="M159.766,113.22c-2.202,4.482-4.177,9.348-5.898,14.607c23.613,1.272,31.344,17.729,31.344,17.729
			C179.714,126.268,166.161,116.756,159.766,113.22z"/>
		<path style="fill:#378A84;" d="M147.164,132.513c-2.984,2.849-5.562,7.77-3.905,16.055l1.157,51.417c0,0-0.161,2.438,0.249,5.54
			c0.24,0.15,0.472,0.311,0.717,0.455c18.251,10.745,45.063,15.581,45.063,15.581s5.169,0.269,4.846-8.865
			c-0.323-9.133-4.523-48.353-22.935-69.038C161.967,131.989,153.996,129.385,147.164,132.513z"/>
		
			<path style="fill:#0B0B0B;stroke:#0B0B0B;stroke-width:1.5;stroke-linecap:round;stroke-linejoin:round;stroke-miterlimit:10;" d="
			M185.79,221.561c0,0,3.968,0.248,3.72-8.184c-0.248-8.432-3.472-44.639-17.608-63.734c-14.136-19.096-22.443-11.904-30.379,4.464
			c-7.936,16.368-4.34,43.151,9.672,53.071C165.206,217.097,185.79,221.561,185.79,221.561z"/>
		<path style="fill:#378A84;" d="M234.947,149.395c0,0,4.581-21.447,35.433-31.059c30.851-9.612,51.603,4.28,58.215,12.958
			C328.594,131.294,279.408,98.804,234.947,149.395z"/>
		<path style="fill:#378A84;" d="M218.478,223.917c0,0-4.684-26.419,27.255-62.295s74.761-33.212,87.073-21.135
			c12.312,12.077-2.319,52.926-33.009,73.173C269.107,233.907,219.772,231.154,218.478,223.917z"/>
		
			<path style="fill:#56D7B8;stroke:#0B0B0B;stroke-width:1.5;stroke-linecap:round;stroke-linejoin:round;stroke-miterlimit:10;" d="
			M154.667,215.981c0,0,18.352-11.036,36.827,7.936"/>
		
			<path style="fill:#0B0B0B;stroke:#0B0B0B;stroke-width:1.5;stroke-linecap:round;stroke-linejoin:round;stroke-miterlimit:10;" d="
			M218.525,220.445c0,0-4.34-24.593,25.254-57.989c29.594-33.396,69.273-30.917,80.681-19.674
			c11.408,11.242-2.149,49.268-30.586,68.116C265.437,229.745,219.724,227.182,218.525,220.445z"/>
		
			<path style="fill:#56D7B8;stroke:#0B0B0B;stroke-width:1.5;stroke-linecap:round;stroke-linejoin:round;stroke-miterlimit:10;" d="
			M215.508,227.43c0,0,5.302-11.502,30.917-9.077c25.615,2.425,41.002,16.351,41.002,16.351"/>
		<path style="fill:none;stroke:#0B0B0B;stroke-width:1.5;stroke-linecap:round;stroke-linejoin:round;stroke-miterlimit:10;" d="
			M289.763,223.064c0.493,0.055,20.1-7.253,30.996-23.011"/>
		<path style="fill:none;stroke:#0B0B0B;stroke-width:1.5;stroke-linecap:round;stroke-linejoin:round;stroke-miterlimit:10;" d="
			M231.71,154.189c0,0,12.785-23.146,41.69-30.421c28.905-7.274,51.225,2.149,61.641,12.896"/>
		<path style="fill:none;stroke:#0B0B0B;stroke-width:1.5;stroke-linecap:round;stroke-linejoin:round;stroke-miterlimit:10;" d="
			M152.931,128.191c0,0,22.402-2.439,34.471,21.203"/>
		
			<path style="fill:#5E251B;stroke:#0B0B0B;stroke-width:1.5;stroke-linecap:round;stroke-linejoin:round;stroke-miterlimit:10;" d="
			M168.554,241.277c0,0,0.62-10.044,8.804-8.68c8.184,1.364,20.459,9.92,35.711,8.06c15.252-1.86,29.759-11.154,43.275-3.345
			c13.516,7.809,11.036,25.664-3.596,36.204c-14.632,10.54-38.563,18.475-61.255,5.456
			C168.802,265.952,168.306,247.848,168.554,241.277z"/>
		
			<path style="fill:#FCF3C8;stroke:#0B0B0B;stroke-width:1.5;stroke-linecap:round;stroke-linejoin:round;stroke-miterlimit:10;" d="
			M262.371,242.784c-1.442-2.111-3.439-3.977-6.027-5.472c-13.516-7.809-28.023,1.485-43.275,3.345
			c-15.252,1.86-27.527-6.696-35.711-8.06c-1.02-0.17-1.922-0.162-2.721-0.02c-0.001,0.004-2.775,11.717,4.333,16.098
			c7.109,4.381,11.986-3.307,11.986-3.307s3.307,11.242,10.829,11.656c7.523,0.413,8.597-7.44,8.597-7.44s4.299,8.184,12.4,6.035
			c8.101-2.149,7.357-9.176,7.357-9.176s5.208,6.448,11.986,4.216c6.779-2.232,5.456-9.672,5.456-9.672
			S255.589,247.302,262.371,242.784z"/>
		<path style="fill:none;stroke:#0B0B0B;stroke-width:1.5;stroke-linecap:round;stroke-linejoin:round;stroke-miterlimit:10;" d="
			M180.954,280.501c0,0,13.888,24.469,52.409,12.4"/>
		
			<path style="fill:#FC614B;stroke:#0B0B0B;stroke-width:1.5;stroke-linecap:round;stroke-linejoin:round;stroke-miterlimit:10;" d="
			M237.621,263.843c-10.912-2.605-18.047,3.101-18.047,3.101s-5.637-5.084-17.763-2.232c-12.051,2.834-14.975,11.167-15.011,11.271
			c1.452,1.019,3.004,2.019,4.694,2.988c22.691,13.02,46.623,5.084,61.254-5.456C252.748,273.516,248.532,266.448,237.621,263.843z"
			/>
		<path style="fill:none;stroke:#0B0B0B;stroke-width:1.5;stroke-linecap:round;stroke-linejoin:round;stroke-miterlimit:10;" d="
			M224.8,264.319c0,0-12.475,4.733-15.451,14.777"/>
		
			<path style="fill:#0B0B0B;stroke:#0B0B0B;stroke-width:1.5;stroke-linecap:round;stroke-linejoin:round;stroke-miterlimit:10;" d="
			M211.54,218.018c0,2.648-0.944,4.795-2.108,4.795c-1.164,0-2.108-2.147-2.108-4.795c0-2.648,0.944-4.794,2.108-4.794
			C210.596,213.223,211.54,215.37,211.54,218.018z"/>
		
			<path style="fill:#0B0B0B;stroke:#0B0B0B;stroke-width:1.5;stroke-linecap:round;stroke-linejoin:round;stroke-miterlimit:10;" d="
			M202.858,218.018c0,2.648-0.944,4.795-2.108,4.795c-1.164,0-2.108-2.147-2.108-4.795c0-2.648,0.944-4.794,2.108-4.794
			C201.914,213.223,202.858,215.37,202.858,218.018z"/>
		
			<path style="fill:#56D7B8;stroke:#0B0B0B;stroke-width:1.5;stroke-linecap:round;stroke-linejoin:round;stroke-miterlimit:10;" d="
			M78.111,363.453c0,0,2.405,12.608,4.637,13.228c2.232,0.62,11.904,0.992,15.128,4.34c3.224,3.348,3.472,5.084,6.944,4.96
			c3.472-0.124,14.26,5.828,18.848,9.052c4.588,3.224,14.466,5.415,24.221,0c9.755-5.414,34.719-11.697,36.703-24.593
			c1.984-12.896-3.968-21.989-11.077-25.461c-7.109-3.472-77.87-10.746-84.814-5.787C81.756,344.153,78.111,363.453,78.111,363.453z
			"/>
		<path style="fill:#378A84;" d="M134.166,372.321c-1.943,2.914,0.971,12.627,5.828,17.484c-14.272,0.714-28.02-5.385-42.014-8.673
			c3.121,3.274,3.408,4.972,6.84,4.849c3.472-0.124,14.26,5.828,18.848,9.052c4.588,3.224,14.466,5.415,24.221,0
			c9.755-5.415,34.719-11.697,36.703-24.593c1.221-7.935-0.569-14.422-3.778-19.054
			C164.658,350.185,145.836,359.817,134.166,372.321z"/>
		<path style="fill:none;stroke:#0B0B0B;stroke-width:1.5;stroke-linecap:round;stroke-linejoin:round;stroke-miterlimit:10;" d="
			M78.111,363.453c0,0,2.405,12.608,4.637,13.228c2.232,0.62,11.904,0.992,15.128,4.34c3.224,3.348,3.472,5.084,6.944,4.96
			c3.472-0.124,14.26,5.828,18.848,9.052c4.588,3.224,14.466,5.415,24.221,0c9.755-5.414,34.719-11.697,36.703-24.593
			c1.984-12.896-3.968-21.989-11.077-25.461c-7.109-3.472-77.87-10.746-84.814-5.787C81.756,344.153,78.111,363.453,78.111,363.453z
			"/>
		<path style="fill:#FCF3C8;" d="M244.936,195.398c0,0-5.704-2.232-1.612-13.268c4.092-11.036,22.939-31.702,34.719-27.941
			c11.78,3.761,0.372,17.773-7.564,23.725C262.544,183.866,251.508,199.738,244.936,195.398z"/>
		<path style="fill:#FCF3C8;" d="M180.458,198.994c0,0,4.547-3.232,0-19.1s-12.813-17.521-15.954-13.883
			c-3.141,3.637-2.067,11.738,3.472,18.352C173.514,190.975,175.911,200.895,180.458,198.994z"/>
		<path style="fill:#FCF3C8;" d="M152.373,156.587c0,0,0.496,6.138,6.2,4.96c5.704-1.178,5.58-12.09,1.86-14.384
			C156.713,144.869,150.761,148.527,152.373,156.587z"/>
		<path style="fill:#FCF3C8;" d="M291.249,153.363c0,0-1.612-6.51,6.82-8.556c8.432-2.046,12.276,5.869,7.75,9.382
			C301.293,157.703,292.923,157.517,291.249,153.363z"/>
		<path style="fill:none;stroke:#0B0B0B;stroke-width:1.5;stroke-linecap:round;stroke-linejoin:round;stroke-miterlimit:10;" d="
			M332.23,316.741c0,0-5.861,19.264-26.535,27.826c-20.675,8.561-38.287,26.549-40.471,30.758"/>
		<g>
			<path style="fill:#56D7B8;" d="M351.468,397.511c-6.641,0-11.936-2.657-14.629-5.059c-1.007,0.31-3.635,0.997-7.064,0.997
				c-5.907,0-14.229-2.059-20.335-11.866c-12.11-19.458,5.578-51.984,9.247-58.307c3.477-5.992,7.043-10.446,10.19-14.376
				c3.748-4.682,6.708-8.379,7.41-12.328c0.384-2.156,1.367-6.82,2.613-12.726c3.06-14.502,7.684-36.419,8.622-45.909
				c1.454-14.729,4.59-28.439,17.575-29.029c0.246-0.011,0.49-0.017,0.731-0.017c4.713,0,8.5,2.143,10.662,6.033
				c3.748,6.742,1.983,17.514-4.605,28.112c-10.797,17.368-14.503,55.879-11.666,61.423c0.174,0.341,0.31,0.421,0.335,0.423
				c4.264,0,28.954-36.272,35.148-49.175c6.233-12.986,13.396-25.003,23.509-25.003c1.488,0,3.014,0.273,4.532,0.814
				c3.438,1.221,5.666,3.786,6.446,7.419c2.022,9.42-5.504,23.426-13.948,31.523c-11.831,11.344-34.848,43.995-35.822,49.681
				c-0.574,3.347,0.69,5.602,1.914,7.782c0.782,1.396,1.521,2.714,1.727,4.224c0.094,0.689,0.339,1.756,0.65,3.105
				c1.273,5.541,3.643,15.854,1.491,26.083c-2.933,13.927-12.634,27.667-23.591,33.414
				C359.118,396.582,355.369,397.511,351.468,397.511z"/>
			<path style="fill:#0B0B0B;" d="M365.828,209.641c12.206,0,16.618,14.986,5.42,32.999c-11.408,18.352-15.541,62.66-10.746,62.991
				c0.021,0.001,0.043,0.002,0.064,0.002c4.948,0,29.886-37.255,35.812-49.601c5.25-10.938,12.559-24.576,22.833-24.577
				c1.374,0,2.799,0.243,4.281,0.77c12.565,4.464,4.299,26.122-7.77,37.695c-12.069,11.573-35.05,44.308-36.042,50.095
				c-0.992,5.787,3.141,8.597,3.637,12.234c0.496,3.637,4.794,16.368,2.149,28.933c-2.645,12.565-11.472,26.751-23.204,32.904
				c-3.652,1.915-7.352,2.674-10.794,2.674c-6.281,0-11.708-2.525-14.443-5.158c0,0-3.006,1.097-7.251,1.097
				c-5.755,0-13.786-2.015-19.698-11.513c-10.272-16.503,1.488-44.143,9.259-57.535c7.77-13.392,16.368-19.509,17.69-26.949
				c1.323-7.44,9.92-45.3,11.242-58.692c1.323-13.392,4.133-27.775,16.864-28.354C365.365,209.647,365.599,209.641,365.828,209.641
				 M365.828,208.141c-0.252,0-0.507,0.006-0.765,0.018c-15.423,0.701-17.358,20.291-18.288,29.705
				c-0.933,9.447-5.55,31.331-8.606,45.813c-1.249,5.919-2.235,10.594-2.621,12.764c-0.669,3.761-3.576,7.392-7.257,11.989
				c-3.007,3.755-6.749,8.428-10.254,14.47c-3.707,6.388-21.572,39.258-9.234,59.08c6.287,10.1,14.874,12.22,20.971,12.22
				c3.131,0,5.628-0.562,6.884-0.913c2.884,2.417,8.212,4.974,14.811,4.974c4.024,0,7.89-0.958,11.49-2.846
				c11.142-5.844,21.001-19.794,23.975-33.924c2.188-10.392-0.207-20.809-1.494-26.406c-0.306-1.331-0.548-2.383-0.637-3.039
				c-0.225-1.651-1.034-3.094-1.817-4.49c-1.212-2.162-2.357-4.204-1.828-7.289c0.876-5.111,23.038-37.218,35.601-49.266
				c8.594-8.24,16.241-22.546,14.163-32.223c-0.838-3.9-3.233-6.656-6.928-7.969c-1.6-0.568-3.209-0.856-4.782-0.856
				c-10.53,0.001-17.848,12.222-24.187,25.428c-2.837,5.911-10.328,17.996-17.811,28.735c-9.895,14.2-14.842,19.08-16.397,19.898
				c-0.877-1.815-1.469-10.135,0.739-24.795c2.293-15.222,6.289-28.267,10.966-35.789c6.834-10.993,8.562-21.787,4.624-28.873
				C374.845,210.421,370.826,208.141,365.828,208.141L365.828,208.141z"/>
		</g>
		<path style="fill:#378A84;" d="M415.722,269.92c10.637-10.199,18.311-28.225,11.384-35.418
			c-6.409,12.451-23.104,43.065-30.16,50.347c-4.424,4.566-8.854,5.432-11.269,5.512c-0.938,0.031-1.624,0.889-1.421,1.805
			c0.229,1.035,0.496,2.315,0.665,3.381c1.072,6.733-6.897,24.714-14.83,30.3c-7.933,5.586-23.725-7.979-37.86,2.146
			c-14.136,10.125,0,20.816,0,20.816s17.642,11.046,6.589,40.725c0,0,13.995-5.206,16.971-11.323c0,0,11.773,3.775,27.965-11.013
			c0.71-2.02,1.296-4.038,1.712-6.016c2.645-12.565-1.653-25.295-2.149-28.933c-0.496-3.637-4.629-6.448-3.637-12.234
			C380.672,314.228,403.653,281.493,415.722,269.92z"/>
		
			<path style="fill:#F3A76B;stroke:#0B0B0B;stroke-width:1.5;stroke-linecap:round;stroke-linejoin:round;stroke-miterlimit:10;" d="
			M172.687,363.496c0,0,3.472-24.138,6.283-32.901c2.811-8.762,21.575-50.095,22.609-55.716c1.033-5.621-1.612-12.4-3.431-12.565
			c-1.819-0.165-15.872-2.976-45.631,10.746c-29.759,13.722-65.305,39.672-65.305,39.672s52.74,47.953,58.031,50.763
			C150.533,366.307,172.687,363.496,172.687,363.496z"/>
		
			<path style="fill:#56D7B8;stroke:#0B0B0B;stroke-width:1.5;stroke-linecap:round;stroke-linejoin:round;stroke-miterlimit:10;" d="
			M318.839,333.654c0,0,14.508-8.432,25.915-7.192c11.408,1.24,25.419,8.928,30.751,10.044c5.332,1.116,11.532,7.44,8.06,14.88
			c-3.472,7.44-15.252,7.688-19.467,2.852c-4.216-4.836-8.308-6.944-13.02-7.688c-4.712-0.744-16.864,0.868-21.203,4.96"/>
		<path style="fill:#378A84;" d="M383.565,351.386c3.472-7.44-2.728-13.764-8.06-14.88c-1.737-0.364-4.406-1.429-7.596-2.738
			c0,0,0,0,0,0c0,0,2.016,8.938-3.812,10.798c-5.828,1.86-28.125-4.555-32.972,5.969c-0.003,0.005-0.004,0.011-0.006,0.017
			c5.071-3.378,15.636-4.684,19.958-4.001c4.712,0.744,8.804,2.852,13.02,7.688C368.313,359.074,380.093,358.826,383.565,351.386z"
			/>
		<path style="fill:none;stroke:#0B0B0B;stroke-width:1.5;stroke-linecap:round;stroke-linejoin:round;stroke-miterlimit:10;" d="
			M318.839,333.654c0,0,14.508-8.432,25.915-7.192c11.408,1.24,25.419,8.928,30.751,10.044c5.332,1.116,11.532,7.44,8.06,14.88
			c-3.472,7.44-15.252,7.688-19.467,2.852c-4.216-4.836-8.308-6.944-13.02-7.688c-4.712-0.744-16.864,0.868-21.203,4.96"/>
		<path style="fill:none;stroke:#0B0B0B;stroke-width:1.5;stroke-linecap:round;stroke-linejoin:round;stroke-miterlimit:10;" d="
			M345.847,346.474c0,0,7.5,11.466,0,28.85"/>
		<path style="fill:none;stroke:#0B0B0B;stroke-width:1.5;stroke-linecap:round;stroke-linejoin:round;stroke-miterlimit:10;" d="
			M337.025,391.602c0,0,5.745-6.365,7.357-9.837"/>
		
			<path style="fill:#56D7B8;stroke:#0B0B0B;stroke-width:1.5;stroke-linecap:round;stroke-linejoin:round;stroke-miterlimit:10;" d="
			M379.678,323.392c0,0,8.599,1.511,12.071,3.903c3.472,2.391,6.944,7.103,4.216,12.683c-2.728,5.58-16.556,25.667-28.056,31.867
			c-11.5,6.2-17.699-0.62-15.219-10.044c2.48-9.424,12.648-10.362,15.996-12.993c3.348-2.631,12.152-15.651,12.152-15.651"/>
		
			<path style="fill:#FFF2C6;stroke:#0B0B0B;stroke-width:1.5;stroke-linecap:round;stroke-linejoin:round;stroke-miterlimit:10;" d="
			M163.702,355.354c0,0,6.918-3.359,6.877-11.289c-0.041-7.93,1.32-15.99,3.74-15.618c2.419,0.372,3.411,7.677,4.403,15.618
			c0.992,7.941,6.931,5.574,6.256,0c-0.676-5.574-5.388-18.47-6.132-26.158c-0.744-7.688-0.868-13.144,1.24-13.64
			c2.108-0.496,3.224,5.704,3.1,11.904c-0.124,6.2,1.612,9.176,4.34,8.68c2.728-0.496,7.688-6.2,2.728-16.864
			c-4.96-10.664-4.092-13.144-2.976-17.112c1.116-3.968,3.472-7.033,4.092-5.129c0.62,1.905-0.482,8.849,0.999,10.461
			c1.481,1.612,4.705-3.472,2.597-7.812c-2.108-4.34-0.992-8.184-0.124-10.912c0.868-2.728,4.216-5.58,4.216-8.804
			s1.571-5.775-0.744-7.558c-2.315-1.783-14.423-1.706-22.65,1.524c-8.228,3.229-21.327,8.266-24.965,9.258
			c-3.637,0.992-7.77,3.472-9.92,4.96c-2.149,1.488-20.336,14.053-27.445,15.706s-22.968,13.247-24.958,17.205
			C86.386,313.732,140.168,357.131,163.702,355.354z"/>
		<g>
			
				<path style="fill:#FFF4BC;stroke:#0B0B0B;stroke-width:1.5;stroke-linecap:round;stroke-linejoin:round;stroke-miterlimit:10;" d="
				M265.935,459.502c-0.908,0-1.779-0.512-2.195-1.386c-13.089-27.521-3.895-75.532-3.496-77.561
				c0.258-1.316,1.533-2.179,2.849-1.916c1.316,0.258,2.174,1.533,1.916,2.849c-0.094,0.482-9.282,48.474,3.117,74.541
				c0.576,1.211,0.061,2.661-1.15,3.237C266.64,459.426,266.284,459.502,265.935,459.502z"/>
		</g>
		<path style="fill:#E8AD6B;" d="M144.981,329.768c2.848,1.376,6.118,2.726,9.087-0.164c0.605-0.589,1.094-1.295,1.462-2.056
			c1.991-4.125,0.814-8.89,2.326-13.063c1.068-2.946,3.353-5.258,5.572-7.47c1.568-1.562,3.246-3.189,5.394-3.721
			c1.987-0.493,4.161,0.017,6.077-0.706c2.244-0.847,3.641-3.488,3.078-5.82c-0.249-1.031-0.83-2.001-0.81-3.062
			c0.028-1.532,1.285-2.748,2.567-3.588c1.281-0.84,2.734-1.545,3.582-2.821c0.632-0.951,0.849-2.107,1.156-3.206
			c0.379-1.354,0.99-2.766,2.435-3.262c0.718-0.247,1.565-0.079,2.054,0.501c0.908,1.077,0.132,2.47-0.659,3.481
			c-1.813,2.317-3.937,4.559-4.653,7.413c-0.963,3.836,0.837,7.754,2.4,11.387c0.993,2.309,1.902,4.866,1.98,7.332
			c0.037,1.156-1.628,1.404-1.961,0.296l-1.94-6.472c-0.563-1.877-1.322-3.999-3.623-4.225c-1.263-0.124-2.49,0.47-3.341,1.411
			c-2.832,3.131-2.81,7.533-2.323,11.552c0.432,3.559,1.163,7.081,2.183,10.518c0.36,1.214-1.323,1.884-1.907,0.761
			c-0.4-0.769-0.679-1.617-0.842-2.454c-0.438-2.245-0.283-4.582-0.82-6.805c-0.248-1.025-0.665-2.051-1.443-2.763
			c-0.778-0.712-1.981-1.034-2.921-0.555c-0.615,0.313-1.031,0.905-1.399,1.489c-3.055,4.849-4.45,10.723-3.9,16.427
			c0.425,4.41,1.971,8.806,0.833,13.18c-0.167,0.643-0.461,1.254-0.865,1.781c-1.874,2.445-3.962,1.348-6.01,1.1
			c-2.503-0.303-4.967,0.671-7.469,0.975c-6.878,0.835-13.268-3.375-18.765-7.592c-3.752-2.878-8.962-8.933-3.56-12.825
			c0.982-0.708,2.068-1.268,3.054-1.975c0.72-0.517,1.356-1.296,2.226-1.252c0.627,0.032,1.829,1.075,2.381,1.382
			C138.691,326.612,141.813,328.237,144.981,329.768z"/>
		<path style="fill:#E8AD6B;" d="M179.647,264.16c-4.055,1.926-7.37,5.152-11.372,7.187c-5.311,2.701-11.473,3.14-17.075,5.17
			c-7.104,2.575-13.023,7.592-19.683,11.161c-9.094,4.873-19.921,7.29-26.858,14.927c-1.825,2.009-3.358,4.94-2.083,7.336
			c0.837,1.574,2.624,2.361,4.309,2.946c2.98,1.034,6.802,1.578,8.84-0.829c2.609-3.082,0.157-8.625,3.083-11.408
			c2.745-2.612,7.53-0.316,10.944-1.96c2.657-1.279,3.644-4.459,5.068-7.041c2.973-5.391,8.992-8.96,15.148-8.98
			c3.792-0.013,7.814,1.174,11.236-0.459c3.195-1.524,4.927-5.112,7.953-6.949c2.543-1.543,5.672-1.665,8.646-1.689
			c4.419-0.036,11.941-0.455,12.392-6.379C190.645,261.295,183.048,262.544,179.647,264.16z"/>
		
			<path style="fill:#F3A76B;stroke:#0B0B0B;stroke-width:1.5;stroke-linecap:round;stroke-linejoin:round;stroke-miterlimit:10;" d="
			M96.016,307.987c0,0-5.084-3.1-8.06-2.852c-2.976,0.248-14.012,5.704-17.483,15.5c-3.472,9.796,1.86,15.779,3.596,16.879
			c1.736,1.1,38.266,22.389,38.338,22.224c0.072-0.165,34.696,23.143,41.392,23.267c6.696,0.124,15.004-3.224,19.22-11.904
			s-2.613-18.352-9.118-20.583c-6.505-2.232-23.989-9.3-33.165-14.508C121.559,330.802,104.572,311.583,96.016,307.987z"/>
		<path style="fill:none;stroke:#0B0B0B;stroke-width:1.5;stroke-linecap:round;stroke-linejoin:round;stroke-miterlimit:10;" d="
			M174.319,365.894c-0.013-0.865,0.063-10.044-11.592-8.184c-11.656,1.86-12.384,22.41-4.12,21.699
			c8.264-0.711,13.792-9.672,12.428-13.516c-1.364-3.844-12.028-0.992-11.656,4.712c0.372,5.704,6.448,0.744,6.82-1.612"/>
		<g>
			
				<path style="fill:#FFF4BC;stroke:#0B0B0B;stroke-width:1.5;stroke-linecap:round;stroke-linejoin:round;stroke-miterlimit:10;" d="
				M234.518,452.144c-1.262,0-2.327-0.975-2.42-2.254c-3.249-44.979,13.282-69.247,13.987-70.259
				c0.766-1.099,2.279-1.37,3.381-0.602c1.099,0.767,1.369,2.278,0.605,3.378c-0.167,0.241-16.244,24.004-13.128,67.134
				c0.096,1.337-0.91,2.499-2.247,2.596C234.636,452.142,234.577,452.144,234.518,452.144z"/>
		</g>
		
			<path style="fill:#AC9C7B;stroke:#0B0B0B;stroke-width:1.5;stroke-linecap:round;stroke-linejoin:round;stroke-miterlimit:10;" d="
			M146.143,302.241c-0.365-0.436-0.336-1.094-0.114-1.618c0.222-0.524,0.604-0.961,0.917-1.436c0.63-0.956,0.985-2.091,1.014-3.236
			c-1.362-0.16-2.793,0.647-3.869,1.497c-1.076,0.85-2.422,1.694-3.731,1.285c-0.932-0.292-1.585-1.192-1.791-2.147
			c-0.206-0.955-0.027-1.954,0.276-2.883c1.246-3.814,4.656-6.779,8.556-7.723c3.9-0.944,8.173,0.065,11.396,2.455
			c2.477,1.836,4.424,4.641,4.481,7.724c0.023,1.227-0.279,2.505-1.084,3.43c-0.805,0.926-2.179,1.408-3.316,0.948
			c-0.889-0.36-1.482-1.191-2.026-1.98c-0.595-0.864-1.19-1.729-1.785-2.593c-0.349-0.507-1.344-0.302-1.639,0.238
			c-0.295,0.54-0.156,1.224,0.139,1.764c0.295,0.54,0.73,0.99,1.064,1.507c0.335,0.517,0.571,1.152,0.403,1.744
			c-0.215,0.755-1.001,1.186-1.744,1.436C151.145,303.373,147.597,303.976,146.143,302.241z"/>
		
			<path style="fill:#AC9C7B;stroke:#0B0B0B;stroke-width:1.5;stroke-linecap:round;stroke-linejoin:round;stroke-miterlimit:10;" d="
			M178.524,268.957c-0.121-0.319,0.026-0.686,0.255-0.939c0.229-0.253,0.532-0.425,0.803-0.633c0.546-0.418,0.972-0.991,1.214-1.634
			c-0.74-0.36-1.711-0.185-2.488,0.084c-0.778,0.27-1.707,0.482-2.368-0.008c-0.471-0.349-0.663-0.989-0.591-1.57
			c0.072-0.582,0.371-1.113,0.726-1.579c1.46-1.916,3.978-2.922,6.375-2.687c2.397,0.235,4.619,1.651,5.974,3.642
			c1.041,1.53,1.591,3.504,1.015,5.263c-0.229,0.7-0.653,1.365-1.292,1.73c-0.639,0.366-1.513,0.368-2.067-0.118
			c-0.433-0.38-0.605-0.968-0.757-1.522c-0.167-0.607-0.333-1.215-0.499-1.822c-0.098-0.356-0.702-0.437-0.976-0.189
			c-0.274,0.248-0.33,0.663-0.269,1.027c0.061,0.364,0.218,0.705,0.306,1.064c0.088,0.359,0.096,0.766-0.116,1.068
			c-0.271,0.385-0.801,0.475-1.272,0.469C181.135,270.586,179.005,270.227,178.524,268.957z"/>
		
			<path style="fill:#AC9C7B;stroke:#0B0B0B;stroke-width:1.3923;stroke-linecap:round;stroke-linejoin:round;stroke-miterlimit:10;" d="
			M152.569,329.029c-0.089-0.521,0.242-1.034,0.665-1.35c0.423-0.316,0.933-0.488,1.407-0.723c0.952-0.472,1.768-1.216,2.327-2.121
			c-1.017-0.765-2.542-0.788-3.802-0.609c-1.26,0.179-2.734,0.226-3.592-0.715c-0.611-0.67-0.714-1.697-0.432-2.559
			c0.281-0.862,0.892-1.579,1.57-2.182c2.783-2.476,6.903-3.257,10.472-2.19c3.569,1.067,6.522,3.875,7.989,7.299
			c1.127,2.631,1.377,5.79-0.02,8.289c-0.556,0.994-1.395,1.878-2.474,2.243c-1.079,0.366-2.406,0.11-3.102-0.791
			c-0.544-0.704-0.631-1.648-0.698-2.535c-0.073-0.971-0.145-1.943-0.218-2.914c-0.043-0.57-0.937-0.871-1.426-0.576
			c-0.489,0.295-0.698,0.908-0.713,1.479c-0.016,0.571,0.122,1.135,0.149,1.706c0.027,0.571-0.081,1.191-0.493,1.587
			c-0.525,0.504-1.357,0.483-2.07,0.335C156.05,332.276,152.923,331.1,152.569,329.029z"/>
		
			<path style="fill:#0B0B0B;stroke:#0B0B0B;stroke-width:1.5;stroke-linecap:round;stroke-linejoin:round;stroke-miterlimit:10;" d="
			M173.208,275.764c-3.444-4.933-11.48-2.385-11.445,3.636c0.015,2.617,1.844,5.125,4.331,5.939
			c2.487,0.815,5.445-0.125,7.006-2.226C174.66,281.013,174.706,277.909,173.208,275.764z M169.422,280.35
			c-0.621,0.649-1.474,1.156-2.37,1.087c-0.918-0.071-1.726-0.774-2.024-1.645c-0.297-0.871-0.118-1.866,0.374-2.644
			c0.653-1.033,1.654-1.798,2.84-1.276c1.094,0.481,2.189,1.503,2.06,2.8C170.238,279.312,169.867,279.885,169.422,280.35z"/>
		
			<path style="fill:#0B0B0B;stroke:#0B0B0B;stroke-width:1.5;stroke-linecap:round;stroke-linejoin:round;stroke-miterlimit:10;" d="
			M126.996,312.484c-3.444-4.933-11.48-2.385-11.445,3.636c0.015,2.617,1.844,5.125,4.331,5.939
			c2.487,0.815,5.445-0.125,7.006-2.226C128.448,317.734,128.494,314.63,126.996,312.484z M123.211,317.071
			c-0.621,0.649-1.474,1.156-2.37,1.087c-0.918-0.071-1.726-0.774-2.024-1.645c-0.298-0.871-0.118-1.866,0.373-2.644
			c0.653-1.033,1.655-1.798,2.84-1.276c1.094,0.482,2.189,1.503,2.06,2.8C124.027,316.033,123.656,316.606,123.211,317.071z"/>
		
			<path style="fill:#56D7B8;stroke:#0B0B0B;stroke-width:1.5;stroke-linecap:round;stroke-linejoin:round;stroke-miterlimit:10;" d="
			M165.526,309.536c0.774-1.771,2.084-3.356,3.828-4.188c0.566-0.27,1.193-0.46,1.814-0.382c0.622,0.079,1.231,0.476,1.418,1.074
			c-2.527,0.963-4.197,3.791-3.82,6.469c0.137,0.973,0.477,2.084-0.14,2.848c-0.863,1.069-3.232,0.589-3.88-0.54
			C163.952,313.434,164.955,310.843,165.526,309.536z"/>
		
			<path style="fill:#FC614B;stroke:#0B0B0B;stroke-width:1.5;stroke-linecap:round;stroke-linejoin:round;stroke-miterlimit:10;" d="
			M173.818,292.691c1.491,1.229,2.657,2.924,2.979,4.829c0.105,0.618,0.116,1.273-0.13,1.85c-0.246,0.576-0.795,1.054-1.421,1.07
			c-0.234-2.694-2.497-5.075-5.175-5.446c-0.973-0.135-2.135-0.112-2.701-0.915c-0.792-1.123,0.318-3.269,1.582-3.584
			C170.5,290.11,172.718,291.784,173.818,292.691z"/>
		
			<path style="fill:#FC614B;stroke:#0B0B0B;stroke-width:1.5;stroke-linecap:round;stroke-linejoin:round;stroke-miterlimit:10;" d="
			M130.812,290.077c0.774-1.771,2.084-3.356,3.829-4.188c0.566-0.27,1.193-0.461,1.814-0.382c0.622,0.079,1.231,0.476,1.419,1.074
			c-2.527,0.963-4.197,3.792-3.82,6.469c0.137,0.973,0.477,2.084-0.14,2.848c-0.863,1.069-3.232,0.59-3.88-0.54
			C129.239,293.975,130.242,291.383,130.812,290.077z"/>
		
			<path style="fill:#56D7B8;stroke:#0B0B0B;stroke-width:1.5;stroke-linecap:round;stroke-linejoin:round;stroke-miterlimit:10;" d="
			M137.257,308.774c-0.668-1.776-1.733-3.454-3.288-4.54c-0.378-0.264-0.804-0.497-1.265-0.51c-0.461-0.013-0.957,0.256-1.069,0.704
			c-0.128,0.513,0.258,0.993,0.569,1.419c1.541,2.107,1.707,4.894,1.698,7.504c-0.003,0.793-0.013,1.607,0.263,2.35
			s0.911,1.411,1.702,1.476c0.656,0.054,1.291-0.318,1.713-0.823C139.293,314.302,138.09,310.989,137.257,308.774z"/>
		
			<path style="fill:#FC614B;stroke:#0B0B0B;stroke-width:1.5;stroke-linecap:round;stroke-linejoin:round;stroke-miterlimit:10;" d="
			M184.336,281.684c0.691-1.767,1.021-3.727,0.59-5.575c-0.105-0.449-0.265-0.907-0.599-1.225c-0.334-0.318-0.883-0.449-1.265-0.191
			c-0.438,0.295-0.472,0.911-0.525,1.436c-0.262,2.597-2.002,4.781-3.754,6.716c-0.532,0.588-1.084,1.186-1.375,1.924
			c-0.291,0.737-0.265,1.658,0.279,2.235c0.452,0.479,1.172,0.627,1.824,0.533C182.154,287.156,183.474,283.889,184.336,281.684z"/>
		
			<path style="fill:#56D7B8;stroke:#0B0B0B;stroke-width:1.5;stroke-linecap:round;stroke-linejoin:round;stroke-miterlimit:10;" d="
			M111.392,362.794c0,0,2.232-11.78,17.236-19.344c15.004-7.564,23.931-12.276,27.403-13.392c3.472-1.116,3.596-8.804-0.62-12.772
			s-11.904-2.356-15.252,2.108c-3.348,4.464-19.716,9.672-22.94,10.912c-3.224,1.24-12.152,5.208-16.244,13.02
			c-4.092,7.812-4.712,11.78-7.192,11.904c-2.48,0.124-5.828-15.376-0.62-24.427c5.208-9.052,6.944-9.176,15.748-11.656
			c8.804-2.48,16.988-3.72,18.228-8.68c1.24-4.96-1.116-12.152-9.052-11.656c-7.936,0.496-9.424,4.34-12.896,5.084
			c-3.472,0.744-18.352,4.092-21.7,10.416c-3.348,6.324-11.78,21.947-10.912,26.783c0.868,4.836,6.696,26.783,6.696,26.783"/>
		<path style="fill:#378A84;" d="M83.658,335.411c-1.943,6.799,0.971,13.598,5.828,16.512c0.985,0.704,1.824,1.052,2.55,1.136
			c-1.824-4.561-2.871-15.306,1.128-22.257c5.208-9.052,6.944-9.176,15.748-11.656c8.804-2.48,16.988-3.72,18.228-8.68
			c0.305-1.22,0.39-2.575,0.23-3.918C111.893,316.011,90.18,316.776,83.658,335.411z"/>
		<path style="fill:none;stroke:#0B0B0B;stroke-width:1.5;stroke-linecap:round;stroke-linejoin:round;stroke-miterlimit:10;" d="
			M111.392,362.794c0,0,2.232-11.78,17.236-19.344c15.004-7.564,23.931-12.276,27.403-13.392c3.472-1.116,3.596-8.804-0.62-12.772
			s-11.904-2.356-15.252,2.108c-3.348,4.464-19.716,9.672-22.94,10.912c-3.224,1.24-12.152,5.208-16.244,13.02
			c-4.092,7.812-4.712,11.78-7.192,11.904c-2.48,0.124-5.828-15.376-0.62-24.427c5.208-9.052,6.944-9.176,15.748-11.656
			c8.804-2.48,16.988-3.72,18.228-8.68c1.24-4.96-1.116-12.152-9.052-11.656c-7.936,0.496-9.424,4.34-12.896,5.084
			c-3.472,0.744-18.352,4.092-21.7,10.416c-3.348,6.324-11.78,21.947-10.912,26.783c0.868,4.836,6.696,26.783,6.696,26.783"/>
		<path style="fill:#378A84;" d="M157.107,319.466c-0.141,0.611-0.333,1.107-0.602,1.376c-18.337,10.002-51.693,20.72-49.126,42.587
			l4.012-0.635c0,0,2.232-11.78,17.236-19.344c15.004-7.564,23.932-12.276,27.403-13.392
			C158.941,329.123,159.487,323.575,157.107,319.466z"/>
		
			<path style="fill:#56D7B8;stroke:#0B0B0B;stroke-width:1.5;stroke-linecap:round;stroke-linejoin:round;stroke-miterlimit:10;" d="
			M135.571,381.021c0,0-2.852-8.556-5.952-12.028c0,0,2.728-11.78,12.152-16.987c9.424-5.208,14.756-3.472,19.344-9.672
			c4.588-6.2,2.852-11.979-0.496-14.422c-3.348-2.442-23.683,5.866-27.403,7.974c-3.72,2.108-18.476,13.02-20.708,15.872
			c-2.232,2.852-5.332,10.416-4.96,12.896"/>
		<path style="fill:#378A84;" d="M141.771,352.006c9.424-5.208,14.756-3.472,19.344-9.672c2.68-3.621,3.193-7.094,2.496-9.847
			c-0.064,0.346-0.155,0.679-0.306,0.981c-13.598,13.598-48.565,15.541-39.824,37.881c0.005,0.014,0.011,0.028,0.016,0.041
			c0.841,2.198,2.456,4.013,4.488,5.2l6.021,3.516c0.385-0.047,0.775-0.117,1.169-0.208c-0.883-2.427-3.141-8.201-5.556-10.905
			C129.619,368.993,132.347,357.214,141.771,352.006z"/>
		<path style="fill:#F9F7CE;" d="M245.742,146.098c-0.524,0.565-1.073,1.222-1.048,1.992c0.038,1.166,1.443,1.882,2.589,1.663
			c1.145-0.219,2.058-1.053,2.925-1.834c12.372-11.148,28.525-18.021,45.136-19.205c0.713-0.051,1.582-0.203,1.816-0.879
			c0.332-0.961-0.944-1.644-1.943-1.832C275.612,122.316,258.724,132.094,245.742,146.098z"/>
		<path style="fill:#F9F7CE;" d="M171.053,141.643c5.238,6.79,9.636,14.226,13.064,22.086c1.306-0.441,2.059-1.887,2.106-3.265
			c0.047-1.377-0.468-2.706-1-3.977c-3.769-9.011-9.258-17.914-17.926-22.416c-2.321-1.205-7.228-0.822-3.226,1.452
			C166.929,137.148,169.029,139.019,171.053,141.643z"/>
		<path style="fill:#F9F7CE;" d="M185.01,102.732c-1.602,3.375-2.832,7.4-1.19,10.756c1.345,2.748,4.388,4.356,7.424,4.737
			c3.036,0.381,6.1-0.281,9.065-1.036c9.632-2.453,19-5.939,27.892-10.38c7.287-3.639,14.496-8.148,18.922-14.985
			c2.344-3.621,3.752-8.524,1.407-12.145c-1.745-2.694-5.054-3.877-8.183-4.595c-18.081-4.15-35.267,1.687-47.401,15.585
			C189.771,94.306,187.08,98.369,185.01,102.732z"/>
		<path style="fill:#F9F7CE;" d="M259.97,70.422c-1.32,0.652-2.715,1.724-2.69,3.196c0.027,1.631,1.747,2.653,3.282,3.205
			c4.9,1.763,10.18,2.092,15.378,2.405c1.32,0.08,2.661,0.157,3.95-0.136c1.289-0.293,2.543-1.014,3.172-2.177
			c1.056-1.952-0.025-4.508-1.809-5.829c-2.717-2.013-6.267-1.786-9.436-2.234C267.728,68.275,263.73,68.565,259.97,70.422z"/>
		<path style="fill:#FCF3C8;" d="M260.24,224.824c0.952,0.525,0.603,1.964-0.483,2.006c-2.736,0.105-5.551-0.527-8.23-1.237
			c-3.87-1.026-7.863-2.217-11.81-1.546c-0.938,0.159-7.588,0.648-4.637-2.152c1.559-1.479,7.358-0.856,9.37-0.776
			c3.316,0.131,6.617,0.633,9.821,1.498c1.631,0.44,3.236,0.973,4.805,1.599C259.285,224.298,259.721,224.538,260.24,224.824z"/>
		<path style="fill:#FCF3C8;" d="M161.364,216.463c-1.084,0.32-2.377,1.104-2.128,2.207c0.228,1.012,1.541,1.258,2.578,1.26
			c4.41,0.01,9.035-0.523,13.046,1.308c1.221,0.557,2.726,1.303,3.775,0.467c2.871-2.289-3.117-4.938-4.723-5.475
			C170.016,214.928,165.238,215.318,161.364,216.463z"/>
		<path style="fill:#F9F7CE;" d="M205.365,183.04c2.206,0.304,3.993-1.67,5.336-3.446c2.727-3.607,5.455-7.214,8.182-10.821
			c0.89-1.176,1.822-2.695,1.178-4.022c-0.622-1.281-2.391-1.534-3.758-1.135c-1.367,0.4-2.572,1.257-3.952,1.606
			c-3.299,0.834-6.588-1.409-8.873-3.931c-5.142-5.676-9.996-0.749-7.496,5.388C197.503,170.413,200.99,182.437,205.365,183.04z"/>
		<path style="fill:#56D7B8;" d="M225.682,300.604c-5.995,0.891-12.1,0.848-18.091,1.764c-2.028,0.31-4.478,1.175-4.717,3.212
			c-0.142,1.208,0.649,2.378,1.681,3.022c1.032,0.644,2.268,0.862,3.475,1.019c8.397,1.095,16.997-0.113,25.039-2.766
			c8.042-2.652,15.56-6.716,22.64-11.36c3.868-2.537,7.717-5.347,10.549-9.056c1.125-1.473,3.335-4.303,3.127-6.285
			c-0.24-2.278-2.092-1.205-3.406-0.254c-3.919,2.836-7.383,6.224-11.423,8.942c-4.118,2.771-8.469,5.209-13.03,7.174
			C236.464,298.199,231.14,299.793,225.682,300.604z"/>
		<path style="fill:#378A84;" d="M380.07,326.7l0.767,6.458c0,0-8.804,13.02-12.152,15.651c-3.348,2.631-13.516,3.569-15.996,12.993
			c-0.524,1.99-0.656,3.861-0.437,5.521c0.6-5.341,10.565-7.216,15.657-8.538c5.093-1.323,17.97-17.773,18.962-23.394
			C387.676,330.835,382.182,327.718,380.07,326.7z"/>
		<path style="fill:none;stroke:#0B0B0B;stroke-width:1.5;stroke-linecap:round;stroke-linejoin:round;stroke-miterlimit:10;" d="
			M379.678,323.392c0,0,8.599,1.511,12.071,3.903c3.472,2.391,6.944,7.103,4.216,12.683c-2.728,5.58-16.556,25.667-28.056,31.867
			c-11.5,6.2-17.699-0.62-15.219-10.044c2.48-9.424,12.648-10.362,15.996-12.993c3.348-2.631,12.152-15.651,12.152-15.651"/>
		<path style="fill:#378A84;" d="M366.784,230.241c-3.803,19.839-6.8,30.628-8.938,32.921c-2.139,2.294-6.115,2.459-5.698,3.782
			c0.418,1.323,3.063,1.756,4.22,4.763c1.157,3.007-1.653,33.428-1.819,36.569c-0.139,2.638,3.956-1.262,5.824-2.673
			c-4.589-1.121-0.429-44.779,10.874-62.963c11.408-18.352,6.613-33.562-6.117-32.983
			C365.131,209.657,370.587,210.401,366.784,230.241z"/>
		<path style="fill:#56D7B8;" d="M263.018,324.342c-0.733,1.445-1.483,2.954-1.515,4.574c-0.033,1.62,0.88,3.382,2.454,3.772
			c1.548,0.383,3.361-0.595,4.694,0.281c0.991,0.651,1.183,2.085,0.793,3.205c-0.39,1.12-1.219,2.02-1.957,2.948
			c-2.716,3.411-4.422,7.618-4.848,11.957c7.337-8.004,16.321-14.492,26.227-18.938c1.1-0.494,2.43-1.386,2.099-2.545
			c-0.254-0.888-1.389-1.209-2.297-1.04c-0.908,0.168-1.731,0.663-2.641,0.818c-2.087,0.355-4.114-1.209-5.023-3.121
			c-0.909-1.912-0.968-4.101-1.061-6.216c-0.136-3.1,0.318-20.346-5.299-17.301c-2.685,1.456-4.23,7.025-5.557,9.642
			C267.063,316.367,265.041,320.355,263.018,324.342z"/>
		<path style="fill:none;stroke:#0B0B0B;stroke-width:1.5;stroke-linecap:round;stroke-linejoin:round;stroke-miterlimit:10;" d="
			M135.571,381.021c0,0-2.852-8.556-5.952-12.028c0,0,2.728-11.78,12.152-16.987c9.424-5.208,14.756-3.472,19.344-9.672
			c4.588-6.2,2.852-11.979-0.496-14.422c-3.348-2.442-23.683,5.866-27.403,7.974c-3.72,2.108-18.476,13.02-20.708,15.872
			c-2.232,2.852-5.332,10.416-4.96,12.896"/>
	</g>
</g>
</svg>
