<?xml version="1.0" encoding="utf-8"?>
<!-- Generator: Adobe Illustrator 27.5.0, SVG Export Plug-In . SVG Version: 6.00 Build 0)  -->
<svg version="1.1" id="Capa_2" xmlns="http://www.w3.org/2000/svg" xmlns:xlink="http://www.w3.org/1999/xlink" x="0px" y="0px"
	 viewBox="0 0 2122 2122" style="enable-background:new 0 0 2122 2122;" xml:space="preserve">
<path style="fill:#C1B9DC;" d="M1859.662,1090.766c-55.006-60.399-138.387-100.523-234.782-112.982
	c-28.867-3.729-58.791-5.191-90.957-4.409c18.723-7.452,36.745-15.328,54.226-23.686c64.77-30.967,216.974-119.308,231.44-270.44
	c6.392-66.787-18.645-132.918-65.335-172.587c-38.602-32.794-92.78-49.462-152.711-46.974
	c-81.623,3.413-165.905,41.598-237.33,107.522c-67.771,62.55-116.234,140.774-154.704,209.045
	c-12.589,22.346-24.979,45.252-36.96,67.406c-1.73,3.203-3.469,6.411-5.208,9.629c30.938-93.491,52.102-180.533,59.425-270.051
	c5.861-71.552,6.168-247.534-117.13-336.128c-54.489-39.152-124.228-50.806-182.012-30.444
	c-47.771,16.84-89.491,55.301-117.476,108.292c-38.144,72.239-47.59,164.285-26.596,259.188
	c9.125,41.235,23.128,80.626,39.43,117.705c-23.474-29.396-49.681-57.841-79.245-83.359
	c-73.578-63.503-159.093-98.855-240.784-99.544c-60.117-0.487-113.568,17.975-151.059,52.041
	c-45.345,41.208-68.161,108.139-59.542,174.67c19.498,150.57,174.568,233.783,240.331,262.57
	c16.331,7.15,33.082,13.866,50.397,20.202c-36.083,0.531-69.155,3.69-100.755,9.518c-95.581,17.625-176.682,62.18-228.36,125.452
	c-37.905,46.412-57.076,99.815-53.978,150.375c3.742,61.152,41.651,120.843,98.933,155.778
	c129.622,79.057,291.59,10.222,355.205-23.042l0.57-0.297c-44.901,61.138-131.405,204.421-76.595,340.592
	c25.052,62.239,77.705,109.437,137.418,123.176c13.193,3.035,26.845,4.536,40.769,4.533c38.164,0,78.319-11.274,116.429-33.086
	c70.904-40.587,128.17-113.266,161.252-204.652c8.073-22.3,14.864-45.795,20.462-70.877
	c17.671,76.658,68.945,228.446,203.245,275.975c63.245,22.38,133.476,14.112,183.273-21.574
	c41.175-29.505,70.5-78.08,82.573-136.777c16.468-80.015-0.156-171.04-46.806-256.311c-22.86-41.776-51.196-79.618-80.166-113.04
	c26.563,15.398,52.702,28.94,78.767,40.828c65.315,29.795,230.767,89.805,355.936,3.893c55.313-37.964,89.953-99.608,90.402-160.877
	C1922.03,1187.37,1900.012,1135.075,1859.662,1090.766z"/>
<path style="fill:#FFE15C;" d="M935.096,991.406c-14.445,26.31-20.024,56.232-17.108,85.277
	c2.983,29.715,14.857,58.511,35.232,81.58c7.271,8.233,15.186,15.313,23.576,21.296c27.734,19.78,60.66,27.564,92.718,25.342
	c34.293-2.377,67.591-16.202,92.486-39.046c27.776-25.486,45.091-62.196,41.648-106.757c-0.536-6.935-1.537-13.86-2.987-20.714
	c-8.37-39.597-31.685-76.789-66.525-99.631c-2.708-1.775-5.485-3.463-8.33-5.058c-11.99-6.728-25.188-11.818-39.474-14.847
	c-39.839-8.447-80.402,2.747-111.756,26.743c-2.486,1.903-4.915,3.886-7.28,5.946C954.442,962.733,943.443,976.204,935.096,991.406z
	"/>
<path style="fill:#712222;" d="M1046.105,650.918c0.745-5.451-3.079-10.471-8.527-11.212c-5.458-0.722-10.473,3.079-11.212,8.532
	c-12.184,89.682-11.894,181.734,0.549,271.874c6.432-1.654,12.988-2.843,19.621-3.537
	C1034.45,828.486,1034.202,738.548,1046.105,650.918z"/>
<path style="fill:#712222;" d="M1227.985,1536.596c0.741,4.953,4.999,8.511,9.856,8.511c0.492,0,0.984-0.036,1.486-0.112
	c5.447-0.811,9.208-5.888,8.399-11.338c-17.992-120.8-55.931-239.7-111.048-349.277c-0.59,0.342-1.181,0.679-1.776,1.013
	l-1.16,0.645c-0.776,0.427-1.556,0.846-2.339,1.26l-1.178,0.614c-0.477,0.246-0.956,0.49-1.436,0.731l-0.581,0.288l-0.869,0.431
	l-0.706,0.342l-0.731,0.353l-0.883,0.416l-0.55,0.258l-1.029,0.472l-0.394,0.18l-1.116,0.498l-0.337,0.149l-1.185,0.514
	l-0.247,0.107l-1.217,0.514l-0.154,0.065C1172.991,1300.947,1210.301,1417.839,1227.985,1536.596z"/>
<path style="fill:#712222;" d="M849.861,1486.494c1.876,1.578,4.156,2.348,6.426,2.348c2.841,0,5.662-1.206,7.635-3.549
	c70.552-83.735,127.564-180.169,167.468-282.611c-6.558-1.241-13.05-2.942-19.425-5.118
	c-39.064,99.615-94.64,193.38-163.302,274.871C845.111,1476.65,845.647,1482.944,849.861,1486.494z"/>
<path style="fill:#712222;" d="M1440.186,816.161c-2.102-5.086-7.934-7.508-13.012-5.392
	c-93.433,38.686-181.581,92.326-259.516,157.519c4.241,5.15,8.143,10.566,11.691,16.195
	c76.651-64.313,163.437-117.208,255.448-155.307C1439.879,827.073,1442.291,821.245,1440.186,816.161z"/>
<path style="fill:#AA90C3;" d="M397.767,621.978c44.221-22.43,87.786-22.169,141.387-13.277
	c48.426,8.034,93.669,24.979,134.553,51.294c99.735,64.199,150.133,134.415,232.144,242.75
	c15.68,20.713,31.415,41.826,47.088,63.112c1.654-1.898,3.356-3.749,5.101-5.556c-11.959-19.807-23.578-39.671-35.044-59.277
	c-12.663-21.659-25.759-44.056-38.982-65.793c-39.712-65.289-89.373-139.851-156.579-197.851
	c-69.111-59.644-148.911-92.845-224.696-93.481c-53.667-0.594-101.247,15.728-134.066,45.557
	c-39.405,35.802-59.171,94.431-51.586,153.006c0.367,2.839,0.791,5.652,1.265,8.44C325.976,698.552,348.674,646.879,397.767,621.978
	z"/>
<path style="fill:#712222;" d="M688.332,858.575c-5.145-1.924-10.914,0.675-12.848,5.835c-1.939,5.16,0.672,10.911,5.832,12.85
	c87.003,32.669,169.895,78.351,244.611,134.439c2.304-6.386,5.069-12.641,8.301-18.711
	C858.955,937.02,775.672,891.374,688.332,858.575z"/>
<path style="fill:#712222;" d="M639.138,1230.611c-4.741,2.809-6.304,8.931-3.498,13.671c1.866,3.145,5.184,4.891,8.594,4.891
	c1.73,0,3.484-0.45,5.077-1.398c88.415-52.417,186.093-90.953,286.842-113.519c-3.369-5.962-6.292-12.139-8.769-18.474
	C826.151,1138.937,728.052,1177.894,639.138,1230.611z"/>
<path style="fill:#712222;" d="M1475.39,1201.308c3.601,0,7.074-1.951,8.852-5.362c2.553-4.884,0.663-10.911-4.224-13.464
	c-86.512-45.182-180.535-77.676-276.898-96.04l-0.008,0.063c-0.099,0.818-0.203,1.632-0.316,2.444
	c-0.199,1.425-0.42,2.84-0.664,4.245c-0.163,0.936-0.335,1.867-0.517,2.794c-0.182,0.926-0.373,1.848-0.574,2.765
	c-0.1,0.458-0.204,0.916-0.309,1.371c-0.211,0.912-0.431,1.819-0.66,2.722c-0.229,0.902-0.469,1.799-0.716,2.692l-0.135,0.474
	c94.507,17.99,186.72,49.849,271.561,94.161C1472.257,1200.943,1473.836,1201.308,1475.39,1201.308z"/>
<path style="fill:#AA90C3;" d="M1621.684,1002.528c-55.245-7.135-114.928-5.644-187.82,4.707c-6.475,0.933-12.57-3.328-13.949-9.725
	l-0.209-1.329c-0.623-5.932,3.076-11.573,8.925-13.273c55.206-16.032,103.864-34.261,148.755-55.722
	c60.94-29.135,204.117-111.849,217.37-250.314c5.627-58.792-16.083-116.726-56.658-151.198
	c-33.803-28.719-81.978-43.318-135.518-41.06c-54.521,2.28-110.558,21.501-162.703,55.196c10.769-3.852,21.661-7.34,32.743-10.27
	c50.614-13.381,104.61-9.177,149.936,18.524c48.734,29.784,94.37,83.258,91.793,141.02c-2.585,57.92-24.075,93.409-69.214,148.702
	c-23.667,28.991-78.242,61.949-116.36,84.017c-15.572,9.015-99.485,49.926-165.145,81.319
	c-76.237,10.278-133.032,21.574-164.048,30.493c1.154,4.752,2.089,9.546,2.805,14.36l0.08,0.548l0.113,0.771
	c76.707-3.903,282.88-38.523,411.457-15.146c59.472,10.813,111.477,37.989,147.41,78.79c19.017,21.591,32.516,48.635,33.189,77.815
	c0.607,26.366-9.142,51.268-24.609,72.279c-35.72,48.525-96.379,70.176-154.923,70.159c-64.783-0.018-124.817-21.09-186.39-38.989
	c-32.35-9.404-32.35-9.78-74.48-23.698c-26.874-8.878-48.525-18.808-88.023-43.635c-30.245-19.011-71.771-51.78-96.286-68.936
	l-0.717,0.77c-1.205,1.283-2.435,2.541-3.689,3.776l-0.945,0.921c-0.633,0.611-1.272,1.217-1.916,1.816
	c-1.289,1.198-2.601,2.372-3.934,3.521l-0.448,0.383c15.583,27.9,48.223,75.452,71.824,105.899
	c7.541,9.729,35.796,47.843,46.644,65.076c20.844,33.111,40.257,63.946,67.433,91.288c28.85,29.025,59.549,56.913,84.337,89.639
	c9.495,12.535,18.425,26.503,22.618,41.817c6.433,23.496,3.575,50.375-3.082,73.461c-16.234,56.292-57.064,103.201-110.586,126.803
	c-24.647,10.869-52.333,15.672-78.84,9.233c-24.169-5.871-45.456-20.264-62.348-38.229c-18.88-20.081-33.341-43.92-44.936-68.816
	c-8.252-17.718-13.319-36.742-18.917-55.421c-11.972-39.95-19.751-109.327-27.961-150.908
	c-7.483-37.899-22.186-186.926-28.662-254.655c-0.545,0.06-1.09,0.118-1.635,0.173c-0.852,0.085-1.704,0.162-2.557,0.233
	c-1.399,0.116-2.801,0.214-4.204,0.291c-1.302,0.073-2.606,0.129-3.911,0.168c-1.358,0.041-2.718,0.063-4.077,0.068
	c-1.352,0.005-2.704-0.009-4.055-0.041c-21.336,66.569-54.041,206.526-65.252,238.68c-12.488,35.817-21.87,84.469-34.607,129.436
	c-5.584,19.716-18.952,47.47-26.134,66.758c-9.882,26.543-25.002,51.006-42.703,73.031c-35.517,44.193-88.133,84.234-146.826,87.06
	c-20.829,1.002-43.01-3.68-60.018-16.107c-13.544-9.896-22.424-24.853-26.659-40.936c-9.725-36.933-0.907-77.641,9.19-113.534
	c9.701-34.488,22.821-67.817,35.35-101.335c7.147-19.124,16.927-36.798,24.578-55.748c11.558-28.625,37.848-59.109,48.149-73.728
	c31.648-44.911,63.579-82.952,92.785-114.377c51.286-55.183,94.169-89.969,112.365-105.744l-0.773-0.566
	c-2.306-1.708-4.573-3.5-6.8-5.379c-71.098,28.861-285.752,169.579-347.236,201.148c-46.8,24.03-95.353,42.896-144.33,60.746
	c-24.741,9.017-51.093,14.311-77.482,11.965c-22.592-2.009-45.024-8.038-65.478-17.876
	c-63.878-30.723-97.681-97.033-103.902-165.163c-4.062,16.356-5.679,32.733-4.699,48.721
	c3.255,53.143,36.599,105.259,87.026,136.009c118.752,72.419,270.796,7.447,330.659-23.854
	c18.651-9.752,37.671-20.656,56.536-32.409c2.041-1.272,4.326-1.888,6.591-1.888c3.542,0,7.041,1.508,9.486,4.367
	c4.01,4.692,3.985,11.605-0.053,16.268c-12.745,14.721-24.872,29.691-36.054,44.494c-40.707,53.905-129.773,193.218-77.832,322.253
	c22.051,54.792,67.98,96.241,119.863,108.178c43.23,9.944,92.672,0.75,139.215-25.89c65.778-37.649,119.113-105.657,150.187-191.495
	c14.577-40.259,24.814-84.75,31.294-136.017c0.784-6.209,6.051-10.875,12.307-10.909h0.068c6.231,0,11.508,4.599,12.355,10.777
	c2.568,18.706,5.691,37.103,9.277,54.68c13.5,66.185,59.06,225.135,190.182,271.544c55.683,19.708,117.154,12.682,160.424-18.334
	c36.049-25.837,61.861-68.996,72.677-121.53c15.274-74.236-0.448-159.225-44.263-239.305
	c-41.281-75.444-101.817-138.202-149.949-184.448c-4.706-4.524-5.13-11.91-0.969-16.94c4.156-5.02,11.484-6.007,16.818-2.234
	c57.486,40.692,111.434,72.336,164.935,96.738c61.461,28.024,216.779,84.723,331.464,6.022
	c48.696-33.42,79.191-87.252,79.58-140.492c0.327-44.353-19.381-90.621-55.493-130.275
	C1790.187,1051.53,1712.223,1014.227,1621.684,1002.528z"/>
<path style="fill:#AA90C3;" d="M1013.626,258.336c93.161,39.814,116.418,139.849,134.473,241.413
	c7.783,43.78,14.295,124.886-4.514,303.939c-2.294,21.84-8.024,52.776-14.522,84.346c38.299-108.339,64.614-206.261,72.846-306.831
	c5.51-67.32,6.129-232.667-106.836-313.834c-47.951-34.456-108.935-44.875-159.162-27.174c-6.31,2.224-12.505,4.895-18.563,7.985
	C949.751,243.121,983.124,245.301,1013.626,258.336z"/>
<path style="fill:#712222;" d="M1859.663,1090.77c-55.006-60.402-138.388-100.526-234.782-112.981
	c-28.862-3.73-58.782-5.196-90.962-4.409c18.724-7.452,36.746-15.33,54.227-23.688c64.77-30.964,216.979-119.301,231.44-270.44
	c6.397-66.784-18.635-132.916-65.33-172.587c-38.597-32.791-92.785-49.471-152.717-46.974
	c-81.622,3.415-165.909,41.6-237.325,107.523c-67.776,62.552-116.238,140.776-154.704,209.047
	c-12.604,22.361-24.999,45.284-36.989,67.454c-1.725,3.187-3.454,6.388-5.189,9.589c30.948-93.503,52.112-180.543,59.435-270.06
	c5.861-71.55,6.168-247.532-117.135-336.129c-54.485-39.15-124.224-50.813-182.012-30.443
	c-47.767,16.84-89.486,55.3-117.471,108.292c-38.144,72.239-47.591,164.285-26.597,259.189c9.13,41.237,23.128,80.628,39.435,117.71
	c-23.478-29.4-49.681-57.841-79.25-83.364c-73.588-63.503-159.098-98.855-240.784-99.542
	c-60.151-0.55-113.573,17.973-151.059,52.042c-45.344,41.201-68.161,108.131-59.547,174.669
	c19.503,150.57,174.572,233.783,240.341,262.57c16.327,7.147,33.082,13.866,50.392,20.2c-36.078,0.534-69.154,3.691-100.755,9.518
	c-95.586,17.627-176.687,62.18-228.36,125.452c-37.91,46.417-57.081,99.822-53.978,150.375
	c3.742,61.157,41.651,120.85,98.933,155.781c129.636,79.055,291.59,10.221,355.205-23.045l0.57-0.297
	c-44.901,61.138-131.405,204.421-76.595,340.594c25.052,62.239,77.705,109.437,137.413,123.174
	c13.194,3.035,26.846,4.533,40.765,4.533c38.163,0,78.324-11.272,116.438-33.084c70.899-40.584,128.165-113.264,161.247-204.655
	c8.078-22.302,14.87-45.798,20.467-70.879c17.671,76.657,68.946,228.448,203.24,275.98c63.255,22.377,133.476,14.117,183.274-21.574
	c41.169-29.506,70.495-78.08,82.577-136.78c16.468-80.021-0.156-171.044-46.806-256.309c-22.86-41.776-51.201-79.62-80.165-113.04
	c26.553,15.394,52.701,28.938,78.767,40.826c65.315,29.793,230.743,89.805,355.932,3.896
	c55.318-37.964,89.959-99.608,90.407-160.877C1922.031,1187.373,1900.014,1135.079,1859.663,1090.77z M1896.71,1237.839
	c-0.39,53.24-30.884,107.072-79.58,140.492c-114.685,78.701-270.003,22.003-331.464-6.022
	c-53.501-24.402-107.45-56.046-164.935-96.738c-5.335-3.774-12.663-2.787-16.818,2.234c-4.161,5.03-3.737,12.417,0.969,16.94
	c48.132,46.246,108.668,109.004,149.949,184.448c43.815,80.08,59.537,165.069,44.263,239.305
	c-10.816,52.533-36.629,95.693-72.677,121.53c-43.269,31.016-104.741,38.041-160.424,18.334
	c-131.123-46.409-176.682-205.359-190.182-271.544c-3.586-17.576-6.709-35.973-9.277-54.68c-0.848-6.178-6.124-10.777-12.355-10.777
	h-0.068c-6.256,0.034-11.523,4.699-12.307,10.909c-6.48,51.267-16.716,95.758-31.294,136.017
	c-31.074,85.839-84.409,153.846-150.187,191.495c-46.543,26.641-95.985,35.834-139.215,25.89
	c-51.883-11.936-97.812-53.386-119.863-108.178c-51.941-129.035,37.125-268.348,77.832-322.253
	c11.181-14.804,23.308-29.773,36.054-44.494c4.039-4.663,4.063-11.576,0.053-16.268c-2.446-2.86-5.944-4.367-9.486-4.367
	c-2.266,0-4.55,0.616-6.591,1.888c-18.865,11.754-37.886,22.658-56.536,32.409c-59.863,31.301-211.907,96.272-330.659,23.854
	c-50.426-30.75-83.771-82.867-87.026-136.009c-0.98-15.987,0.637-32.364,4.699-48.721c7.186-28.937,22.029-57.81,43.705-84.349
	c47.937-58.699,123.78-100.146,213.559-116.702c55.055-10.156,115.108-11.841,188.969-5.303c6.543,0.595,12.263-3.885,13.384-10.26
	l0.132-1.001c0.57-6.009-3.276-11.635-9.204-13.214c-50.46-13.449-95.415-28.928-137.437-47.32
	c-60.607-26.529-201.768-101.797-224.338-234.483c-0.474-2.788-0.897-5.601-1.265-8.44c-7.586-58.575,12.18-117.203,51.586-153.006
	c32.818-29.829,80.399-46.151,134.066-45.557c75.785,0.636,155.586,33.837,224.696,93.481
	c67.206,58,116.867,132.563,156.579,197.851c13.223,21.737,26.319,44.134,38.982,65.793c11.466,19.606,23.085,39.47,35.044,59.277
	c8.063-8.346,17.072-15.708,26.779-21.911c-12.411-21.099-25.083-41.889-37.584-62.396c-13.057-21.427-26.563-43.583-39.43-65.537
	c-38.636-65.937-80.716-145.025-99.893-231.695c-19.722-89.138-11.094-175.135,24.297-242.151
	c21.266-40.274,51.03-71.034,85.14-88.429c6.058-3.09,12.253-5.761,18.563-7.985c50.227-17.701,111.211-7.282,159.162,27.174
	c112.965,81.167,112.346,246.514,106.836,313.834c-8.232,100.569-34.547,198.492-72.846,306.831
	c-4.655,13.166-9.486,26.486-14.484,39.983c10.772,4.827,20.703,10.92,29.719,18.027c17.484-30.04,34.009-60.592,50.166-90.466
	c11.937-22.076,24.283-44.901,36.775-67.077c37.515-66.577,84.657-142.755,149.89-202.962
	c18.783-17.335,38.471-32.627,58.748-45.729c52.145-33.695,108.182-52.916,162.703-55.196c53.54-2.258,101.715,12.341,135.518,41.06
	c40.576,34.472,62.286,92.406,56.658,151.198c-13.252,138.465-156.429,221.179-217.37,250.314
	c-44.891,21.461-93.549,39.69-148.755,55.722c-5.85,1.7-9.549,7.341-8.925,13.273l0.209,1.329
	c1.379,6.397,7.474,10.658,13.949,9.725c72.892-10.351,132.575-11.842,187.82-4.707c90.538,11.698,168.503,49.001,219.533,105.036
	C1877.329,1147.218,1897.037,1193.485,1896.71,1237.839z"/>
<path style="fill:#FCC344;" d="M1164.617,970.408c-0.874,16.277-13.235,24.917-26.398,32.063
	c-10.663,5.79-23.651,12.68-28.931,24.283c-5.582,12.268,0.613,16.482,10.584,20.985c13.316,6.013,24.5,14.621,28.947,29.213
	c4.563,14.966,0.129,31.389-7.6,44.499c-13.669,23.186-41.159,45.725-69.755,42.25c-13.04-1.585-23.08-10.118-28.067-22.067
	c-5.583-13.375-2.548-27.767-5.031-41.665c-0.829-4.635-1.979-8.661-4.52-12.103c0.24,0.364-0.979-0.953-1.807-1.141
	c-0.347-0.079-2.195-0.214-3.893,0.067c-15.282,2.532-21.421,15.951-31.651,25.474c-25.629,23.858-57.451,6.466-75.419-17.337
	c4.775,20.92,14.015,40.868,27.718,58.035l0.138,0.173c0.423,0.528,0.85,1.055,1.282,1.578l0.059,0.073
	c0.443,0.536,0.891,1.069,1.344,1.599l0.245,0.287c0.448,0.523,0.899,1.044,1.356,1.561c1.674,1.895,3.382,3.73,5.122,5.504
	c1.044,1.064,2.1,2.107,3.166,3.128c1.778,1.702,3.587,3.343,5.423,4.926l1.08,0.92c2.227,1.878,4.494,3.671,6.8,5.379l0.773,0.566
	l1.212,0.875c0.881,0.628,1.766,1.245,2.657,1.849c1.172,0.795,2.354,1.568,3.543,2.321l1.192,0.746
	c8.871,5.49,18.192,9.841,27.779,13.115c6.375,2.177,12.867,3.877,19.425,5.118c7.927,1.5,15.949,2.329,23.973,2.518
	c1.351,0.031,2.703,0.045,4.055,0.041c1.359-0.004,2.719-0.027,4.077-0.068c1.305-0.039,2.609-0.095,3.911-0.168
	c1.403-0.078,2.805-0.175,4.204-0.291c0.853-0.071,1.706-0.148,2.557-0.233c0.579-0.058,1.158-0.12,1.737-0.185l1.143-0.133
	l0.751-0.089l1.057-0.135l0.862-0.115l1.021-0.143l0.86-0.125l1.014-0.154l0.912-0.145l0.935-0.153l1.008-0.173l0.874-0.153
	l1.215-0.225l0.623-0.117c0.63-0.121,1.259-0.246,1.888-0.375l1.311-0.275c1.835-0.393,3.662-0.819,5.48-1.277
	c0.687-0.173,1.372-0.351,2.057-0.533l0.622-0.167c0.743-0.202,1.485-0.407,2.226-0.619c0.527-0.151,1.054-0.306,1.578-0.463
	c0.656-0.195,1.308-0.394,1.96-0.598c1.376-0.43,2.746-0.877,4.109-1.344c0.842-0.288,1.681-0.584,2.518-0.887
	c0.837-0.303,1.671-0.612,2.502-0.93c0.831-0.317,1.659-0.641,2.484-0.971l1.235-0.501l0.796-0.332l1.217-0.514l0.247-0.107
	l1.185-0.514l0.337-0.149l1.116-0.498l0.394-0.18l1.029-0.472l0.55-0.258l0.883-0.416l0.731-0.353l0.706-0.342l0.869-0.431
	l0.581-0.288c0.479-0.242,0.958-0.485,1.436-0.731l1.178-0.614c0.784-0.414,1.564-0.833,2.339-1.26l1.16-0.645
	c0.595-0.334,1.186-0.671,1.776-1.013c0.559-0.323,1.116-0.65,1.67-0.981c0.759-0.453,1.514-0.912,2.264-1.379
	c1.502-0.932,2.985-1.891,4.451-2.876c0.733-0.492,1.46-0.991,2.184-1.496l1.082-0.762c2.155-1.535,4.267-3.127,6.332-4.776
	c0.689-0.55,1.371-1.106,2.05-1.667c0.677-0.562,1.349-1.13,2.017-1.705c1.334-1.149,2.646-2.322,3.934-3.521
	c0.644-0.599,1.283-1.204,1.916-1.816l0.945-0.921c1.254-1.235,2.484-2.493,3.689-3.776c0.603-0.641,1.199-1.288,1.79-1.941
	c0.885-0.98,1.756-1.973,2.612-2.979c0.857-1.006,1.698-2.025,2.524-3.057c0.552-0.688,1.095-1.382,1.633-2.082
	c0.806-1.05,1.596-2.112,2.371-3.188c0.775-1.075,1.534-2.163,2.276-3.264l0.737-1.105c0.732-1.109,1.447-2.231,2.145-3.365
	c0.466-0.756,0.924-1.517,1.374-2.284c0.45-0.767,0.893-1.54,1.328-2.317c0.652-1.167,1.288-2.346,1.904-3.537l0.612-1.195
	c0.403-0.799,0.798-1.604,1.185-2.414l0.575-1.219c0.379-0.816,0.749-1.636,1.112-2.462c1.268-2.891,2.433-5.846,3.491-8.863
	c0.453-1.294,0.887-2.598,1.3-3.914l0.406-1.32l0.337-1.137l0.3-1.05l0.135-0.474c0.248-0.893,0.487-1.79,0.716-2.692
	c0.229-0.902,0.449-1.809,0.66-2.722c0.105-0.456,0.208-0.913,0.309-1.371c0.201-0.917,0.393-1.839,0.574-2.765
	c0.183-0.927,0.355-1.858,0.517-2.794c0.244-1.404,0.464-2.819,0.664-4.245c0.113-0.811,0.218-1.626,0.316-2.444l0.052-0.421
	c0.337-2.879,0.585-5.8,0.736-8.762c0.05-0.987,0.09-1.979,0.12-2.975c0.147-4.982,0.028-10.075-0.373-15.276
	c-0.04-0.519-0.083-1.037-0.129-1.556l-0.027-0.299l-0.115-1.24l-0.041-0.402l-0.122-1.182l-0.033-0.299l-0.147-1.292l-0.023-0.193
	c-0.06-0.506-0.123-1.011-0.188-1.517l-0.16-1.194l-0.038-0.285l-0.156-1.086l-0.08-0.548c-4.479-29.971-17.604-59.081-37.8-82.371
	C1164.675,967.204,1164.704,968.805,1164.617,970.408z"/>
<path style="fill:#FFFFFF;" d="M323.302,1331.263c16.372,0.252,29.195-10.671,34.899-23.173c5.704-12.503,5.993-26.613,8.063-40.168
	c7.345-48.086,38.931-91.239,85.526-116.848c11.022-6.058,32.718-16.635,24.169-31.5c-6.714-11.674-26.479-11.351-37.902-9.142
	c-38.526,7.451-77.133,30.292-103.838,53.14c-33.839,28.951-56.13,68.602-56.006,111.286c0.036,12.197,2.024,24.948,9.442,36.034
	C295.072,1321.978,308.874,1331.041,323.302,1331.263z"/>
<path style="fill:#FFFFFF;" d="M1064.301,523.773c13.25-2.408,19.578-21.135,21.33-32.637c5.909-38.792-2.654-82.824-15.216-115.649
	c-15.918-41.59-45.789-75.895-86.041-90.101c-11.502-4.059-24.181-6.464-37.113-3.197c-12.932,3.268-26.1,13.228-31.151,26.745
	c-5.731,15.338,0.255,31.083,10.12,40.652c9.863,9.569,23.059,14.575,35.133,21.074c42.833,23.055,72.886,67.289,81.376,119.776
	C1044.746,502.851,1047.428,526.839,1064.301,523.773z"/>
<path style="fill:#FFFFFF;" d="M1198.022,1561.871c-5.228-11.023-14.216-32.646-29.106-25.226
	c-11.693,5.826-12.523,24.985-11.044,36.175c4.987,37.737,24.873,76.445,45.455,103.627c26.078,34.442,63.186,58.322,104.528,60.67
	c11.814,0.671,24.277-0.517,35.441-7.059c11.165-6.542,20.738-19.383,21.788-33.342c1.191-15.84-8.645-28.888-20.423-35.136
	c-11.778-6.247-25.425-7.342-38.432-10.131C1260.089,1641.556,1220.127,1608.474,1198.022,1561.871z"/>
<path style="fill:#FFFFFF;" d="M1052.866,1001.088c20.529-15.402,28.909-38.9,18.717-52.484
	c-10.192-13.584-35.095-12.11-55.624,3.292c-20.529,15.402-28.909,38.901-18.718,52.484
	C1007.433,1017.965,1032.337,1016.491,1052.866,1001.088z"/>
<path style="fill:#FFFFFF;" d="M960.298,1063.282c8.26,6.556,22.93,1.823,32.766-10.57c9.836-12.393,11.114-27.755,2.853-34.311
	c-8.26-6.556-22.93-1.823-32.767,10.571C953.315,1041.364,952.038,1056.726,960.298,1063.282z"/>
</svg>
