<?xml version="1.0" encoding="utf-8"?>
<!-- Generator: Adobe Illustrator 27.5.0, SVG Export Plug-In . SVG Version: 6.00 Build 0)  -->
<svg version="1.1" id="Layer_1" xmlns="http://www.w3.org/2000/svg" xmlns:xlink="http://www.w3.org/1999/xlink" x="0px" y="0px"
	 viewBox="0 0 4000 4000" style="enable-background:new 0 0 4000 4000;" xml:space="preserve">
<g>
	<g>
		<rect x="0.238" style="fill-rule:evenodd;clip-rule:evenodd;fill:#9FDAFF;" width="4000" height="4000"/>
	</g>
	<g>
		<g>
			<g>
				<path style="fill:#FFFFFF;" d="M1298.663,2511.106c0,0-168.67,269.906-38.046,555.182l213.205,38.874
					c0,0-59.672-308.576-51.256-330.671c8.416-22.095-77.003-247.89-80.148-263.385
					C1339.273,2495.611,1298.663,2511.106,1298.663,2511.106z"/>
			</g>
			<g>
				<path style="fill:#030075;" d="M1473.823,3128.289c-1.379,0-2.766-0.122-4.148-0.376l-213.206-38.877
					c-7.432-1.357-13.733-6.255-16.877-13.12c-70.269-153.462-55.842-302.124-31.367-399.814
					c26.423-105.464,69.026-174.37,70.828-177.251c2.668-4.272,6.66-7.554,11.367-9.351c14.595-5.571,41.709-13.457,59.316-3.774
					c8.076,4.443,13.525,11.826,15.342,20.781c0.984,3.926,8.931,26.553,16.619,48.438
					c58.403,166.245,68.472,206.982,63.198,225.601c-1.907,23.481,24.587,180.371,51.631,320.229
					c1.45,7.495-0.894,15.225-6.265,20.654C1485.879,3125.857,1479.942,3128.289,1473.823,3128.289z M1276.787,3045.73
					l167.961,30.625c-48.108-252.593-47.285-295.908-44.722-307.109c-0.53-24.102-45.061-150.859-61.963-198.975
					c-7.512-21.387-11.978-34.17-14.651-42.212c-2.761,0.522-5.955,1.299-9.148,2.222
					C1290.462,2572.84,1172.778,2804.114,1276.787,3045.73z M1400.025,2770.159L1400.025,2770.159L1400.025,2770.159z"/>
			</g>
			<g>
				<path style="fill:#FFFFFF;" d="M1422.567,3144.56c0,0-234.359,31.975-245.202-8.804
					c-25.212-94.823,133.27-182.12,227.306-83.901"/>
			</g>
			<g>
				<path style="fill:#030075;" d="M1425.693,3167.472c-56.197,9.814-221.733,33.177-262.609-8.502
					c-3.79-3.906-7.735-9.622-9.603-16.727l-1.641-8.832c-5.183-28.709,5.234-59.87,21.679-81.506
					c25.183-33.589,67.675-53.258,108.609-46.894c3.203,0.552,5.352,3.596,4.8,6.799c-0.323,1.867-1.481,3.36-3.036,4.198
					c-16.127,9.268-30.251,18.223-42.679,28.512c-24.47,19.875-48.553,48.334-40.886,80.3c0,0,0.951,4.53,0.951,4.53
					c-0.658-2.703-2.004-4.539-2.643-5.212c15.401,5.118,41.796,6.234,61.359,6.25c52.89-0.269,106.562-4.901,159.447-8.739
					C1448.677,3119.763,1454.337,3161.402,1425.693,3167.472L1425.693,3167.472z"/>
			</g>
			<g>
				<path style="fill:#FFFFFF;" d="M2322.173,2966.234c238.637,250.384,702.037,199.326,840.04-75.013
					c27.656-54.942,42.271-118.856,39.403-191.095c-18.777-439.073-412.527-570.601-533.325-238.544
					c-50.134,147.807,63.266,180.642,119.317,113.029c112.197-126.348,209.409-7.03,205.154,170.098
					c-1.665,31.726-7.03,60.122-15.724,85.558c-75.476,223.838-397.914,210.333-599.552,67.614L2322.173,2966.234z"/>
			</g>
			<g>
				<path style="fill-rule:evenodd;clip-rule:evenodd;fill:#FFAC42;" d="M2322.173,2966.234
					c184.621,193.777,503.913,207.004,702.778,75.938c0.092,0,0.185-0.092,0.277-0.185c58.087-38.2,105.814-88.795,136.985-150.767
					c-92.217,27.101-152.062-19.332-185.175-60.954c-55.312,164.086-243.446,200.621-419.279,152.154
					c-64.007-17.574-126.441-46.433-180.272-84.541L2322.173,2966.234z"/>
			</g>
			<g>
				<path style="fill-rule:evenodd;clip-rule:evenodd;fill:#E57C35;" d="M2322.173,2966.234
					c184.621,193.777,503.913,207.004,702.778,75.938c-285.44,132.453-465.712-56.329-465.712-56.329l-1.48-3.422
					c-64.007-17.574-126.441-46.433-180.272-84.541L2322.173,2966.234z"/>
			</g>
			<g>
				<path style="fill:#030075;" d="M2721.319,3151.433c-34.629,0-69.402-2.832-103.74-8.569
					c-123.672-20.645-231.594-76.201-312.1-160.664c-8.811-9.243-8.459-23.877,0.784-32.69c9.243-8.809,23.884-8.467,32.693,0.786
					c163.086,171.089,424.722,185.977,598.875,112.236c159.404-67.485,247.146-199.243,240.725-361.489
					c-10.693-249.238-141.924-382.275-259.323-400.381c-99.412-15.347-185.039,47.7-229.107,168.623
					c-21.868,64.678-8.215,99.717,11.875,110.938c20.166,11.27,48.701,2.7,67.83-20.381c0.166-0.205,0.34-0.405,0.513-0.601
					c63.054-71.016,116.946-64.111,143.457-53.672c64.89,25.542,104.958,119.614,102.083,239.653
					c-0.005,0.225-0.015,0.449-0.027,0.674c-7.695,145.205-87.034,213.315-152.236,244.883
					c-135.886,65.791-345.962,34.639-499.524-74.072c-10.422-7.378-12.891-21.812-5.51-32.231
					c7.376-10.43,21.807-12.905,32.234-5.513c140.639,99.565,331.003,129.077,452.646,70.195
					c77.329-37.441,120.962-108.457,126.189-205.376c2.219-95.64-28.374-177.695-72.795-195.181
					c-33.684-13.262-68.416,14.937-91.687,41.069c-33.372,40.005-86.189,53.008-125.723,30.928
					c-17.646-9.854-72.173-50.981-33.042-166.401c0.054-0.156,0.11-0.317,0.168-0.479
					c51.387-141.284,158.565-217.456,279.705-198.76c135.476,20.889,286.668,168.799,298.484,444.18
					c3.76,95-20.503,180-72.112,252.71c-46.438,65.43-114.487,118.428-196.792,153.271
					C2883.608,3135.711,2802.874,3151.433,2721.319,3151.433z"/>
			</g>
			<g>
				<path style="fill:#FFFFFF;" d="M1333.218,2071.808l204.968,1064.709c287.568,17.944,547.016,20.164,780.196,7.677
					c81.396-165.011,120.336-318.275,117.375-444.345c-2.683-119.134-42.639-214.033-119.503-271.473
					c-46.71-119.411-133.471-309.951-182.215-415.58c-21.645-46.71-35.797-76.863-35.797-76.863l-758.366-18.129L1333.218,2071.808z
					"/>
			</g>
			<g>
				<path style="fill:#DBDBDB;" d="M2346.611,3029.681c0,0,42.999-146.196,51.942-208.458c0,0-29.239,82.558-121.772,104.229
					c-92.533,21.671-124.524-144.82-124.524-144.82s-105.949,270.405-97.005,287.934c8.944,17.529,25.799,40.232,26.831,36.104
					c1.032-4.128,109.733-95.285,171.307-85.998c61.574,9.288,92.254,34.438,92.254,34.438L2346.611,3029.681z"/>
			</g>
			<g>
				<path style="fill:#DBDBDB;" d="M1805.598,3128.31c0,0-17.178-165.958-25.101-240.26s75.048-581.557-47.871-598.786
					s-72.568,276.798-67.802,490.221c4.765,213.423-7.969,310.406-20.639,338.944
					C1631.514,3146.969,1815.657,3149.886,1805.598,3128.31z"/>
			</g>
			<g>
				<path style="fill:#DBDBDB;" d="M2131.732,1989.686l34.857,94.064c-309.173-40.748-601.69-47.331-867.926,0l55.194-144.881
					l744.393-2.913L2131.732,1989.686z"/>
			</g>
			<g>
				<path style="fill-rule:evenodd;clip-rule:evenodd;fill:#FFAC42;" d="M2124.327,2011.686c0,0,0.647,3.33,1.85,9.527v0.093
					c11.747,59.659,73.533,381.357,74.551,500.398c0,4.81,0,9.157-0.185,13.227c-4.532,113.861,129.956-24.789,235.214,164.919
					c-1.942-85.836-23.216-159.184-63.728-214.866c-15.725-21.551-34.316-40.513-55.775-56.607
					c-46.248-118.208-131.805-306.251-180.735-412.435c-0.556-1.018-1.017-2.128-1.479-3.145L2124.327,2011.686z"/>
			</g>
			<g>
				<path style="fill-rule:evenodd;clip-rule:evenodd;fill:#E57C35;" d="M2126.177,2021.213v0.093
					c11.747,59.659,73.533,381.357,74.551,500.398c16.741-20.811,34.5-59.844,65.394-71.776
					c44.028-17.019,106.093,44.305,106.093,44.305l-0.185-9.25c-15.725-21.551-34.316-40.513-55.775-56.607
					c-46.248-118.208-131.805-306.251-180.735-412.435C2132.096,2017.421,2129.045,2019.178,2126.177,2021.213z"/>
			</g>
			<g>
				<path style="fill:#030075;" d="M2012.241,3175.135c-150.469,0-309.448-5.195-475.483-15.576
					c-10.525-0.659-19.27-8.354-21.265-18.711L1310.476,2076.14c-0.339-1.768-0.474-3.569-0.396-5.371l6.672-153.994
					c0.547-12.588,10.996-22.314,23.657-22.114l758.393,18.179c8.755,0.21,16.643,5.347,20.371,13.271
					c1.492,3.174,148.242,315.479,216.292,487.861c80.323,63.066,123.04,165.317,123.64,296.221
					c0.598,130.327-40.884,283.931-119.958,444.199c-3.699,7.495-11.152,12.412-19.497,12.861
					C2221.833,3172.512,2119.187,3175.135,2012.241,3175.135z M2318.411,3144.163h0.049H2318.411z M1557.517,3114.5
					c270.022,16.328,520.835,18.765,746.081,7.285c72.066-149.429,109.812-291.431,109.263-411.377
					c-0.544-118.706-38.728-209.819-110.422-263.486c-3.448-2.578-6.106-6.069-7.676-10.083
					c-58.74-150.059-182.59-416.509-211.382-478.11l-721.406-17.29l-5.571,128.623L1557.517,3114.5z"/>
			</g>
			<g>
				<path style="fill:#FFFFFF;" d="M1373.746,3128.192c4.625,67.521,223.469,67.983,266.571,18.776
					c4.81-5.549,9.157-13.134,13.041-22.476c30.894-74.274,6.967-249.789,7.152-391.584l8.943-50.82l-265.091-613.149
					l-48.56-112.196l-7.678-17.851c-10.821,39.958-20.534,78.251-29.228,114.879c-2.405,9.804-4.625,19.516-6.845,29.136
					c-101.837,446.473-45.137,658.749,105.721,973.879C1417.774,3056.786,1369.214,3060.671,1373.746,3128.192z"/>
			</g>
			<g>
				<path style="fill:#DBDBDB;" d="M1644.555,3124.492c30.894-74.274,18.125-258.199,18.311-399.994l-2.215-42.41
					c1.665,30.154,3.422,62.712,4.162,97.397c4.81,213.386-7.954,310.413-20.626,338.902
					C1643.168,3120.608,1643.446,3122.642,1644.555,3124.492z"/>
			</g>
			<g>
				<path style="fill:#DBDBDB;" d="M1298.625,2083.739c1.572-0.277,3.053-0.555,4.625-0.832
					c30.431-5.272,70.035-9.897,101.113-13.967l-48.56-112.196l-45.709,97.027L1298.625,2083.739z"/>
			</g>
			<g>
				<path style="fill:#030075;" d="M1361.672,1944.912c-114.497,431.336-137.341,693.522,68.128,1101.859
					c-0.003,0.001-19.013,33.038-19.013,33.038l0.04-0.004c0.763-0.069,0.386-0.035,0.424-0.033
					c-19.992,3.763-24.38,27.33-22.882,45.542c2.273,19.417,52.643,28.439,69.977,30.493c43.014,5.097,122.563,3.773,155.62-24.003
					c5.533-10.795,7.749-26.32,9.743-39.945c4.269-32.802,5.692-66.039,6.846-99.393c3.05-135.558,2.694-271.68,3.524-407.44
					c0.309-45.531,0.724-91.009,2.903-136.553c0.191-3.63,3.287-6.418,6.918-6.228c3.403,0.177,6.067,2.916,6.229,6.242
					c5.065,90.391,12.919,181,18.098,271.76c4.312,80.883,26.267,390.969-19.866,442.726
					c-50.577,52.875-208.266,52.685-269.483,18.43c-19.994-10.242-38.213-31.429-37.531-55.971
					c-2.99-41.844,19.634-86.406,65.679-91.717c0.255-0.11-18.998,33.014-18.94,33.03c-41.638-87.069-81.12-176.16-110.275-269.718
					c-60.985-186.768-59.206-389.554-24.857-580.98c16.432-95.55,38.946-189.747,64.079-283.221
					C1325.59,1904.059,1368.784,1914.394,1361.672,1944.912L1361.672,1944.912z"/>
			</g>
			<g>
				<path style="fill:#030075;" d="M1406.162,3033.802c58.908,0.654,117.39,14.677,170.75,39.09c5.032,2.241,2.38,10.11-3.011,8.746
					c-53.138-11.385-109.001-12.873-162.182-1.923C1377.281,3086.662,1370.976,3035.362,1406.162,3033.802L1406.162,3033.802z"/>
			</g>
			<g>
				<path style="fill:#FFFFFF;" d="M1775.53,2849.505c1.942,35.98-11.562,72.146-7.493,106.369c0,0.093,14.753-4.392,14.753-4.392
					c8.601,71.776,6.89,139.896,22.8,176.802c4.162,9.62,8.509,17.482,13.041,23.124c40.698,51.242,259.356,61.324,267.125-5.919
					c7.862-67.244-40.513-73.441-40.513-73.441c108.033-215.328,131.25-418.262,136.985-622.121l-396.711,249.551l7.207,3.625
					C1790.783,2744.448,1773.31,2803.535,1775.53,2849.505z"/>
			</g>
			<g>
				<path style="fill:#DBDBDB;" d="M1805.59,3128.284c0,0-22.755-93.882-37.553-172.226
					C1776.638,3027.835,1789.68,3091.379,1805.59,3128.284z"/>
			</g>
			<g>
				<path style="fill:#DBDBDB;" d="M1759.065,2849.505c4.902-38.016,16.741-92.958,26.453-150.027l-27.101,17.019
					C1756.475,2757.842,1756.845,2803.535,1759.065,2849.505z"/>
			</g>
			<g>
				<path style="fill:#030075;" d="M2167.404,2238.098c74.181,274.777,28.108,592.59-101.443,844.279
					c-0.002,0-17.724-33.3-17.724-33.3c2.198,0.345,2.625,0.42,4.387,0.811c45.166,10.558,62.367,56.804,56.508,98.159
					c-2.199,23.249-21.083,41.428-40.445,50.237c-62.828,30.79-218.766,23.428-267.145-31.076c-2.198-2.56-4.623-6.259-6.196-9.257
					c-9.49-18.921-11.971-37.7-15.283-56.963c-5.161-34.688-7.528-69.614-9.342-104.346c-6.941-137.816,0.079-274.543,7.917-411.77
					c2.766-45.606,6.209-91.169,10.538-136.7c0.344-3.618,3.556-6.273,7.175-5.929c3.39,0.322,5.933,3.213,5.958,6.545
					c0.799,136.606,3.12,273.199,8.353,409.607c2.88,67.774,4.302,135.574,11.11,202.823c3.151,25.033,4.977,53.312,15.021,75.785
					c35.476,33.333,137.52,37.626,184.355,27.488c14.094-2.975,37.059-9.289,41.216-21.509c0.859-6.325,1.068-13.466,0.408-19.52
					c-1.529-14.356-7.692-25-20.895-28.576c0.041,0-0.344-0.054,0.431,0.055l0.031,0.003l-17.722-33.301
					c59.523-126.675,100.86-261.633,123.698-399.757c11.264-69.179,17.564-139.354,18.184-209.464
					c0.525-70.395-5.116-140.765-17.134-210.232c-0.877-5.047,2.521-9.853,7.572-10.709
					C2161.636,2230.685,2166.122,2233.621,2167.404,2238.098L2167.404,2238.098z"/>
			</g>
			<g>
				<path style="fill:#030075;" d="M2041.413,3094.81c-52.599-13.487-108.46-14.677-162.087-5.85
					c-5.393,1.085-7.784-6.894-2.589-8.88c54.47-21.829,113.553-33.033,172.426-30.865
					C2084.182,3052.465,2075.571,3103.345,2041.413,3094.81L2041.413,3094.81z"/>
			</g>
			<g>
				<path style="fill:#FFFFFF;" d="M2124.335,3144.56c0,0,234.359,31.975,245.202-8.804c25.212-94.823-133.27-182.12-227.306-83.901
					"/>
			</g>
			<g>
				<path style="fill:#030075;" d="M2127.461,3121.648c46.254,3.969,93.391,7.625,139.269,8.597
					c25.879-0.13,54.255,1.023,78.495-6.17c1.598-0.546,2.765-1.164,2.922-1.285c0.276-0.104-0.887,0.36-2.508,3.258
					c-0.279,0.668-0.768,1.536-0.997,2.428c1.209-4.004,2.69-14.808,1.416-21.35c-1.979-16.129-12.153-32.404-26.404-45.424
					c-37.655-34.567-95.938-40.095-142.884-21.138c-10.279,4.003-20.193,9.542-30.797,15.294c-4.815,2.883-10.655-3.134-7.763-7.853
					c26.285-47.894,86.568-69.199,138.892-57.737c69.916,12.823,137.571,77.656,116.979,153.735
					c-14.588,43.614-93.258,38.142-128.537,38.331c-48.835-1.534-96.238-6.76-144.335-14.862
					C2092.253,3161.638,2098.017,3119.487,2127.461,3121.648L2127.461,3121.648z"/>
			</g>
			<g>
				<g>
					<path style="fill:#FFFFFF;" d="M1054.975,1735.843c5.593,14.362,12.774,28.587,21.337,42.604
						c0.069,0.138,0.138,0.276,0.207,0.345s0.069,0.069,0.069,0.069c64.494,104.613,209.777,195.277,410.924,224.9
						c0.276,0.069,0.621,0.069,0.966,0.138c4.559,0.69,9.115,1.312,13.672,1.864c4.972,0.622,9.944,1.243,14.985,1.865
						c56.622,3.867,113.243,5.869,169.865,5.869c56.623,0,113.245-2.002,169.867-5.869c5.041-0.622,10.012-1.243,14.984-1.865
						c4.558-0.552,9.115-1.174,13.672-1.864c0.345-0.069,0.691-0.069,0.968-0.138c28.656-4.212,56.138-9.667,82.447-16.296
						c158.472-39.428,273.167-118.906,328.477-208.604c8.701-14.086,15.95-28.518,21.612-43.019
						c23.547-59.799,20.923-121.876-12.015-178.29c-13.396-168.969-53.446-303.204-121.806-404.986v-0.069
						c0.137-6.077,5.868-306.518-52.341-366.178c-58.901-60.282-287.529,143.488-287.529,143.488l-1.45-0.345
						c-51.582-12.015-104.198-18.091-156.885-18.091c-52.685,0-105.303,6.076-156.884,18.091l-1.45,0.345
						c0,0-228.629-203.77-287.529-143.488c-58.211,59.66-52.479,360.102-52.341,366.178v0.069
						c-68.361,101.781-108.41,236.017-121.806,404.986C1034.052,1613.967,1031.428,1676.044,1054.975,1735.843z"/>
				</g>
				<g>
					<path style="fill:#DBDBDB;" d="M1757.994,1773.025c-45.216,10.669-92.698,9.797-141.931,0
						C1616.062,1834.351,1757.994,1834.351,1757.994,1773.025z"/>
				</g>
				<g>
					<path style="fill:#DBDBDB;" d="M1078.176,1711.191c18.574,114.28,155.642,199.558,326.888,276.274
						c26.308,6.629,53.791,12.084,82.448,16.296c0.276,0.069,0.621,0.069,0.966,0.138c4.559,0.69,9.115,1.312,13.672,1.864
						c4.972,0.622,9.944,1.243,14.985,1.865c56.622,3.867,113.243,5.869,169.865,5.869c56.623,0,113.245-2.002,169.867-5.869
						c5.041-0.622,10.012-1.243,14.984-1.865c4.558-0.552,9.115-1.174,13.672-1.864c0.345-0.069,0.691-0.069,0.968-0.138
						c28.656-4.212,56.138-9.667,82.447-16.296c171.247-76.716,308.313-161.994,326.888-276.274
						C2163.385,1857.373,1981.494,1931.05,1687,1931.05C1402.149,1931.05,1210.616,1857.373,1078.176,1711.191z"/>
				</g>
				<g>
					<path style="fill-rule:evenodd;clip-rule:evenodd;fill:#FFAC42;" d="M1054.975,1735.843
						c5.593,14.362,12.774,28.587,21.337,42.604c0.069,0.138,0.138,0.276,0.207,0.345
						c-57.934-149.013,24.789-240.712,146.181-149.013c138.31,84.795,249.345,94.739,334.829,35.009
						c55.241-30.935,50.961-144.731,76.44-215.923c17.677-49.51,88.386-49.51,106.063,0c25.48,71.192,21.198,184.988,76.439,215.923
						c85.486,59.729,196.52,49.786,334.829-35.009c121.393-91.7,204.116,0,146.114,149.082c8.701-14.086,15.95-28.518,21.612-43.019
						c23.547-59.799,20.923-121.876-12.015-178.29c-13.396-168.969-53.446-303.204-121.806-404.986v-0.069
						c0.137-6.077,5.868-306.518-52.341-366.178c-58.901-60.282-287.529,143.488-287.529,143.488l-1.45-0.345
						c-51.582-12.015-104.198-18.091-156.885-18.091c-52.685,0-105.303,6.076-156.884,18.091l-1.45,0.345
						c0,0-228.629-203.77-287.529-143.488c-58.211,59.66-52.479,360.102-52.341,366.178v0.069
						c-68.361,101.781-108.41,236.017-121.806,404.986C1034.052,1613.967,1031.428,1676.044,1054.975,1735.843z"/>
				</g>
				<g>
					<path style="fill-rule:evenodd;clip-rule:evenodd;fill:#E57C35;" d="M1730.818,913.517c0,251.099-87.582,251.099-87.582,0
						H1730.818z"/>
				</g>
				<g>
					<path style="fill-rule:evenodd;clip-rule:evenodd;fill:#E57C35;" d="M1798.333,928.243c0,0-34.925,164.353,0,139.7
						c34.925-24.653,47.003-138.135,47.003-138.135L1798.333,928.243z"/>
				</g>
				<g>
					<path style="fill-rule:evenodd;clip-rule:evenodd;fill:#E57C35;" d="M1575.722,928.243c0,0,34.925,164.353,0,139.7
						c-34.925-24.653-47.003-138.135-47.003-138.135L1575.722,928.243z"/>
				</g>
				<g style="opacity:0.48;">
					<path style="fill:#FFFFFF;" d="M1188.727,1144.488c0.966-89.076,8.355-271.924,52.41-317.083
						c58.901-60.282,287.529,143.488,287.529,143.488l1.45-0.345c51.581-12.015,104.199-18.091,156.884-18.091
						c52.687,0,105.303,6.077,156.885,18.091l1.45,0.345c0,0,228.629-203.77,287.529-143.488
						c44.124,45.159,51.512,228.283,52.479,317.29c0.483-48.267,0.69-303.825-52.479-358.376
						c-58.901-60.282-287.529,143.488-287.529,143.488l-1.45-0.345c-51.582-12.015-104.198-18.091-156.885-18.091
						c-52.685,0-105.303,6.076-156.884,18.091l-1.45,0.345c0,0-228.629-203.77-287.529-143.488
						C1188.036,840.732,1188.175,1095.599,1188.727,1144.488z"/>
				</g>
				<g style="opacity:0.37;">
					<path style="fill:#FFFFFF;" d="M2185.206,1152.567c0.069,0.069,0.069,0.138,0.137,0.207v-6.007
						c-0.068,3.314-0.137,5.317-0.137,5.731V1152.567z"/>
				</g>
				<g style="opacity:0.37;">
					<path style="fill:#FFFFFF;" d="M1188.658,1152.774c0.069-0.069,0.069-0.138,0.138-0.207v-0.069
						c0-0.483-0.069-2.555-0.069-6.145C1188.658,1148.562,1188.658,1150.703,1188.658,1152.774z"/>
				</g>
				<g>
					<path style="fill:#030075;" d="M1635.667,1618.434c0,13.426,22.995,42.458,51.36,42.458c28.365,0,51.36-29.032,51.36-42.458
						s-22.995-19.988-51.36-19.988C1658.662,1598.447,1635.667,1605.008,1635.667,1618.434z"/>
				</g>
				<g>
					<path style="fill:#030075;" d="M1698.352,1638.347l-6.25,39.554c-0.835,5.709-9.344,5.648-10.149,0
						c0,0-6.25-39.553-6.25-39.553C1673.904,1620.868,1700.149,1620.856,1698.352,1638.347L1698.352,1638.347z"/>
				</g>
				<g>
					<path style="fill:#030075;" d="M1691.319,1686.013c33.299,36.207,87,57.81,131.599,28.879c4.639-3.2,10.406,2.821,7.053,7.301
						c-40.634,52.52-126.126,26.214-147.234-30.763C1680.627,1686.23,1687.583,1681.884,1691.319,1686.013L1691.319,1686.013z"/>
				</g>
				<g>
					<path style="fill:#030075;" d="M1692.644,1692.267c-13.611,43.294-67.425,72.718-112.409,58.052
						c-15.139-4.684-28.95-14.161-37.241-26.999c-2.042-3.162-1.134-7.381,2.029-9.423c2.259-1.46,5.028-1.404,7.202-0.13
						c21.611,11.663,44.464,14.01,67.495,8.028c23.657-6.198,42.866-19.947,61.689-36.618
						C1686.391,1680.236,1694.979,1685.715,1692.644,1692.267L1692.644,1692.267z"/>
				</g>
				<g>
					<g>
						<ellipse style="fill:#030075;" cx="1941.683" cy="1521.784" rx="94.846" ry="108.02"/>
					</g>
					<g>
						<ellipse style="fill:#FFFFFF;" cx="1900.565" cy="1498.967" rx="24.854" ry="30.786"/>
					</g>
					<g style="opacity:0.37;">
						<ellipse style="fill:#FFFFFF;" cx="1968.364" cy="1575.82" rx="16.813" ry="17.493"/>
					</g>
				</g>
				<g>
					<g>
						<ellipse style="fill:#030075;" cx="1432.372" cy="1521.784" rx="94.846" ry="108.02"/>
					</g>
					<g>
						<ellipse style="fill:#FFFFFF;" cx="1473.49" cy="1498.967" rx="24.854" ry="30.786"/>
					</g>
					<g style="opacity:0.37;">
						<ellipse style="fill:#FFFFFF;" cx="1405.691" cy="1575.82" rx="16.813" ry="17.493"/>
					</g>
				</g>
				<g>
					<path style="fill:#030075;" d="M1901.216,1177.531c-56.103-3.854-60.514,60.367-4.411,64.22
						c29.625,2.94,55.63,7.69,77.957,14.278C1974.762,1256.029,1970.717,1195.003,1901.216,1177.531z"/>
				</g>
				<g>
					<path style="fill:#030075;" d="M1472.839,1177.531c56.103-3.854,60.514,60.367,4.411,64.22
						c-29.625,2.94-55.629,7.69-77.957,14.278C1399.293,1256.029,1403.338,1195.003,1472.839,1177.531z"/>
				</g>
				<g>
					<path style="fill:#FFA6CA;" d="M1983.162,977.729c46.954,22.718,88.661,50.96,125.327,84.864
						c9.529-52.963-2.831-177.323-26.999-180.431C2060.084,879.469,2004.36,949.763,1983.162,977.729z"/>
				</g>
				<g>
					<path style="fill:#030075;" d="M2108.491,1078.006c-3.821,0-7.573-1.421-10.466-4.097
						c-35.349-32.686-76.252-60.378-121.575-82.305c-4.158-2.012-7.195-5.784-8.274-10.273c-1.079-4.492-0.088-9.231,2.703-12.91
						c80.066-105.627,103.65-102.673,112.536-101.548c7.146,0.918,13.369,4.954,18.535,12.004
						c22.876,31.211,30.23,139.08,21.707,186.445c-0.996,5.54-4.934,10.095-10.273,11.885
						C2111.782,1077.744,2110.129,1078.006,2108.491,1078.006z M2006.758,972.378c32.158,16.919,62.075,36.682,89.36,59.028
						c1.934-49.988-7.466-117.498-17.964-133.042C2068.438,902.991,2044.104,924.864,2006.758,972.378z"/>
				</g>
				<g>
					<path style="fill:#FFA6CA;" d="M1390.84,977.729c-46.954,22.718-88.661,50.96-125.327,84.864
						c-9.529-52.963,2.83-177.323,26.998-180.431C1313.917,879.469,1369.641,949.763,1390.84,977.729z"/>
				</g>
				<g>
					<path style="fill:#030075;" d="M1265.51,1078.006c-1.638,0-3.291-0.261-4.893-0.798c-5.339-1.79-9.277-6.345-10.273-11.885
						c-8.523-47.366-1.169-155.234,21.707-186.445c5.166-7.051,11.389-11.086,18.494-12c8.943-1.123,32.505-4.097,112.578,101.543
						c2.791,3.679,3.782,8.418,2.703,12.91c-1.079,4.49-4.116,8.262-8.274,10.273c-45.317,21.924-86.223,49.617-121.575,82.305
						C1273.084,1076.585,1269.331,1078.006,1265.51,1078.006z M1295.847,898.362c-10.498,15.547-19.897,83.057-17.964,133.044
						c27.288-22.346,57.207-42.112,89.36-59.028C1329.898,924.861,1305.564,902.989,1295.847,898.362z"/>
				</g>
				<g>
					<path style="fill:#030075;" d="M1516.338,2014.094c-54.103,5.162-111.683-2.016-166.664-17.936
						c-21.419-5.972-45.061-14.353-65.588-22.678c-11.683-5.506-30.863-13.437-42.021-19.877
						c-115.321-60.794-234.365-171.898-225.011-313.309c2.522-33.377,13.348-65.965,29.972-94.398l-3.081,9.828
						c5.894-72.108,16.668-144.288,36.191-214.838c19.492-70.403,48.141-139.351,89.469-201.208l-3.927,12.891l-0.209-22.198
						c0.34-82.982,2.949-165.736,16.643-247.963c9.283-45.875,21.67-123.183,79.074-129.689
						c81.793-9.094,221.154,107.264,282.863,159.83c-0.001,0.001-20.737-5.23-20.737-5.23
						c53.682-12.626,108.576-19.06,163.689-19.065c55.111,0.005,110.007,6.44,163.689,19.065l-20.736,5.231
						c65.155-55.514,170.697-141.934,253.848-158.753c60.762-11.665,84.097,31.723,98.109,82.975
						c19.142,74.098,22.83,150.331,25.703,226.129c1.053,28.805,0.962,60.713,0.71,89.668c0,0-3.927-12.89-3.927-12.89
						c82.115,123.318,113.708,271.165,125.654,415.976c0.059,0.338-3.081-9.825-3.075-9.757
						c77.985,135.611-3.882,273.707-115.914,358.161c-93.275,70.84-218.091,111.97-330.337,111.565
						c-7.541,0.158-15.489-0.356-22.962-0.721c-8.307-0.544-9.469-12.156-1.793-14.546c9.437-2.825,19.277-5.939,28.772-8.457
						c71.127-20.675,139.517-41.772,205.203-73.166c63.289-29.975,125.654-69.77,169.047-125.453
						c33.086-42.566,56.368-95.317,51.86-149.37c-2-26.168-10.367-51.632-23.805-74.701c-1.83-3.138-2.827-6.486-3.089-9.899
						c-5.707-69.842-16.14-139.224-34.652-206.079c-18.476-66.76-45.365-130.996-83.292-187.773
						c-2.705-3.92-3.972-8.46-3.928-12.892c0.151-28.449,0.329-59.935-0.69-88.316c-1.858-58.07-5.361-116.897-15.055-173.894
						c-4.612-26.19-10.851-54.998-22.806-77.589c-4.846-6.785-6.798-13.481-16.53-14.176
						c-65.739-2.354-194.784,104.249-246.373,148.551c-5.83,5.115-13.627,6.757-20.651,5.157
						c-24.939-5.859-50.421-10.346-75.957-13.32c-25.563-2.983-51.294-4.486-77.021-4.488
						c-51.401-0.014-102.986,6.051-152.98,17.808c-7.635,1.791-15.271-0.394-20.737-5.231
						c-21.54-18.895-44.491-37.557-67.549-55.208c-23.151-17.678-46.831-34.583-71.118-49.898
						c-30.036-18.334-59.506-35.868-92.346-42.611c-11.062-1.692-21.371-2.629-27.489,6.619
						c-15.838,23.907-21.635,55.559-27.121,84.387c-4.912,28.184-8.029,57.141-10.417,86.198
						c-4.584,58.157-6.047,117.566-5.33,176.013c0.045,4.787-1.404,9.213-3.927,12.892
						c-37.931,56.783-64.821,121.025-83.298,187.792c-18.512,66.862-28.943,136.251-34.651,206.1
						c-0.267,3.537-1.42,6.968-3.083,9.86c-53.9,91.442-11.057,190.732,59.519,259.197c9.243,7.855,18.133,17.175,27.999,24.252
						c0,0,16.832,12.964,16.832,12.964l17.753,11.833c20.035,13.589,43.736,25.562,65.313,36.607
						c5.907,2.619,23.135,10.624,29.335,13.43c61.209,26.678,125.855,44.846,189.393,65.349c8.199,2.443,16.749,5.514,24.834,8.321
						C1524.543,2003.307,1523.192,2013.572,1516.338,2014.094L1516.338,2014.094z"/>
				</g>
				<g>
					<path style="fill:#030075;" d="M1717.882,1780.023c-17.67,12.424-43.904,11.843-61.675,0.042
						c-2.396-1.616-3.029-4.87-1.412-7.266c1.113-1.65,2.99-2.454,4.844-2.286c13.858,1.133,26.951,2.501,40.724,1.284
						c0.068,0.01,13.892-1.256,14-1.254C1719.589,1769.973,1722.168,1777.099,1717.882,1780.023L1717.882,1780.023z"/>
				</g>
				<g>
					<path style="fill:#030075;" d="M2229.759,1705.219c71.739-23.107,154.836-14.931,218.374,26.314
						c6.467,4.225,0.981,14.155-6.052,10.903c-49.095-21.546-102.213-31.289-155.74-29.725c-17.899,0.441-36.153,1.999-53.636,4.573
						C2225.356,1718.339,2222.69,1707.685,2229.759,1705.219L2229.759,1705.219z"/>
				</g>
				<g>
					<path style="fill-rule:evenodd;clip-rule:evenodd;fill:#E57C35;" d="M2277.673,1562.873c0,0-7.19-127.888-29.275-189.52
						C2226.312,1311.721,2207.309,1572.118,2277.673,1562.873z"/>
				</g>
				<g>
					<path style="fill-rule:evenodd;clip-rule:evenodd;fill:#E57C35;" d="M1096.383,1562.873c0,0,7.19-127.888,29.275-189.52
						C1147.743,1311.721,1166.747,1572.118,1096.383,1562.873z"/>
				</g>
				<g>
					<path style="fill:#030075;" d="M2240.38,1750.163c72.443,3.835,144.55,55.939,156.341,129.914
						c1.226,7.44-9.436,10.283-12.049,3.205c-22.631-65.172-80.82-104.754-145.658-120.724
						C2231.464,1761.138,2232.661,1749.858,2240.38,1750.163L2240.38,1750.163z"/>
				</g>
				<g>
					<path style="fill:#030075;" d="M1140.917,1717.221c-70.285-10.471-143.63-3.823-208.944,25.216
						c-6.992,3.239-12.561-6.69-6.051-10.903c31.525-20.809,68.764-33.138,106.297-37.114c18.824-2.021,37.814-2.406,56.595-0.607
						c18.839,1.741,37.233,5.073,55.482,11.406c3.255,1.129,4.977,4.683,3.848,7.938
						C1147.096,1716.196,1143.949,1717.849,1140.917,1717.221L1140.917,1717.221z"/>
				</g>
				<g>
					<path style="fill:#030075;" d="M1135.041,1762.557c-64.847,15.972-123.028,55.56-145.657,120.726
						c-2.589,7.057-13.328,4.23-12.051-3.207c11.801-73.981,83.89-126.07,156.342-129.912
						C1141.38,1749.907,1142.621,1761.115,1135.041,1762.557L1135.041,1762.557z"/>
				</g>
			</g>
			<g>
				<path style="fill:#DBDBDB;" d="M2770.176,2521.703c117.415-99.049,258.44-57.297,269.688,234.85
					C3135.264,2474.023,2894.93,2253.87,2770.176,2521.703z"/>
			</g>
			<g>
				<path style="fill:#030075;" d="M2319.959,3129.262c5.257-11.185,0.382-26.537-6.897-36.809
					c-1.916-3.182-7.782-7.308-3.545-10.958c3.874-2.579,7.327,2.295,10.587,3.998c14.638,10.789,25.152,28.418,24.61,47.143
					C2343.779,3151.345,2316.092,3147.63,2319.959,3129.262L2319.959,3129.262z"/>
			</g>
			<g>
				<path style="fill:#030075;" d="M2224.377,3129.262c5.258-11.183,0.382-26.537-6.896-36.809
					c-1.916-3.181-7.782-7.307-3.545-10.958c3.873-2.579,7.326,2.296,10.587,3.998c14.636,10.789,25.152,28.418,24.609,47.143
					C2248.198,3151.345,2220.509,3147.629,2224.377,3129.262L2224.377,3129.262z"/>
			</g>
			<g>
				<path style="fill:#030075;" d="M2032.361,3172.943c5.259-11.179,0.383-26.537-6.896-36.809
					c-1.916-3.18-7.782-7.308-3.545-10.958c3.874-2.581,7.325,2.296,10.587,3.996c14.635,10.79,25.153,28.417,24.609,47.143
					C2056.187,3195.027,2028.495,3191.313,2032.361,3172.943L2032.361,3172.943z"/>
			</g>
			<g>
				<path style="fill:#030075;" d="M1934.623,3172.943c5.258-11.178,0.382-26.538-6.896-36.809
					c-1.916-3.179-7.782-7.308-3.545-10.958c3.872-2.581,7.326,2.296,10.587,3.996c14.635,10.79,25.152,28.417,24.609,47.143
					C1958.448,3195.027,1930.756,3191.313,1934.623,3172.943L1934.623,3172.943z"/>
			</g>
			<g>
				<path style="fill:#030075;" d="M1188.822,3135.651c-1.955-16.956,6.403-34.142,18.555-45.327
					c3.598-3.454,7.709-6.263,11.823-8.962c1.768-1.195,4.167-0.731,5.364,1.035c0.953,1.41,0.851,3.225-0.129,4.508
					c-7.833,9.291-14.009,21.192-13.236,33.449c0.187,3.104,0.645,6.214,1.956,8.947c0.058,0.068,0.155,0.3,0.117-0.038
					C1217.081,3145.477,1193.444,3151.673,1188.822,3135.651L1188.822,3135.651z"/>
			</g>
			<g>
				<path style="fill:#030075;" d="M1260.522,3137.772c-2.222-19.66,8.991-38.836,24.302-50.16c3.36-1.912,7.978-7.523,11.438-3.096
					c1.06,1.558,0.788,3.537-0.399,4.86c-9.547,11.05-17.007,28.594-10.892,42.006
					C1288.781,3147.596,1265.142,3153.793,1260.522,3137.772L1260.522,3137.772z"/>
			</g>
			<g>
				<path style="fill:#030075;" d="M1388.719,3161.846c-2.223-19.661,8.992-38.835,24.302-50.16
					c3.36-1.911,7.978-7.522,11.438-3.096c1.061,1.558,0.788,3.538-0.399,4.86c-9.547,11.051-17.007,28.594-10.892,42.006
					C1416.978,3171.671,1393.34,3177.868,1388.719,3161.846L1388.719,3161.846z"/>
			</g>
			<g>
				<path style="fill:#030075;" d="M1469.983,3169.739c-2.222-19.661,8.992-38.836,24.302-50.16
					c3.36-1.912,7.978-7.523,11.438-3.096c1.06,1.558,0.788,3.537-0.399,4.86c-9.547,11.05-17.007,28.594-10.892,42.006
					C1498.243,3179.563,1474.604,3185.76,1469.983,3169.739L1469.983,3169.739z"/>
			</g>
		</g>
	</g>
</g>
</svg>
