<?xml version="1.0" encoding="utf-8"?>
<!-- Generator: Adobe Illustrator 27.5.0, SVG Export Plug-In . SVG Version: 6.00 Build 0)  -->
<svg version="1.1" id="Capa_1" xmlns="http://www.w3.org/2000/svg" xmlns:xlink="http://www.w3.org/1999/xlink" x="0px" y="0px"
	 viewBox="0 0 425.197 425.197" style="enable-background:new 0 0 425.197 425.197;" xml:space="preserve">
<rect y="0" style="fill:#F7F8F8;" width="425.197" height="425.197"/>
<g>
	
		<ellipse transform="matrix(0.7071 -0.7071 0.7071 0.7071 -88.5844 211.3355)" style="fill:#91CFDE;" cx="210.812" cy="212.599" rx="168.019" ry="168.018"/>
	<path style="fill:#F7F8F8;" d="M166.235,340.473c-1.11,0-2.173,0.188-3.171,0.522c0.007-0.174,0.027-0.346,0.027-0.522
		c0-8.346-6.767-15.111-15.112-15.111c-0.28,0-0.554,0.027-0.83,0.043c-2.749-10.185-12.048-17.682-23.103-17.682
		c-11.043,0-20.334,7.48-23.093,17.65c-0.083,0-0.164-0.012-0.248-0.012c-3.183,0-6.015,1.488-7.851,3.801
		c-2.666-2.357-6.159-3.801-9.998-3.801c-8.346,0-15.111,6.766-15.111,15.111c0,0.133,0.017,0.262,0.02,0.395
		c-0.877-0.252-1.799-0.395-2.756-0.395c-5.538,0-10.027,4.49-10.027,10.027c0,5.539,4.489,10.027,10.027,10.027h101.226
		c5.538,0,10.026-4.488,10.026-10.027C176.262,344.963,171.773,340.473,166.235,340.473z"/>
	<path style="fill:#F7F8F8;" d="M372.376,91.661c-1.109,0-2.172,0.188-3.169,0.519c0.005-0.173,0.024-0.344,0.024-0.519
		c0-8.347-6.765-15.113-15.11-15.113c-0.281,0-0.555,0.027-0.831,0.043c-2.749-10.187-12.048-17.682-23.102-17.682
		c-11.043,0-20.335,7.481-23.095,17.651c-0.082-0.002-0.164-0.013-0.246-0.013c-3.185,0-6.016,1.488-7.852,3.8
		c-2.666-2.357-6.158-3.8-9.998-3.8c-8.346,0-15.111,6.766-15.111,15.113c0,0.131,0.016,0.259,0.02,0.393
		c-0.878-0.251-1.8-0.393-2.757-0.393c-5.538,0-10.027,4.489-10.027,10.026c0,5.539,4.489,10.027,10.027,10.027h101.226
		c5.537,0,10.027-4.488,10.027-10.027C382.403,96.15,377.913,91.661,372.376,91.661z"/>
	<path style="fill:#F7F8F8;" d="M289.585,297.273c-0.798,0-1.563,0.137-2.282,0.375c0.004-0.125,0.02-0.248,0.02-0.375
		c0-6.008-4.872-10.879-10.881-10.879c-0.201,0-0.398,0.018-0.598,0.029c-1.98-7.334-8.674-12.73-16.633-12.73
		c-7.951,0-14.641,5.387-16.627,12.709c-0.059,0-0.118-0.008-0.179-0.008c-2.292,0-4.33,1.07-5.653,2.734
		c-1.918-1.697-4.434-2.734-7.197-2.734c-6.008,0-10.881,4.871-10.881,10.879c0,0.096,0.013,0.188,0.015,0.283
		c-0.631-0.18-1.295-0.283-1.983-0.283c-3.987,0-7.22,3.234-7.22,7.219c0,3.988,3.232,7.221,7.22,7.221h72.88
		c3.987,0,7.22-3.232,7.22-7.221C296.805,300.508,293.572,297.273,289.585,297.273z"/>
	<path style="fill:#F7F8F8;" d="M177.006,97.276c-0.799,0-1.565,0.135-2.282,0.375c0.003-0.127,0.019-0.249,0.019-0.375
		c0-6.009-4.871-10.88-10.881-10.88c-0.2,0-0.398,0.018-0.598,0.03c-1.978-7.334-8.673-12.73-16.633-12.73
		c-7.951,0-14.641,5.386-16.627,12.709c-0.061-0.002-0.117-0.009-0.179-0.009c-2.292,0-4.33,1.07-5.653,2.735
		c-1.918-1.697-4.434-2.735-7.196-2.735c-6.009,0-10.881,4.871-10.881,10.88c0,0.096,0.012,0.188,0.015,0.283
		c-0.632-0.18-1.295-0.283-1.984-0.283c-3.986,0-7.219,3.232-7.219,7.219c0,3.987,3.232,7.22,7.219,7.22h72.881
		c3.986,0,7.221-3.232,7.221-7.22C184.227,100.508,180.992,97.276,177.006,97.276z"/>
</g>
<g>
	<path style="fill:#23B1C3;" d="M131.101,251.201c0,0,4.663-33.407,33.408-48.945c0,0,11.553-7.381,29.718-10.489
		c0,0,63.319-11.071,77.887,9.324l116.149-8.158c0,0,5.051,1.555,1.941,7.381L275.997,236.44c0,0-2.718,52.831-79.635,55.939
		C196.362,292.379,115.563,302.479,131.101,251.201z"/>
	<path style="fill:#1F262C;" d="M176.257,291.3l4.956-0.67c0,0,2.444,15.84-1.406,21.007l-4.228,1.59
		C175.579,313.227,180.824,300.925,176.257,291.3z"/>
	<path style="fill:#1F262C;" d="M201.608,285.028l4.958-0.67c0,0,2.444,15.839-1.405,21.005l-4.229,1.591
		C200.933,306.954,206.178,294.653,201.608,285.028z"/>
	<path style="fill:#1F262C;" d="M234.517,297.374c0.364,1.26-0.361,2.579-1.623,2.944l-93.972,27.202
		c-1.261,0.366-2.581-0.361-2.945-1.623l0,0c-0.365-1.261,0.36-2.58,1.623-2.944l93.972-27.202
		C232.832,295.385,234.151,296.111,234.517,297.374L234.517,297.374z"/>
	<path style="fill:#323A42;" d="M211.469,286.525c0,0,13.437,12.39,13.286,34.457l-4.693,1.456c0,0-2.808-26.03-13.904-33.335
		L211.469,286.525z"/>
	<path style="fill:#0F8791;" d="M369.345,205.558l10.496,37.321c0,0,3.91,8.354,6.718,0l1.704-42.074L369.345,205.558z"/>
	<path style="fill:#0F8791;" d="M388.263,192.933l-4.107-40.854c0,0-3.91-8.353-6.719,0l-9.18,43.379L388.263,192.933z"/>
	
		<rect x="210.847" y="128.643" transform="matrix(0.9991 -0.0431 0.0431 0.9991 -6.1541 9.3508)" style="fill:#AEADB2;" width="5.844" height="37.493"/>
	<path style="fill:#1997A3;" d="M388.263,192.933l-116.149,8.158c-0.604-0.844-1.29-1.631-2.052-2.371
		c-2.16,5.367-3.241,11.158-4.135,16.939c-1.342,8.678-2.158,17.447-3.866,26.069c-1.446,7.299-3.87,14.525-8.429,20.501
		c-3.846,5.043-9.229,8.713-15.226,10.729c-7.608,2.556-15.77,2.872-23.724,2.424c-7.586-0.428-15.274-1.59-22.301-4.604
		c-13.834-5.936-22.035-18.405-27.25-32.049c-3.826-10.012-4.717-21.427-2.96-31.983c0.208-1.244,0.464-2.443,0.774-3.608
		c-27.351,15.881-31.846,48.065-31.846,48.065c-15.538,51.278,65.262,41.178,65.262,41.178
		c76.917-3.107,79.635-55.939,79.635-55.939l114.207-36.126C393.314,194.488,388.263,192.933,388.263,192.933z"/>
	<path style="fill:#92D0E5;" d="M152.219,211.121c0,0-15.68,12.576-21.118,40.08c0,0,26.674,14.373,66.816,6.346
		c0,0,4.92-19.422,0-44.026C197.917,213.521,164.578,215.265,152.219,211.121z"/>
	<path style="fill:#92D0E5;" d="M210.089,211.969c0,0-5.958,1.552-5.958,8.804v31.335c0,0,0.749,5.568,9.323,3.368l26.156-6.216
		c0,0,6.992-3.1,5.699-8.283l-3.627-29.008c0,0-0.518-6.216-10.617-4.404L210.089,211.969z"/>
	<path style="fill:#92D0E5;" d="M248.471,206.803c0,0-3.003,0.784-3.003,4.438l3.519,29.42c0,0,1.306,2.479,4.7,1.697l13.184-3.916
		c0,0,3.523-1.563,2.873-4.176l-3.197-25.244c0,0-1.163-4.936-6.254-4.021L248.471,206.803z"/>
	<path style="fill:#1895A1;" d="M206.463,174.18c0,0,0,13.555-33.224,23.706c0,0,11.081,7.001,40.733,3.464
		c0,0,28.554-3.997,21.398-12.487c0,0-12.593-1.294-10.571-15.742L206.463,174.18z"/>
	
		<rect x="204.433" y="165.32" transform="matrix(0.9984 -0.0572 0.0572 0.9984 -9.3627 12.5996)" style="fill:#89878C;" width="21.963" height="9.063"/>
	<path style="fill:#9C9BA0;" d="M207.638,128.934L12.604,187.735c0,0-3.234,8.739,7.253,8.739l190.243-65.351L207.638,128.934z"/>
	<path style="fill:#807F84;" d="M210.414,126.806l-149.448,7.649c0,0-3.845,5.664,3.637,7.507l147.184-13.162L210.414,126.806z"/>
	<path style="fill:#807F84;" d="M215.739,128.535l141.965,48.212c0,0,5.955,13.467-9.842,12.021l-134.094-58.825L215.739,128.535z"
		/>
	<path style="fill:#9C9BA0;" d="M217.489,128.353c0.075,1.285-0.904,2.388-2.189,2.464l-5.199,0.306
		c-1.285,0.075-2.389-0.905-2.463-2.189l0,0c-0.078-1.285,0.903-2.389,2.189-2.464l5.198-0.306
		C216.31,126.087,217.413,127.067,217.489,128.353L217.489,128.353z"/>
	<g>
		<path style="fill:#187F84;" d="M130.275,254.618c0-0.001,0.483,0.374,1.443,0.939c0.969,0.571,2.445,1.31,4.359,2.138
			c0.967,0.399,2.014,0.874,3.222,1.245c1.192,0.402,2.463,0.863,3.884,1.193c1.406,0.362,2.879,0.794,4.493,1.053
			c1.605,0.281,3.24,0.739,5.023,0.929c0.882,0.124,1.781,0.25,2.699,0.38c0.915,0.133,1.844,0.273,2.809,0.32
			c1.912,0.163,3.889,0.331,5.922,0.505c2.041,0.055,4.139,0.112,6.283,0.17c2.139,0.063,4.341-0.05,6.567-0.065
			c1.114-0.02,2.237-0.039,3.368-0.059c1.133-0.084,2.273-0.168,3.42-0.253c1.146-0.085,2.3-0.17,3.459-0.255
			c1.159-0.085,2.326-0.102,3.494-0.24c2.334-0.263,4.688-0.527,7.052-0.793c1.181-0.142,2.366-0.243,3.548-0.42l3.54-0.574
			c2.366-0.351,4.733-0.701,7.09-1.051c2.354-0.376,4.679-0.896,6.997-1.331c2.313-0.467,4.616-0.889,6.896-1.295
			c2.126-0.461,4.424-1.04,6.572-1.593c4.34-1.157,8.544-2.271,12.482-3.471c3.932-1.218,7.641-2.4,11.004-3.635
			c3.352-1.259,6.403-2.468,9.025-3.705c2.62-1.239,4.805-2.51,6.465-3.73c1.636-1.239,2.869-2.322,3.507-3.225
			c0.382-0.413,0.534-0.81,0.706-1.045c0.152-0.246,0.23-0.374,0.23-0.374l0.324,0.129c0,0-0.066,0.139-0.197,0.407
			c-0.152,0.257-0.279,0.697-0.629,1.158c-0.588,0.999-1.718,2.273-3.332,3.666c-3.245,2.79-8.587,5.801-15.277,8.653
			c-6.692,2.865-14.734,5.622-23.473,8.124c-2.189,0.62-4.408,1.238-6.695,1.794c-2.291,0.473-4.609,0.95-6.946,1.433
			c-2.341,0.463-4.686,1.009-7.066,1.413c-2.386,0.377-4.781,0.755-7.177,1.134l-3.594,0.552c-1.199,0.167-2.408,0.26-3.608,0.393
			c-2.403,0.247-4.798,0.492-7.173,0.736c-2.379,0.186-4.75,0.254-7.086,0.385c-1.169,0.058-2.33,0.114-3.484,0.172
			c-1.154-0.008-2.301-0.016-3.439-0.023c-1.137-0.008-2.264-0.016-3.381-0.023c-1.117-0.007-2.225,0.003-3.316-0.097
			c-2.186-0.145-4.322-0.286-6.403-0.424c-2.071-0.237-4.082-0.518-6.029-0.763c-0.977-0.101-1.923-0.295-2.852-0.48
			c-0.93-0.182-1.842-0.359-2.735-0.534c-1.799-0.296-3.467-0.833-5.076-1.236c-1.617-0.383-3.096-0.934-4.498-1.406
			c-1.416-0.439-2.684-1.006-3.865-1.502c-1.195-0.465-2.232-1.027-3.184-1.504c-1.896-0.967-3.297-1.897-4.227-2.559
			c-0.932-0.677-1.375-1.097-1.375-1.097L130.275,254.618z"/>
	</g>
	<path style="fill:#7CC8E2;" d="M197.917,213.521c0,0-0.635,0.034-1.753,0.08c-0.738,2.852-2.212,5.452-4.144,7.679
		c-4.955,5.708-11.916,9.496-18.728,12.539c-6.601,2.949-13.442,5.261-20.303,7.522c-6.701,2.208-13.681,3.517-20.686,4.615
		c-0.439,1.684-0.844,3.432-1.203,5.245c0,0,26.674,14.373,66.816,6.346C197.917,257.547,202.837,238.125,197.917,213.521z"/>
	<path style="fill:#7CC8E2;" d="M245.31,240.977l-3.627-29.008c0,0-0.295-3.525-4.755-4.492c0.205,3.148-0.777,6.509-1.782,9.313
		c-2.125,5.933-5.27,11.524-8.924,16.643c-3.537,4.959-7.59,9.76-12.499,13.417c-2.726,2.028-6.095,4.055-9.592,4.186v1.071
		c0,0,0.749,5.568,9.323,3.368l26.156-6.216C239.61,249.26,246.603,246.16,245.31,240.977z"/>
	<path style="fill:#7CC8E2;" d="M269.743,234.266l-3.197-25.244c0,0-0.833-3.532-4.17-4.067c0.539,2.375,0.594,4.928,0.571,7.284
		c-0.046,4.548-0.564,9.149-1.72,13.553c-1.543,5.882-5.083,14.544-12.402,13.52l0.161,1.348c0,0,1.306,2.479,4.7,1.697
		l13.184-3.916C266.87,238.441,270.394,236.879,269.743,234.266z"/>
	<path style="fill:#323A42;" d="M248.825,278.085c0,0,14.353,11.314,15.906,33.327l-4.566,1.814c0,0-4.807-25.735-16.436-32.162
		L248.825,278.085z"/>
	<path style="fill:#323A42;" d="M296.088,299.988c0.431,1.488-0.426,3.041-1.911,3.473L183.39,335.529
		c-1.488,0.432-3.043-0.426-3.473-1.911l0,0c-0.43-1.488,0.426-3.043,1.914-3.474l110.785-32.069
		C294.104,297.646,295.657,298.503,296.088,299.988L296.088,299.988z"/>
</g>
</svg>
