<?xml version="1.0" encoding="utf-8"?>
<!-- Generator: Adobe Illustrator 27.5.0, SVG Export Plug-In . SVG Version: 6.00 Build 0)  -->
<svg version="1.1" xmlns="http://www.w3.org/2000/svg" xmlns:xlink="http://www.w3.org/1999/xlink" x="0px" y="0px"
	 viewBox="0 0 500 500" style="enable-background:new 0 0 500 500;" xml:space="preserve">
<g id="ARTBOARD_2">
</g>
<g id="ARTBOARD_1">
	<rect id="XMLID_153_" style="fill:#1C1645;" width="500" height="500"/>
	<g id="XMLID_28_">
		<path id="XMLID_26_" style="opacity:0.1;fill:#FFFBC9;" d="M302.627,411.384c-32.429,6.59-67.004,6.667-99.222,1.354
			c-126.3-20.826-183.467-181.196-103.126-279.431c24.853-30.388,59.69-52.154,97.279-63.013
			c52.778-15.247,111.989-9.074,159,19.352c113.61,68.697,107.178,266.147-22.631,313.024
			C323.836,406.314,313.349,409.205,302.627,411.384z"/>
		<path id="XMLID_25_" style="opacity:0.1;fill:#FFFBC9;" d="M355.77,347.751c-22.173,17.718-48.532,31.304-75.202,39.855
			c-104.547,33.52-210.926-66.515-188.04-172.928c7.079-32.918,25.153-63.161,49.594-86.156
			c34.318-32.287,81.926-50.743,128.929-47.439c113.591,7.983,185.936,161.203,105.199,247.771
			C369.974,335.583,363.101,341.892,355.77,347.751z"/>
		<path id="XMLID_24_" style="opacity:0.1;fill:#FFFBC9;" d="M223.026,370.963c-24.075-6.997-47.295-19.119-67.038-34.027
			c-77.393-58.439-59.278-186.149,29.205-223.761c27.371-11.635,58.405-13.97,87.444-8.02c40.774,8.355,78.321,33.343,99.849,68.964
			c52.025,86.085-21.81,216.276-125.395,202.018C239.039,375.029,230.986,373.276,223.026,370.963z"/>
		<path id="XMLID_27_" style="opacity:0.1;fill:#FFFBC9;" d="M225.367,358.56c-21.845-6.349-42.915-17.349-60.83-30.876
			c-70.226-53.027-53.788-168.91,26.5-203.039c24.837-10.558,52.996-12.676,79.346-7.277c36.998,7.581,71.068,30.255,90.602,62.578
			c47.207,78.113-19.79,196.247-113.782,183.309C239.897,362.25,232.589,360.659,225.367,358.56z"/>
		<path id="XMLID_2_" style="fill:#FFFBC9;" d="M281.44,345.391c-20.426,4.151-42.203,4.199-62.496,0.853
			c-79.551-13.117-115.558-114.128-64.955-176.002c15.654-19.14,37.596-32.85,61.272-39.689
			c33.243-9.603,70.538-5.715,100.148,12.189c71.558,43.27,67.507,167.635-14.255,197.161
			C294.799,342.198,288.193,344.019,281.44,345.391z"/>
		<path id="XMLID_31_" style="fill:#F2EBA5;" d="M301.154,323.721c-6.355,2.295-12.961,4.116-19.714,5.488
			c-20.426,4.151-42.203,4.199-62.496,0.853c-51.431-8.48-84.649-53.7-88.041-101.329c-3.893,53.128,30.8,108.072,88.041,117.511
			c20.293,3.346,42.07,3.298,62.496-0.853c6.753-1.372,13.359-3.193,19.714-5.488c46.076-16.639,67.47-63.397,64.563-108.787
			C363.185,271.008,341.756,309.059,301.154,323.721z"/>
		<path id="XMLID_15_" style="fill:#F2EBA5;" d="M293.665,329.014c1.314-0.725,2.622-1.55,3.518-2.754
			c0.896-1.204,1.308-2.871,0.685-4.236c-0.807-1.768-2.959-2.437-4.887-2.682c-7.756-0.988-13.11,2.2-19.427,5.953
			c-4.101,2.436-12.461,9.864-1.966,11.317c2.181,0.302,4.386-0.263,6.474-0.962C283.305,333.895,288.819,331.689,293.665,329.014z"
			/>
		<path id="XMLID_16_" style="fill:#F2EBA5;" d="M304.804,306.207c1.028-0.932,2.039-2.33,1.465-3.592
			c-0.63-1.385-2.59-1.399-4.062-1.011c-4.372,1.152-8.32,3.633-8.731,8.529C293.274,312.527,304.308,306.657,304.804,306.207z"/>
		<path id="XMLID_17_" style="fill:#F2EBA5;" d="M329.918,310.083c0.606-1.008,1.138-2.332,0.46-3.292
			c-0.594-0.841-1.796-0.92-2.823-0.855c-6.176,0.396-14.76,3.548-17.547,9.644c-2.287,5.005,1.346,7.978,5.947,6.806
			C321.169,321.059,327.281,314.469,329.918,310.083z"/>
		<path id="XMLID_19_" style="fill:#F2EBA5;" d="M339.428,278.758c5.998,3.874-1.881,14.922-5.758,17.652
			c-1.41,0.993-3.061,1.808-4.782,1.691c-1.721-0.116-3.445-1.445-3.49-3.169c-0.026-1.016,0.501-1.955,1.013-2.833
			c2.285-3.924,6.225-16.378,12.094-13.831C338.844,278.415,339.151,278.579,339.428,278.758z"/>
		<path id="XMLID_21_" style="fill:#F2EBA5;" d="M243.153,322.682c0.834-0.039,1.763-0.045,2.382,0.514
			c0.714,0.645,0.695,1.828,0.206,2.656c-0.489,0.828-1.332,1.376-2.164,1.859c-8.473,4.92-19.035,6.092-28.381,3.151
			c-2.312-0.728-4.934-2.242-4.898-4.664C210.364,321.663,239.296,322.861,243.153,322.682z"/>
		<path id="XMLID_22_" style="fill:#F2EBA5;" d="M353.822,254.02c0.592,3.533-0.755,24.335-8.009,20.293
			c-6.259-3.488,1.115-16.736,2.293-20.901c0.381-1.348,1-2.928,2.377-3.191C352.337,249.865,353.51,252.157,353.822,254.02z"/>
		<path id="XMLID_23_" style="fill:#F2EBA5;" d="M359.481,254.313c-3.854,2.068-2.673-16.833-2.449-18.938
			c0.13-1.222,0.88-2.806,2.061-2.469c0.801,0.228,1.069,1.21,1.186,2.035c0.816,5.714,0.883,11.534,0.199,17.265
			C360.383,253.011,360.194,253.931,359.481,254.313z"/>
	</g>
	<path id="XMLID_151_" style="fill:#110D30;" d="M500,459.41V500H0v-38.79c0.31-0.13,0.62-0.26,0.93-0.38
		c17.18-6.6,38.78,2.56,45.99,19.49c-1.21-5.59-1.65-11.55,0.29-16.93c1.95-5.38,6.73-10.01,12.44-10.4
		c5.71-0.38,11.58,4.67,10.91,10.35c2.2-16.24,11.43-31.7,25.47-40.16c14.04-8.46,32.76-9.21,46.79-0.72
		c14.02,8.49,22.09,26.36,17.95,42.22c1.83-7.04,9.75-11.88,16.84-10.27c5.01,4.52,7.22,11.89,5.63,18.44
		c3.64-11.74,17.83-19.16,29.52-15.18c11.34,3.86,18.01,17.66,14.48,28.99c6.09-16.51,16.54-31.7,31.19-41.4
		c15.23-10.08,35.2-13.61,52.26-7.09c17.05,6.52,30.03,23.87,29.27,42.12c3.71-9.09,13.52-15.31,23.32-14.77
		c7.87,0.44,15.26,5.2,19.26,11.94c-2.88-11.9,7.13-26.45,19.82-28.6c12.08-2.05,24.05,8.3,25.81,20.07
		c0.77-14.02,2.52-28.17,9.77-40.04c8.56-14.01,27.52-23.13,41.93-15.24c9,4.94,14.02,15.23,15.22,25.43
		c1.11,9.4-0.55,18.86-2.42,28.16C493.78,463.75,496.56,461.03,500,459.41z"/>
	<g id="XMLID_34_">
		<path id="XMLID_33_" style="opacity:0.1;fill:#FFFBC9;" d="M45.843,51.15c4.251-3.287,9.282-5.779,14.356-7.317
			c19.892-6.03,39.728,13.229,35.074,33.304c-1.44,6.21-4.952,11.881-9.649,16.16c-6.594,6.008-15.662,9.358-24.55,8.591
			c-21.479-1.854-34.711-31.078-19.166-47.222C43.117,53.411,44.437,52.237,45.843,51.15z"/>
		<path id="XMLID_32_" style="opacity:0.1;fill:#FFFBC9;" d="M49.032,85.603c-2.114-3.313-3.597-7.141-4.382-10.938
			c-3.079-14.885,12.254-28.06,26.567-23.346c4.428,1.458,8.326,4.39,11.132,8.093c3.941,5.198,5.782,12.023,4.637,18.445
			c-2.767,15.52-24.923,23.229-35.654,10.843C50.499,87.737,49.731,86.698,49.032,85.603z"/>
		<path id="XMLID_30_" style="opacity:0.1;fill:#FFFBC9;" d="M62.946,87.837c-2.769-0.805-5.439-2.199-7.709-3.913
			c-8.9-6.721-6.817-21.407,3.359-25.733c3.148-1.338,6.717-1.606,10.056-0.922c4.689,0.961,9.007,3.834,11.483,7.931
			c5.983,9.9-2.508,24.872-14.421,23.232C64.787,88.304,63.861,88.103,62.946,87.837z"/>
		<path id="XMLID_29_" style="fill:#FFFBC9;" d="M65.475,63.282c0.843-2.094,1.094-4.425,0.7-6.648
			c0.398,2.656,2.657,5.961,4.326,8.004c2.569,3.143,7.034,7.407,11.599,6.734c-3.825,0.564-7.388,2.688-9.754,5.739
			c-2.111,2.721-5.008,6.769-4.525,10.393c-0.772-5.802-3.067-11.09-8.989-13.077c-2.891-0.97-5.986-1.104-9.034-1.23
			c2.799-0.359,5.662-0.811,8.113-2.208c2.678-1.526,5.581-3.816,7.05-6.595C65.15,64.032,65.322,63.661,65.475,63.282z"/>
	</g>
	<g id="XMLID_36_">
		<path id="XMLID_40_" style="opacity:0.1;fill:#FFFBC9;" d="M427.299,330.042c3.836-2.966,8.375-5.215,12.954-6.602
			c17.949-5.441,35.846,11.936,31.647,30.05c-1.299,5.603-4.469,10.72-8.706,14.581c-5.95,5.421-14.132,8.444-22.151,7.751
			c-19.38-1.673-31.32-28.042-17.293-42.608C424.84,332.082,426.031,331.023,427.299,330.042z"/>
		<path id="XMLID_39_" style="opacity:0.1;fill:#FFFBC9;" d="M430.177,361.129c-1.907-2.989-3.245-6.443-3.954-9.869
			c-2.778-13.43,11.057-25.318,23.972-21.065c3.995,1.316,7.512,3.961,10.044,7.302c3.556,4.691,5.217,10.849,4.184,16.643
			c-2.497,14.004-22.487,20.959-32.17,9.783C431.5,363.054,430.807,362.117,430.177,361.129z"/>
		<path id="XMLID_38_" style="opacity:0.1;fill:#FFFBC9;" d="M442.731,363.144c-2.498-0.726-4.908-1.984-6.956-3.531
			c-8.031-6.064-6.151-19.316,3.031-23.218c2.84-1.207,6.06-1.45,9.074-0.832c4.231,0.867,8.127,3.46,10.361,7.156
			c5.398,8.932-2.263,22.442-13.012,20.962C444.393,363.566,443.557,363.384,442.731,363.144z"/>
		<path id="XMLID_37_" style="fill:#FFFBC9;" d="M445.013,340.989c0.76-1.889,0.987-3.992,0.632-5.998
			c0.359,2.397,2.397,5.378,3.904,7.221c2.318,2.836,6.347,6.684,10.466,6.076c-3.451,0.509-6.666,2.426-8.801,5.178
			c-1.905,2.455-4.518,6.107-4.083,9.377c-0.697-5.235-2.767-10.007-8.111-11.799c-2.609-0.875-5.401-0.997-8.151-1.11
			c2.525-0.324,5.108-0.732,7.32-1.992c2.416-1.377,5.035-3.443,6.361-5.951C444.72,341.665,444.875,341.33,445.013,340.989z"/>
	</g>
	<g id="XMLID_41_">
		<path id="XMLID_47_" style="opacity:0.1;fill:#FFFBC9;" d="M431.65,118.069c2.034-1.573,4.441-2.765,6.869-3.501
			c9.517-2.885,19.007,6.329,16.781,15.934c-0.689,2.971-2.369,5.684-4.616,7.731c-3.155,2.875-7.493,4.477-11.746,4.11
			c-10.276-0.887-16.607-14.869-9.17-22.592C430.346,119.15,430.978,118.589,431.65,118.069z"/>
		<path id="XMLID_46_" style="opacity:0.1;fill:#FFFBC9;" d="M433.176,134.552c-1.011-1.585-1.721-3.416-2.097-5.233
			c-1.473-7.121,5.863-13.425,12.711-11.17c2.118,0.698,3.983,2.101,5.326,3.872c1.885,2.487,2.766,5.752,2.219,8.825
			c-1.324,7.425-11.924,11.113-17.058,5.188C433.878,135.573,433.511,135.076,433.176,134.552z"/>
		<path id="XMLID_45_" style="opacity:0.1;fill:#FFFBC9;" d="M439.833,135.621c-1.325-0.385-2.602-1.052-3.689-1.872
			c-4.258-3.215-3.262-10.242,1.607-12.311c1.506-0.64,3.214-0.769,4.811-0.441c2.243,0.46,4.309,1.834,5.494,3.794
			c2.862,4.736-1.2,11.9-6.899,11.115C440.714,135.844,440.271,135.748,439.833,135.621z"/>
		<path id="XMLID_43_" style="fill:#FFFBC9;" d="M441.043,123.873c0.403-1.002,0.524-2.117,0.335-3.181
			c0.191,1.271,1.271,2.852,2.07,3.829c1.229,1.504,3.365,3.544,5.549,3.222c-1.83,0.27-3.535,1.286-4.667,2.746
			c-1.01,1.302-2.396,3.238-2.165,4.972c-0.369-2.776-1.467-5.306-4.301-6.256c-1.383-0.464-2.864-0.528-4.322-0.589
			c1.339-0.172,2.709-0.388,3.882-1.057c1.281-0.73,2.67-1.826,3.373-3.155C440.888,124.232,440.97,124.054,441.043,123.873z"/>
	</g>
	<g id="XMLID_58_">
		<path id="XMLID_62_" style="opacity:0.1;fill:#FFFBC9;" d="M366.175,43.855c3.766-2.912,8.223-5.12,12.719-6.483
			c17.624-5.342,35.197,11.72,31.074,29.506c-1.275,5.502-4.388,10.526-8.548,14.317c-5.842,5.323-13.876,8.291-21.75,7.611
			c-19.029-1.643-30.752-27.534-16.98-41.836C363.76,45.858,364.929,44.818,366.175,43.855z"/>
		<path id="XMLID_61_" style="opacity:0.1;fill:#FFFBC9;" d="M369,74.378c-1.872-2.935-3.186-6.326-3.882-9.69
			c-2.728-13.187,10.857-24.859,23.538-20.684c3.923,1.292,7.376,3.89,9.862,7.17c3.491,4.606,5.123,10.652,4.108,16.342
			c-2.452,13.75-22.08,20.579-31.587,9.606C370.299,76.269,369.619,75.349,369,74.378z"/>
		<path id="XMLID_60_" style="opacity:0.1;fill:#FFFBC9;" d="M381.327,76.357c-2.453-0.713-4.819-1.948-6.83-3.467
			c-7.885-5.954-6.04-18.966,2.975-22.798c2.789-1.185,5.951-1.423,8.909-0.817c4.154,0.851,7.98,3.397,10.173,7.026
			c5.301,8.771-2.222,22.035-12.776,20.583C382.958,76.772,382.138,76.593,381.327,76.357z"/>
		<path id="XMLID_59_" style="fill:#FFFBC9;" d="M383.567,54.603c0.747-1.855,0.969-3.92,0.62-5.89
			c0.353,2.354,2.354,5.281,3.833,7.091c2.276,2.785,6.232,6.563,10.276,5.966c-3.388,0.5-6.545,2.382-8.642,5.084
			c-1.87,2.411-4.436,5.997-4.009,9.207c-0.684-5.141-2.717-9.825-7.964-11.585c-2.562-0.859-5.304-0.979-8.003-1.09
			c2.479-0.318,5.016-0.719,7.188-1.956c2.372-1.352,4.944-3.381,6.245-5.843C383.28,55.267,383.432,54.939,383.567,54.603z"/>
	</g>
	<g id="XMLID_53_">
		<path id="XMLID_57_" style="opacity:0.1;fill:#FFFBC9;" d="M65.093,376.315c3.669-2.837,8.011-4.988,12.391-6.316
			c17.17-5.204,34.29,11.418,30.274,28.746c-1.243,5.36-4.275,10.255-8.328,13.948c-5.691,5.186-13.518,8.077-21.19,7.415
			c-18.539-1.601-29.96-26.824-16.543-40.758C62.741,378.266,63.88,377.253,65.093,376.315z"/>
		<path id="XMLID_56_" style="opacity:0.1;fill:#FFFBC9;" d="M67.846,406.052c-1.824-2.859-3.104-6.163-3.782-9.441
			c-2.658-12.847,10.577-24.219,22.931-20.151c3.822,1.259,7.186,3.789,9.608,6.985c3.401,4.487,4.991,10.378,4.002,15.921
			c-2.389,13.396-21.511,20.049-30.774,9.359C69.112,407.894,68.449,406.997,67.846,406.052z"/>
		<path id="XMLID_55_" style="opacity:0.1;fill:#FFFBC9;" d="M79.855,407.98c-2.39-0.694-4.695-1.898-6.654-3.378
			c-7.682-5.801-5.884-18.477,2.899-22.211c2.717-1.155,5.797-1.387,8.68-0.796c4.047,0.829,7.774,3.31,9.911,6.845
			c5.164,8.545-2.165,21.468-12.447,20.052C81.445,408.384,80.645,408.21,79.855,407.98z"/>
		<path id="XMLID_54_" style="fill:#FFFBC9;" d="M82.038,386.786c0.727-1.807,0.944-3.819,0.604-5.738
			c0.344,2.293,2.293,5.145,3.734,6.908c2.217,2.713,6.071,6.394,10.011,5.812c-3.301,0.487-6.377,2.32-8.419,4.953
			c-1.822,2.349-4.322,5.842-3.906,8.97c-0.666-5.008-2.647-9.572-7.759-11.287c-2.496-0.837-5.167-0.953-7.797-1.062
			c2.415-0.31,4.887-0.7,7.003-1.906c2.311-1.317,4.817-3.293,6.085-5.692C81.758,387.433,81.907,387.113,82.038,386.786z"/>
	</g>
	<g id="XMLID_48_">
		<path id="XMLID_52_" style="opacity:0.1;fill:#FFFBC9;" d="M110.777,37.866c2.034-1.573,4.441-2.765,6.869-3.501
			c9.517-2.885,19.007,6.329,16.781,15.934c-0.689,2.971-2.369,5.684-4.616,7.731c-3.155,2.875-7.493,4.477-11.745,4.11
			c-10.276-0.887-16.607-14.869-9.17-22.592C109.473,38.947,110.104,38.386,110.777,37.866z"/>
		<path id="XMLID_51_" style="opacity:0.1;fill:#FFFBC9;" d="M112.303,54.349c-1.011-1.585-1.721-3.416-2.097-5.233
			c-1.473-7.121,5.863-13.425,12.711-11.17c2.118,0.698,3.983,2.101,5.326,3.872c1.885,2.487,2.766,5.752,2.219,8.825
			c-1.324,7.425-11.924,11.114-17.058,5.188C113.004,55.37,112.637,54.873,112.303,54.349z"/>
		<path id="XMLID_50_" style="opacity:0.1;fill:#FFFBC9;" d="M118.959,55.418c-1.325-0.385-2.602-1.052-3.688-1.872
			c-4.258-3.215-3.261-10.242,1.607-12.311c1.506-0.64,3.213-0.769,4.811-0.441c2.243,0.46,4.309,1.834,5.494,3.794
			c2.862,4.736-1.2,11.9-6.899,11.115C119.841,55.641,119.397,55.545,118.959,55.418z"/>
		<path id="XMLID_49_" style="fill:#FFFBC9;" d="M120.169,43.67c0.403-1.002,0.523-2.117,0.335-3.181
			c0.191,1.271,1.271,2.852,2.07,3.829c1.229,1.504,3.365,3.544,5.549,3.222c-1.83,0.27-3.535,1.286-4.667,2.746
			c-1.01,1.302-2.396,3.238-2.165,4.972c-0.37-2.776-1.467-5.306-4.301-6.256c-1.383-0.464-2.864-0.528-4.322-0.589
			c1.339-0.172,2.709-0.388,3.881-1.056c1.281-0.73,2.67-1.826,3.373-3.155C120.014,44.029,120.096,43.851,120.169,43.67z"/>
	</g>
</g>
<g id="DESIGNED_BY_FREEPIK">
	<g id="XMLID_124_">
		<g id="XMLID_125_">
			<g id="XMLID_618_">
				<g id="XMLID_654_">
					<path id="XMLID_675_" style="fill:#FFFBC9;" d="M181.073,475.855c-0.246,0-0.435,0.085-0.567,0.255
						c-0.133,0.17-0.199,0.421-0.199,0.754v2.392c-0.305-0.331-0.617-0.578-0.938-0.739c-0.32-0.159-0.714-0.24-1.181-0.24
						c-0.808,0-1.458,0.283-1.953,0.848c-0.495,0.566-0.742,1.356-0.742,2.369c0,0.478,0.063,0.923,0.187,1.335
						c0.125,0.412,0.307,0.77,0.549,1.074c0.241,0.305,0.527,0.539,0.857,0.704c0.33,0.164,0.69,0.246,1.078,0.246
						c0.293,0,0.563-0.04,0.81-0.122c0.248-0.081,0.477-0.2,0.689-0.356c0.212-0.156,0.426-0.359,0.644-0.608v0.161
						c0,0.297,0.072,0.525,0.216,0.686c0.145,0.16,0.328,0.24,0.549,0.24c0.226,0,0.41-0.078,0.552-0.231
						c0.143-0.154,0.214-0.386,0.214-0.694v-7.147c0-0.305-0.066-0.535-0.199-0.691
						C181.507,475.933,181.319,475.855,181.073,475.855z M180.008,482.697c-0.14,0.306-0.328,0.534-0.564,0.682
						c-0.236,0.149-0.496,0.223-0.781,0.223c-0.281,0-0.54-0.079-0.778-0.236c-0.237-0.156-0.424-0.388-0.561-0.697
						c-0.137-0.309-0.205-0.682-0.205-1.122c0-0.416,0.064-0.781,0.193-1.096c0.129-0.315,0.31-0.556,0.543-0.724
						c0.234-0.168,0.499-0.252,0.796-0.252c0.285,0,0.547,0.082,0.786,0.245c0.24,0.165,0.429,0.402,0.57,0.712
						c0.141,0.311,0.21,0.682,0.21,1.114C180.218,482.006,180.148,482.39,180.008,482.697z"/>
					<path id="XMLID_672_" style="fill:#FFFBC9;" d="M188.44,481.777c0.233-0.121,0.35-0.385,0.35-0.793
						c0-0.438-0.114-0.87-0.338-1.294c-0.225-0.423-0.565-0.769-1.019-1.035c-0.453-0.268-0.996-0.4-1.629-0.4
						c-0.487,0-0.93,0.078-1.33,0.234c-0.4,0.157-0.736,0.381-1.009,0.674c-0.273,0.293-0.48,0.644-0.623,1.054
						c-0.143,0.409-0.213,0.853-0.213,1.332c0,1.017,0.289,1.823,0.866,2.416s1.387,0.891,2.428,0.891
						c0.455,0,0.858-0.059,1.208-0.178c0.351-0.119,0.641-0.268,0.873-0.448c0.231-0.18,0.404-0.368,0.52-0.564
						c0.114-0.197,0.172-0.367,0.172-0.513c0-0.167-0.052-0.294-0.155-0.386c-0.102-0.091-0.237-0.137-0.403-0.137
						c-0.155,0-0.274,0.036-0.357,0.107c-0.202,0.19-0.366,0.341-0.493,0.452c-0.127,0.111-0.265,0.216-0.415,0.312
						c-0.151,0.098-0.306,0.168-0.466,0.214c-0.161,0.045-0.337,0.067-0.531,0.067c-0.289,0-0.553-0.07-0.793-0.213
						c-0.239-0.142-0.432-0.354-0.576-0.635c-0.145-0.281-0.219-0.605-0.223-0.973h3.169
						C187.878,481.958,188.206,481.897,188.44,481.777z M184.284,481.038c0.056-0.546,0.213-0.959,0.472-1.238
						c0.259-0.279,0.59-0.418,0.994-0.418c0.424,0,0.764,0.137,1.024,0.413c0.259,0.275,0.409,0.69,0.448,1.244H184.284z"/>
					<path id="XMLID_671_" style="fill:#FFFBC9;" d="M193.868,481.34c-0.319-0.17-0.729-0.316-1.232-0.44
						c-0.424-0.103-0.756-0.19-0.997-0.261c-0.242-0.071-0.434-0.161-0.576-0.27c-0.142-0.109-0.213-0.248-0.213-0.419
						c0-0.186,0.097-0.341,0.291-0.465c0.194-0.126,0.437-0.187,0.73-0.187c0.285,0,0.511,0.047,0.677,0.142
						c0.167,0.095,0.31,0.222,0.433,0.38c0.15,0.19,0.284,0.332,0.401,0.427c0.117,0.096,0.258,0.143,0.424,0.143
						c0.23,0,0.407-0.061,0.532-0.178c0.124-0.119,0.187-0.272,0.187-0.457c0-0.171-0.058-0.345-0.175-0.523
						c-0.117-0.178-0.287-0.34-0.51-0.486c-0.223-0.146-0.503-0.264-0.837-0.35c-0.334-0.088-0.711-0.131-1.131-0.131
						c-0.534,0-0.99,0.086-1.368,0.259c-0.378,0.172-0.664,0.403-0.858,0.691c-0.194,0.289-0.291,0.596-0.291,0.92
						c0,0.364,0.105,0.671,0.315,0.921c0.21,0.249,0.49,0.45,0.84,0.602c0.35,0.153,0.804,0.298,1.362,0.436
						c0.495,0.119,0.85,0.244,1.066,0.375c0.216,0.131,0.324,0.337,0.324,0.623c0,0.186-0.104,0.351-0.311,0.496
						c-0.208,0.144-0.474,0.217-0.798,0.217c-0.4,0-0.716-0.071-0.947-0.214c-0.232-0.143-0.431-0.358-0.597-0.648
						c-0.082-0.15-0.17-0.267-0.261-0.35c-0.091-0.083-0.221-0.124-0.391-0.124c-0.194,0-0.355,0.063-0.481,0.19
						c-0.127,0.126-0.19,0.278-0.19,0.457c0,0.27,0.099,0.537,0.297,0.805c0.197,0.266,0.505,0.49,0.92,0.667
						c0.416,0.178,0.914,0.267,1.496,0.267c0.609,0,1.127-0.082,1.552-0.246c0.426-0.164,0.747-0.406,0.965-0.725
						c0.218-0.319,0.327-0.702,0.327-1.149c0-0.297-0.082-0.56-0.246-0.792C194.427,481.711,194.186,481.509,193.868,481.34z"/>
					<path id="XMLID_670_" style="fill:#FFFBC9;" d="M196.476,478.265c-0.238,0-0.431,0.081-0.579,0.243
						c-0.149,0.162-0.222,0.404-0.222,0.724v4.636c0,0.317,0.074,0.56,0.222,0.73c0.148,0.17,0.341,0.255,0.579,0.255
						c0.238,0,0.433-0.083,0.588-0.249c0.154-0.166,0.232-0.412,0.232-0.737v-4.683c0-0.289-0.077-0.515-0.232-0.677
						C196.909,478.346,196.714,478.265,196.476,478.265z"/>
					<path id="XMLID_669_" style="fill:#FFFBC9;" d="M196.494,475.926c-0.217,0-0.409,0.074-0.573,0.223
						c-0.164,0.149-0.246,0.337-0.246,0.567c0,0.254,0.08,0.45,0.24,0.588c0.16,0.139,0.353,0.208,0.579,0.208
						c0.218,0,0.405-0.071,0.564-0.211c0.158-0.14,0.238-0.335,0.238-0.585c0-0.258-0.081-0.453-0.244-0.588
						C196.889,475.993,196.704,475.926,196.494,475.926z"/>
					<path id="XMLID_666_" style="fill:#FFFBC9;" d="M203.617,478.265c-0.218,0-0.396,0.078-0.535,0.231
						c-0.139,0.155-0.208,0.372-0.208,0.653v0.22c-0.289-0.376-0.602-0.652-0.938-0.829c-0.337-0.175-0.735-0.264-1.193-0.264
						c-0.384,0-0.736,0.068-1.057,0.204c-0.32,0.137-0.603,0.339-0.849,0.608c-0.245,0.269-0.434,0.599-0.567,0.992
						c-0.133,0.391-0.198,0.831-0.198,1.318c0,0.653,0.108,1.228,0.326,1.727c0.217,0.499,0.529,0.886,0.934,1.163
						c0.406,0.277,0.88,0.416,1.422,0.416c0.451,0,0.84-0.091,1.166-0.273c0.327-0.182,0.614-0.447,0.864-0.796
						c-0.008,0.531-0.02,0.915-0.035,1.155s-0.07,0.465-0.163,0.673c-0.093,0.21-0.255,0.374-0.487,0.49
						c-0.232,0.117-0.557,0.175-0.977,0.175c-0.205,0-0.388-0.02-0.546-0.056c-0.158-0.038-0.294-0.095-0.406-0.172
						c-0.112-0.077-0.216-0.17-0.309-0.28c-0.093-0.108-0.183-0.217-0.27-0.324c-0.178-0.209-0.386-0.314-0.624-0.314
						c-0.189,0-0.352,0.062-0.486,0.187c-0.135,0.124-0.202,0.286-0.202,0.483c0,0.261,0.119,0.516,0.356,0.763
						c0.238,0.247,0.576,0.449,1.015,0.605c0.439,0.156,0.938,0.234,1.496,0.234c0.61,0,1.119-0.061,1.529-0.184
						c0.409-0.122,0.741-0.311,0.994-0.563c0.254-0.253,0.438-0.574,0.552-0.961c0.115-0.388,0.173-0.851,0.173-1.39v-4.707
						c0-0.384-0.052-0.678-0.155-0.882C204.137,478.367,203.929,478.265,203.617,478.265z M202.59,482.631
						c-0.151,0.29-0.345,0.508-0.585,0.653c-0.239,0.144-0.493,0.217-0.762,0.217c-0.455,0-0.826-0.168-1.113-0.505
						c-0.287-0.336-0.43-0.833-0.43-1.49c0-0.649,0.139-1.15,0.418-1.501c0.279-0.352,0.649-0.529,1.113-0.529
						c0.475,0,0.858,0.184,1.149,0.552c0.291,0.367,0.436,0.883,0.436,1.543C202.815,481.987,202.74,482.34,202.59,482.631z"/>
					<path id="XMLID_665_" style="fill:#FFFBC9;" d="M210.971,479.333c-0.165-0.339-0.418-0.603-0.754-0.789
						c-0.337-0.186-0.718-0.28-1.146-0.28c-0.439,0-0.828,0.089-1.166,0.264c-0.339,0.176-0.65,0.452-0.935,0.828v-0.196
						c0-0.194-0.035-0.358-0.104-0.493c-0.069-0.134-0.162-0.234-0.276-0.302c-0.115-0.068-0.244-0.101-0.387-0.101
						c-0.233,0-0.417,0.076-0.552,0.228c-0.135,0.152-0.202,0.383-0.202,0.692v4.683c0,0.317,0.075,0.56,0.226,0.73
						c0.151,0.17,0.342,0.255,0.576,0.255c0.241,0,0.438-0.082,0.59-0.246c0.152-0.164,0.228-0.411,0.228-0.74v-2.03
						c0-0.661,0.04-1.111,0.119-1.353c0.111-0.3,0.285-0.537,0.522-0.71c0.237-0.172,0.501-0.258,0.789-0.258
						c0.444,0,0.739,0.142,0.888,0.425c0.148,0.283,0.223,0.692,0.223,1.226v2.701c0,0.317,0.075,0.56,0.225,0.73
						c0.15,0.17,0.346,0.255,0.588,0.255c0.237,0,0.43-0.083,0.579-0.249c0.149-0.166,0.223-0.412,0.223-0.737v-3.015
						c0-0.357-0.016-0.649-0.048-0.879C211.147,479.746,211.078,479.531,210.971,479.333z"/>
					<path id="XMLID_662_" style="fill:#FFFBC9;" d="M217.815,481.777c0.234-0.121,0.35-0.385,0.35-0.793
						c0-0.438-0.113-0.87-0.338-1.294c-0.226-0.423-0.565-0.769-1.019-1.035c-0.453-0.268-0.996-0.4-1.629-0.4
						c-0.487,0-0.93,0.078-1.33,0.234c-0.4,0.157-0.736,0.381-1.009,0.674c-0.273,0.293-0.481,0.644-0.624,1.054
						c-0.142,0.409-0.214,0.853-0.214,1.332c0,1.017,0.289,1.823,0.866,2.416c0.578,0.593,1.388,0.891,2.428,0.891
						c0.455,0,0.858-0.059,1.208-0.178c0.35-0.119,0.641-0.268,0.872-0.448c0.232-0.18,0.405-0.368,0.52-0.564
						c0.115-0.197,0.172-0.367,0.172-0.513c0-0.167-0.051-0.294-0.154-0.386c-0.103-0.091-0.238-0.137-0.404-0.137
						c-0.154,0-0.273,0.036-0.356,0.107c-0.202,0.19-0.366,0.341-0.492,0.452c-0.128,0.111-0.266,0.216-0.416,0.312
						c-0.151,0.098-0.306,0.168-0.466,0.214c-0.161,0.045-0.338,0.067-0.532,0.067c-0.289,0-0.553-0.07-0.792-0.213
						c-0.24-0.142-0.432-0.354-0.576-0.635c-0.145-0.281-0.219-0.605-0.223-0.973h3.17
						C217.253,481.958,217.581,481.897,217.815,481.777z M213.659,481.038c0.056-0.546,0.212-0.959,0.471-1.238
						c0.259-0.279,0.591-0.418,0.995-0.418c0.423,0,0.764,0.137,1.024,0.413c0.259,0.275,0.409,0.69,0.448,1.244H213.659z"/>
					<path id="XMLID_659_" style="fill:#FFFBC9;" d="M224.201,475.855c-0.245,0-0.435,0.085-0.567,0.255
						c-0.133,0.17-0.199,0.421-0.199,0.754v2.392c-0.304-0.331-0.617-0.578-0.938-0.739c-0.32-0.159-0.714-0.24-1.181-0.24
						c-0.807,0-1.458,0.283-1.953,0.848c-0.495,0.566-0.742,1.356-0.742,2.369c0,0.478,0.062,0.923,0.187,1.335
						c0.124,0.412,0.307,0.77,0.549,1.074c0.242,0.305,0.527,0.539,0.858,0.704c0.33,0.164,0.689,0.246,1.077,0.246
						c0.293,0,0.563-0.04,0.81-0.122c0.248-0.081,0.477-0.2,0.689-0.356c0.212-0.156,0.426-0.359,0.644-0.608v0.161
						c0,0.297,0.072,0.525,0.217,0.686c0.145,0.16,0.328,0.24,0.549,0.24c0.226,0,0.41-0.078,0.552-0.231
						c0.143-0.154,0.214-0.386,0.214-0.694v-7.147c0-0.305-0.066-0.535-0.199-0.691
						C224.635,475.933,224.446,475.855,224.201,475.855z M223.135,482.697c-0.14,0.306-0.328,0.534-0.564,0.682
						c-0.235,0.149-0.495,0.223-0.781,0.223c-0.281,0-0.54-0.079-0.777-0.236c-0.238-0.156-0.425-0.388-0.561-0.697
						c-0.137-0.309-0.204-0.682-0.204-1.122c0-0.416,0.064-0.781,0.193-1.096c0.129-0.315,0.31-0.556,0.543-0.724
						c0.234-0.168,0.499-0.252,0.795-0.252c0.285,0,0.547,0.082,0.787,0.245c0.24,0.165,0.43,0.402,0.57,0.712
						c0.141,0.311,0.211,0.682,0.211,1.114C223.346,482.006,223.276,482.39,223.135,482.697z"/>
					<path id="XMLID_656_" style="fill:#FFFBC9;" d="M233.583,478.659c-0.406-0.255-0.878-0.382-1.416-0.382
						c-0.467,0-0.859,0.084-1.176,0.252c-0.317,0.168-0.627,0.411-0.932,0.727v-2.475c0-0.297-0.067-0.525-0.202-0.686
						c-0.135-0.16-0.326-0.24-0.576-0.24c-0.237,0-0.423,0.084-0.556,0.252c-0.132,0.168-0.198,0.416-0.198,0.745v7.077
						c0,0.305,0.068,0.535,0.205,0.692c0.136,0.156,0.32,0.234,0.549,0.234c0.226,0,0.412-0.078,0.558-0.234
						c0.146-0.157,0.22-0.388,0.22-0.692v-0.161c0.178,0.206,0.322,0.361,0.431,0.463c0.109,0.103,0.241,0.203,0.395,0.3
						c0.154,0.098,0.341,0.175,0.561,0.234c0.219,0.06,0.454,0.089,0.703,0.089c0.407,0,0.78-0.082,1.119-0.246
						c0.338-0.164,0.626-0.397,0.864-0.698c0.237-0.3,0.418-0.656,0.543-1.065c0.124-0.41,0.187-0.859,0.187-1.35
						c0-0.665-0.112-1.241-0.336-1.725C234.302,479.285,233.987,478.916,233.583,478.659z M232.792,483.071
						c-0.295,0.355-0.646,0.532-1.054,0.532c-0.479,0-0.866-0.174-1.16-0.521c-0.295-0.346-0.442-0.841-0.442-1.486
						c0-0.44,0.069-0.819,0.208-1.137c0.139-0.319,0.329-0.562,0.57-0.73c0.241-0.168,0.517-0.252,0.825-0.252
						c0.301,0,0.564,0.084,0.79,0.252c0.225,0.168,0.399,0.406,0.522,0.715c0.123,0.308,0.184,0.677,0.184,1.104
						C233.235,482.209,233.087,482.716,232.792,483.071z"/>
					<path id="XMLID_655_" style="fill:#FFFBC9;" d="M240.527,478.363c-0.113-0.066-0.23-0.098-0.353-0.098
						c-0.17,0-0.302,0.03-0.395,0.09c-0.093,0.059-0.181,0.173-0.264,0.344c-0.083,0.17-0.176,0.407-0.279,0.706l-1.3,3.71
						l-1.371-3.989c-0.091-0.277-0.195-0.489-0.314-0.638c-0.119-0.148-0.296-0.223-0.529-0.223c-0.134,0-0.264,0.035-0.389,0.107
						c-0.125,0.071-0.222,0.166-0.294,0.285c-0.071,0.118-0.107,0.247-0.107,0.385c0,0.131,0.062,0.341,0.184,0.629l1.995,5.022
						l-0.148,0.363c-0.111,0.265-0.209,0.466-0.294,0.602c-0.085,0.137-0.181,0.233-0.288,0.288
						c-0.107,0.056-0.254,0.084-0.44,0.084c-0.075,0-0.164-0.012-0.267-0.036c-0.083-0.024-0.169-0.037-0.256-0.037
						c-0.221,0-0.389,0.051-0.501,0.152c-0.113,0.101-0.169,0.245-0.169,0.43c0,0.273,0.118,0.461,0.356,0.565
						c0.237,0.103,0.593,0.154,1.068,0.154c0.487,0,0.874-0.074,1.161-0.223c0.287-0.148,0.517-0.361,0.692-0.638
						c0.174-0.277,0.352-0.659,0.535-1.145l2.113-5.533c0.051-0.142,0.094-0.283,0.13-0.421c0.036-0.139,0.061-0.246,0.077-0.321
						c0-0.123-0.031-0.239-0.092-0.35C240.727,478.516,240.64,478.428,240.527,478.363z"/>
				</g>
				<g id="XMLID_633_">
					<path id="XMLID_653_" style="fill:#FFFBC9;" d="M262.932,475.851c-0.534,0-0.954,0.068-1.26,0.204
						c-0.307,0.137-0.527,0.354-0.654,0.653c-0.129,0.3-0.192,0.702-0.192,1.211v0.487h-0.386c-0.543,0-0.815,0.192-0.815,0.582
						c0,0.174,0.066,0.317,0.197,0.424c0.132,0.111,0.316,0.164,0.559,0.164h0.446v4.294c0,0.319,0.075,0.563,0.228,0.73
						c0.154,0.17,0.344,0.254,0.574,0.254c0.243,0,0.438-0.084,0.589-0.254c0.156-0.167,0.231-0.411,0.231-0.73v-4.294h0.396
						c0.29,0,0.517-0.035,0.68-0.107c0.166-0.071,0.245-0.241,0.245-0.503c0-0.374-0.306-0.56-0.926-0.56h-0.396v-0.386
						c0-0.322,0.043-0.568,0.122-0.74c0.087-0.172,0.273-0.259,0.566-0.259c0.107,0,0.241,0.014,0.389,0.035
						c0.156,0.026,0.267,0.037,0.33,0.037c0.134,0,0.252-0.054,0.349-0.16c0.101-0.107,0.15-0.236,0.15-0.384
						C264.352,476.08,263.882,475.851,262.932,475.851z"/>
					<path id="XMLID_652_" style="fill:#FFFBC9;" d="M268.093,478.517c-0.32-0.171-0.648-0.255-0.991-0.255
						c-0.342,0-0.611,0.084-0.818,0.255c-0.203,0.171-0.4,0.421-0.593,0.755c-0.014-0.334-0.08-0.584-0.198-0.755
						c-0.119-0.171-0.313-0.255-0.583-0.255c-0.526,0-0.788,0.364-0.788,1.093v4.514c0,0.323,0.078,0.569,0.225,0.734
						c0.15,0.168,0.341,0.25,0.579,0.25c0.237,0,0.431-0.08,0.586-0.247c0.151-0.163,0.234-0.41,0.234-0.737v-1.355
						c0-0.487,0.014-0.9,0.044-1.239c0.034-0.337,0.09-0.631,0.17-0.878c0.084-0.243,0.201-0.426,0.353-0.554
						c0.15-0.122,0.345-0.186,0.582-0.186c0.171,0,0.373,0.037,0.602,0.108c0.226,0.073,0.371,0.112,0.433,0.112
						c0.158,0,0.304-0.064,0.441-0.195c0.135-0.126,0.204-0.292,0.204-0.488C268.575,478.915,268.415,478.688,268.093,478.517z"/>
					<path id="XMLID_649_" style="fill:#FFFBC9;" d="M274.18,481.775c0.233-0.122,0.351-0.386,0.351-0.791
						c0-0.441-0.113-0.871-0.339-1.296c-0.222-0.424-0.566-0.77-1.018-1.034c-0.454-0.27-0.997-0.403-1.629-0.403
						c-0.488,0-0.932,0.078-1.33,0.234c-0.402,0.156-0.736,0.38-1.008,0.674c-0.276,0.295-0.484,0.643-0.624,1.055
						c-0.144,0.41-0.217,0.855-0.217,1.334c0,1.016,0.292,1.823,0.87,2.418c0.577,0.593,1.385,0.889,2.429,0.889
						c0.453,0,0.858-0.06,1.207-0.179c0.349-0.117,0.64-0.268,0.874-0.446c0.233-0.181,0.405-0.368,0.522-0.566
						c0.112-0.195,0.167-0.365,0.167-0.512c0-0.167-0.048-0.294-0.152-0.386c-0.105-0.092-0.238-0.138-0.406-0.138
						c-0.153,0-0.271,0.038-0.355,0.109c-0.202,0.189-0.367,0.34-0.494,0.449c-0.128,0.113-0.264,0.217-0.415,0.313
						c-0.15,0.097-0.307,0.17-0.466,0.213c-0.161,0.049-0.337,0.069-0.531,0.069c-0.29,0-0.552-0.07-0.793-0.212
						c-0.24-0.144-0.431-0.356-0.578-0.635c-0.144-0.28-0.216-0.607-0.222-0.974h3.171
						C273.619,481.956,273.947,481.896,274.18,481.775z M270.024,481.035c0.054-0.546,0.213-0.957,0.472-1.236
						c0.259-0.281,0.591-0.418,0.995-0.418c0.426,0,0.764,0.136,1.025,0.413c0.26,0.273,0.407,0.688,0.446,1.241H270.024z"/>
					<path id="XMLID_646_" style="fill:#FFFBC9;" d="M279.919,478.654c-0.46-0.27-1.003-0.403-1.633-0.403
						c-0.487,0-0.932,0.078-1.331,0.234c-0.401,0.156-0.737,0.38-1.009,0.674c-0.273,0.295-0.481,0.643-0.622,1.055
						c-0.145,0.41-0.217,0.855-0.217,1.334c0,1.016,0.291,1.823,0.868,2.418c0.58,0.593,1.387,0.889,2.429,0.889
						c0.454,0,0.861-0.06,1.209-0.179c0.347-0.117,0.641-0.268,0.872-0.446c0.234-0.181,0.408-0.368,0.519-0.566
						c0.117-0.195,0.171-0.365,0.171-0.512c0-0.167-0.047-0.294-0.15-0.386c-0.104-0.092-0.239-0.138-0.406-0.138
						c-0.151,0-0.271,0.038-0.355,0.109c-0.203,0.189-0.368,0.34-0.493,0.449c-0.128,0.113-0.264,0.217-0.415,0.313
						c-0.153,0.097-0.307,0.17-0.469,0.213c-0.158,0.049-0.336,0.069-0.528,0.069c-0.291,0-0.555-0.07-0.795-0.212
						c-0.239-0.144-0.431-0.356-0.576-0.635c-0.143-0.28-0.218-0.607-0.222-0.974h3.171c0.422,0,0.75-0.06,0.985-0.181
						c0.231-0.122,0.351-0.386,0.351-0.791c0-0.441-0.116-0.871-0.341-1.296C280.71,479.264,280.369,478.918,279.919,478.654z
						 M276.767,481.035c0.052-0.546,0.211-0.957,0.469-1.236c0.261-0.281,0.592-0.418,0.995-0.418c0.426,0,0.764,0.136,1.027,0.413
						c0.257,0.273,0.407,0.688,0.447,1.241H276.767z"/>
					<path id="XMLID_643_" style="fill:#FFFBC9;" d="M286.934,478.659c-0.42-0.256-0.883-0.386-1.379-0.386
						c-0.415,0-0.79,0.089-1.114,0.267c-0.331,0.176-0.649,0.452-0.953,0.828v-0.194c0-0.297-0.071-0.519-0.218-0.678
						c-0.143-0.156-0.329-0.234-0.56-0.234c-0.233,0-0.419,0.078-0.553,0.228c-0.134,0.155-0.2,0.383-0.2,0.692v6.996
						c0,0.355,0.051,0.62,0.146,0.807c0.102,0.183,0.301,0.275,0.607,0.275c0.518,0,0.778-0.359,0.778-1.069v-2.433
						c0.287,0.358,0.587,0.633,0.901,0.816c0.313,0.187,0.704,0.279,1.166,0.279c0.385,0,0.741-0.076,1.08-0.227
						c0.334-0.153,0.623-0.372,0.868-0.654c0.245-0.283,0.441-0.632,0.58-1.05c0.14-0.419,0.21-0.878,0.21-1.376
						c0-0.677-0.123-1.262-0.366-1.758C287.682,479.294,287.353,478.918,286.934,478.659z M286.457,482.663
						c-0.137,0.313-0.32,0.546-0.552,0.704c-0.229,0.154-0.48,0.233-0.748,0.233c-0.454,0-0.828-0.178-1.133-0.537
						c-0.307-0.358-0.46-0.862-0.46-1.504c0-0.686,0.154-1.204,0.462-1.558c0.306-0.35,0.684-0.527,1.13-0.527
						c0.281,0,0.541,0.084,0.77,0.248c0.229,0.163,0.411,0.397,0.541,0.705c0.13,0.306,0.197,0.674,0.197,1.102
						C286.665,481.971,286.595,482.349,286.457,482.663z"/>
					<path id="XMLID_642_" style="fill:#FFFBC9;" d="M289.908,478.262c-0.238,0-0.428,0.079-0.58,0.245
						c-0.146,0.162-0.222,0.403-0.222,0.721v4.642c0,0.313,0.076,0.556,0.222,0.729c0.152,0.17,0.342,0.254,0.58,0.254
						c0.238,0,0.432-0.082,0.588-0.25c0.154-0.165,0.231-0.41,0.231-0.732v-4.689c0-0.286-0.078-0.513-0.231-0.675
						C290.34,478.341,290.146,478.262,289.908,478.262z"/>
					<path id="XMLID_641_" style="fill:#FFFBC9;" d="M289.925,475.922c-0.217,0-0.408,0.076-0.571,0.222
						c-0.166,0.15-0.248,0.339-0.248,0.569c0,0.253,0.08,0.446,0.242,0.585c0.159,0.138,0.35,0.209,0.577,0.209
						c0.22,0,0.408-0.071,0.566-0.21c0.157-0.14,0.236-0.335,0.236-0.585c0-0.258-0.082-0.455-0.244-0.591
						C290.322,475.988,290.137,475.922,289.925,475.922z"/>
					<path id="XMLID_640_" style="fill:#FFFBC9;" d="M297.267,483.292l-1.662-2.614l0.861-0.789
						c0.438-0.396,0.659-0.714,0.659-0.951c0-0.192-0.068-0.355-0.2-0.483c-0.139-0.128-0.306-0.193-0.51-0.193
						c-0.169,0-0.313,0.043-0.431,0.13c-0.121,0.086-0.29,0.251-0.517,0.486l-1.822,1.914v-3.933c0-0.33-0.075-0.582-0.221-0.751
						c-0.148-0.172-0.344-0.257-0.593-0.257c-0.255,0-0.457,0.092-0.596,0.283c-0.135,0.189-0.207,0.463-0.207,0.821v6.915
						c0,0.323,0.073,0.569,0.215,0.734c0.141,0.168,0.339,0.25,0.588,0.25c0.212,0,0.406-0.084,0.566-0.254
						c0.165-0.167,0.248-0.406,0.248-0.718v-1.291l0.88-0.83l1.428,2.354c0.181,0.278,0.33,0.472,0.436,0.58
						c0.106,0.109,0.261,0.16,0.458,0.16c0.226,0,0.413-0.073,0.554-0.221c0.141-0.151,0.213-0.352,0.213-0.61
						c0-0.089-0.029-0.189-0.081-0.289C297.479,483.632,297.388,483.488,297.267,483.292z"/>
					<path id="XMLID_639_" style="fill:#FFFBC9;" d="M299.459,483.066c-0.25,0-0.458,0.087-0.63,0.262
						c-0.17,0.173-0.256,0.381-0.256,0.622c0,0.287,0.09,0.51,0.268,0.665c0.179,0.159,0.389,0.238,0.634,0.238
						c0.237,0,0.444-0.079,0.624-0.241c0.174-0.158,0.264-0.38,0.264-0.662c0-0.243-0.089-0.454-0.264-0.626
						C299.919,483.153,299.708,483.066,299.459,483.066z"/>
					<path id="XMLID_638_" style="fill:#FFFBC9;" d="M306.846,482.139c-0.167,0-0.308,0.054-0.422,0.156
						c-0.113,0.104-0.219,0.245-0.318,0.427c-0.178,0.31-0.382,0.538-0.617,0.689c-0.231,0.15-0.51,0.225-0.835,0.225
						c-0.239,0-0.462-0.045-0.665-0.141c-0.201-0.093-0.372-0.229-0.516-0.409c-0.143-0.18-0.252-0.398-0.325-0.653
						c-0.075-0.255-0.114-0.537-0.114-0.842c0-0.646,0.147-1.161,0.44-1.534c0.293-0.375,0.682-0.561,1.158-0.561
						c0.333,0,0.607,0.074,0.821,0.226c0.218,0.148,0.424,0.375,0.622,0.674c0.109,0.158,0.209,0.269,0.299,0.339
						c0.09,0.068,0.201,0.104,0.338,0.104c0.202,0,0.377-0.068,0.524-0.203c0.143-0.135,0.214-0.3,0.214-0.492
						c0-0.192-0.063-0.397-0.192-0.617c-0.128-0.218-0.314-0.424-0.556-0.62c-0.245-0.192-0.54-0.352-0.891-0.474
						c-0.353-0.123-0.737-0.184-1.158-0.184c-0.674,0-1.259,0.138-1.746,0.419c-0.486,0.279-0.859,0.674-1.113,1.184
						c-0.259,0.511-0.387,1.098-0.387,1.765c0,0.981,0.281,1.765,0.841,2.35c0.562,0.582,1.345,0.876,2.349,0.876
						c0.469,0,0.894-0.065,1.269-0.192c0.377-0.126,0.688-0.295,0.934-0.502c0.248-0.208,0.434-0.425,0.554-0.656
						c0.121-0.229,0.182-0.446,0.182-0.646c0-0.169-0.066-0.331-0.198-0.481C307.209,482.216,307.044,482.139,306.846,482.139z"/>
					<path id="XMLID_635_" style="fill:#FFFBC9;" d="M313.659,479.175c-0.288-0.29-0.629-0.517-1.027-0.674
						c-0.4-0.16-0.847-0.239-1.337-0.239c-0.482,0-0.924,0.078-1.326,0.234c-0.398,0.158-0.737,0.38-1.019,0.669
						c-0.281,0.288-0.498,0.637-0.649,1.046c-0.146,0.408-0.224,0.857-0.224,1.349c0,0.485,0.076,0.93,0.219,1.332
						c0.152,0.402,0.369,0.75,0.657,1.048c0.284,0.292,0.627,0.521,1.016,0.676c0.393,0.159,0.835,0.239,1.326,0.239
						c0.493,0,0.937-0.08,1.337-0.234c0.394-0.157,0.735-0.382,1.02-0.675c0.286-0.291,0.502-0.641,0.656-1.049
						c0.146-0.409,0.222-0.856,0.222-1.337c0-0.489-0.075-0.932-0.221-1.339C314.161,479.818,313.945,479.472,313.659,479.175z
						 M312.466,483.092c-0.289,0.372-0.681,0.557-1.171,0.557c-0.324,0-0.604-0.086-0.845-0.253c-0.24-0.168-0.424-0.41-0.553-0.729
						c-0.129-0.316-0.194-0.684-0.194-1.108c0-0.428,0.066-0.803,0.197-1.124c0.13-0.322,0.314-0.564,0.556-0.728
						c0.242-0.164,0.522-0.246,0.839-0.246c0.49,0,0.882,0.182,1.171,0.555c0.29,0.367,0.436,0.881,0.436,1.543
						C312.903,482.21,312.756,482.722,312.466,483.092z"/>
					<path id="XMLID_634_" style="fill:#FFFBC9;" d="M323.583,478.535c-0.32-0.173-0.705-0.262-1.146-0.262
						c-0.381,0-0.726,0.081-1.039,0.241c-0.313,0.161-0.607,0.408-0.881,0.738c-0.192-0.326-0.432-0.572-0.725-0.735
						c-0.292-0.162-0.642-0.244-1.049-0.244c-0.394,0-0.748,0.079-1.07,0.241c-0.319,0.156-0.62,0.404-0.903,0.738v-0.153
						c0-0.261-0.074-0.466-0.221-0.615c-0.15-0.145-0.335-0.222-0.557-0.222c-0.227,0-0.413,0.078-0.556,0.239
						c-0.14,0.157-0.209,0.389-0.209,0.695v4.637c0,0.336,0.078,0.591,0.235,0.765c0.156,0.171,0.357,0.258,0.604,0.258
						c0.248,0,0.447-0.087,0.603-0.258c0.15-0.173,0.226-0.428,0.226-0.765v-2.189c0-0.684,0.087-1.207,0.254-1.567
						c0.168-0.369,0.516-0.55,1.048-0.55c0.264,0,0.459,0.073,0.582,0.22c0.121,0.142,0.198,0.331,0.227,0.552
						c0.027,0.226,0.04,0.544,0.04,0.953v2.582c0,0.342,0.078,0.594,0.233,0.767c0.148,0.17,0.349,0.255,0.595,0.255
						c0.254,0,0.455-0.085,0.611-0.255c0.156-0.173,0.231-0.425,0.231-0.767v-2.154c0-0.694,0.062-1.178,0.178-1.452
						c0.109-0.21,0.259-0.384,0.45-0.508c0.192-0.126,0.395-0.192,0.609-0.192c0.264,0,0.463,0.073,0.596,0.215
						c0.129,0.142,0.21,0.318,0.239,0.529c0.029,0.209,0.043,0.487,0.043,0.836v2.726c0,0.336,0.079,0.591,0.235,0.765
						c0.157,0.171,0.356,0.258,0.603,0.258c0.253,0,0.458-0.085,0.612-0.255c0.153-0.173,0.23-0.425,0.23-0.767v-3.164
						c0-0.629-0.068-1.09-0.206-1.385C324.141,478.96,323.902,478.709,323.583,478.535z"/>
				</g>
				<g id="XMLID_619_">
					<path id="XMLID_632_" style="fill:#FFFBC9;" d="M245.272,481.167c-0.001-0.003-0.001-0.006-0.001-0.011
						C245.271,481.16,245.271,481.163,245.272,481.167z"/>
					<path id="XMLID_631_" style="fill:#FFFBC9;" d="M245.354,481.685c0.001,0,0.001,0,0.001,0
						c-0.031-0.148-0.055-0.294-0.074-0.439C245.3,481.392,245.324,481.539,245.354,481.685z"/>
					<path id="XMLID_630_" style="fill:#FFFBC9;" d="M245.89,483.189c-0.004-0.006-0.007-0.013-0.011-0.021
						C245.883,483.175,245.886,483.182,245.89,483.189z"/>
					<path id="XMLID_629_" style="fill:#FFFBC9;" d="M245.839,483.089c-0.014-0.027-0.027-0.056-0.041-0.084
						C245.811,483.034,245.825,483.061,245.839,483.089z"/>
					<path id="XMLID_628_" style="fill:#FFFBC9;" d="M245.504,482.264c0.079,0.25,0.175,0.493,0.286,0.724
						c-0.113-0.236-0.206-0.479-0.284-0.724C245.507,482.264,245.505,482.264,245.504,482.264z"/>
					<path id="XMLID_627_" style="fill:#FFFBC9;" d="M250.736,474.403l-0.076-0.259c0.299-0.063,0.524-0.329,0.524-0.646
						c0-0.364-0.296-0.659-0.661-0.659s-0.66,0.295-0.66,0.659c0,0.317,0.224,0.583,0.523,0.646l0.084,0.289
						c-1.021,0.14-1.834,0.539-1.834,0.539l0.144,0.441c0.618-0.206,1.154-0.331,1.64-0.383c0.476-0.051,0.834-0.073,1.126-0.073
						c0.313,0,0.544,0.025,0.809,0.07l0.075-0.477C252.43,474.549,251.698,474.324,250.736,474.403z"/>
					<path id="XMLID_626_" style="fill:#FFFBC9;" d="M245.452,476.91c-0.017,0.024-0.497,0.465-0.876,1.28
						c-0.016-0.026-0.035-0.05-0.056-0.074c-0.113-0.124-0.272-0.187-0.474-0.184c-0.003,0-0.006,0-0.009,0
						c-0.125,0-0.211-0.042-0.267-0.092c0.056-0.071,0.089-0.16,0.089-0.258c0-0.23-0.187-0.418-0.418-0.418
						c-0.23,0-0.418,0.188-0.418,0.418c0,0.231,0.187,0.418,0.418,0.418c0.036,0,0.071-0.006,0.104-0.013
						c0.103,0.114,0.266,0.214,0.505,0.209c0.123-0.001,0.213,0.03,0.273,0.097c0.069,0.076,0.093,0.185,0.1,0.267
						c-0.001,0.001-0.001,0.003-0.002,0.003c-0.272,0.743-0.194,1.669-0.194,1.669l0.661,0.026c0.014-0.337,0.062-0.926,0.232-1.394
						c0.329-0.906,0.741-1.472,0.758-1.496l0.004-0.005c0.024-0.031,0.047-0.06,0.071-0.089l-0.196-0.141L245.452,476.91z"/>
					<path id="XMLID_625_" style="fill:#FFFBC9;" d="M257.295,475.509c-0.23,0-0.418,0.187-0.418,0.418
						c0,0.036,0.005,0.07,0.015,0.103c-0.115,0.104-0.214,0.267-0.21,0.507c0.002,0.123-0.03,0.212-0.097,0.273
						c-0.053,0.047-0.12,0.072-0.185,0.088c-0.492-0.689-1.097-1.109-1.097-1.109l-0.474,0.508c0.358,0.326,0.725,0.734,1.08,1.244
						c0.246,0.352,0.499,0.806,0.71,1.259l0.64-0.304c0,0-0.292-0.722-0.704-1.37c0.071-0.025,0.143-0.064,0.207-0.12
						c0.125-0.113,0.187-0.273,0.183-0.474c-0.001-0.13,0.042-0.218,0.093-0.276c0.071,0.054,0.16,0.089,0.258,0.089
						c0.232,0,0.419-0.187,0.419-0.418C257.714,475.695,257.527,475.509,257.295,475.509z"/>
					<path id="XMLID_624_" style="fill:#FFFBC9;" d="M255.634,481.26c-0.881,0.429-2.33,0.996-4.238,1.262
						c-0.749,0.104-1.475,0.142-2.143,0.142c-0.869,0-1.637-0.065-2.227-0.139c-0.673-0.085-1.198-0.188-1.52-0.261
						c0.077,0.245,0.171,0.488,0.284,0.724c0.002,0.006,0.005,0.013,0.008,0.017c0.013,0.027,0.027,0.056,0.041,0.084
						c0.013,0.027,0.027,0.054,0.04,0.079c0.004,0.007,0.007,0.015,0.011,0.021c0.189,0.357,0.417,0.684,0.675,0.968
						c0.9,0.985,1.817,1.14,1.826,1.141l0.014,0.002l0.013,0.005c0.008,0.003,0.821,0.266,2.057,0.266
						c1.216,0,2.409-0.245,3.546-0.729c0.842-0.431,1.639-1.085,2.034-1.669c0.305-0.452,0.525-0.933,0.656-1.434
						c0.07-0.266,0.124-0.692,0.092-1.141C256.556,480.764,256.164,481.002,255.634,481.26z"/>
					<path id="XMLID_620_" style="fill:#FFFBC9;" d="M252.322,475.377c-0.265-0.043-0.477-0.068-0.777-0.068
						c-0.28,0-0.626,0.022-1.089,0.071c-0.465,0.048-0.982,0.17-1.583,0.372c-0.842,0.282-1.605,0.724-2.204,1.28l-0.02,0.019
						c-0.089,0.082-0.274,0.254-0.488,0.525c-0.026,0.037-0.408,0.578-0.71,1.408c-0.226,0.622-0.216,1.527-0.216,1.538v0.002
						c0,0.212,0.012,0.423,0.035,0.632c0,0.005,0,0.008,0.001,0.011c0.002,0.027,0.007,0.052,0.009,0.079
						c0.019,0.145,0.043,0.291,0.074,0.439c0.438,0.111,3.049,0.72,5.968,0.314c1.829-0.255,3.218-0.795,4.062-1.204
						c0.701-0.34,1.151-0.648,1.325-0.774c-0.173-0.643-0.651-1.65-1.089-2.279C254.368,475.95,253.016,475.491,252.322,475.377z
						 M248.678,480.636c-0.972,0-1.76-0.787-1.76-1.759c0-0.972,0.788-1.761,1.76-1.761c0.973,0,1.761,0.789,1.761,1.761
						C250.439,479.849,249.651,480.636,248.678,480.636z M253.829,479.339c-0.601,0-1.089-0.489-1.089-1.09
						c0-0.601,0.488-1.09,1.089-1.09c0.601,0,1.089,0.488,1.089,1.09C254.919,478.85,254.43,479.339,253.829,479.339z"/>
				</g>
			</g>
		</g>
	</g>
</g>
</svg>
