<?xml version="1.0" encoding="utf-8"?>
<!-- Generator: Adobe Illustrator 27.5.0, SVG Export Plug-In . SVG Version: 6.00 Build 0)  -->
<svg version="1.1" xmlns="http://www.w3.org/2000/svg" xmlns:xlink="http://www.w3.org/1999/xlink" x="0px" y="0px"
	 viewBox="0 0 500 500" style="enable-background:new 0 0 500 500;" xml:space="preserve">
<g id="BACKGROUND">
	<rect x="-0.092" y="0.092" style="fill-rule:evenodd;clip-rule:evenodd;fill:#FBF2E9;" width="500" height="500"/>
</g>
<g id="OBJECTS">
	<g>
		<path style="fill-rule:evenodd;clip-rule:evenodd;fill:#D9CCBF;" d="M264.26,433.607c79.384,0.489,142.63,5.32,141.265,10.791
			c-1.29,5.169-59.818,9.06-133.239,9.06c-4.277,0-8.599-0.013-12.97-0.04c-79.384-0.489-142.63-5.32-141.265-10.791
			C119.416,437.156,184.876,433.118,264.26,433.607z"/>
		<g>
			<path style="fill-rule:evenodd;clip-rule:evenodd;fill:#D8DBE1;" d="M356.195,111.333c1.434,5.29-0.207,11.146-3.163,15.723
				c0.154,1.045-0.715,1.869-1.196,2.715c-1.203,1.848-2.481,3.645-3.726,5.466c-3.903,6.005-7.985,11.9-11.775,17.973
				c-1.478,1.968-4.576,9.745-7.259,13.135c0,0.001-0.001,0.002-0.002,0.003c-0.379,0.62-0.946,1.18-1.272,1.797
				c-3.291,5.216-7.108,10.063-10.596,15.145c-5.619,9.622-11.735,18.945-17.269,28.624c-5.608,10.387-11.777,20.519-18.41,30.276
				c-4.221,6.63-9.323,13.012-16.035,17.245c-3.973,1.906-8.633,2.503-12.97,1.774c-6.829-1.313-13.396-3.801-19.226-7.614
				c-3.95-2.764-7.205-6.374-10.888-9.468c-8.489-7.725-9.181-15.535-5.296-25.945c1.36-3.867,3.295-7.493,5.364-11.02
				c0.012-0.026,0.024-0.052,0.036-0.078c-0.322-1.022,0.647-2.27,1.235-3.199c0.224-0.471,0.493-0.912,0.843-1.297
				c1.161-1.762,2.409-3.57,3.492-5.179c4.006-6.152,8.424-12.317,12.513-18.348c8.847-11.994,15.228-25.667,24.17-37.635
				c-0.903-1.07-0.026-2.277,0.722-3.148c1.194-1.479,2.249-3.057,3.266-4.66c5.086-9.786,11.605-18.773,17.521-28.009
				c2.299-4.314,4.833-8.488,7.683-12.462c2.586-3.981,5.946-7.449,10.701-8.634c5.9-1.898,12.372-2.366,18.41-0.845
				c4.611,1.693,8.723,4.541,13.226,6.517c0.313,0.163,0.531,0.413,0.661,0.701c6.417,2.325,11.042,8.479,15.145,13.655
				c1.15,1.301,2.506,2.479,3.234,4.09C355.752,109.478,355.997,110.407,356.195,111.333z"/>
			<path style="fill-rule:evenodd;clip-rule:evenodd;fill:#D8DBE1;" d="M287.388,358.987c0.93,10.876,0.094,21.681,0.435,32.56
				c-0.002,1.068-0.836,1.61-1.67,1.616c-0.23,0.283-0.574,0.488-1.044,0.548c-4.408,0.721-8.862,1.148-13.333,1.094
				c-2.846-0.261-16.877,0.522-22.045-1.23c-0.554,0.803-1.783,1.164-2.609,0.306c-0.566-0.566-0.618-1.442-0.635-2.199
				c-0.009-0.419-0.011-0.837-0.01-1.257c-0.74-0.989-0.34-2.377-0.419-3.531c0.033-3.351,0.232-6.691,0.423-10.033
				c0.459-8.591,0.779-17.348,4.115-25.382c2.005-4.432,4.797-8.854,9.408-10.893c5.693-2.414,12.873-3.303,18.532-0.382
				C285.791,343.528,286.939,351.87,287.388,358.987z"/>
			<path style="fill-rule:evenodd;clip-rule:evenodd;fill:#D8DBE1;" d="M372.631,49.36c3.519,5.608-5.5,14.454-8.337,19.222
				c-1.582,2.164-3.246,4.269-4.749,6.492c-1.587,1.774-2.765,6.917-5.883,4.876c-2.032-1.973-4.254-3.927-7.164-4.37
				c-1.161-0.284-2.876-0.019-3.212-1.513c-1.943-1.908,1.173-4.3,2.24-5.889c1.959-2.687,3.649-5.552,5.495-8.316
				c2.931-4.587,5.722-9.263,9.064-13.568c0.541-1.31,1.995-1.492,3.251-1.524C367.088,44.26,370.561,46.313,372.631,49.36z"/>
			<path style="fill-rule:evenodd;clip-rule:evenodd;fill:#D8DBE1;" d="M368.932,436.629c2.009,5.007-1.408,5.236-5.466,5.117
				c-15.084-0.632-30.198-0.16-45.297-0.267c-22.028-0.727-44.069-0.632-66.101-0.09c-11.303-0.6-22.58-1.28-33.9-0.866
				c-17.499-0.648-34.938-0.372-52.433-0.017c-1.471,0.027-2.941,0.017-4.408-0.099c-0.336,0.167-0.729,0.221-1.13,0.109
				c-2.182-0.911-1.75-5.173-0.681-8.667c-0.785-1.938,0.864-5.496,2.014-6.716c2.73-3.071,6.847-4.136,10.825-4.168
				c6.183-0.348,12.384-0.139,18.565-0.524c18.666-1.364,37.417-0.679,56.105-0.167c19.133,1.23,38.324,2.115,57.498,1.561
				c0.438-0.017,0.876-0.033,1.314-0.05c0.351-0.448,0.923-0.712,1.65-0.52c1.325,0.207,2.666,0.255,4.01,0.255
				c0.933-0.051,1.866-0.109,2.797-0.172c0.264-0.018,0.51,0.036,0.725,0.143c0.006,0,0.011,0,0.017,0
				c10.329-0.258,20.649-0.889,30.983-0.458c7.48-0.302,19.059-0.478,21.758,8.233C368.454,431.672,368.472,434.188,368.932,436.629
				z"/>
			<path style="fill-rule:evenodd;clip-rule:evenodd;fill:#D8DBE1;" d="M235.951,271.577c-0.165,1.663-1.983,2.514-2.919,3.753
				c-1.257,1.362-2.304,3.55-4.424,3.517c-5.127-0.583-9.436-4.039-12.875-7.677c-2.634-2.813-2.666-2.199-1.227-5.877
				c0.869-1.641,2.218-5.908,4.429-5.642c0.934,0.121,1.463,0.953,2.141,1.508c2.947,2.457,6.025,4.089,9.262,5.996
				C232.095,268.366,235.712,269.156,235.951,271.577z"/>
			<path style="fill-rule:evenodd;clip-rule:evenodd;fill:#A7AEBD;" d="M333.892,88.678c11.988,6.481,28.545,19.242,20.728,34.491
				c-5.383,11.381-12.472,21.91-19.005,32.662c-6.077,10.328-13.776,19.599-20.206,29.689
				c-9.527,15.094-19.589,29.823-28.414,45.349c-0.16,1.846-1.804,3.282-2.626,4.898c-2.743,4.376-5.814,8.54-9.183,12.454
				c-0.706,1.258-2.889,3.854-5.384,6.24c-0.369,0.97-1.323,1.596-2.055,2.292c0.102,1.495-9.556,5.123-12.718,5.123
				c-0.447,0-0.765-0.073-0.905-0.233c-0.326-0.244-0.546-0.614-0.604-1.017c-0.018-0.123-0.019-0.246-0.007-0.367
				c-2.904-0.193-10.493-1.364-13.251-3.358c-0.716,0.129-1.343-0.069-1.847-0.684c-0.117-0.008-0.235-0.017-0.352-0.027
				c-1.296,0.152-2.145-0.421-2.501-1.127c-1.569-0.36-3.3-0.945-4.146-1.826c-2.213-0.704-3.967-1.78-3.058-3.371
				c1.396-2.531,7.507,4.333,15.187-0.006c1.077-0.654,2.109-1.384,3.079-2.189c0.727-0.872,1.415-1.764,2.033-2.719
				c0.691-1.068,1.347-2.158,2.002-3.249c1.245-2.071,2.495-4.141,3.78-6.189c1.004-1.589,2.019-3.171,3.03-4.754
				c0.998-1.562,2.002-3.118,2.997-4.682c-7.075-4.942-14.452-9.425-22.362-12.733c-2.699-1.008-5.414-1.971-8.139-2.903
				c-0.131-0.039-0.262-0.078-0.393-0.115c-0.727,1.173-1.438,2.356-2.149,3.538c-1.228,2.04-2.473,4.078-3.574,6.191
				c-0.592,1.135-1.106,2.308-1.602,3.489c-0.476,1.129-0.94,2.264-1.373,3.41c-0.361,0.959-0.682,1.93-0.972,2.909
				c-0.323,0.804-0.6,1.627-0.813,2.466c-0.003,0.009-0.006,0.019-0.007,0.028c-0.017,0.067-0.033,0.135-0.049,0.202l0,0.001
				c0.091,2.643,0.694,5.244,2.204,7.423c1.171,1.727,2.509,3.344,3.857,4.917c0.337,0.36,0.612,0.776,0.593,1.29
				c0.027,1.307-1.776,2.051-2.651,1.053c-2.621-2.843-4.852-5.752-6.09-9.1c-0.059-0.031-0.115-0.067-0.167-0.107
				c-0.227-0.169-0.429-0.373-0.542-0.637c-0.115-0.271-0.179-0.543-0.226-0.833c-0.081-0.503-0.075-1.017-0.082-1.524
				c-0.007-0.513,0-1.027,0.016-1.539l0-0.001c-0.002-0.034-0.005-0.068-0.007-0.103c-0.007-0.001-0.014-0.001-0.023-0.002
				c-0.345-0.028-0.676-0.174-0.929-0.409c-0.307-0.286-0.446-0.651-0.492-1.058c-0.038-0.346-0.02-0.702-0.008-1.048
				c0.014-0.427,0.045-0.851,0.085-1.275c0.078-0.841,0.203-1.68,0.339-2.512c0.14-0.852,0.277-1.706,0.466-2.547
				c0.094-0.419,0.193-0.836,0.299-1.253c0.074-0.29,0.165-0.579,0.258-0.864c0.052-0.157,0.12-0.309,0.189-0.459
				c0.416-1.562,0.889-3.102,1.466-4.614c0.594-1.56,1.252-3.086,1.962-4.596c1.373-2.92,2.837-5.796,4.311-8.667
				c0.719-1.402,1.458-2.796,2.266-4.15c0.881-1.476,1.801-2.923,2.746-4.358c1.322-2.005,2.646-4.008,3.959-6.018
				c1.342-2.053,2.716-4.088,4.158-6.072c0.454-0.625,1.304-0.826,1.977-0.477c0.167-0.273,0.333-0.546,0.5-0.819
				c-1.343-1.733,5.905-9.857,7.098-11.932c2.941-4.87,5.916-9.729,9.078-14.46c3.976-7.128,7.954-14.266,12.496-21.063
				c9.372-13.492,16.842-28.203,26.38-41.592c-2.267-2.125,4.001-5.77,5.774-6.178c2.926-2.376,6.709-3.201,10.356-3.649
				c0.349,0.012,0.655,0.155,0.892,0.374l0.001,0.001c0.201-0.039,0.403-0.074,0.604-0.106c2.795-1.11,5.83-1.836,6.353-0.051
				c0.794,0.077,1.58,0.215,2.353,0.422l0.001-0.001c1.574-1.717,7.585,1.454,9.32,2.989
				C331.43,87.485,332.677,88.05,333.892,88.678L333.892,88.678z M253.398,441.14c-1.377-0.287-7.313,0.034-8.39-1.093
				c-4.595-0.025-9.191,0.037-13.786,0.1c-6.183,0.085-12.366,0.168-18.546,0.041c-7.682-0.063-15.288-0.288-22.918-0.526
				c-0.169,0.216-0.442,0.346-0.728,0.324c-4.142-0.293-8.3-0.263-12.45-0.356c-0.76-0.042-1.523-0.059-2.288-0.06
				c-0.025,0.245-0.317,0.543-0.95,0.909c-1.323-0.364-3.582-0.334-5.916-0.303c-3.497,0.045-7.162,0.091-8.092-1.189
				c0.079-5.921-0.254-10.326,4.159-14.867c0.18-0.18,0.337-0.378,0.483-0.582c0.127-0.353,0.306-0.726,0.539-1.119
				c0.367-0.723,1.279-0.515,1.523,0.054c0.017,0.134,0.034,0.268,0.054,0.401c-0.008,0.061-0.023,0.124-0.046,0.189
				c-0.069,0.095-0.132,0.187-0.189,0.278c0.035,0.189-0.002,0.395-0.142,0.591c-0.077,0.163-0.172,0.314-0.277,0.46
				c-0.199,1.381,1.239,2.267,3.327,2.84c0.552,0.295,1.122,0.555,1.729,0.723c0.65,0.18,1.307,0.324,1.969,0.451
				c2.534,0.486,5.114,0.6,7.683,0.757c5.115,0.312,10.234,0.564,15.359,0.659c0.585,0.011,1.17,0.016,1.755,0.016
				c2.098,0,4.197-0.06,6.295-0.112c2.591-0.064,5.182-0.117,7.774-0.17c2.608-0.054,5.214-0.139,7.822-0.209
				c2.516-0.067,5.033-0.112,7.55-0.16c2.195-0.042,4.389-0.103,6.583-0.179c2.085,0.037,4.17,0.073,6.255,0.107
				c-0.082-0.001-0.165-0.003-0.247-0.004c1.037,0.02,2.073,0.043,3.109,0.072c2.557,0.072,5.112,0.185,7.668,0.267
				c2.203,0.07,4.41,0.158,6.617,0.158c0.115,0,0.23,0,0.345-0.001c1.954,0.069,3.907,0.127,5.861,0.179
				c2.608,0.07,5.216,0.152,7.825,0.195c3.024,0.05,6.045,0.082,9.069,0.082c2.234,0,4.468-0.018,6.702-0.059
				c0.623-0.011,1.247-0.023,1.87-0.035c14.085,0.361,28.174,0.473,42.263,0.192c2.011-0.137,4.141-0.121,6.307-0.105
				c7.266,0.053,14.94,0.106,19.918-5.575c0.364-0.282,0.571-0.807,0.805-1.272c-0.128-0.206-0.101-0.494,0.149-0.913
				c4.41-1.406,8.378,3.431,9.969,7.09c0.508,1.022,3.995,12.623,0.951,10.775c0.014,0.035,0.027,0.072,0.038,0.112
				c0.022,0.433-0.336,0.879-0.789,0.876c-19.694-1.038-39.392-0.273-59.081-0.024c-0.243-0.037-0.543-0.032-0.857-0.026
				c-0.716,0.013-1.502,0.025-1.826-0.465c-6.938-0.091-13.876-0.144-20.816-0.04c-8.491,0.143-16.983,0.667-25.477,0.667
				C257.74,441.257,255.568,441.223,253.398,441.14L253.398,441.14z M268.359,372.15c-5.619,0.04-10.857-4.912-10.795-10.369
				c-0.256-1.452-0.173-2.783,0.702-3.275c0.006-0.015,0.012-0.03,0.018-0.044c1.085-3.372,5.734-0.716,2.781,1.368
				c-0.217,0.574-0.339,1.144-0.379,1.701c0.006,0.029,0.013,0.059,0.02,0.088c0.456,3.057,2.742,5.644,5.858,6.1
				c1.438,0.336,2.867,0.14,4.159-0.421c-0.025-3.949-0.126-7.906-0.825-11.798c-0.025-0.227-0.053-0.454-0.083-0.681
				c-0.162-1.21-0.436-2.404-0.804-3.568c-0.364-1.15-0.755-2.303-1.278-3.391c-0.368-0.763-0.785-1.507-1.275-2.198
				c-0.836-1.278-1.883-2.348-3.231-3.04c-0.182-0.117-0.366-0.229-0.552-0.337c-1.079-0.628-2.348-1.103-3.599-1.186
				c-0.023-0.002-0.047-0.003-0.07-0.004c-0.021-0.026-0.041-0.053-0.059-0.081c0.052-0.023,0.103-0.05,0.153-0.079
				c0.238-0.14,0.485-0.264,0.73-0.388c1.408-0.649,2.86-1.185,4.308-1.738c0.543-0.208,1.086-0.416,1.63-0.622
				c1.367-0.138,2.846-0.132,3.822-0.345c7.207-0.525,13.959,3.304,16.311,10.292c3.048,7.728,1.453,16.312,1.858,24.419
				c-0.042,6.35-0.06,12.703,0.367,19.039c0.108,3.665-4.611,3.776-7.268,4.271c-1.965,0.228-3.994,0.512-5.997,0.512
				c-0.995,0-1.984-0.07-2.956-0.252c-1.969-0.687-1.151-3.074-1.25-4.654c0.169-6.502,0.178-13.003,0.103-19.506
				C269.978,372.152,269.17,372.224,268.359,372.15L268.359,372.15z M350.293,78.689c-0.722-0.414-1.006-1.389-0.573-2.113
				c1.306-2.236,2.835-4.326,4.276-6.475c4.689-7.032,9.283-14.263,12.445-22.125c0.232-0.675,0.327-1.364,0.386-2.068
				c0.316-1.281,1.852-1.41,2.618-0.685c0.096,0.018,0.19,0.046,0.282,0.083c0.313,0.148,0.531,0.337,0.679,0.556
				c0.58,0.277,1.024,0.996,0.997,2.067c0.271,0.089,0.566,0.27,0.883,0.566c0.447,0.646,0.313,1.359,0.118,2.08
				c2.355,2.778-8.883,18.486-10.072,20.253c-1.723,2.227-3.149,4.619-4.624,7.025c-0.859,1.208-1.853,3.794-3.695,2.557
				c-0.362-0.299-0.602-0.602-0.748-0.908c-0.178,0.024-0.375,0.01-0.594-0.049c-0.162-0.059-0.303-0.126-0.426-0.199
				c-0.427,0.164-0.905,0.136-1.454-0.189c-0.1-0.09-0.185-0.181-0.257-0.272C350.457,78.764,350.377,78.73,350.293,78.689
				L350.293,78.689z M372.258,50.431l0.033-0.038c0.083-0.121,0.164-0.247,0.207-0.388c-0.059,0.15-0.141,0.292-0.244,0.422
				C372.255,50.428,372.256,50.429,372.258,50.431L372.258,50.431z M228.633,277.836c1.873,1.235,2.946-1.506,3.947-2.649
				c0.56-0.827,1.251-1.603,1.687-2.507c0.319-0.021,0.588-0.144,0.8-0.329c1.453-0.116,2-2.503,0.315-3.032
				c-4.113-1.557-8.127-3.536-11.758-6.025c-1.327-1.027-2.745-2.032-3.738-3.402c-0.409-1.172-1.69-1.218-2.447-0.639
				c-0.594,0.147-1.048,0.644-1.156,1.239c0.29,2.588,4.979,6.09,9.607,8.687c-0.269,0.654-0.556,1.303-1.003,1.842
				c-0.837,1.423-2.167,2.389-3.282,3.536c-0.86,1.444,0.826,2.942,2.241,2.212c0.303,1.163,1.792,1.404,2.653,0.699
				c0.375,0.467,1.002,0.703,1.629,0.532c0.166-0.045,0.321-0.112,0.467-0.194C228.608,277.816,228.621,277.826,228.633,277.836
				L228.633,277.836z M263.741,220.849c0.612-0.985,1.226-1.969,1.842-2.951c1.355-2.159,2.646-4.355,3.945-6.549
				c1.257-2.121,2.54-4.227,3.851-6.316c1.045-1.657,2.114-3.3,3.171-4.95c1.362-2.123,2.724-4.245,4.128-6.34
				c1.389-2.074,2.813-4.124,4.224-6.182c2.867-4.182,5.6-8.455,8.319-12.734c0.097-0.151,0.201-0.298,0.288-0.453
				c0.709-1.114,1.413-2.231,2.099-3.358c1.3-2.133,2.561-4.292,3.856-6.428c1.092-1.693,2.163-3.397,3.206-5.119
				c0.267-0.442,0.533-0.882,0.799-1.324c1.005-1.601,1.99-3.214,2.974-4.829c2.352-3.644,4.664-7.311,6.886-11.023
				c0.082-0.124,0.164-0.247,0.246-0.37c0.663-0.993,1.345-1.975,1.998-2.974c0.198-0.304,0.294-0.65,0.296-0.992
				c3.138-5.488,6.044-11.093,8.57-16.886c1.394-2.735,2.768-5.487,3.992-8.304c0.002-0.005,0.004-0.009,0.006-0.014
				c0.012-0.027,0.024-0.054,0.035-0.081c0.009-0.021,0.019-0.043,0.028-0.064c0.617-1.443,1.187-2.906,1.696-4.389
				c0.497-1.443,0.919-2.917,1.307-4.393c0.331-1.257,0.604-2.537,0.733-3.831c-0.22-1.467-0.572-2.902-1.156-4.29
				c-2.301-3.37-5.631-6.13-9.205-8.005c-1.512-0.594-3.102-0.991-4.742-1.158c-2.675-0.036-5.392,0.779-7.908,1.818
				c-4.854,2.861-8.74,7.361-11.717,12.171c-1.211,1.921-2.412,3.844-3.607,5.768l-0.003,0.005c-1.321,2.359-2.65,4.713-4.003,7.053
				c-0.128,0.22-0.257,0.438-0.386,0.658c-0.714,1.217-1.435,2.43-2.191,3.622c-0.785,1.235-1.593,2.455-2.403,3.674
				c-0.853,1.283-1.705,2.565-2.554,3.85l-0.005,0.008c-1.039,1.711-2.078,3.423-3.12,5.137
				c-3.327,5.402-6.846,10.679-10.396,15.935c-2.532,3.995-5.029,8.011-7.527,12.026c-0.015,0.024-0.031,0.049-0.046,0.074
				c-0.002,0.002-0.004,0.005-0.005,0.007c0.001-0.001,0.002-0.002,0.003-0.002c-0.017,0.028-0.035,0.055-0.053,0.083
				c-0.002,0.003-0.004,0.007-0.006,0.009c-1.104,1.77-2.21,3.537-3.275,5.331c-1.49,2.508-2.961,5.031-4.407,7.565
				c-1.291,2.267-2.568,4.542-3.862,6.807c-1.511,2.331-3.028,4.657-4.484,7.023c-0.801,1.32-1.593,2.644-2.361,3.984
				c-0.792,1.379-1.559,2.772-2.334,4.16c-1.164,2.086-2.359,4.155-3.544,6.229c-0.194,0.283-0.389,0.566-0.584,0.848
				c-0.289,0.42-0.579,0.84-0.869,1.261c-1.115,1.497-2.196,3.022-3.246,4.566c2.478,0.792,4.901,1.755,7.326,2.694
				C247.923,212.228,256.148,216.011,263.741,220.849L263.741,220.849z M323.402,84.933c0.272,0.137,0.542,0.284,0.809,0.442
				c0.23,0.105,0.458,0.214,0.685,0.326c0.059-0.079,0.125-0.152,0.197-0.22c-0.009-0.004-0.018-0.006-0.027-0.01
				c-0.544-0.2-1.098-0.378-1.656-0.537L323.402,84.933z"/>
			<path style="fill-rule:evenodd;clip-rule:evenodd;fill:#F3F4F8;" d="M256.634,186.547c-4.263-1.751,2.67-14.736,6.31-14.85
				C270.583,171.444,261.019,187.507,256.634,186.547L256.634,186.547z M267.25,162.816l-0.026-0.237
				c0.096-0.493,0.2-0.982,0.317-1.469c0.105-0.187,0.21-0.375,0.316-0.562c0.247-0.438,0.494-0.876,0.742-1.314l0-0.001
				c0.905-1.604,1.813-3.207,2.745-4.795c0.184-0.313,0.368-0.626,0.552-0.938l0.023-0.038l0.012-0.02l0.035-0.059l0.002-0.003
				l0.033-0.056l0.015-0.025l0.02-0.033l0.029-0.048l0.006-0.01c0.497-0.839,0.997-1.676,1.496-2.513l0.002-0.002
				c0.234-0.393,0.468-0.785,0.701-1.178l0.013-0.023l0.008-0.013l0.006-0.009l0.04-0.068l0.013-0.022l0-0.001l0.013-0.023
				l0.014-0.023l0.013-0.023l0.013-0.023l0.005-0.008l0.009-0.015l0.013-0.023c0.228-0.385,0.455-0.769,0.682-1.155
				c-0.002,0.003-0.004,0.007-0.006,0.01c0.005-0.007,0.009-0.015,0.013-0.022c-0.001,0.001-0.001,0.001-0.002,0.002
				c0.008-0.015,0.018-0.029,0.026-0.044c0.006-0.01,0.012-0.02,0.018-0.03c0.002-0.003,0.003-0.007,0.005-0.009v0.001
				c0-0.001,0-0.001,0.001-0.002c0.001-0.001,0.001-0.001,0.001-0.002c0,0,0,0.001-0.001,0.001c0.006-0.01,0.012-0.02,0.018-0.031
				c0-0.001,0.001-0.001,0.001-0.002c0.001-0.001,0.002-0.003,0.003-0.004c0.002-0.003,0.004-0.006,0.005-0.008
				c0.009-0.015,0.019-0.031,0.027-0.046c1.048-1.782,2.111-3.553,3.218-5.298c1.287-2.029,2.578-4.055,3.847-6.095
				c1.34-2.157,2.613-4.353,3.908-6.536c0.017-0.028,0.034-0.057,0.05-0.085c0.003-0.005,0.006-0.01,0.009-0.015
				c0.014-0.025,0.029-0.049,0.044-0.074c0.002-0.004,0.005-0.008,0.007-0.012c0,0,0,0.001,0,0.001
				c0.651-1.087,1.304-2.173,1.956-3.261c2.444-4.075,4.852-8.169,7.212-12.292c1.102-1.664,2.206-3.325,3.313-4.986
				c0.4-0.549,0.787-1.112,1.17-1.684c1.401-2.419,2.861-4.804,4.68-6.885c0.171-0.178,0.344-0.354,0.52-0.527l0.003-0.004
				c0.198-0.195,0.4-0.388,0.606-0.577c0.224-0.197,0.45-0.39,0.679-0.579l0.002-0.002l0.004-0.003l0,0l0.02-0.016l0.008-0.007
				l0.015-0.013l0.002-0.002l0.01-0.008l0,0l0.007-0.006l0.004-0.003l0.013-0.011l0.003-0.003l0,0l0.007-0.006l0.007-0.006
				l0.014-0.011l0,0l0.003-0.002l0.001-0.001l0.017-0.014l0.006-0.005l0.001-0.001l0,0l0.01-0.008l0.012-0.01l0.005-0.004l0,0
				l0.017-0.014l0.001-0.001l0.009-0.008l0,0l0.007-0.006l0.008-0.006l0.01-0.008l0.004-0.003l0,0l0.01-0.008l0.003-0.003
				l0.014-0.012l0,0l0.003-0.002l0.003-0.002l0.015-0.012l0.007-0.006l0,0l0.002-0.001l0.008-0.007l0.016-0.013l0.002-0.001l0.001,0
				l0.017-0.013l0.005-0.004l0.007-0.005l0,0l0.006-0.005l0.011-0.009l0.007-0.005l0.004-0.003l0,0l0.013-0.01l0,0l0.015-0.012
				l0.003-0.002l0.006-0.005l0.011-0.009l0.008-0.006l0.005-0.004l0.005-0.004l0.018-0.014l0.001-0.001l0.001,0l0.016-0.013
				l0.008-0.006l0.003-0.003l0.006-0.005l0.015-0.011l0.003-0.002l0.005-0.004l0.013-0.01l0.003-0.003l0.012-0.009l0.002-0.002
				l0.01-0.008l0.008-0.006l0.009-0.007l0.008-0.006l0.001-0.001l0.018-0.014l0.002-0.001l0.004-0.003l0.012-0.01l0.012-0.009
				l0.001,0l0.005-0.004l0.018-0.014l0.001,0l0.005-0.004l0.012-0.009l0.007-0.005l0.009-0.007l0,0l0.019-0.014l0.009-0.007
				l0.009-0.007l0.002-0.002l0.016-0.012l0.002-0.002l0.007-0.005l0.009-0.007l0.013-0.01l0.003-0.002l0.002-0.002l0.018-0.013
				l0.004-0.003l0.002-0.001l0,0l0.012-0.009l0.011-0.008l0.006-0.005l0.001-0.001l0.017-0.013l0.001-0.001l0.01-0.007l0.008-0.006
				l0.006-0.005l0.012-0.009l0.003-0.002l0.01-0.007l0.006-0.004l0.014-0.01l0.004-0.003l0.001-0.001l0.017-0.012l0.007-0.005l0,0
				l0.001-0.001l0.01-0.007l0.015-0.01l0.003-0.002l0,0l0,0l0.018-0.013l0.003-0.002l0.007-0.005l0,0l0.007-0.005l0.01-0.007
				l0.008-0.006l0.003-0.002l0,0l0.013-0.009l0.002-0.001l0.014-0.01l0,0l0.004-0.003l0.005-0.003l0.013-0.01l0.007-0.005l0,0
				l0.004-0.003l0.007-0.005l0.018-0.013l0,0l0.002-0.002l0.003-0.002l0.002-0.001l0.001,0l0.002-0.001l0,0l0,0l0.003-0.002
				l0.001-0.001l0.001-0.001l0.003-0.002l0.001-0.001l0,0l0.001-0.001l0.001-0.001l0.002-0.001l0.003-0.002l0.003-0.002l0.003-0.002
				l0.003-0.002l0.003-0.002l0.003-0.002l0,0c0.197-0.125,0.396-0.243,0.6-0.355c0.226-0.102,0.456-0.195,0.688-0.28
				c0.171-0.052,0.342-0.102,0.517-0.144c0.052-0.007,0.105-0.014,0.158-0.019c0.266-0.013,0.53-0.029,0.792-0.089
				c0.047-0.011,0.094-0.024,0.139-0.039c0.957,0.597,1.43,1.989,1.109,3.248c-1.058,5.406-4.902,9.688-7.486,14.419
				c-7.991,12.283-15.314,24.924-22.986,37.397c-1.049,1.417-3.049,4.86-5.453,8.75c-0.346,0.458-0.7,0.912-1.064,1.357
				c-0.462,0.536-0.947,1.043-1.461,1.53c-0.038,0.033-0.075,0.066-0.112,0.102c-0.183,0.163-0.369,0.323-0.558,0.478
				c-0.922,1.041-1.967,1.818-3.174,1.976c-0.321-0.202-0.635-0.412-0.944-0.634c-0.33-0.262-0.652-0.531-0.964-0.813
				C267.191,164.364,267.153,163.625,267.25,162.816z"/>
			<path style="fill-rule:evenodd;clip-rule:evenodd;fill:#79B1D2;" d="M246.914,259.013c2.669,0.723,7.838,1.21,4.167,4.865
				c-2.073,2.154-3.209,8.048-6.645,7.839c-4.85-0.954-9.667-2.134-13.95-4.703c-4.39-2.022-8.337-4.831-11.732-8.268
				c-1.104-1.409-5.881-5.304-5.105-6.87c-0.276-1.535,1.788-3.462,2.195-5.142c1.936-4.165,3.503-7.105,7.236-2.241
				c1.99,2.04,4.015,4.057,6.259,5.819C234.545,254.32,240.562,257.322,246.914,259.013z"/>
			<path style="fill-rule:evenodd;clip-rule:evenodd;fill:#79B1D2;" d="M296.254,220.959c4.994,6.276-2.529,16.009-9.875,13.55
				c-3.775-1.797-7.062-4.498-10.619-6.683c-6.14-3.997-12.871-6.949-19.295-10.451c-5.145-2.903-10.458-5.489-15.615-8.37
				c-3.734-2.39-7.833-3.864-11.895-5.565c-1.173,0.65-2.29-0.511-3.364-0.883c-2.008-0.746-2.825-2.909-3.198-4.857
				c-1.216-9.465,6.291-12.681,14.457-10.144c16.168,5.364,31.715,13.171,45.505,23.195
				C286.732,214.444,292.358,216.827,296.254,220.959z"/>
			<path style="fill-rule:evenodd;clip-rule:evenodd;fill:#79B1D2;" d="M352.758,79.807c2.078,1.874,7.482,7.131,6.559,10.05
				c-0.123,0.532-0.49,0.957-0.954,1.171c0.095,0.135,0.168,0.288,0.215,0.461c0.298,1.039-0.497,1.962-0.908,2.856
				c-0.798,1.518-1.452,3.11-2.278,4.615c-1.076,1.493-1.839,4.995-4.293,3.918c-1.409-1.125-2.193-2.87-3.598-4.032
				c-0.445-0.417-0.592-0.907-0.537-1.365c-0.442,0.087-0.93-0.019-1.375-0.413c-0.907-0.816-2.454-1.889-1.988-3.148
				c-0.52,0.275-1.166,0.3-1.683-0.099c-3.583-2.981-7.536-5.495-11.848-7.255c-0.246,0.073-0.516,0.084-0.797,0.009
				c-2.196-0.618-4.355-1.412-6.622-1.739c-0.601-0.09-1.227,0.262-1.811-0.106c-1.008-0.449-1.296-1.884-0.533-2.686
				c0.026-0.028,0.052-0.054,0.078-0.079c-0.214-0.458-0.214-1.018,0.155-1.576c3.07-4.847,5.268-9.5,11.814-9.107
				c2.393,0.021,11.698,2.448,13.001,4.183C348.077,76.425,350.593,77.898,352.758,79.807z"/>
			<path style="fill-rule:evenodd;clip-rule:evenodd;fill:#79B1D2;" d="M395.103,208.477c6.977,21.01,9.393,43.264,5.342,65.134
				c-0.78,5.586-1.636,11.174-3.631,16.478c-0.281,0.637-0.481,1.566-0.785,2.388c0.104,0.417,0.033,0.884-0.31,1.328
				c-1.986,4.449-3.569,9.087-5.636,13.507c-3.033,6.9-7.095,13.212-11.914,18.998c-0.182,0.234-0.365,0.468-0.548,0.7
				c-0.015,0.31-0.133,0.632-0.389,0.941c-1.539,1.783-2.983,3.646-4.482,5.462c-7.672,9.339-17.213,16.985-27.242,23.649
				c-7.942,5.616-16.589,10.238-25.799,13.383c-4.257,1.582-8.557,3.217-13.055,3.949c-0.265,0.038-0.53,0.076-0.795,0.113
				c-1.142,0.895-2.926,0.854-4.261,1.393c-3.651,0.947-7.408,2.144-11.22,1.782c-3.289-0.331-3.642-3.024-3.14-5.677
				c0.303-3.221,0.382-6.457,0.326-9.689c-0.26-2.979-0.522-5.978-1.386-8.853c-0.526-1.813-1.714-4.578,0.469-5.739
				c4.225-1.081,8.436-2.239,12.534-3.769c6.283-1.949,12.606-3.802,18.618-6.509c2.886-1.183,5.466-3.002,8.241-4.351
				c0.326-0.07,0.655-0.044,0.951,0.061c1.403-0.832,2.796-1.685,4.18-2.55c6.844-4.349,12.998-9.83,18.249-16.003
				c0.975-0.918,1.725-2.477,3.07-2.833c1.975-2.469,3.813-5.068,5.512-7.755c0.035-0.089,0.079-0.176,0.133-0.259
				c0.489-0.762,0.967-1.532,1.435-2.309c0.004-0.007,0.008-0.015,0.013-0.022c1.209-2.055,2.341-4.152,3.395-6.273
				c0.142-0.301,0.283-0.605,0.419-0.91c0.177-0.675,0.416-1.205,0.688-1.609c0.474-1.171,0.893-2.364,1.231-3.582
				c-0.105-0.304-0.122-0.638-0.025-0.962c0.702-2.339,1.389-4.684,2.064-7.031c1.525-4.993,2.422-10.235,3.49-15.299
				c2.26-9.662,0.478-19.647-0.341-29.369c-0.136-1.21-0.313-2.417-0.433-3.629c-0.05-0.354,0.001-0.663,0.123-0.922
				c-0.288-2.05-0.623-4.092-1.018-6.124c-0.526-2.436-1.184-4.833-1.841-7.236c-0.128-0.469-0.036-0.952,0.21-1.339
				c-1.752-6.324-4.27-12.347-7.544-18.017c-0.127-0.115-0.245-0.259-0.345-0.436c-0.46-0.815-0.925-1.629-1.399-2.439
				c0-0.001-0.001-0.001-0.001-0.001c-0.636-0.999-1.296-1.987-1.982-2.962c-0.151-0.246-0.229-0.489-0.247-0.723
				c-3.203-5.1-6.807-9.97-11.118-14.146c-1.446-0.893-2.048-1.854-2.131-2.647c-3.204-1.881-6.359-3.843-9.376-6.016
				c-1.56-0.432-4.483-0.325-4.654-2.409c-0.002-0.203,0.035-0.396,0.103-0.576c-0.061-0.57,0.147-1.17,0.632-1.525
				c1.015-0.444,2.182-0.295,3.372,0.007c1.424-0.134,3.039,0.024,3.818,0.814c1.741,0.085,3.507,0.19,5.26,0.074
				c2.299-0.142,4.58-0.525,6.798-1.145c1.193-2.706,6.15-5.258,7.016-7.624c0.593-0.99,0.339-2.439,1.464-3.061
				c1.793-0.539,2.444,0.207,2.406,1.487c0.546-0.055,1.137,0.095,1.596,0.452c2.853,2.202,5.149,4.959,7.206,7.924
				c0.431,0.444,0.863,0.886,1.292,1.333c4.574,4.978,8.583,10.478,12.216,16.179c1.987,2.383,3.785,4.915,5.187,7.724
				c0.888,1.656,1.661,3.376,2.449,5.081c0.604,1.801,1.976,3.626,2.276,5.523c0.39,0.897,0.751,1.807,1.082,2.732
				c0.599,1.631,1.168,3.275,1.699,4.93C394.854,207.872,395.028,208.141,395.103,208.477z"/>
			<path style="fill-rule:evenodd;clip-rule:evenodd;fill:#79B1D2;" d="M330.264,414.143c1.48,0.569,1.48,3.316,0.282,4.279
				c0.007,0.151,0.017,0.303,0.026,0.455c0.232,1.058-0.789,2.164-1.864,1.958c-0.302-0.05-0.546-0.152-0.741-0.295
				c-6.605,0.378-13.256,0.804-19.879,0.626c-3.568,0.015-7.136,0.04-10.704,0.102c-5.089,0.14-10.18,0.186-15.267-0.028
				c-2.336-0.074-4.673-0.165-7.002-0.341c-5.618,0.186-11.237,0.326-16.859,0.175c-8.138-0.074-16.309-0.213-24.395-1.189
				c-0.326-0.016-0.614-0.072-0.868-0.16c-0.427-0.051-0.836-0.13-1.217-0.252c-8.472,0.084-16.944,0.275-25.416,0.264
				c-0.257,0.004-0.485-0.033-0.685-0.1c-0.105,0.003-0.21,0.005-0.315,0.007c-0.344-0.003-0.632-0.09-0.865-0.237
				c-0.121,0.072-0.253,0.13-0.402,0.177c-0.139,0.043-0.285,0.063-0.432,0.063c-0.581,0-1.183-0.318-1.451-0.83
				c-0.16-0.308-0.251-0.617-0.257-0.965c-0.004-0.211,0.006-0.422,0.024-0.632c0.028-0.297,0.059-0.592,0.095-0.887
				c0.076-0.608,0.177-1.213,0.281-1.816c0.097-0.552,0.203-1.103,0.313-1.653c0.119-0.591,0.234-1.187,0.398-1.767
				c0.188-0.664,0.454-1.279,0.766-1.892c0.281-0.548,0.668-1.055,1.04-1.544c0.781-1.034,1.646-2.005,2.584-2.899
				c0.791-0.753,1.639-1.448,2.504-2.114c0.938-0.721,1.888-1.422,2.887-2.056c0.458-0.291,0.921-0.569,1.399-0.828
				c0.221-0.121,0.447-0.24,0.672-0.355c0.165-0.084,0.329-0.167,0.495-0.25c0.005-0.003,0.009-0.006,0.014-0.008
				c0.052-0.03,0.105-0.057,0.158-0.081c0.071-0.035,0.141-0.069,0.19-0.093c1.039-0.522,2.079-1.044,3.13-1.541
				c1.116-0.527,2.256-0.965,3.413-1.393c1.129-0.418,2.253-0.85,3.376-1.281c1.14-0.438,2.275-0.888,3.434-1.275
				c1.021-0.34,2.052-0.653,3.077-0.985c1.096-0.354,2.188-0.719,3.283-1.074c1.999-0.65,4.006-1.277,5.995-1.96
				c0.176-0.062,0.352-0.125,0.526-0.188c0.428-0.156,0.871-0.18,1.298,0c0.036,0.016,0.072,0.032,0.107,0.05
				c0.556-0.599,1.101-1.324,2.023-1.156c1.432,0.219,1.551,1.528,1.252,2.672c0.126,0.403,0.087,0.868-0.205,1.337
				c4.53,2.255,9.66,2.693,14.647,2.731c5.288,0.207,10.57,0.64,15.867,0.43c2.254-0.152,9.321-0.295,10.636-1.859
				c0.778-1.753-0.926-3.798,0.541-5.328c2.111-1.796,4.652,0.927,6.837,1.391c3.785,1.326,7.428,3.108,11.231,4.273
				c2.11,0.73,7.64,3.354,12.513,6.199c0.171-0.06,0.359-0.091,0.563-0.087c6.687,1.585,8.993,5.723,10.592,12.053
				C330.07,412.697,330.182,413.418,330.264,414.143z"/>
			<path style="fill-rule:evenodd;clip-rule:evenodd;fill:#79B1D2;" d="M209.875,364.543c-4.217-1.974-8.986-3.151-12.767-5.902
				c-1.459-1.558,0.966-3.841,2.43-2.282c1.962,1.202,4.173,1.956,6.268,2.898c1.907,0.847,3.899,1.524,5.776,2.424
				C213.403,362.773,211.699,365.617,209.875,364.543z"/>
			<path style="fill-rule:evenodd;clip-rule:evenodd;fill:#79B1D2;" d="M244.63,379.241c-0.512-0.096-1.006-0.314-1.489-0.498
				c-0.515-0.196-1.031-0.394-1.544-0.594c-0.905-0.352-1.812-0.7-2.713-1.06c-2.239-0.895-4.469-1.81-6.716-2.684
				c-2.269-0.882-4.486-1.89-6.726-2.837c-2.277-0.963-4.594-1.821-6.854-2.826c-4.585-2.041-9.119-4.199-13.689-6.274
				c-1.602-0.728-3.204-1.457-4.802-2.196c-0.727-0.336-1.454-0.674-2.17-1.033c-0.198-0.099-0.396-0.203-0.588-0.313
				c-0.135-0.077-0.262-0.154-0.392-0.241c-0.247-0.168-0.439-0.369-0.618-0.605c-0.306-0.4-0.401-1.01-0.248-1.484
				c0.105-0.327,0.275-0.575,0.513-0.815c0.368-0.372,0.897-0.497,1.392-0.413c-0.049-0.495,0.097-0.998,0.416-1.384
				c0.313-0.378,0.769-0.617,1.242-0.718c0.9-0.193,1.899,0.021,2.758,0.305c0.276,0.092,0.55,0.192,0.822,0.297
				c0.355-0.093,0.741-0.071,1.096,0.088c0.97,0.435,1.898,0.949,2.817,1.481c2.14,0.792,4.29,1.569,6.451,2.301
				c2.276,0.771,4.495,1.684,6.725,2.577c1.162,0.465,2.323,0.936,3.478,1.417c1.167,0.486,2.315,1.019,3.468,1.536
				c2.24,1.004,4.443,2.082,6.681,3.091c1.321,0.595,2.643,1.188,3.994,1.713c1.134,0.409,2.278,0.787,3.399,1.232
				c1.218,0.484,2.395,1.075,3.515,1.754c0.704,0.427,1.401,0.952,1.908,1.604c0.217,0.28,0.372,0.585,0.508,0.91
				c0.138,0.331,0.159,0.694,0.167,1.046c0.008,0.343-0.054,0.696-0.088,1.036c-0.049,0.498-0.098,1-0.207,1.488
				c-0.119,0.527-0.261,1.046-0.625,1.465c-0.383,0.439-0.924,0.668-1.488,0.668C244.891,379.278,244.761,379.266,244.63,379.241z"
				/>
			<path style="fill-rule:evenodd;clip-rule:evenodd;fill:#79B1D2;" d="M198.013,355.9c-2.155-1.422,0.677-4.827,2.625-3.423
				c2.093,0.89,1.498,4.043-0.877,3.412C199.226,356.219,198.56,356.24,198.013,355.9z"/>
			<path style="fill-rule:evenodd;clip-rule:evenodd;fill:#79B1D2;" d="M249.884,341.143c1.683,1.208,5.085,2.819,3.484,5.324
				c-1.329,1.938-2.033,6.508-5.077,5.925c-1.517-0.792-3.361-1.736-4.296-3.187c-3.444-2.579-6.97-4.943-10.64-7.172
				c-2.267-1.643-13.158-6.632-12.242-9.453c-1.507-1.633,0.872-3.276,1.698-4.621c1.914-3.164,4.466-1.724,6.745,0.113
				c3.161,2.228,6.283,4.509,9.651,6.422C242.842,336.588,246.364,338.865,249.884,341.143z"/>
			<path style="fill-rule:evenodd;clip-rule:evenodd;fill:#79B1D2;" d="M223.267,335.468c-1.482-0.752-4.706-1.513-3.535-3.761
				c1.399-1.941,3.614,0.423,5.233,0.89C226.772,333.706,225.09,336.53,223.267,335.468z"/>
			<path style="fill-rule:evenodd;clip-rule:evenodd;fill:#4F8BAF;" d="M240.413,191.035c-0.259,0.253-0.713,0.355-1.099,0.435
				c-0.52,0.308-1.041,0.784-1.539,1.517c-3.15,4.139-0.763,7.839,2.985,10.396c6.107,4.428,12.832,7.604,19.676,10.611
				c1.887,0.51,3.811,0.837,5.773,0.886c2.201-0.285,4.282-1.129,5.962-2.636c0.98-2.199,1.208-4.618-0.033-6.621
				c-2.241-1.055,1.034-3.296,2.189,0.537c0.844,0.435,1.816,1.592,2.583,1.777c6.059,2.974,12.244,5.987,17.091,10.796
				c3.213,2.501,3.915,7.545,2.357,11.154c-1.694,2.669-4.858,4.966-8.107,4.956c-5.751-1.095-10.406-5.312-15.153-8.506
				c-2.827-2.088-5.778-4.009-8.826-5.762c-0.191-0.082-0.401-0.167-0.58-0.281c-0.203,0-0.407-0.007-0.613-0.022
				c-0.692-0.026-0.913-0.731-0.695-1.216c-0.134-0.066-0.268-0.132-0.402-0.197c-0.933,1.454-3.209-1.079-4.307-1.506
				c-4.945-2.934-9.886-5.877-14.944-8.613c-0.846,1.789-3.788-1.671-4.859-2.201c-0.837,1.204-2.307-0.419-3.261-0.759
				c-0.276-0.178-0.574-0.338-0.869-0.503c-0.094,0.023-0.203,0.032-0.329,0.023c-6.337-1.08-12.883-3.7-10.881-11.441
				c2.505-7.516,11.111-7.57,17.376-5.044c1.36-0.41,2.483-0.338,2.849,0.366c0.667,0.113,1.128,0.421,1.095,1.031
				C243.437,191.365,242.023,190.67,240.413,191.035L240.413,191.035z M378.298,219.103c-1.453-6.014-3.157-12.016-6.069-17.494
				c-0.352-0.739-0.744-1.507-1.139-2.244c-0.001-0.001-0.002-0.003-0.002-0.004c-0.096-0.226-0.2-0.442-0.332-0.613
				c-0.001-0.001-0.002-0.002-0.002-0.004c-1.017-1.853-1.977-3.406-2.218-3.683c-0.823-0.807-2.325-4.564-3.57-4.74
				c-0.021-0.035-0.041-0.07-0.061-0.105c-0.936-1.407-1.925-2.775-2.876-4.171c0.244-0.269,0.33-0.672,0.044-1.034
				c-1.366-1.65-2.835-3.211-4.269-4.802c0.262-0.276,0.378-0.725,0.179-1.143c-1.01-4.296,3.729-6.965,7.428-7.148
				c4.039-0.046,7.863,1.964,10.916,4.5c0,0,0,0,0.001,0.001c0.324,0.381,0.642,0.766,0.956,1.155
				c0.119,0.018,0.229,0.03,0.328,0.034c0.218,0.219,0.431,0.444,0.64,0.673c1.348,0.916,1.895-0.99,0.709-1.681
				c-0.443-0.445-0.904-0.877-1.384-1.293c-1.846-2.525-6-6.296-6.494-6.843c-3.187-2.817-5.44-6.962-8.879-9.476
				c0.103-0.521,0.189-1.044,0.261-1.571c0.006-0.051,0.01-0.102,0.016-0.154c-0.021-0.122-0.041-0.244-0.053-0.366
				c-0.338-0.287-0.801-0.517-1.411-0.674c-7.003-5.042-2.453,4.298-17.483,10.289c-0.395,0.159-0.593,0.618-0.472,1.015
				c-4.851-1.592-13.686-3.289-14.905-0.92c-0.762,1.213,0.994,2.253,1.441,1.029c0.076,0.212,0.236,0.394,0.456,0.484
				c2.393,0.966,4.788,1.988,6.923,3.457c11.722,8.557,20.114,21.049,25.615,34.36c3.503,7.152,5.474,14.927,7.239,22.694
				c0.79,4.55,1.778,9.082,2.274,13.675c0.232,5.775-0.389,11.565-1.249,17.269c-0.879,5.017-0.849,10.152-1.955,15.132
				c-2.411,10.014-5.355,20.2-10.782,29.03c-7.361,9.542-16.186,18.166-25.942,25.247c-6.402,4.645-13.622,7.781-20.707,11.2
				c-5.416,2.186-10.884,4.248-16.342,6.321c-2.25,0.769-4.715,1.367-7.084,1.858c-0.164-1.698-2.609-0.765-1.315,1.488
				c-0.003-0.009-0.009-0.025-0.015-0.041c0.798,1.559,0.898,3.226,1.075,4.674c-0.07,0.116-0.111,0.259-0.109,0.43
				c0.008,0.697,0.006,1.393-0.001,2.09c-0.301,0.257-0.4,0.634-0.105,1.208c0.027,0.038,0.057,0.073,0.088,0.103
				c-0.017,1.334-0.034,2.666-0.003,4c0.605,3.047-2.357,13.971,1.154,14.589c15.896,0.387,30.11-7.532,44.833-12.367
				c0.602-0.11,0.98-0.362,1.175-0.648c1.53-0.271,2.658-0.782,2.693-1.683c-0.499-1.276-1.96-0.1-2.895-0.066
				c-5.506,0.811-12.277,0.432-16.447-3.668c-2.321-2.827-1.681-5.649-0.558-7.964c14.158-7.314,27.475-16.395,38.559-27.878
				c4.378-2.907,12.59-16.055,14.11-18.853c4.72-8.748,8.738-17.994,10.459-27.835C383.794,257.115,382.622,237.646,378.298,219.103
				L378.298,219.103z M327.493,405.361c3.1,3.649,4.642,8.772,3.921,13.516c-0.512,2.099-4.011,1.369-5.695,1.965
				c-4.86,0.788-9.801,0.276-14.7,0.429c-5.725,0.252-11.443-0.029-17.166-0.146c-5.646-0.062-11.075,0.512-16.684,0.529
				c-22.409-0.726-44.825-1.179-67.229-1.538c-2.396-0.196-7.547,0.403-7.332-3.134c0.824-3.664,1.104-8.229,4.565-10.458
				c0.459-0.324,1.003-0.09,1.221,0.316c2.728-0.454,6.808-0.136,7.823-0.115c5.29,0.139,10.587,0.168,15.88,0.27
				c11.348,0.425,22.707,0.557,34.063,0.376c6.515-0.061,13.174,0.571,19.609-0.477c-3.212-5.499-9.003-8.569-14.962-10.356
				c-1.328,0.087-1.35-1.85-0.057-1.692c0.917,0.252,1.836,0.537,2.748,0.856c0.109-0.052,0.238-0.081,0.388-0.077
				c2.595-0.147,5.197-0.289,7.764-0.706c1.758-0.453,3.941-0.649,5.225-2.04c0.525-1.942,0.167-6.041,3.435-4.53
				c3.415,1.547,7.226,1.734,10.725,3.027c3.519,1.296,6.975,2.758,10.32,4.456C316.861,398.7,323.481,400.337,327.493,405.361
				L327.493,405.361z M245.854,371.563c0.455,1.443-0.313,3.001-0.196,4.496c0.283,1.826,0.417,3.281-1.975,2.318
				c-7.263-3.06-14.625-5.868-21.836-9.05c-0.905-0.359-1.798-0.745-2.7-1.11c-0.796-0.487-2.237-0.373-2.561-1.364
				c-2.337,0.057-4.887-0.341-6.905-1.55c-0.654-0.698,0.327-1.799,1.093-1.236l-0.001-0.003c3.299,1.415,7.507,1.705,10.658-0.216
				c1.341-1.032,0.885-2.825,3.162-1.623c5.118,2.381,10.306,4.27,15.589,6.151C242.093,369.311,244.435,369.925,245.854,371.563
				L245.854,371.563z M252.757,344.142c1.618,0.945,0.589,2.229-0.167,3.35c-0.959,1.374-1.983,5.117-4.077,4.504
				c-3.223-1.123-5.886-3.484-8.756-5.283c-0.846-0.79-5.096-2.712-4.757-3.656c-1.347-0.028-6.834-1.391-5.98-3.225
				c0.556-0.809,1.363-0.097,1.936,0.274c0.724,0.398,1.48,0.73,2.274,0.957c2.837,0.853,8.001,0.121,7.972-3.586
				c1.057-1.527,2.747,1.178,3.811,1.658C247.44,341.042,250.21,342.427,252.757,344.142L252.757,344.142z M227.207,263.759
				c0.101-0.25,0.29-0.489,0.479-0.682c4.748-5.549-2.156-11.189-6.335-14.465c-0.632-0.686-2.137-1.354-3.011-2.066
				c-0.072-0.045-0.14-0.092-0.202-0.145c-1.187-0.532-0.553-1.721,0.446-1.612c0.099-0.299,0.269-0.585,0.462-0.783
				c1.518-2.171,3.451,0.459,4.834,1.419c1.824,1.324,3.573,2.795,5.267,4.262c3.479,2.598,7.47,4.421,11.406,6.21
				c2.421,0.991,4.751,2.289,7.127,3.346c1.432,0.697,4.187,1.163,3.758,3.281c-1.64,2.823-5.035,9.634-8.786,9.061
				c-5.59-0.427-10.46-3.242-15.013-6.266c-0.01,0.006-0.021,0.011-0.033,0.017C226.702,265.226,226.674,264.276,227.207,263.759
				L227.207,263.759z M358.144,85.61c2.376,5.15-1.047,10.25-4.106,14.252c-0.864,0.917-1.511,3.157-3.107,2.46
				c-2.495-1.783-3.942-4.612-6.069-6.751c-2.333-2.615-5.993-3.505-8.597-5.593c-1.789,0.203-1.691-1.935,0.099-1.712
				c5.626-1.715,8.073-7.536,8.899-12.826C346.551,73.317,357.941,83.667,358.144,85.61z"/>
			<path style="fill-rule:evenodd;clip-rule:evenodd;fill:#A2CFEA;" d="M388.52,240.435c-0.819-1.877-3.088-12.376,1.567-8.39
				c1.417,1.87,1.868,4.452,1.759,6.758C391.984,241.113,389.794,243.532,388.52,240.435L388.52,240.435z M377.949,307.304
				c-0.272-0.004-0.54-0.049-0.805-0.141c-0.18-0.141-0.324-0.3-0.421-0.509c-0.009-0.02-0.017-0.039-0.026-0.059
				c-0.04-0.006-0.077-0.014-0.112-0.026c0.129-0.285,0.258-0.569,0.386-0.854c0.054-0.121,0.109-0.241,0.163-0.361
				c1.137-2.183,2.231-4.393,3.245-6.632c1.07-2.366,1.977-4.8,2.85-7.244c0.837-2.345,1.591-4.717,2.276-7.11
				c0.706-2.462,1.376-4.938,2.001-7.422c0.563-2.235,1.073-4.492,1.429-6.772c0.589-2.472,0.938-4.987,1.172-7.516
				c-0.007,0.084-0.016,0.168-0.023,0.252c0.004-0.035,0.007-0.072,0.01-0.107c0.008-0.085,0.016-0.168,0.023-0.252
				c0.004-0.039,0.007-0.078,0.011-0.117c-0.008,0.084-0.016,0.167-0.024,0.252c0.014-0.146,0.028-0.292,0.041-0.438
				c-0.008,0.084-0.016,0.167-0.023,0.251c0.176-1.881,0.205-3.782,0.216-5.67c0.015-2.519-0.074-5.036-0.246-7.548
				c-0.069-0.989-0.137-1.978-0.212-2.966c0.021-0.012,0.042-0.024,0.064-0.036c0.343-0.173,0.693-0.334,1.051-0.476
				c0.083-0.028,0.165-0.054,0.249-0.077c0.019-0.004,0.036-0.007,0.055-0.01c0.056-0.002,0.112-0.005,0.168-0.006
				c0.051,0.017,0.101,0.035,0.152,0.053c0.098,0.044,0.193,0.091,0.288,0.139c0.199,0.121,0.395,0.247,0.591,0.374
				c0.14,0.114,0.276,0.231,0.41,0.351c0.156,0.246,0.301,0.497,0.44,0.754c0.23,0.456,0.44,0.913,0.628,1.388
				c0.375,1.028,0.703,2.067,0.962,3.13c0.26,1.23,0.431,2.467,0.565,3.717c0.11,1.3,0.176,2.606,0.219,3.909
				c0.039,1.236,0.079,2.474,0.044,3.71c-0.08,1.535-0.256,3.056-0.474,4.577c-0.209,1.463-0.436,2.923-0.683,4.381
				c-0.822,4.576-1.989,9.081-3.37,13.517c-0.508,1.6-1.044,3.191-1.662,4.754c-0.612,1.549-1.285,3.072-1.991,4.581
				c-0.777,1.641-1.599,3.254-2.484,4.84c0,0,0,0,0-0.001c-0.239,0.412-0.478,0.824-0.72,1.235
				c-0.837,1.383-1.696,2.754-2.619,4.082c-1.254,1.257-2.552,2.105-3.779,2.105C377.97,307.305,377.96,307.304,377.949,307.304z"/>
			<path style="fill-rule:evenodd;clip-rule:evenodd;fill:#B6D7A2;" d="M225.718,320.816c0.621,5.568-4.058,14.373-10.46,13.521
				c-7.471-0.817-14.103-4.713-21.049-7.279c-4.353-1.987-8.616-4.273-12.407-7.208c-2.692-2.292-6.868-4.797-9.309-7.839
				c-3.089-3.244-6.089-6.776-8.009-10.795c-0.546-1.881,0.94-3.585,1.701-5.197c0.898-1.759,2.276-3.169,3.831-4.35
				c-0.03-0.22-0.006-0.455,0.087-0.692c0.628-1.655,2.737-1.846,4.26-2.107c4.252-0.816,8.322,0.57,12.138,2.328
				c8.819,3.747,17.346,8.13,25.231,13.593C215.561,308.226,225.231,315.967,225.718,320.816z"/>
			<path style="fill-rule:evenodd;clip-rule:evenodd;fill:#B6D7A2;" d="M182.788,331.801c6.034,3.622,23.607,14.249,14.906,22.17
				c-2.759,1.997-5.791,5.361-9.503,4.595c-11.053-3.699-24.457-11.297-31.529-20.692c-2.954-2.049,2.508-11.45,5.238-12.466
				c3.955-2.053,7.95-1.031,11.574,1.164C176.644,328.192,179.719,329.996,182.788,331.801z"/>
			<path style="fill-rule:evenodd;clip-rule:evenodd;fill:#89A976;" d="M221.191,327.786c1.043,0.145,3.062-1.164,3.093,0.622
				c-0.486,1.311-2.021,1.931-3.051,2.782c-2.565,2.308-5.699,3.074-9.079,2.453c-6.955-0.679-13.289-3.99-19.183-7.547
				c-3.811-1.585-7.312-4.334-10.807-6.608c-4.965-3.059-8.876-7.113-12.377-11.707c-1.51,0.031-3.838-4.901-4.463-6.261
				c-2.542-0.168,1.336-5.159,1.724-6.328c0.417-1.137,1.608-2.077,2.365-0.618c2.306,7.476,8.798,11.866,14.668,16.483
				c7.261,5.345,15.068,9.995,23.331,13.607C211.902,326.025,216.432,327.866,221.191,327.786z"/>
			<path style="fill-rule:evenodd;clip-rule:evenodd;fill:#89A976;" d="M197.903,353.1c0.223,2.056-2.626,2.713-3.973,3.694
				c-1.18,0.784-2.269,1.821-3.807,1.421c-11.138-1.737-21.049-7.857-28.934-15.734c-4.475-4.294-7.327-5.779-2.615-11.631
				c-0.442-1.987,3.009-1.322,1.871,0.278c2.03,4.881,6.233,7.997,10.337,11.048c5.314,4.403,11.764,7.082,18.287,9.125
				c1.949,0.524,3.932,0.978,5.946,1.147C195.969,352.639,197.432,351.918,197.903,353.1z"/>
			<path style="fill-rule:evenodd;clip-rule:evenodd;fill:#DDF3D0;" d="M214.957,326.475c-0.122,0.011-0.255-0.001-0.396-0.043
				c-1.818-0.513-3.873-1.177-5.409-2.342c-0.301,0.377-0.897,0.532-1.289,0.042c-7.11-10.151-14.555-20.088-21.683-30.223
				c-0.522-1.051-3.84-4.181-1.216-4.38c0.458,0.193,0.817,0.783,1.166,1.379c0.881-0.014,2.715,1.05,4.194,1.929
				c0.226-0.45,0.828-0.73,1.307-0.279c0.1,0.113,0.201,0.227,0.3,0.341c0.039-0.035,0.082-0.068,0.131-0.099
				c0.743-0.446,1.194,0.313,1.513,0.872c3.121,4.052,5.88,8.359,8.807,12.548c2.862,4.024,5.852,7.92,8.651,11.968
				c1.17,1.622,2.387,3.213,3.542,4.822c0.706,0.985,1.399,1.978,2.096,2.969c0.409,0.587-0.212,1.443-0.898,1.251
				C215.464,327.03,215.198,326.769,214.957,326.475L214.957,326.475z M196.818,319.271c0.28,0.358,0.831,0.393,1.174,0.11
				c0.063-0.057,0.115-0.114,0.157-0.172c0.606,0.843,1.212,1.686,1.818,2.53c0.426,0.577,1.426,0.255,1.47-0.447
				c0.05-0.461-0.338-0.78-0.564-1.138c-2.278-3.212-4.568-6.416-6.882-9.602c-5.283-7.17-10.273-14.554-15.513-21.756
				c-0.45-0.461-0.953-0.347-1.237-0.02c-0.599-0.279-1.37,0.066-1.204,0.947C182.767,299.682,189.714,309.553,196.818,319.271z"/>
			<path style="fill-rule:evenodd;clip-rule:evenodd;fill:#FED185;" d="M275.112,355.403c3.074,5.421-2.198,13.104-8.366,12.286
				c-12.632-1.271-8.15-15.968-3.609-14.995C266.571,349.943,272.735,352.1,275.112,355.403z"/>
			<path style="fill-rule:evenodd;clip-rule:evenodd;fill:#FED185;" d="M357.23,148.022c0.579,12.258-9.703,21.42-21.792,17.6
				c-4.545-1.14-9.268-3.189-11.616-7.487c-4.208-6.225-3.719-15.817,2.055-20.891C336.429,127.272,355.883,132.979,357.23,148.022z
				"/>
			<path style="fill-rule:evenodd;clip-rule:evenodd;fill:#DC9051;" d="M355.642,141.967c2.229,4.717,1.677,10.262-0.062,15.047
				c-2.774,7.04-10.817,11.513-18.263,10.172c-2.456-0.406-4.779-1.507-6.815-2.918c-0.793-0.711-4.368-2.937-4.466-4.334
				c-1.552-0.6-3.261-1.838-1.874-2.936c1.373-0.51,0.897,2.376,5.717,1.514c3.796-0.836,3.79-3.994,4.799-4.388
				c0.152-0.351,0.511-0.619,0.967-0.62c1.198-0.081,2.468-0.1,3.499-0.805c2.1-1.597,3.194-4.503,2.995-7.099
				c-0.14-0.44-0.036-0.965,0.389-1.207c0.455-0.267,0.929-0.041,1.389,0.071c2.593,0.157,4.939-2.112,5.852-4.396
				c0.213-0.644,0.34-1.321,0.296-2.001c-0.129-0.527,0.082-1.149,0.683-1.226c0.113-0.015,0.226-0.006,0.332,0.023
				c0.291-0.134,0.676-0.088,1.04,0.25C353.206,138.768,354.901,140.045,355.642,141.967z"/>
			<path style="fill-rule:evenodd;clip-rule:evenodd;fill:#DC9051;" d="M273.105,353.953c5.192,5.412,0.39,13.921-6.832,13.127
				c-1.069-0.311-4.91-0.954-4.417-2.457c0.021-0.05,0.047-0.098,0.078-0.142c-1.776-0.357-4.607-1.506-3.003-2.921
				c0.363-0.154,0.834-0.017,1.036,0.327c2.327,1.667,5.962,1.433,7.814-0.845c1.578-1.948,2.597-5.086,1.193-7.319
				c-0.277-0.117-0.416-0.333-0.43-0.568c-0.037-0.043-0.076-0.085-0.117-0.126c-0.673-0.84,0.663-1.878,1.32-1.019
				c0.038,0.043,0.074,0.085,0.111,0.129C270.641,352.141,271.749,352.592,273.105,353.953z"/>
		</g>
		<g>
			<path style="fill-rule:evenodd;clip-rule:evenodd;fill:#3E2C1E;" d="M235.869,187.025c-1.529-0.951,2.199-4.675,2.633-5.97
				c2.065-3.28,4.023-6.626,5.995-9.962c8.587-13.907,17.052-27.891,25.757-41.723c5.243-8.637,10.862-17.046,15.917-25.796
				c1.523-2.026,8.395-16.332,10.385-14.566c0.777,0.719-0.004,1.494-0.497,2.103c-1.14,1.565-2.195,3.2-3.215,4.847
				c-9.046,15.764-18.977,30.987-28.488,46.471c-6.345,10.505-12.951,20.851-19.258,31.378c-1.936,3.324-3.939,6.607-5.981,9.867
				C238.15,184.67,237.522,187.716,235.869,187.025z"/>
			<path style="fill-rule:evenodd;clip-rule:evenodd;fill:#3E2C1E;" d="M254.206,262.065c-14.263-1.989-31.355-12.97-38.975-25.2
				c-4.082-7.34-0.923-15.835,2.414-22.814c1.534-3.516,3.074-7.043,5.293-10.192c0.447-0.635,0.858-1.286,1.189-1.978
				c1.195-1.065,2.285,0.649,1.284,1.676c-3.677,5.203-6.029,11.132-8.455,16.98c-4.674,11.034,0.441,18.462,8.808,25.479
				c7.329,6.018,15.656,11.366,24.984,13.46c14.912,4.827,24.376-10.381,31.341-21.036c1.103-1.003,2.906-5.816,4.429-4.892
				c1.28,1.093-0.788,2.519-1.23,3.598c-1.579,2.321-3.194,4.619-4.732,6.968C274.716,253.064,266.164,263.844,254.206,262.065z"/>
			<path style="fill-rule:evenodd;clip-rule:evenodd;fill:#3E2C1E;" d="M294.687,218.788c-1.494-0.951,2.126-4.775,2.601-6.058
				c2.062-3.332,4.169-6.633,6.344-9.892c7.526-12.051,15.86-23.593,23.037-35.861c1.294-3.32,3.548-1.947,2.453-0.408
				c-6.068,10.507-13.007,20.482-19.639,30.634c-3.186,5.093-6.564,10.063-9.72,15.174c-0.985,1.574-1.981,3.139-2.934,4.732
				C296.307,217.862,295.865,219.435,294.687,218.788z"/>
			<path style="fill-rule:evenodd;clip-rule:evenodd;fill:#3E2C1E;" d="M223.743,202.916c-7.333-7.558,1.075-18.952,10.579-17.116
				c2.168-0.177,2.007,2.826,0.017,1.921c-5.275-1.073-11.451,2.758-11.449,8.441c0.103,1.906,0.652,3.961,2.085,5.302
				C225.92,202.254,224.669,203.731,223.743,202.916z"/>
			<path style="fill-rule:evenodd;clip-rule:evenodd;fill:#3E2C1E;" d="M286.665,235.822c-1.176-0.362-0.607-2.191,0.57-1.817
				c1.702,0.517,3.503-0.124,4.975-0.994c4.441-2.51,6.226-8.773,2.72-12.793c-1.561-1.094-0.199-3.219,1.061-1.68
				C302.729,225.255,295.779,237.756,286.665,235.822z"/>
			<path style="fill-rule:evenodd;clip-rule:evenodd;fill:#3E2C1E;" d="M285.429,235.618
				c-18.179-12.013-36.809-23.968-57.574-30.977c-0.95-0.434-2.255-0.403-2.936-1.252c-0.523-0.94,0.81-1.961,1.566-1.186
				c16.952,5.36,32.509,14.26,47.528,23.628c4.093,2.789,8.251,5.476,12.412,8.163C287.46,234.623,286.484,236.285,285.429,235.618z
				"/>
			<path style="fill-rule:evenodd;clip-rule:evenodd;fill:#3E2C1E;" d="M294.613,220.216c-4.385-3.936-9.553-6.846-14.488-10.021
				c-4.661-2.954-9.368-5.849-14.208-8.502c-9.891-4.644-19.541-9.987-29.882-13.575c-2.506,0.006-1.606-2.78,0.877-1.738
				c7.563,2.652,14.762,6.275,21.947,9.807c3.572,1.712,7.212,3.289,10.627,5.312c8.293,4.975,16.705,9.855,24.465,15.642
				c0.721,0.73,1.9,1.232,2.21,2.246C296.261,220.181,295.223,220.765,294.613,220.216z"/>
			<path style="fill-rule:evenodd;clip-rule:evenodd;fill:#3E2C1E;" d="M337.059,167.34c-18.052-1.762-23.2-25.785-6.59-33.841
				c-0.135,0.049-0.259,0.122-0.36,0.226c0.23-0.217,0.541-0.312,0.836-0.264c10.359-4.841,24.5,0.932,26.926,12.479
				C361.055,158.494,349.324,169.226,337.059,167.34L337.059,167.34z M339.647,165.572c10.5,0.498,19.435-9.676,16.172-20.001
				c-1.739-6.619-8.311-11.169-14.924-11.897c-3.35-0.472-6.608,0.775-9.751,1.602c-15.923,8.224-8.799,30.867,8.626,30.295
				C339.771,165.57,339.648,165.572,339.647,165.572z"/>
			<path style="fill-rule:evenodd;clip-rule:evenodd;fill:#3E2C1E;" d="M338.921,156.779c-11.348-1.374-6.375-15.8,3.426-13.631
				C350.412,146.557,347.602,157.18,338.921,156.779L338.921,156.779z M339.349,154.882c8.836-0.122,6.849-12.057-0.757-9.687
				C332.862,147.018,332.563,154.471,339.349,154.882z"/>
			<path style="fill-rule:evenodd;clip-rule:evenodd;fill:#3E2C1E;" d="M328.64,165.808c-1.156-0.795,0.393-2.867,1.512-2.081
				C331.327,164.503,329.692,166.501,328.64,165.808z"/>
			<path style="fill-rule:evenodd;clip-rule:evenodd;fill:#3E2C1E;" d="M347.916,134.762c-0.155-1.289,1.059-2.369,1.562-3.495
				c3.052-5.573,7.653-11.185,6.5-17.91c-0.94-5.97-5.632-10.356-9.617-14.543c-7.76-8.048-18.507-12.974-29.492-14.612
				c-5.52-0.597-11.357,0.047-16.196,2.927c-1.341,0.37-3.489,3.454-4.561,2.243c-1.119-1.789,3.493-3.629,4.665-4.464
				c4.354-2.344,9.417-2.987,14.303-2.774c12.189,1.137,24.184,6.619,32.725,15.436c7.029,6.579,13.743,15.903,8.342,25.594
				c-1.796,3.774-4.026,7.311-6.111,10.925C349.771,135.22,348.696,136.135,347.916,134.762z"/>
			<path style="fill-rule:evenodd;clip-rule:evenodd;fill:#3E2C1E;" d="M318.705,84.555c-1.437-0.628-0.084-2.182,0.404-3.044
				c1.554-2.429,3.081-4.884,4.748-7.238c0.681-0.744,1.096-1.924,2.045-2.334c0.786-0.193,1.475,0.798,0.984,1.459
				c-2.343,3.029-4.364,6.293-6.412,9.525C319.987,83.565,319.781,84.891,318.705,84.555z"/>
			<path style="fill-rule:evenodd;clip-rule:evenodd;fill:#3E2C1E;" d="M351.995,103.553c-0.444-0.271-0.587-0.866-0.317-1.31
				c1.996-3.278,3.97-6.567,5.866-9.904c0.486-0.747,0.952-2.313,2.111-1.691c0.442,0.27,0.589,0.867,0.317,1.309
				c-1.845,3.177-3.667,6.368-5.589,9.501C353.751,102.24,353.32,104.207,351.995,103.553z"/>
			<path style="fill-rule:evenodd;clip-rule:evenodd;fill:#3E2C1E;" d="M358.873,92.079c-1.672-0.223,0.229-3.267-1.538-6.367
				c-4.704-8.397-17.127-13.223-26.379-13.638c-1.252,0.062-2.536,0.273-3.653,0.866c-0.31,0.45-0.884,0.715-1.393,0.397
				c-1.35-1.096,0.613-2.355,1.688-2.59c9.218-2.535,26.281,5.054,31.04,13.331C359.62,85.412,361.423,91.994,358.873,92.079z"/>
			<path style="fill-rule:evenodd;clip-rule:evenodd;fill:#3E2C1E;" d="M342.373,73.136c-1.549-0.895,2.038-4.766,2.562-5.953
				c1.036-1.551,2.087-3.092,3.086-4.668c2.995-4.748,5.88-9.565,8.912-14.29c0.995-1.245,1.537-3.093,2.916-3.924
				c0.945-0.239,1.597,1.034,0.839,1.654c-0.616,0.866-1.16,1.766-1.739,2.656c-1.615,2.491-3.174,5.015-4.728,7.545
				c-2.75,4.49-5.558,8.941-8.501,13.306C344.822,70.343,343.801,74.02,342.373,73.136z"/>
			<path style="fill-rule:evenodd;clip-rule:evenodd;fill:#3E2C1E;" d="M355.364,81.679c-0.432-0.263-0.603-0.875-0.317-1.31
				c0.947-1.439,1.934-2.852,2.884-4.288c1.039-1.572,2.062-3.155,3.106-4.724c4.102-6.2,7.888-12.602,11.694-18.985
				c0.627-1.048,2.282-0.062,1.626,0.992c-2.946,4.946-5.883,9.899-8.963,14.763c-1.964,3.128-4.043,6.18-6.055,9.277
				C358.449,78.297,356.672,82.632,355.364,81.679z"/>
			<path style="fill-rule:evenodd;clip-rule:evenodd;fill:#3E2C1E;" d="M372.964,54.015c-1.452-0.131-0.702-1.861-0.984-2.806
				c-0.753-4.526-6.163-6.175-10.173-5.481c-0.564,0.04-1.081,0.501-1.637,0.147c-0.43-0.262-0.605-0.877-0.317-1.31
				c3.895-2.388,11.615-0.072,13.358,4.313C373.718,50.045,374.887,53.771,372.964,54.015L372.964,54.015z M361.131,45.884
				c0.071-0.035,0.135-0.086,0.195-0.137c-0.001,0.001-0.002,0.001-0.003,0.002c0.029-0.031,0.058-0.061,0.086-0.092
				c-0.001,0.001-0.001,0.001-0.001,0.002c0.015-0.021,0.03-0.042,0.044-0.063C361.365,45.716,361.254,45.814,361.131,45.884z"/>
			<path style="fill-rule:evenodd;clip-rule:evenodd;fill:#3E2C1E;" d="M367.643,61.058c-1.248-3.683-4.822-6.289-8.529-7.129
				c-0.753-0.16-1.518-0.282-2.29-0.25c-0.39,0.087-0.836,0.09-1.123-0.241c-0.53-0.552-0.179-1.508,0.58-1.612
				c5.499-0.353,11.295,3.322,13.14,8.551C369.877,61.521,368.056,62.219,367.643,61.058L367.643,61.058z M356.779,53.653
				c0.026-0.012,0.052-0.023,0.078-0.035c-0.001,0-0.002,0.001-0.002,0.001c0.001,0,0.002-0.001,0.002-0.002
				c0.002-0.001,0.005-0.002,0.007-0.003c-0.002,0.001-0.004,0.002-0.007,0.003c0.031-0.02,0.063-0.04,0.094-0.059
				c0.032-0.026,0.064-0.053,0.096-0.079c-0.001,0-0.001,0-0.001,0C356.964,53.55,356.874,53.609,356.779,53.653z"/>
			<path style="fill-rule:evenodd;clip-rule:evenodd;fill:#3E2C1E;" d="M213.338,252.984c-0.455-0.206-0.712-0.798-0.474-1.26
				c1.764-3.643,3.986-7.025,5.984-10.538c0.434-1.087,2.141-0.483,1.792,0.641c-0.651,1.34-1.481,2.6-2.238,3.888
				c-0.831,1.364-1.661,2.725-2.422,4.129C215.167,250.805,214.976,253.41,213.338,252.984z"/>
			<path style="fill-rule:evenodd;clip-rule:evenodd;fill:#3E2C1E;" d="M245.008,272.129c-1.12-1.264,1.219-2.545,1.674-3.618
				c0.908-1.254,1.724-2.564,2.557-3.868c0.904-1.2,1.493-2.792,2.709-3.688c0.936-0.374,1.732,0.925,0.98,1.585
				C251.551,263.891,246.778,273.714,245.008,272.129z"/>
			<path style="fill-rule:evenodd;clip-rule:evenodd;fill:#3E2C1E;" d="M243.682,272.497c-5.651-0.106-10.634-3.101-15.458-5.738
				c-5.884-3.42-11.659-7.447-15.126-13.457c-1.367-1.62,1.053-2.697,1.755-0.783c5.188,8.332,14.421,13.09,23.125,16.931
				c2.275,0.885,4.763,1.278,7.197,1.097c0.516-0.049,0.989,0.34,1.039,0.857C246.26,272.74,244.587,272.482,243.682,272.497z"/>
			<path style="fill-rule:evenodd;clip-rule:evenodd;fill:#3E2C1E;" d="M213.1,267.982c-1.343-1.029,1.195-3.329,1.552-4.559
				c0.815-1.538,1.591-3.095,2.32-4.676c0.069-0.661,0.893-1.052,1.45-0.676c1.337,1.007-1.052,3.686-1.413,4.952
				C216.219,264.039,214.572,269.028,213.1,267.982z"/>
			<path style="fill-rule:evenodd;clip-rule:evenodd;fill:#3E2C1E;" d="M229.913,278.541c-1.329-1.099,2.249-3.728,2.843-4.877
				c1.116-1.087,1.743-2.878,3.112-3.606c1.016-0.259,1.62,1.213,0.712,1.74c-0.847,1.158-1.706,2.306-2.626,3.408
				C232.916,276.02,231.358,279.556,229.913,278.541z"/>
			<path style="fill-rule:evenodd;clip-rule:evenodd;fill:#3E2C1E;" d="M228.779,279.258c-5.166-0.014-11.026-3.94-14.091-7.948
				c-0.594-1.207-2.702-3.124-1.509-4.399c0.858-0.563,1.534,0.319,1.696,1.108c0.761,1.332,1.576,2.678,2.649,3.785
				c2.89,2.333,6.073,4.978,9.875,5.443c0.96,0.084,1.932,0.193,2.893,0.068C231.974,277.459,231.814,279.727,228.779,279.258z"/>
			<path style="fill-rule:evenodd;clip-rule:evenodd;fill:#3E2C1E;" d="M286.225,359.297c-0.167-1.79,3.398-1.253,4.594-1.732
				c6.025-1.039,12.038-2.328,17.834-4.294c19.596-7.957,38.87-19.098,51.86-36.149c15.418-17.734,22.576-41.596,21.325-64.88
				c-0.742-13.85-1.807-27.987-6.075-41.254c-2.751-7.992-6.972-15.239-11.815-22.118c-5.562-8.82-13.239-16.385-22.186-21.513
				c-0.784-4.2,6.075,1.904,7.248,2.473c11.468,8.677,19.641,21.179,25.894,33.966c5.697,12.089,6.98,25.578,8.264,38.717
				c2.158,20.842-0.454,42.517-10.842,60.984c-5.056,9.132-11.963,17.144-19.024,24.773c-8.588,8.019-18.591,14.471-28.967,19.93
				c-8.526,4.584-17.518,8.277-27.058,10.092C295.447,358.394,286.158,361.17,286.225,359.297z"/>
			<path style="fill-rule:evenodd;clip-rule:evenodd;fill:#3E2C1E;" d="M287.397,377.618c-0.13-1.645,4.496-1.164,5.595-1.571
				c3.827-0.582,7.755-0.927,11.493-1.944c17.39-4.735,34.189-12.357,48.601-23.25c19.97-15.292,36.023-36.503,43.028-60.834
				c7.432-26.123,6.142-54.435-1.449-80.372c-5.558-17.965-16.861-33.502-29.275-47.372c-2.078-1.997-4.247-3.895-6.325-5.893
				c-0.602-0.753-1.739-1.26-1.771-2.31c0.042-0.562,0.616-1.015,1.178-0.87c0.571,0.092,0.709,0.677,1.087,1.01
				c6.555,5.831,12.566,12.18,17.612,19.381c8.162,10.558,15.144,22.057,19.11,34.873c7.676,25.702,9.201,53.834,2.25,79.863
				c-5.001,19.591-16.299,37.27-30.207,51.767c-14.434,14.5-32.135,25.184-51.326,32.134c-7.529,2.767-15.331,4.775-23.315,5.643
				C292.133,377.801,287.558,379.451,287.397,377.618z"/>
			<path style="fill-rule:evenodd;clip-rule:evenodd;fill:#3E2C1E;" d="M286.12,348.561c-0.457-1.668,4.387-1.983,5.557-2.558
				c4.296-1.216,8.559-2.556,12.794-3.968c17.401-6.267,33.893-15.573,45.925-29.871c8.373-10.625,15.011-22.953,17.233-36.398
				c4.815-22.933,4.255-47.942-5.458-69.547c-4.867-11.163-11.597-21.708-20.597-29.989c-3.806-3.234-8.123-5.811-12.866-7.321
				c-0.431,0.117-0.951-0.14-1.112-0.565c-0.377-3.337,5.497,0.403,6.804,0.847c12.695,6.524,20.925,19.2,27.344,31.531
				c10.099,19.678,12.355,42.571,9.699,64.319c-1.787,12.67-4.505,25.465-11.485,36.392c-10.429,18.982-28.853,32.27-48.779,39.964
				c-5.313,2.411-10.931,4.009-16.494,5.727c-2.458,0.721-4.939,1.365-7.393,2.1C286.804,349.368,286.255,349.06,286.12,348.561z"/>
			<path style="fill-rule:evenodd;clip-rule:evenodd;fill:#3E2C1E;" d="M245.624,393.087c-0.816-14.663-1.806-35.671,7.362-48.033
				c3.598-4.851,9.288-7.451,15.283-7.398c4.434-0.121,9.186,0.306,12.803,3.131c9.107,6.932,7.24,21.577,7.719,31.863
				c0.037,3.792-0.075,7.581-0.165,11.372c-0.029,1.908-0.037,3.819-0.041,5.728c-0.03,0.909,0.199,2.51-1.137,2.414
				c-1.419-0.339-0.568-2.234-0.766-3.273c0.007-2.659,0.033-5.318,0.112-7.976c0.17-7.443,0.185-15.065-0.346-22.467
				c-0.384-5.552-1.277-11.713-5.771-15.51c-4.564-4.077-11.372-3.749-17.029-2.828c-10.927,2.65-14.567,15.217-15.745,25.081
				c-0.949,6.133-0.884,12.342-0.774,18.53c0.032,1.813,0.068,3.625,0.132,5.437C247.228,390.461,247.993,394.337,245.624,393.087z"
				/>
			<path style="fill-rule:evenodd;clip-rule:evenodd;fill:#3E2C1E;" d="M267.535,396.386c-4.256-0.104-19.976-0.223-22.184-3.466
				c-0.008-1.509,1.407-1.063,2.277-0.57c2.259,0.694,4.365,1.067,6.624,1.386c6.552,0.74,13.156,0.899,19.742,0.634
				c4.26-0.323,8.742-0.226,12.769-1.79c-0.217-1.411,1.777-1.838,1.928-0.357C289.426,396.923,270.965,396.142,267.535,396.386z"/>
			<path style="fill-rule:evenodd;clip-rule:evenodd;fill:#3E2C1E;" d="M201.107,419.945c-0.286-8.484,2.382-14.816,10.097-18.895
				c10.057-6.684,21.731-10.164,33.068-14.019c0.654-0.152,1.316-0.568,1.997-0.382c0.648,0.208,0.821,1.136,0.325,1.581
				c-1.805,0.805-3.909,1.202-5.793,1.949c-9.16,3.288-18.643,6.088-26.868,11.431c-4.229,2.433-8.724,5.324-10.037,10.34
				c-0.809,2.569-0.796,5.291-0.888,7.957C203.041,421.094,201.121,421.152,201.107,419.945z"/>
			<path style="fill-rule:evenodd;clip-rule:evenodd;fill:#3E2C1E;" d="M331.369,420.229c-1.706-0.119-0.612-3.306-0.945-4.506
				c-0.177-3.712-1.386-7.471-3.812-10.3c-3.327-3.753-8.352-5.318-12.749-7.457c-5.836-2.778-11.785-5.456-17.941-7.433
				c-2.62-1.018-5.492-1.362-8.064-2.453c-0.419-0.305-0.477-0.938-0.167-1.337c0.685-0.932,3.138,0.562,4.225,0.596
				c11.323,3.229,22.134,8.227,32.509,13.738c5.103,3.045,7.726,9.02,7.91,14.807C332.159,417.089,333.038,420.054,331.369,420.229z
				"/>
			<path style="fill-rule:evenodd;clip-rule:evenodd;fill:#3E2C1E;" d="M369.31,440.652c-1.484-6.386-0.9-15.48-9.007-17.259
				c-7.013-1.92-14.233-1.792-21.391-1.879c-6.17,0.023-12.34-0.041-18.509,0.107c-14.931,0.706-29.868,0.685-44.812,0.773
				c-29.951,0.019-59.901-2.991-89.847-1.326c-6.03,0.398-12.147,0.495-18.102,1.541c-2.994,0.497-5.371,2.731-6.783,5.33
				c-0.985,2.411-0.98,5.104-1.326,7.658c-0.077,1.017-0.252,2.061-0.026,3.069c0.504,0.661-0.254,1.661-1.024,1.43
				c-2.277-0.369-0.057-10.709,0.383-12.324c1.797-4.401,6.109-7.188,10.803-7.429c6.105-0.724,12.254-0.942,18.386-1.315
				c29.717-1.379,59.44,1.582,89.143,1.451c12.789-0.171,25.584,0.105,38.359-0.622c10.289-0.312,20.596-0.353,30.887-0.125
				c8.143,0.54,19.951,0.197,22.674,9.806c1.056,3.362,1.206,6.921,1.929,10.332C371.494,440.98,369.857,441.789,369.31,440.652
				L369.31,440.652z M159.449,438.587c-0.114-0.153-0.273-0.264-0.453-0.322C159.179,438.329,159.335,438.443,159.449,438.587z"/>
			<path style="fill-rule:evenodd;clip-rule:evenodd;fill:#3E2C1E;" d="M333.66,442.633c-21.634-0.631-43.264-0.588-64.901-0.268
				c-19.171-0.004-38.321-0.88-57.493-1.095c-15.155-0.379-30.307,0.166-45.455,0.08c-2.481-0.347-5.445,0.337-7.633-0.944
				c-0.788-1.018,0.68-2.5,1.541-1.328c6.793,0.594,13.626,0.572,20.432,0.226c8.739-0.279,17.484,0.084,26.226-0.01
				c21.29,0.157,42.555,1.228,63.842,1.142c21.626-0.339,43.24-0.263,64.863,0.296c8.505,0.062,17.006-0.27,25.509-0.243
				c1.89,0.007,3.779-0.011,5.669-0.045c1.375,0.263,3.925-0.847,4.296,0.905c0.002,0.524-0.43,0.949-0.948,0.958
				c-3.542,0.054-7.082,0.117-10.624,0.078C350.542,442.439,342.103,442.704,333.66,442.633z"/>
			<path style="fill-rule:evenodd;clip-rule:evenodd;fill:#3E2C1E;" d="M328.563,408.289c-26.051-0.774-52.161,0.326-78.233-0.057
				c-14.137,0.137-28.238-1.03-42.374-0.789c-1-0.154-2.57,0.363-3.025-0.804c-0.187-0.777,0.549-1.394,1.298-1.157
				c31,0.58,62.008,1.267,93.026,0.699c7.525-0.034,15.051-0.06,22.576-0.07c1.651,0.25,8.029-0.65,7.804,1.365
				C329.565,408.005,329.071,408.34,328.563,408.289z"/>
			<path style="fill-rule:evenodd;clip-rule:evenodd;fill:#3E2C1E;" d="M267.233,368.299c-6.03,0.065-12.213-5.403-8.972-11.588
				c1.153-1.944,3.614-5.983,6.211-5.354c4.232-1.46,9.412,0.872,11.584,4.672C278.195,361.56,273.268,368.725,267.233,368.299
				L267.233,368.299z M267.9,366.406c4.321-0.171,7.497-5.046,6.593-9.121c-1.101-2.69-4.446-4.314-7.231-4.501
				c-1.323-0.14-2.615,0.92-3.854,0.619C256.318,358.783,259.142,366.431,267.9,366.406z"/>
			<path style="fill-rule:evenodd;clip-rule:evenodd;fill:#3E2C1E;" d="M219.179,328.197c-13.792-1.18-35.329-14.013-44.804-24.091
				c-2.576-2.991-8.309-8.694-5.9-12.802c0,0-0.004-0.006-0.004-0.006c9.372-12.161,41.364,10.522,49.633,18.165
				c3.57,3.205,7.808,6.676,8.662,11.657C227.321,325.37,223.315,328.86,219.179,328.197L219.179,328.197z M220.957,326.275
				c11.708-4.162-5.452-16.484-9.876-20.141c-7.19-5.675-34.096-23.523-41.318-13.381
				C171.671,306.433,207.744,327.022,220.957,326.275z"/>
			<path style="fill-rule:evenodd;clip-rule:evenodd;fill:#3E2C1E;" d="M163.605,301.149c-1.566-1.458,3.426-7.83,4.379-9.516
				c0.708-1.005,2.278,0.108,1.55,1.107c-0.63,0.84-1.177,1.734-1.721,2.631c-0.868,1.409-1.736,2.769-2.412,4.272
				C165.175,300.488,164.718,301.847,163.605,301.149z"/>
			<path style="fill-rule:evenodd;clip-rule:evenodd;fill:#3E2C1E;" d="M214.18,334.713c-17.689-3.323-34.57-12.342-46.147-26.271
				c-1.777-2.322-4.04-4.753-4.699-7.623c0.166-0.815,1.317-1.005,1.745-0.288c1.117,2.453,2.69,4.664,4.434,6.709
				c9.898,12.058,23.864,19.948,38.707,24.202c2.746,0.658,5.575,1.745,8.432,1.324c3.759-1.352,6.517-4.665,7.863-8.356
				c0.398-1.162,2.238-0.497,1.79,0.655C224.462,329.963,219.911,335.389,214.18,334.713z"/>
			<path style="fill-rule:evenodd;clip-rule:evenodd;fill:#3E2C1E;" d="M248.568,353.778c-10.176-6.177-20.249-12.937-29.662-20.096
				c-0.293-0.918,0.916-1.651,1.586-0.951c6.532,4.405,12.86,9.11,19.478,13.389c3.122,2.216,6.431,4.131,9.705,6.107
				C250.682,352.914,249.573,354.513,248.568,353.778z"/>
			<path style="fill-rule:evenodd;clip-rule:evenodd;fill:#3E2C1E;" d="M253.232,345.333c-9.643-6.01-19.617-11.717-28.319-19.013
				c-0.654-1.085,1.049-2.068,1.66-0.948c5.569,4.226,11.359,8.211,17.248,11.987c3.501,2.15,7.061,4.203,10.518,6.424
				C255.345,344.478,254.238,346.056,253.232,345.333z"/>
			<path style="fill-rule:evenodd;clip-rule:evenodd;fill:#3E2C1E;" d="M193.528,352.723c-8.144-0.846-15.678-4.755-22.373-9.278
				c-4.505-3.278-9.251-6.958-11.753-12.055c-3.368-8.868,9.713-9.351,14.766-5.746c8.384,4.558,16.952,9.419,23.661,16.295
				C203.444,347.738,202.582,353.589,193.528,352.723L193.528,352.723z M196.469,350.807c7.249-0.814-0.522-8.358-3.072-10.525
				c-6.682-5.292-13.914-9.89-21.558-13.663c-3.32-1.488-8.55-2.328-10.896,1.137c-0.981,3.959,3.431,7.186,5.854,9.805
				c4.676,4.26,10.199,7.669,15.964,10.206c-0.018-0.008-0.031-0.014-0.047-0.021C187.038,349.589,191.705,351.186,196.469,350.807z
				"/>
			<path style="fill-rule:evenodd;clip-rule:evenodd;fill:#3E2C1E;" d="M155.33,337.306c-2.299-1.124,0.591-3.977,1.228-5.453
				c1.045-1.054,2.343-6.14,3.915-5.285c1.853,1.129-3.607,7.587-4.067,9.439C156.728,336.664,156.043,337.504,155.33,337.306z"/>
			<path style="fill-rule:evenodd;clip-rule:evenodd;fill:#3E2C1E;" d="M189.677,359.523c-11.262-1.909-25.656-10.368-32.65-19.429
				c-4.726-5.406-0.192-6.046-0.299-3.863c5.771,10.034,23.038,20.383,34.462,21.514c3.042-0.594,5.08-3.859,6.847-6.212
				c0.408-0.689,0.803-1.91,1.832-1.405c1.674,1.248-1.927,4.541-2.747,5.704C195.168,357.919,192.806,360.353,189.677,359.523z"/>
			<path style="fill-rule:evenodd;clip-rule:evenodd;fill:#3E2C1E;" d="M246.655,372.483c-15.814-6.112-31.357-12.981-46.861-19.792
				c-1.612-0.208-0.736-2.552,0.683-1.781c11.648,4.879,23.021,10.444,34.816,14.983c4.015,1.57,8.049,3.09,12.007,4.797
				C248.449,371.084,247.814,372.933,246.655,372.483L246.655,372.483z M200.334,352.554c0.135-0.066,0.241-0.181,0.321-0.306
				C200.57,352.375,200.459,352.479,200.334,352.554z"/>
			<path style="fill-rule:evenodd;clip-rule:evenodd;fill:#3E2C1E;" d="M245.348,380.395c-16.953-7.372-34.74-12.907-50.868-22.077
				c-1-0.615-0.119-2.227,0.943-1.66c0.383,0.247,0.794,0.447,1.196,0.663c11.855,6.574,24.557,11.357,37.185,16.201
				c4.093,1.621,8.1,3.453,12.188,5.081C247.141,379.008,246.51,380.833,245.348,380.395z"/>
			<path style="fill-rule:evenodd;clip-rule:evenodd;fill:#3E2C1E;" d="M406.352,283.261c-1.635-0.081,0.664-6.436,0.537-7.853
				c0.636-4.782,1.127-9.587,1.529-14.394c0.886-12.156-0.625-24.384-3.795-36.127c-0.333-1.168,1.521-1.713,1.837-0.507
				c3.758,13.751,5.087,28.17,3.343,42.342C409.325,268.809,408.654,284.277,406.352,283.261z"/>
			<path style="fill-rule:evenodd;clip-rule:evenodd;fill:#3E2C1E;" d="M400.418,301.099c-1.193-0.743,0.12-2.054,0.403-2.974
				c0.556-1.296,1.02-2.624,1.459-3.963c0.773-1.253,1.145-6.649,2.926-6.019c0.487,0.176,0.75,0.731,0.573,1.219
				C404.93,291.151,402.688,302.155,400.418,301.099z"/>
			<path style="fill-rule:evenodd;clip-rule:evenodd;fill:#3E2C1E;" d="M283.049,210.471c0.296-1.837,1.797-3.331,2.705-4.926
				c1.028-0.924,3.744-7.572,5.018-4.509c-0.885,2.518-3.062,4.622-4.381,6.995C285.582,208.945,284.316,213.087,283.049,210.471
				L283.049,210.471z M284.917,210.524c0.025-0.09,0.03-0.185,0.022-0.278C284.944,210.341,284.936,210.435,284.917,210.524z"/>
			<path style="fill-rule:evenodd;clip-rule:evenodd;fill:#3E2C1E;" d="M288.305,214.025c-1.133-1.062,0.729-2.34,1.142-3.361
				c0.721-0.787,1.142-2.906,2.533-2.316c1.321,0.946-0.505,2.35-0.932,3.342C290.304,212.509,289.743,214.826,288.305,214.025z"/>
			<path style="fill-rule:evenodd;clip-rule:evenodd;fill:#3E2C1E;" d="M268.182,234.498c-1.77-0.88,2.86-5.723,3.471-7.033
				c0.722-0.996,2.274,0.143,1.533,1.131C272.005,229.669,269.428,235.557,268.182,234.498z"/>
			<path style="fill-rule:evenodd;clip-rule:evenodd;fill:#3E2C1E;" d="M276.427,232.116c-0.013-0.969,0.651-2.92,1.921-2.323
				c0.933,0.535,0.231,1.468-0.028,2.179C278.344,233.112,276.581,233.258,276.427,232.116z"/>
			<path style="fill-rule:evenodd;clip-rule:evenodd;fill:#3E2C1E;" d="M363.758,80.289c-1.587-0.824,0.309-2.622,0.778-3.65
				c1.589-2.552,3.168-5.109,4.726-7.681c0.993-1.023,1.944-4.964,3.573-4.346c0.446,0.224,0.68,0.827,0.424,1.279
				c-1.99,3.511-4.126,6.937-6.245,10.371C366.077,77.193,365.157,80.723,363.758,80.289z"/>
			<path style="fill-rule:evenodd;clip-rule:evenodd;fill:#3E2C1E;" d="M350.219,140.784c-0.806-0.234-0.951-1.423-0.173-1.793
				c0.81-0.041,1.52-0.726,2.332-0.561c0.772,0.234,0.862,1.426,0.113,1.752C351.767,140.434,351.012,141.001,350.219,140.784z"/>
			<path style="fill-rule:evenodd;clip-rule:evenodd;fill:#3E2C1E;" d="M353.621,145.642c-3.195-1.048,3.109-4.531,2.355-1.303
				c-0.297,0.542-1.001,0.599-1.479,0.927C354.238,145.458,353.976,145.683,353.621,145.642z"/>
			<path style="fill-rule:evenodd;clip-rule:evenodd;fill:#3E2C1E;" d="M356.379,151.817c-0.766-0.238-2.065-0.134-2.016-1.259
				c0.117-1.256,1.583-0.828,2.399-0.607C357.971,150.195,357.579,152.084,356.379,151.817z"/>
			<path style="fill-rule:evenodd;clip-rule:evenodd;fill:#3E2C1E;" d="M354.698,158.366c-0.723-0.467-1.646,0.152-2.244-0.479
				c-0.457-0.511-0.205-1.365,0.44-1.569C355.992,155.592,357.055,158.498,354.698,158.366z"/>
			<path style="fill-rule:evenodd;clip-rule:evenodd;fill:#3E2C1E;" d="M349.039,162.854c-0.468-0.78-1.357-2.195,0.008-2.583
				c1.044-0.191,1.236,1.078,1.696,1.732C351.305,163.095,349.597,163.962,349.039,162.854z"/>
			<path style="fill-rule:evenodd;clip-rule:evenodd;fill:#3E2C1E;" d="M342.379,165.919c-0.449-1.891,1.6-3.078,2.021-1.057
				c-0.215,0.713,0.059,1.861-1.003,1.941C342.896,166.838,342.394,166.439,342.379,165.919z"/>
			<path style="fill-rule:evenodd;clip-rule:evenodd;fill:#3E2C1E;" d="M337.188,166.664c-1.28-0.521-0.322-2.39,0.579-2.816
				c1.195-0.459,2.072,1.313,0.813,1.813C338.388,166.278,337.907,166.927,337.188,166.664z"/>
			<path style="fill-rule:evenodd;clip-rule:evenodd;fill:#3E2C1E;" d="M331.524,165.275c-1.109-0.695,0.595-3.502,1.703-3.225
				c0.895,0.141,1.126,1.469,0.27,1.833C333.101,164.62,332.557,165.921,331.524,165.275z"/>
			<path style="fill-rule:evenodd;clip-rule:evenodd;fill:#3E2C1E;" d="M326.619,161.347c-1.202-1.438,3.399-4.23,3.504-1.755
				c-0.02,0.813-0.869,0.77-1.342,1.168C328.184,161.258,327.351,162.152,326.619,161.347z"/>
			<path style="fill-rule:evenodd;clip-rule:evenodd;fill:#3E2C1E;" d="M322.506,154.975c-0.685-0.426-0.466-1.597,0.341-1.723
				c1.017,0.043,2.585-1.051,3.15,0.225C326.468,154.994,323.431,155.289,322.506,154.975z"/>
			<path style="fill-rule:evenodd;clip-rule:evenodd;fill:#3E2C1E;" d="M322.954,148.564c-0.836-0.106-2.309,0.064-2.275-1.15
				c0.033-0.501,0.497-0.943,1.013-0.887c0.838,0.142,2.309-0.087,2.276,1.148C323.935,148.195,323.468,148.599,322.954,148.564z"/>
			<path style="fill-rule:evenodd;clip-rule:evenodd;fill:#3E2C1E;" d="M325.489,142.36c-0.729-0.48-1.951-1.394-1.032-2.28
				c0.876-0.732,1.593,0.427,2.292,0.852C327.683,141.736,326.409,143.18,325.489,142.36z"/>
			<path style="fill-rule:evenodd;clip-rule:evenodd;fill:#3E2C1E;" d="M331.692,137.988c-0.743-0.482-1.024-1.792-0.679-2.576
				c0.826-1.037,1.924,0.015,1.849,1.069C333.623,137.245,332.62,138.501,331.692,137.988z"/>
			<path style="fill-rule:evenodd;clip-rule:evenodd;fill:#3E2C1E;" d="M339.392,135.063c-0.16-0.927-0.046-2.881,1.287-2.702
				c1.096,0.249,0.663,1.397,0.539,2.172C341.503,135.664,339.765,136.18,339.392,135.063z"/>
			<path style="fill-rule:evenodd;clip-rule:evenodd;fill:#3E2C1E;" d="M346.392,137.217c-0.391-0.346-0.408-0.909-0.109-1.312
				c-0.067,0.088-0.017,0.01-0.107,0.163c0.697-2.433,2.721-2.074,2.3-0.358C348.081,136.53,347.526,138.083,346.392,137.217z"/>
			<path style="fill-rule:evenodd;clip-rule:evenodd;fill:#3E2C1E;" d="M264.107,127.999c-1.52-0.921,2.055-4.978,2.606-6.218
				c3.445-5.127,7.001-10.187,10.172-15.49c0.941-0.989,1.596-4.496,3.272-3.771c0.456,0.273,0.578,0.853,0.327,1.307
				c-0.993,1.787-2.01,3.56-3.086,5.3c-3.246,5.21-6.829,10.202-10.157,15.357C266.271,125.468,265.861,128.646,264.107,127.999z"/>
			<path style="fill-rule:evenodd;clip-rule:evenodd;fill:#3E2C1E;" d="M283.452,98.652c-1.561-0.216-0.75-1.707-0.093-2.395
				c1.053-0.976,2.335-4.938,3.944-4.204c0.423,0.255,0.621,0.88,0.326,1.308C286.306,94.822,285.219,97.979,283.452,98.652z"/>
			<path style="fill-rule:evenodd;clip-rule:evenodd;fill:#3E2C1E;" d="M295.431,377.613c-0.49-0.066-0.916-0.564-0.814-1.072
				c0.431-2.346,0.883-4.715,0.895-7.107c-0.01-1.23,1.915-1.235,1.905,0C297.252,370.826,297.257,377.956,295.431,377.613z"/>
			<path style="fill-rule:evenodd;clip-rule:evenodd;fill:#3E2C1E;" d="M302.735,376.686c-1.696-0.371-0.119-3.546-0.362-4.772
				c0.032-0.827-0.025-2.189,1.161-2.068c0.71,0.092,0.914,0.819,0.784,1.432C303.965,372.663,304.644,376.616,302.735,376.686z"/>
			<path style="fill-rule:evenodd;clip-rule:evenodd;fill:#3E2C1E;" d="M214.305,301.074c-2.203-1.261-3.969-3.437-6.184-4.811
				c-4.175-2.955-8.798-5.376-13.706-6.847c-1.707,0.115-2.466-1.862-0.546-2.024c1.899,0.273,3.687,1.047,5.451,1.771
				c3.745,1.631,7.347,3.602,10.612,6.066C210.859,296.221,217.77,300.246,214.305,301.074z"/>
			<path style="fill-rule:evenodd;clip-rule:evenodd;fill:#3E2C1E;" d="M221.361,307.994c-0.506-1.278-3.78-3.333-2.609-4.496
				c1.654-1.04,3.127,2.406,4.153,3.379C223.634,307.868,222.081,309,221.361,307.994z"/>
			<path style="fill-rule:evenodd;clip-rule:evenodd;fill:#3E2C1E;" d="M172.186,360.005c-1.867-0.924-16.642-10.516-14.072-12.333
				c1.375-0.724,2.098,1.485,3.13,2.079c1.183,1.042,2.399,2.037,3.643,3.007c2.636,2.058,5.333,4.064,8.3,5.625
				C174.242,359.003,173.233,360.669,172.186,360.005z"/>
			<path style="fill-rule:evenodd;clip-rule:evenodd;fill:#3E2C1E;" d="M183.165,364.447c-1.327-0.512-6.069-0.785-5.511-2.763
				c0.725-1.424,3.646,0.731,5.008,0.71C184.355,362.352,185.048,364.32,183.165,364.447z"/>
			<path style="fill-rule:evenodd;clip-rule:evenodd;fill:#3E2C1E;" d="M343.004,440.608c-0.5-0.242-0.65-0.879-0.388-1.35
				c0.893-2.204,1.495-4.494,1.98-6.811c0.526-1.191-0.041-4.275,1.6-4.364c0.5,0.035,0.943,0.5,0.885,1.017
				C346.752,430.789,345.317,441.737,343.004,440.608z"/>
			<path style="fill-rule:evenodd;clip-rule:evenodd;fill:#3E2C1E;" d="M334.467,442.928c-1.617-0.785,1.783-4.574,1.767-6.22
				c0.244-1.207,2.131-0.818,1.865,0.389C337.64,438.352,336.174,443.679,334.467,442.928z"/>
			<path style="fill-rule:evenodd;clip-rule:evenodd;fill:#3E2C1E;" d="M184.221,430.57c-3.294-0.036-6.555-0.252-9.843-0.301
				c-0.428,0.25-1.012,0.082-1.269-0.335c-1.542-2.893,8.392-0.924,9.885-1.293c4.408,0.119,8.817-0.064,13.222-0.206
				c4.238-0.121,8.475-0.292,12.709-0.499c1.218-0.061,1.319,1.863,0.077,1.904C200.747,430.193,192.486,430.598,184.221,430.57z"/>
			<path style="fill-rule:evenodd;clip-rule:evenodd;fill:#3E2C1E;" d="M217.408,430.549c-1.641,0.402-2.587-1.733-0.697-1.942
				c1.496,0.115,3.006-0.045,4.504-0.081c1.345,0.241,5.235-0.955,5.473,0.799c0.021,0.509-0.394,0.981-0.913,0.991
				C222.986,430.337,220.198,430.511,217.408,430.549z"/>
		</g>
	</g>
	<g>
		<path style="fill-rule:evenodd;clip-rule:evenodd;fill:#FFFFFF;" d="M164.525,132.508c18.747,10.142,30.965,30.293,28.798,51.839
			c-0.499,5.892-0.697,12.04-3.023,17.523c0,0.005-0.002,0.009-0.003,0.014c-1.768,4.665-4.085,9.236-7.385,13.018
			c-0.452,0.392-0.912,1.026-1.404,1.646c-1.341,2.011-2.826,3.919-4.478,5.684c0.99,10.864,4.508,21.114,6.114,31.85
			c0.799,3.597,1.805,7.147,2.944,10.65c1.179,1.632,0.188,3.978-1.973,3.013c-0.433-0.413-0.76-0.905-1.018-1.444
			c-0.055-0.07-0.106-0.146-0.153-0.23c-1.478-2.835-4.117-4.786-6.082-7.262c-3.118-3.835-6.21-7.695-9.221-11.616
			c-1.465-0.596-2.035-2.401-3.055-3.531c-2.329-3.307-4.8-6.544-6.857-10.03c-2.226,1.155-4.728,1.579-7.188,1.997
			c-4.598,1.104-9.321,2.283-14.084,1.754c-8.012-1.041-16.15-2.294-23.423-6.009c-5.409-2.901-10.157-6.989-14.927-10.824
			c-5.941-6.174-10.418-13.763-12.863-21.978c-2.18-6.376-3.178-13.053-2.013-19.745c-2.218-6.568,4.484-21.835,8.404-27.48
			c0.136-0.082,0.268-0.148,0.396-0.199c1.865-3.258,4.067-6.329,6.711-9.012c7.225-7.891,15.058-12.42,25.577-14.405
			c9.311-2.43,18.238-2.566,27.329-0.259c0.132-0.031,0.274-0.045,0.426-0.038c3.022,0.666,5.917,1.939,8.819,3.015
			C162.125,131.04,163.678,131.365,164.525,132.508z"/>
		<path style="fill-rule:evenodd;clip-rule:evenodd;fill:#FED185;" d="M127.275,146.199c3.58,5.054-2.969,9.948-6.337,13.104
			c-2.098,1.681-4.468,3.046-6.205,5.137c-2.824,3.587-5.03,9.903-10.791,8.033c-3.798-0.786-5.24-6.415-2.466-8.993
			c-0.701-1.32,0.727-2.378,1.346-3.42c0.889-1.336,1.669-2.74,2.397-4.169c1.986-4.494,4.616-8.994,9.248-11.148
			C118.442,142.406,123.858,143.222,127.275,146.199z"/>
		<path style="fill-rule:evenodd;clip-rule:evenodd;fill:#FED185;" d="M179.779,195.952c0.571,6.342-5.339,16.357-12.661,14.779
			c-4.266-0.594-5.923-5.478-5.009-9.239c0.382-1.388,0.272-3.415,1.647-4.208c1.188-3.559,4.26-6.814,8.229-6.76
			C175.305,190.482,179.146,192.443,179.779,195.952z"/>
		<path style="fill-rule:evenodd;clip-rule:evenodd;fill:#D9E296;" d="M138.353,192.412c2.565,4.422,4.095,12.462,3.895,17.576
			c-0.549,5.996-4.92,14.511-12.12,11.904c-3.564-1.66-4.735-5.983-4.446-9.629c0.196-3.204,1.548-6.355,0.771-9.58
			c-0.912-4.182-4.455-7.565-4.263-12.046c-0.187-4.354,4.322-6.56,8.084-4.975C133.762,186.698,136.55,189.314,138.353,192.412z"/>
		<path style="fill-rule:evenodd;clip-rule:evenodd;fill:#FFC0BF;" d="M93.959,194.682c-3.019-1.501-3.683-6.099-2.014-8.829
			c1.465-2.031,3.451-4.397,6.117-2.587C102.141,186.159,99.55,196.077,93.959,194.682z"/>
		<path style="fill-rule:evenodd;clip-rule:evenodd;fill:#FFC0BF;" d="M175.902,164.683c1.217,7.577-4.677,16.211-12.871,15.285
			c-6.19-0.581-7.119-8.064-11.701-11.132c-2.755-2.188-5.936-4.384-6.536-8.124c-0.836-2.438,0.409-11.17,3.573-11.253
			c5.217-5.505,13.451-5.679,18.772-0.22C172.135,152.829,175.035,158.676,175.902,164.683z"/>
		<path style="fill-rule:evenodd;clip-rule:evenodd;fill:#BCC672;" d="M141.28,197.945c2.043,6.373,1.292,13.318-1.094,19.488
			c-1.146,3.858-5.973,6.689-9.791,4.982c-4.058-1.918-5.499-6.679-4.888-10.878c0.204-2.407,1.259-4.645,1.39-7.06
			c0.129-2.051-0.313-4.13-1.229-5.966c-0.254-0.716-1.166-1.445-0.743-2.231c-1.2-2.305-3.009-4.696-2.422-7.44
			c0.126-0.905,0.92-2.604,2.002-1.73c0.304,0.276,0.314,0.833,0.057,1.114c-1.697,2.933,1.461,5.966,2.556,8.598
			c1.619,2.969,2.254,6.37,2.302,9.726c0.046,2.644-0.556,5.464,0.756,7.905c1.469,2.889,5.499,2.195,7.201-0.105
			c1.9-2.236,2.554-5.238,2.77-8.071c0.106-2.809-0.18-5.554-0.61-8.312C139.348,196.563,141.184,196.611,141.28,197.945z"/>
		<path style="fill-rule:evenodd;clip-rule:evenodd;fill:#DBAA57;" d="M128.124,147.146c2.475,8.038-6.546,11.127-11.25,15.613
			c-4.072,2.914-4.726,11.715-11.199,10.024c-1.427-0.341-2.805-0.945-3.995-1.806c-0.693-0.658-2.409-1.947-1.313-2.891
			c-2.582-4.05,1.634-4.673,0.857-2.425c0.171,2.896,4.359,3.524,6.296,1.929c2.668-2.239,3.605-5.929,6.277-8.19
			c3.74-3.345,9.402-4.441,11.921-9.114c0.609-1.097,0.39-2.355,0.332-3.538C126.348,145.239,127.936,145.941,128.124,147.146z"/>
		<path style="fill-rule:evenodd;clip-rule:evenodd;fill:#DBAA57;" d="M168.124,209.746c-1.079-0.166-4.079-0.792-3.549-2.331
			c-2.243-1.751-2.239-4.819-2.18-7.413c0-0.454,0.379-0.833,0.833-0.833c1.438,0.172,0.614,2.247,0.837,3.23
			c0.493,6.905,7.361,4.77,9.846,0.276c2.148-3.13,2.671-5.809,2.326-9.497c1.81-2.178,2.387,2.413,2.329,3.585
			c2.114,0.592-2.413,10.085-3.941,10.153C172.98,208.756,170.653,210.107,168.124,209.746z"/>
		<path style="fill-rule:evenodd;clip-rule:evenodd;fill:#EF918F;" d="M175.589,162.627c0.292,3.264,0.178,6.62-0.74,9.781
			c-1.405,5.036-6.895,7.904-11.908,7.435c-1.63-0.057-3.363-0.229-4.698-1.256c-2.6-2.152-4.022-5.394-5.803-8.194
			c-2.475-3.256-6.905-5.119-7.797-9.421c-0.201-1.041-0.805-3.431,0.591-3.766c-0.165-2.529,0.581-5.148,2.083-7.192
			c0.723-0.817,1.463-1.775,2.535-2.121c0.691-0.224,1.324,0.619,0.941,1.225c-1.161,0.814-2.296,1.771-2.906,3.132
			c-3.151,6.508,1.477,9.737,6.055,13.408c3.183,2.308,4.014,6.789,7.497,8.686c3.925,1.977,8.687-0.563,10.477-4.295
			c1.611-3.245,1.453-6.975,1.108-10.48c-0.114-0.767,0.774-1.435,1.426-0.916C175.352,159.71,175.385,161.303,175.589,162.627z"/>
		<path style="fill-rule:evenodd;clip-rule:evenodd;fill:#EF918F;" d="M93.98,194.09c-0.136-0.136-0.217-0.301-0.246-0.473
			c-0.867,0.03-2.458,0.1-2.552-1.057c0.014-0.403,0.311-0.793,0.731-0.834c2.466,0.9,4.873-0.792,5.909-3.03
			c0.698-1.082,0.185-2.377,0.046-3.56c-0.458-1.011,0.397-2.295,1.387-1.326c1.234,2.993,1.196,7.607-1.666,9.661
			C96.549,193.954,95.051,194.918,93.98,194.09z"/>
		<path style="fill-rule:evenodd;clip-rule:evenodd;fill:#EF918F;" d="M92.99,193.082c-1.115,0.113-1.908-1.217-0.687-1.736
			c3.521,0.831,5.757-3.173,4.638-6.227c-0.127-0.351-0.276-0.693-0.439-1.028c-0.436-0.983,1.118-1.645,1.535-0.649
			C100.261,187.268,97.892,193.467,92.99,193.082z"/>
		<g>
			<path style="fill-rule:evenodd;clip-rule:evenodd;fill:#3E2C1E;" d="M137.905,238.624c-30.606,0.468-57.613-26.781-56.845-57.387
				c-0.497-34.549,32.719-62.548,66.685-56.237c28.249,4.205,50.028,31.718,47.6,60.181c-0.796,12.76-6.048,25.165-14.659,34.617
				c-0.962,0.776-2.094,3.245-3.486,2.19c-0.837-1.012,0.621-1.782,1.172-2.491c3.254-3.433,6.044-7.247,8.313-11.337
				c10.856-19.169,8.61-44.603-5.423-61.524c-26.546-32.894-79.129-24.715-94.509,14.617c-16.679,42.999,23.469,86.37,67.608,73.093
				c1.072-0.089,2.719-1.557,3.417-0.163c0.858,2.69-15.08,4.469-19.167,4.469C138.306,238.654,138.066,238.644,137.905,238.624z"/>
			<path style="fill-rule:evenodd;clip-rule:evenodd;fill:#3E2C1E;" d="M184.68,269.994c-9.641-11.616-19.108-23.393-28.26-35.395
				c-0.801-1.119,1.083-2.242,1.657-0.96c7.029,9.437,14.62,18.419,21.877,27.676c2.025,2.517,4.05,5.033,6.186,7.456
				c0.592,0.689-0.07,1.566-0.775,1.566C185.126,270.337,184.882,270.236,184.68,269.994z"/>
			<path style="fill-rule:evenodd;clip-rule:evenodd;fill:#3E2C1E;" d="M185.539,269.253c-2.961-15.912-7.188-31.79-8.884-47.849
				c0.433-0.87,1.843-0.511,1.795,0.466c1.868,11.58,3.767,23.169,6.458,34.592c0.877,4.147,1.761,8.299,2.508,12.472
				c0.121,0.679-0.437,1.087-0.978,1.087C186.028,270.021,185.626,269.785,185.539,269.253z"/>
			<path style="fill-rule:evenodd;clip-rule:evenodd;fill:#3E2C1E;" d="M185.213,269.423c-0.017-0.506,0.403-0.983,0.922-0.983
				c0.519,0,0.965,0.391,0.983,0.922c0.017,0.506-0.403,0.983-0.922,0.983C185.677,270.345,185.231,269.954,185.213,269.423z"/>
			<path style="fill-rule:evenodd;clip-rule:evenodd;fill:#3E2C1E;" d="M131.312,223.908c-3.927-0.99-6.661-4.947-7.081-8.853
				c-0.379-5.258,2.516-10.507,0.269-15.647c-1.172-3.02-3.616-5.77-3.158-9.222c0.935-7.549,10.38-6.344,14.36-1.933
				c6.287,7.372,9.369,18.399,6.305,27.771c-1.32,3.952-4.853,8.042-9.21,8.043C132.312,224.067,131.817,224.016,131.312,223.908
				L131.312,223.908z M123.216,191.341c0.183,2.07,1.305,3.864,2.305,5.63c1.162,2.4,1.864,5.086,1.806,7.762
				c-0.182,3.318-1.397,6.563-1.221,9.911c0.296,3.544,3.092,7.633,6.969,7.513c13.213-3.301,8.33-25.985,0.771-33.038
				c-1.52-1.493-3.977-2.482-6.147-2.482C125.191,186.636,123.068,187.955,123.216,191.341z"/>
			<path style="fill-rule:evenodd;clip-rule:evenodd;fill:#3E2C1E;" d="M132.277,218.135c-2.534-1.066-2.544-5.331-0.939-7.208
				c0.559-1.989,3.945-2.501,4.979-0.599c1.626,2.681-0.173,7.84-3.563,7.84C132.598,218.168,132.439,218.157,132.277,218.135
				L132.277,218.135z M133.146,211.451c0.002,0.023,0.003,0.046,0.003,0.07c0,0.372-0.223,0.7-0.541,0.857
				c-0.592,1.065-0.692,3.143,0.283,3.932c1.89-0.17,3.031-5.218,1.243-5.219C133.87,211.091,133.544,211.201,133.146,211.451z"/>
			<path style="fill-rule:evenodd;clip-rule:evenodd;fill:#3E2C1E;" d="M126.146,185.188c0,0,0.033,0.092,0.035,0.1
				c-0.472-1.656-0.939-3.316-1.548-4.924c-2.953-0.353-3.425-4.463-0.236-4.838c2.854-0.397,4.261,2.631,2.136,4.58
				c0.3,1.157,2.44,5.326,0.784,5.749c-0.08,0.022-0.162,0.033-0.243,0.033C126.659,185.887,126.252,185.611,126.146,185.188
				L126.146,185.188z M124.953,178.487c0.118,0.02,0.229,0.059,0.328,0.114c0.818-0.862,0.255-1.185-0.356-1.185
				C124.172,177.416,123.346,177.908,124.953,178.487z"/>
			<path style="fill-rule:evenodd;clip-rule:evenodd;fill:#3E2C1E;" d="M133.558,186.124c1.184-1.379,2.081-2.987,3.231-4.383
				c-1.843-2.29,2.526-4.602,4.327-2.937c3.26,2.458,0.173,6.293-3.194,4.54c-1.152,1.337-2.083,3.838-3.74,4.45
				c-0.006,0-0.013,0-0.019,0C133.325,187.794,132.889,186.655,133.558,186.124L133.558,186.124z M138.122,181.425
				c0.584,0.107,1.114,0.481,1.726,0.436c1.563-0.455,0.369-1.698-0.662-1.698C138.656,180.163,138.169,180.492,138.122,181.425z"/>
			<path style="fill-rule:evenodd;clip-rule:evenodd;fill:#3E2C1E;" d="M148.224,201.809c-0.726-0.343-1.221-0.996-1.544-1.712
				c-1.617,0.463-3.155,1.175-4.609,1.868c-0.918,0.007-1.254-1.183-0.61-1.766c1.58-1.022,3.538-1.592,5.353-2.07
				c-0.555-1.858,2.585-2.122,3.61-1.166c1.971,1.283,0.841,5.048-1.318,5.049C148.827,202.01,148.532,201.948,148.224,201.809
				L148.224,201.809z M147.998,198.59c0.415,0.456,0.477,1.261,1.095,1.518c0.815-0.679,0.404-1.802-0.383-1.802
				C148.495,198.306,148.252,198.39,147.998,198.59z"/>
			<path style="fill-rule:evenodd;clip-rule:evenodd;fill:#3E2C1E;" d="M144.94,220.379c-1.142-0.742-6.413-2.849-3.866-4.434
				c0.575-0.177,0.948,0.262,1.277,0.642c1.236,1.121,2.941,1.571,4.177,2.654c4.257-0.919,4.342,5.638,0.476,5.755
				C144.769,224.789,144.525,222.127,144.94,220.379L144.94,220.379z M146.783,221c-0.08,0.632-0.353,1.812,0.392,2.099
				c0.031-0.001,0.062-0.002,0.092-0.011c0.873-0.687,0.968-2.097-0.304-2.097C146.905,220.992,146.845,220.994,146.783,221z"/>
			<path style="fill-rule:evenodd;clip-rule:evenodd;fill:#3E2C1E;" d="M113.514,210.145c-2.979-3.171,1.875-6.744,4.516-3.642
				c0.89,1.649,2.817,1.02,4.401,1.281c1.177,0.164,2.426,0.07,3.562,0.318c1.071,0.69,0.121,2.096-0.985,1.799
				c-2.251-0.255-4.45-0.226-6.654-0.542c-0.51,1.095-1.586,1.664-2.679,1.664C114.899,211.023,114.113,210.736,113.514,210.145
				L113.514,210.145z M115.756,209.147c0.604-0.016,0.877-0.614,1.126-1.069c-0.424-0.626-0.918-0.861-1.346-0.861
				C114.457,207.217,113.799,208.708,115.756,209.147z"/>
			<path style="fill-rule:evenodd;clip-rule:evenodd;fill:#3E2C1E;" d="M112.021,195.555c-5.175-3.627,1.591-9.049,4.246-3.036
				c2.046,0.433,4.137,0.805,6.186,1.233c0.735,0.147,1.875,0.053,1.882,1.088c0.09,1.425-2.702,0.833-5.135,0.239
				c-1.376-0.335-2.636-0.67-3.196-0.64c-0.671,0.811-1.741,1.377-2.801,1.377C112.8,195.817,112.399,195.736,112.021,195.555
				L112.021,195.555z M113.303,193.901c0.452-0.024,0.863-0.27,1.166-0.596c-0.907-2.652-3.758-1.521-1.68,0.497
				c-0.023-0.016-0.047-0.032-0.071-0.048c-0.001-0.001-0.002-0.001-0.031-0.02C112.863,193.887,113.079,193.925,113.303,193.901z"
				/>
			<path style="fill-rule:evenodd;clip-rule:evenodd;fill:#3E2C1E;" d="M93.189,195.677c-6.873-4.495-2.725-17.604,5.857-12.887
				c3.228,2.204,2.967,6.988,0.759,9.84c-0.798,1.865-2.727,3.527-4.778,3.527C94.416,196.157,93.795,196.01,93.189,195.677
				L93.189,195.677z M95.154,183.738c-4.923,0.846-4.537,9.661,0.032,10.507c4.531-1.152,6.616-10.534,0.554-10.534
				C95.552,183.711,95.357,183.72,95.154,183.738z"/>
			<path style="fill-rule:evenodd;clip-rule:evenodd;fill:#3E2C1E;" d="M105.727,173.924c-1.089-0.146-3.579-0.386-4.04-1.451
				c-6.484-3.69-0.703-11.117,2.035-15.399c2.496-6.79,5.954-11.794,13.207-14.008c6.31-1.312,15.256,1.787,11.787,9.683
				c-2.141,4.747-7.187,6.876-10.944,10.099c-4.092,3.23-4.949,11.164-10.913,11.165C106.5,174.013,106.124,173.984,105.727,173.924
				L105.727,173.924z M116.817,145.094c-5.956,2.039-9.146,6.589-11.136,12.304c-2.19,4.474-9.069,10.949-1.762,14.23
				c1.111,0.432,2.295,0.447,3.473,0.402c4.445-0.599,5.465-8.7,9.961-11.309c3.273-2.627,7.404-4.526,9.449-8.376
				c2.783-5.232-2.314-7.665-6.896-7.665C118.808,144.68,117.74,144.82,116.817,145.094z"/>
			<path style="fill-rule:evenodd;clip-rule:evenodd;fill:#3E2C1E;" d="M120.519,165.482c-0.751-0.754-1.436-1.583-2.245-2.279
				c-0.92-0.373-0.62-1.847,0.384-1.822c1.392,0.323,2.16,1.869,3.208,2.753c0.678,0.668,0.022,1.633-0.71,1.633
				C120.939,165.767,120.716,165.683,120.519,165.482z"/>
			<path style="fill-rule:evenodd;clip-rule:evenodd;fill:#3E2C1E;" d="M127.307,159.292c-0.87-0.814-3.506-1.153-2.853-2.693
				c1.086-1.347,2.677,0.634,3.814,1.048c0.908,0.516,0.348,1.783-0.485,1.783C127.632,159.431,127.47,159.389,127.307,159.292z"/>
			<path style="fill-rule:evenodd;clip-rule:evenodd;fill:#3E2C1E;" d="M131.216,152.988c-0.349-0.015-0.684-0.031-0.951,0.008
				c-0.137-0.005-0.287-0.003-0.445,0c-0.801,0.015-1.772,0.029-1.803-0.966c0-0.519,0.433-0.952,0.952-0.952
				c1.145,0.016,2.29,0.024,3.434-0.031c0.519-0.021,0.952,0.45,0.952,0.952c-0.084,0.864-0.798,1.005-1.575,1.005
				C131.593,153.004,131.402,152.996,131.216,152.988z"/>
			<path style="fill-rule:evenodd;clip-rule:evenodd;fill:#3E2C1E;" d="M127.245,146.966c-1.058-0.693-0.073-1.801,0.609-2.347
				c0.661-0.496,1.17-1.41,2.029-1.527c1.935,0.412,0.474,1.981-0.447,2.654c-0.565,0.401-1.018,1.352-1.723,1.352
				C127.569,147.099,127.414,147.059,127.245,146.966z"/>
			<path style="fill-rule:evenodd;clip-rule:evenodd;fill:#3E2C1E;" d="M120.018,144.084c-1.303-0.45-0.36-1.923-0.154-2.821
				c0.429-0.908,0.339-2.902,1.776-2.642c1.403,0.523,0.224,2.162,0.06,3.149c-0.336,0.783-0.366,2.344-1.414,2.344
				C120.204,144.115,120.115,144.105,120.018,144.084z"/>
			<path style="fill-rule:evenodd;clip-rule:evenodd;fill:#3E2C1E;" d="M112.29,145.444c-0.11-1.072-1.391-2.893,0.055-3.482
				c0.486-0.134,1.052,0.16,1.173,0.665c0.096,1.005,0.879,2.058,0.513,3.045c-0.166,0.313-0.488,0.461-0.812,0.461
				C112.804,146.133,112.388,145.892,112.29,145.444z"/>
			<path style="fill-rule:evenodd;clip-rule:evenodd;fill:#3E2C1E;" d="M112.107,158.732c-4.411-1.34-1.257-8.672,2.486-8.398
				c2.105-2.162,8.705-2.337,7.766,1.966c-0.648,1.295-2.091,1.876-3.213,2.687c-2.042,1.216-3.828,3.811-6.338,3.811
				C112.58,158.799,112.347,158.777,112.107,158.732L112.107,158.732z M113.429,152.699c-1.079,0.867-2.711,3.815-0.544,4.235
				c1.681-0.393,2.837-1.842,4.2-2.808c1.07-0.969,2.709-1.469,3.518-2.646c-0.95-1.285-2.257-0.794-3.53-0.305
				c-0.698,0.269-1.384,0.538-1.995,0.514C114.717,152.285,113.87,152.135,113.429,152.699z"/>
			<path style="fill-rule:evenodd;clip-rule:evenodd;fill:#3E2C1E;" d="M163.104,180.726c-6.785,0.104-8.337-6.133-11.697-10.567
				c-2.068-2.574-5.623-3.863-6.848-7.076c-1.843-4.23-0.779-11.474,3.158-14.084c8.822-9.732,22.929-1.736,27.098,8.555
				c4.723,9.775,1.245,23.184-11.055,23.185C163.543,180.738,163.326,180.734,163.104,180.726L163.104,180.726z M148.542,150.465
				c-2.906,3.345-3.971,8.537-1.907,12.569c1.341,2.177,3.897,3.255,5.557,5.176c3.888,4.011,5.008,11.619,12.161,10.574
				c9.677-0.201,12.416-10.883,9.458-18.642c-2.565-7.378-9.231-13.583-16.248-13.584
				C154.52,146.557,151.413,147.723,148.542,150.465z"/>
			<path style="fill-rule:evenodd;clip-rule:evenodd;fill:#3E2C1E;" d="M164.215,173.627c-3.987-0.84-5.623-6.293-4.187-9.66
				c0.002-5.427,7.352-4.922,9.194-0.81c2.298,3.597,0.429,10.527-4.249,10.528C164.727,173.685,164.475,173.666,164.215,173.627
				L164.215,173.627z M162.166,162.913c-0.284,0.47-0.191,1.122-0.636,1.488c-0.205,2.811,0.003,7.184,3.679,7.441
				c3.473-1.014,3.938-6.062,1.804-8.584c-0.679-0.774-1.923-1.445-3.024-1.445C163.243,161.814,162.562,162.121,162.166,162.913z"
				/>
			<path style="fill-rule:evenodd;clip-rule:evenodd;fill:#3E2C1E;" d="M167.852,211.552c-9.008-1.952-7.44-15.253-1.223-19.585
				c3.71-4.993,12.444-1.954,13.617,3.745c1.1,6.376-4.749,15.871-11.707,15.871C168.311,211.583,168.083,211.573,167.852,211.552
				L167.852,211.552z M167.795,193.214c-4.863,3.87-7.13,15.655,1.206,16.503c5.669-0.783,10.727-8.91,9.169-14.357
				c-1.065-2.458-3.637-3.969-6.159-3.969C170.467,191.39,168.944,191.955,167.795,193.214z"/>
			<path style="fill-rule:evenodd;clip-rule:evenodd;fill:#3E2C1E;" d="M167.755,200.101c0.587-1.46,2.898-0.884,3.748,0.065
				c1.623,1.827-0.197,5.273-2.513,5.381C166.444,205.38,166.253,201.531,167.755,200.101L167.755,200.101z M169.069,203.627
				c1.074-0.405,1.813-2.701,0.065-2.461c-0.259,0.676-0.747,1.904-0.097,2.448C169.047,203.618,169.058,203.622,169.069,203.627z"
				/>
			<path style="fill-rule:evenodd;clip-rule:evenodd;fill:#3E2C1E;" d="M82.982,213.174c-9.317-14.781-10.56-29.774-7.86-46.679
				c0.042-0.517,0.524-0.907,1.036-0.86c1.603,0.373,0.506,2.541,0.574,3.676c-1.733,11.22-1.416,22.89,3.037,33.477
				c1.403,3.212,3.102,6.309,4.813,9.355C85.262,213.159,83.628,214.233,82.982,213.174z"/>
			<path style="fill-rule:evenodd;clip-rule:evenodd;fill:#3E2C1E;" d="M95.853,227.749c-1.989-1.091-4.155-2.085-5.654-3.84
				c-0.677-1.076-3.008-2.985-1.489-4.122c1.411-0.646,2.368,3.014,3.755,3.704c1.329,1.009,2.806,1.797,4.278,2.574
				C97.839,226.629,96.935,228.335,95.853,227.749z"/>
			<path style="fill-rule:evenodd;clip-rule:evenodd;fill:#3E2C1E;" d="M190.284,148.952c-5.139-11.133-13.275-17.987-24.269-23.012
				c-0.895-0.48-1.788-0.965-2.648-1.509c-1.011-0.682,0.092-2.288,1.098-1.556c9.011,4.722,18.492,9.62,23.833,18.717
				c0.55,1.407,5.106,7.08,3.256,7.813C191.087,149.63,190.523,149.419,190.284,148.952z"/>
			<path style="fill-rule:evenodd;clip-rule:evenodd;fill:#3E2C1E;" d="M191.563,266.405c-0.028-3.972,0.318-7.94,0.576-11.902
				c0.134-0.899-0.191-2.561,1.159-2.516c0.523,0.048,0.899,0.519,0.86,1.036c-0.301,3.944-0.571,7.894-0.694,11.847
				c-0.081,0.862,0.348,2.336-0.909,2.445C192.041,267.338,191.585,266.924,191.563,266.405z"/>
			<path style="fill-rule:evenodd;clip-rule:evenodd;fill:#3E2C1E;" d="M176.879,271.765c-2.048-1.217-3.891-2.749-5.884-4.056
				c-0.428-0.292-0.525-0.908-0.229-1.328c1.29-1.225,2.827,1.141,4.032,1.661c1.016,0.716,1.992,1.505,3.088,2.097
				c0.471,0.038,0.863,0.423,0.883,0.908C178.798,272.069,177.577,272.264,176.879,271.765z"/>
		</g>
	</g>
</g>
</svg>
