<?xml version="1.0" encoding="utf-8"?>
<!-- Generator: Adobe Illustrator 27.5.0, SVG Export Plug-In . SVG Version: 6.00 Build 0)  -->
<svg version="1.1" id="Layer_1" xmlns="http://www.w3.org/2000/svg" xmlns:xlink="http://www.w3.org/1999/xlink" x="0px" y="0px"
	 viewBox="0 0 4000 4000" style="enable-background:new 0 0 4000 4000;" xml:space="preserve">
<g>
	<g>
		<rect style="fill:#FFCAEC;" width="4000" height="4000"/>
	</g>
	<g>
		<g style="opacity:0.2;">
			<ellipse style="fill:#000072;" cx="1989.989" cy="3307.163" rx="1219.027" ry="147.837"/>
		</g>
		<g>
			<g>
				<g>
					<path style="fill:#F7B77E;" d="M1165.505,3167.958c-293.26,79.545-393.976-80.984-394.541-177.538
						c-0.154-27.903,8.016-50.461,22.353-60.327c63.873-44.037,94.704,46.247,162.945,55.086c14.542,1.85,30.832,1.953,47.532,0.925
						c61.765-3.854,128.67-22.969,128.67-22.969L1165.505,3167.958z"/>
				</g>
				<g style="opacity:0.6;">
					<path style="fill:#FFFFFF;" d="M1165.505,3167.958c-2.723,0.719-5.447,1.49-8.17,2.158l-24.871-154.106
						c0,0-66.905,19.115-128.67,22.969c-16.701,1.028-32.99,0.925-47.532-0.925c-68.241-8.838-99.072-99.123-162.945-55.085
						c-9.506,6.577-16.341,18.756-19.784,34.428c-1.696-9.352-2.518-18.396-2.569-26.978c-0.154-27.903,8.016-50.461,22.353-60.327
						c63.873-44.037,94.704,46.247,162.945,55.086c14.542,1.85,30.832,1.953,47.532,0.925c61.765-3.854,128.67-22.969,128.67-22.969
						L1165.505,3167.958z"/>
				</g>
				<g style="opacity:0.2;">
					<path style="fill:#000072;" d="M1165.505,3167.958c-293.26,79.545-393.976-80.984-394.541-177.538
						c1.85,4.779,3.905,9.455,6.166,14.08c19.116,39.002,52.773,70.604,92.803,87.305c29.753,12.384,65.312,16.186,93.368,0.36
						c26.978-15.262,42.291-46.813,43.164-77.798c0.257-9.506-0.719-18.961-2.671-28.262c61.765-3.854,128.67-22.969,128.67-22.969
						L1165.505,3167.958z"/>
				</g>
				<g>
					<path style="fill:#000072;" d="M1019.704,3210.035c-170.093,0-232.93-101.167-250.298-138.611
						c-29.517-63.633-24.136-133.135,12.246-158.228c50.269-34.663,87.603-4.951,117.598,18.931
						c19.238,15.32,37.412,29.79,59.668,32.661c63.237,8.167,166.87-21.106,167.905-21.404c5.659-1.611,11.719-0.728,16.675,2.422
						c4.956,3.152,8.325,8.274,9.263,14.07l33.032,204.81c1.675,10.386-4.761,20.359-14.912,23.11
						C1112.932,3203.517,1062.849,3210.035,1019.704,3210.035z M827.234,2938.541c-6.997,0-13.936,2.769-22.241,8.499
						c-14.819,10.217-21.519,57.014,1.709,107.087c17.91,38.621,94.302,157.434,335.522,98.606l-26.455-164.023
						c-36.333,8.782-109.214,23.672-162.114,16.851c-33.628-4.338-58.272-23.96-80.015-41.272
						C852.536,2947.484,839.802,2938.541,827.234,2938.541z"/>
				</g>
			</g>
			<g>
				<path style="fill:#F7B77E;" d="M2750.403,3287.996c-126.821,74.304-337.298-4.984-337.298-4.984h-550.086
					c0,0-46.196,59.453-281.646,59.453c-112.843,0-217.054-22.712-295.058-46.453c-84.582-25.693-152.205-87.356-185.452-166.799
					c-8.377-19.989-14.594-41.109-18.294-63.102c-5.087-29.906-6.68-58.426-5.344-85.66
					c12.076-250.506,272.911-391.972,382.825-475.371c31.808-24.1,58.734-53.801,81.396-85.455
					c79.854-111.302,106.883-246.55,106.883-246.55h1000.947l14.748,245.419l36.843,611.801
					C2816.844,3089.8,2877.223,3213.64,2750.403,3287.996z"/>
			</g>
			<g style="opacity:0.6;">
				<path style="fill:#FFFFFF;" d="M1692.879,2173.075c-25.128,117.52-70.656,271.215-145.32,341.254
					c-110.994,104.159-493.254,294.03-446.698,614.884c-8.377-19.989-14.594-41.109-18.294-63.102
					c-5.087-29.906-6.68-58.426-5.344-85.66c12.076-250.506,272.911-391.972,382.825-475.371
					c31.808-24.1,58.734-53.801,81.396-85.455c79.854-111.302,106.883-246.55,106.883-246.55H1692.879z"/>
			</g>
			<g style="opacity:0.2;">
				<path style="fill:#000072;" d="M2700.866,3030.295l-36.843-611.801l-14.748-245.419H1648.328c0,0,6.632,81.928-73.222,193.23
					c148.762,100.871,311.498,215.494,526.805,215.494c118.291,0,230.877-18.499,332.981-51.9
					c74.612-24.408,147.58,42.599,127.745,118.547c-41.674,159.862-143.932,348.551-393.051,394.696
					c-29.496,5.499-45.323-33.503-20.554-50.41c122.093-83.142,312.478-245.933,316.692-454.354c0,0-204.413,265.46-614.422,219.418
					c0,0,46.607,165.257-156.933,146.296l-12.076,127.797c0,0,222.656,170.396-28.981,190.231
					c-189.306,14.902-491.713-20.657-576.089-241.668c-1.336,27.235,0.257,55.754,5.344,85.66
					c18.551,109.144,97.839,197.733,203.745,229.901c78.004,23.74,182.215,46.453,295.058,46.453
					c235.45,0,281.646-59.453,281.646-59.453h550.086c0,0,210.477,79.288,337.298,4.984
					C2877.223,3213.64,2816.844,3089.8,2700.866,3030.295z M2655.801,3205.059c-69.32,0-125.536-37.409-125.536-83.502
					c0-46.144,56.217-83.554,125.536-83.554s125.536,37.409,125.536,83.554C2781.337,3167.65,2725.12,3205.059,2655.801,3205.059z"
					/>
			</g>
			<g>
				<path style="fill:#000072;" d="M1581.355,3363.043c-96.392,0-197.661-15.928-300.991-47.344
					c-114.6-34.839-198.149-129.15-218.042-246.135c-47.31-278.264,189.311-443.25,330.684-541.826
					c20.171-14.063,39.219-27.346,54.624-39.031c135.649-102.903,180.132-317.5,180.566-319.656
					c1.929-9.6,10.361-16.514,20.151-16.514H2649.27c10.874,0,19.863,8.467,20.518,19.319l50.903,845.762
					c73.232,40.825,119.272,102.563,120.986,163.21c0.981,34.771-12.256,84.661-80.889,124.888
					c-125.898,73.792-321.357,8.579-351.309-2.134h-538.247C1849.343,3321.874,1778.2,3363.043,1581.355,3363.043z
					 M1664.734,2193.646c-13.569,55.039-65.522,231.67-192.261,327.813c-16.06,12.183-35.44,25.693-55.952,40
					c-142.012,99.016-356.611,248.652-313.672,501.216c17.266,101.531,89.868,183.413,189.468,213.694
					c99.453,30.234,196.699,45.566,289.038,45.566c209.004,0,261.704-47.915,265.64-51.821c3.809-5.459,9.297-7.639,16.021-7.639
					h550.098c2.476,0,4.932,0.447,7.246,1.318c2.002,0.752,202.881,74.888,319.639,6.46c40.596-23.794,61.543-54.314,60.586-88.262
					c-1.348-47.747-44.175-100.1-109.097-133.379c-6.47-3.315-10.703-9.8-11.143-17.056l-50.43-837.91H1664.734z"/>
			</g>
			<g>
				<path style="fill:#F7B77E;" d="M2028.308,2845.713c-0.206,0.051-0.36,0.103-0.566,0.154v-0.36
					C2027.897,2845.559,2028.103,2845.661,2028.308,2845.713z"/>
			</g>
			<g>
				<path style="fill:#000072;" d="M2618.865,2259.749c1.199,1.941,1.98,3.357,2.881,4.919c0.913,1.563,1.702,3.057,2.51,4.563
					c1.646,3.018,3.22,6.03,4.68,9.033c3.091,6.006,5.771,12.063,8.572,18.11c2.654,6.077,5.205,12.175,7.739,18.284l7,18.481
					c8.884,24.766,15.996,49.976,22.312,75.339c12.078,50.842,19.424,102.593,22.473,154.468l1.182,19.453
					c0.256,6.487,0.31,12.976,0.474,19.463c0.229,13.003,0.752,25.82,0.315,39.243c-0.657,26.558-3.313,52.993-7.817,79.106
					c-9.036,52.195-25.339,103.232-49.153,150.667c-11.885,23.708-25.388,46.609-40.469,68.428
					c-15.286,21.68-32.08,42.244-50.139,61.609c-36.597,38.242-78.018,71.716-123.047,98.811
					c-89.897,54.875-191.807,85.791-293.931,97.708c-6.621,0.771-12.617-3.97-13.389-10.593c-0.71-6.079,3.228-11.628,8.999-13.096
					l0.081-0.02c48.833-12.473,96.846-26.711,143.262-44.531l34.438-14.099c11.211-5.251,22.603-10.117,33.638-15.647
					c10.979-5.632,22.2-10.82,32.798-17.097l16.094-9.05l15.679-9.69c41.846-25.796,79.788-57.28,113.11-92.837
					c16.401-18.032,31.604-37.075,45.569-56.992c13.718-20.093,25.977-41.147,36.76-62.939
					c10.852-21.765,19.817-44.458,27.266-67.612c7.515-23.137,13.447-46.807,17.651-70.784c4.207-23.972,6.709-48.25,7.371-72.517
					c0.444-11.997-0.027-24.595-0.212-37.007c-0.139-6.218-0.168-12.446-0.396-18.657l-1.086-18.611
					c-2.979-49.607-9.377-98.948-20.073-147.222c-5.657-24.036-12.043-47.903-20.027-71.121l-6.248-17.273l-6.741-16.992
					c-2.422-5.54-4.753-11.167-7.366-16.526c-1.255-2.744-2.566-5.393-3.909-7.986c-0.662-1.311-1.323-2.646-1.995-3.84
					l-1.841-3.359l-0.5-0.913c-5.454-9.949-1.812-22.434,8.137-27.888C2601.133,2247.263,2613.149,2250.54,2618.865,2259.749z"/>
			</g>
			<g>
				<path style="fill:#000072;" d="M2413.093,3303.585c-3.53,0.002-7.109-0.908-10.376-2.825
					c-83.374-48.87-24.316-201.687-17.305-218.95c4.272-10.522,16.284-15.574,26.772-11.313c10.522,4.27,15.586,16.26,11.313,26.777
					c-14.253,35.251-44.834,141.736,0.01,168.022c9.79,5.74,13.076,18.333,7.339,28.125
					C2427.019,3299.95,2420.149,3303.585,2413.093,3303.585z"/>
			</g>
			<g>
				<path style="fill:#000072;" d="M2695.706,3050.217c-1.143-0.469-3.406-1.167-5.291-1.689c-1.97-0.576-4.021-1.069-6.064-1.58
					c-4.119-0.977-8.32-1.807-12.559-2.524c-8.484-1.436-17.119-2.236-25.774-2.48c-8.669-0.305-17.366,0.059-25.979,1.135
					c-8.687,0.869-17.131,2.91-25.605,5.166l-0.684,0.183c-5.874,1.563-11.902-1.931-13.464-7.805
					c-1.394-5.242,1.245-10.608,6.003-12.81c9.077-4.214,18.428-8.201,28.145-10.916c9.668-2.932,19.587-5.068,29.612-6.445
					c10.024-1.438,20.159-2.224,30.349-2.266c5.095-0.02,10.212,0.103,15.366,0.422c2.583,0.186,5.166,0.359,7.798,0.652
					c2.725,0.286,5.049,0.542,8.457,1.162l1.272,0.232c11.262,2.048,18.73,12.839,16.682,24.102s-12.839,18.73-24.099,16.682
					C2698.452,3051.179,2696.992,3050.737,2695.706,3050.217z"/>
			</g>
			<g>
				<g>
					<path style="fill:#FCC06A;" d="M3105.644,1975.146c-89.206,417.871-966.262,404.664-966.262,404.664
						s-877.004,13.206-966.21-404.664c-89.205-417.871,408.878-1121.344,535.134-1180.952
						c178.412-84.221,431.076,64.438,431.076,64.438s252.717-148.66,431.078-64.438c27.337,12.898,72.145,56.011,124.611,119.935
						c100.151,121.785,228.256,319.158,316.742,526.552C3091.152,1626.544,3138.634,1820.423,3105.644,1975.146z"/>
				</g>
				<g style="opacity:0.6;">
					<path style="fill:#FFFFFF;" d="M3107.997,1963.009c9.712-141.568-34.942-307.134-103.08-466.739
						c-88.487-207.394-216.593-404.767-316.744-526.552c-52.465-63.924-97.273-107.037-124.611-119.935
						c-178.36-84.222-431.076,64.438-431.076,64.438s-252.665-148.659-431.077-64.438
						c-105.7,49.896-471.876,550.909-536.109,957.937c36.843-415.507,432.464-961.329,542.995-1013.537
						c178.412-84.222,431.077,64.438,431.077,64.438s252.717-148.659,431.077-64.438c27.337,12.898,72.146,56.011,124.611,119.935
						c100.151,121.785,228.256,319.158,316.742,526.552C3089.087,1621.703,3136.156,1810.393,3107.997,1963.009z"/>
				</g>
				<g style="opacity:0.2;">
					<path style="fill:#20003F;" d="M3005.636,1439.283c-25.076,47.275-58.066,81.807-96.091,88.127
						c-103.697,17.266-425.682-550.292-366.742-622.438c17.985-21.993,75.691-15.416,146.091,7.759
						C2789.045,1034.516,2917.15,1231.889,3005.636,1439.283z"/>
				</g>
				<g style="opacity:0.2;">
					<path style="fill:#000072;" d="M1261.173,1439.283c25.076,47.275,58.066,81.807,96.092,88.127
						c103.697,17.266,425.682-550.292,366.741-622.438c-17.985-21.993-75.691-15.416-146.09,7.759
						C1477.765,1034.516,1349.66,1231.889,1261.173,1439.283z"/>
				</g>
				<g>
					<path style="fill:#A16044;" d="M3068.719,2021.122c-10.409,180.049-441.501,371.366-938.77,371.366
						c-448.549,0-944.658-188.014-936.098-371.315c51.437-80.111,129.75-141.62,221.113-166.645
						c75.589-20.708,156.111-18.396,232.008-37.871c98.815-25.385,183.499-85.712,271.677-136.173
						c41.52-23.74,91.056-39.105,131.908-48.714c53.082-12.487,108.424-12.487,161.506,0c40.852,9.609,90.439,24.974,131.907,48.714
						c88.178,50.461,172.863,110.788,271.678,136.173c75.897,19.476,156.419,17.163,232.007,37.871
						C2939.021,1879.503,3017.281,1941.011,3068.719,2021.122z"/>
				</g>
				<g style="opacity:0.2;">
					<path style="fill:#000072;" d="M3083.332,1644.313c-162.945,349.836-943.96,338.068-943.96,338.068
						s-781.118,11.768-943.96-338.171c-31.653,118.034-43.267,232.419-22.25,330.926c89.206,417.871,966.21,404.664,966.21,404.664
						s877.056,13.206,966.261-404.664C3126.65,1876.68,3115.037,1762.347,3083.332,1644.313z M2145.795,2339.668
						c-162.637,0-294.493-48.714-294.493-108.784s131.856-108.784,294.493-108.784c162.585,0,294.441,48.714,294.441,108.784
						S2308.38,2339.668,2145.795,2339.668z"/>
				</g>
				<g>
					<path style="fill:#000072;" d="M2140.656,2399.015c-4.077,0-6.616-0.022-7.476-0.032
						c-9.595,0.105-227.891,1.924-453.921-46.082c-136.04-28.892-248.53-69.956-334.351-122.051
						c-109.834-66.672-176.465-151.726-198.042-252.795c-52.749-247.102,95.679-569.07,188.848-738.999
						c120.747-220.22,281.167-428.743,357.612-464.831c167.217-78.94,388.848,31.633,439.853,59.446
						c50.996-27.803,272.661-138.389,439.849-59.446c76.445,36.089,236.87,244.612,357.617,464.831
						c93.169,169.929,241.597,491.897,188.848,738.999c-21.567,101.069-88.188,186.123-198.018,252.795
						c-85.82,52.095-198.311,93.159-334.355,122.051C2381.369,2396.598,2182.009,2399.015,2140.656,2399.015z M1827.327,787.575
						c-40.274,0-80.176,6.702-116.45,23.823c-51.724,24.421-202.251,197.803-339.116,447.422
						c-90.425,164.924-234.663,476.555-184.688,710.652c84.707,396.768,937.148,388.481,945.801,388.403
						c0.205-0.005,0.41-0.005,0.615,0c8.564,0.11,861.182,8.191,945.801-388.401c0,0,0,0,0-0.002
						c49.976-234.097-94.263-545.728-184.692-710.652c-136.86-249.619-287.388-423-339.116-447.422
						c-166.597-78.662-409.443,62.136-411.88,63.567c-6.431,3.782-14.414,3.774-20.835,0.002
						C2120.862,873.849,1971.789,787.575,1827.327,787.575z"/>
				</g>
				<g>
					<path style="fill:#A16044;" d="M1724.01,813.185c-54.69-66.951-477.067,130.824-506.943,254.592
						c-29.876,123.773,36.536,350.611,140.196,367.872C1460.924,1452.909,1782.939,885.32,1724.01,813.185"/>
				</g>
				<g style="opacity:0.6;">
					<path style="fill:#FFFFFF;" d="M1223.957,1246.998c-5.036-42.907-4.06-84.427,4.111-118.291
						c28.878-119.575,424.139-308.213,500.19-260.424c4.728-25.847,3.854-45.168-4.265-55.086
						c-54.675-66.956-477.067,130.829-506.922,254.566C1205.047,1117.608,1208.644,1184.153,1223.957,1246.998z"/>
				</g>
				<g style="opacity:0.2;">
					<path style="fill:#000072;" d="M1357.252,1435.636c103.697,17.266,425.682-550.292,366.742-622.438
						c-6.988-8.53-19.886-12.744-37.203-13.36c-76.308,190.642-266.179,485.392-341.306,472.854
						c-61.046-10.174-109.144-92.854-132.319-184.424C1194.359,1215.036,1259.105,1419.295,1357.252,1435.636z"/>
				</g>
				<g>
					<path style="fill:#000072;" d="M1362.195,1456.603c-2.827,0-5.591-0.227-8.306-0.679c-34.829-5.801-67.822-30.911-95.415-72.62
						c-56.04-84.707-83.579-228.416-61.387-320.352c26.865-111.301,292.246-245.593,425.723-276.011
						c60.317-13.743,98.613-9.414,117.119,13.24l0,0c12.266,15.015,24.082,46.987-14.731,150.854
						c-23.535,62.986-61.372,140.576-106.543,218.481c-45.586,78.628-94.155,149.663-136.748,200.015
						C1431.921,1428.615,1393.557,1456.603,1362.195,1456.603z M1682.087,820.275c-11.875,0-28.242,1.758-50.142,6.748
						c-146.709,33.435-375.713,166.086-394.897,245.576c-19.541,80.945,5.972,212.844,55.708,288.025
						c14.736,22.273,38.476,49.854,67.881,54.749c25.85,4.307,111.768-75.566,222.456-266.475
						c44.048-75.977,80.84-151.355,103.594-212.251c34.639-92.695,21.543-110.291,21.406-110.459
						C1705.837,823.431,1697.99,820.275,1682.087,820.275z"/>
				</g>
				<g>
					<path style="fill:#A16044;" d="M2542.777,813.185c54.695-66.951,477.067,130.824,506.943,254.592
						c29.876,123.773-36.53,350.611-140.196,367.872C2805.863,1452.909,2483.848,885.32,2542.777,813.185"/>
				</g>
				<g style="opacity:0.6;">
					<path style="fill:#FFFFFF;" d="M3042.84,1246.997c5.036-42.907,4.06-84.427-4.111-118.291
						c-28.878-119.575-424.139-308.213-500.19-260.424c-4.728-25.847-3.854-45.168,4.265-55.086
						c54.675-66.956,477.067,130.828,506.923,254.566C3061.75,1117.607,3058.152,1184.152,3042.84,1246.997z"/>
				</g>
				<g style="opacity:0.2;">
					<path style="fill:#000072;" d="M2909.545,1435.635c-103.697,17.266-425.682-550.292-366.742-622.438
						c6.989-8.53,19.886-12.744,37.204-13.361c76.308,190.642,266.179,485.392,341.306,472.854
						c61.046-10.174,109.144-92.854,132.319-184.424C3072.438,1215.035,3007.692,1419.294,2909.545,1435.635z"/>
				</g>
				<g>
					<path style="fill:#000072;" d="M2904.592,1456.603c-31.362,0-69.727-27.983-119.712-87.07
						c-42.593-50.352-91.162-121.387-136.748-200.015c-45.171-77.905-83.008-155.496-106.543-218.481
						c-38.813-103.867-26.997-135.84-14.731-150.854c0,0,0,0,0-0.003c18.511-22.649,56.816-26.987,117.134-13.235
						c133.472,30.42,398.848,164.714,425.708,276.011c22.192,91.934-5.342,235.645-61.382,320.352
						c-27.598,41.707-60.591,66.816-95.42,72.617C2910.183,1456.376,2907.414,1456.603,2904.592,1456.603z M2558.694,826.188
						c-0.137,0.169-13.232,17.764,21.406,110.459c22.754,60.896,59.546,136.274,103.594,212.251
						c110.679,190.898,196.572,270.825,222.456,266.475c29.404-4.895,53.145-32.476,67.881-54.749
						c49.736-75.178,75.249-207.078,55.708-288.022c-19.185-79.49-248.179-212.141-394.883-245.576
						C2583.606,815.341,2562.634,821.366,2558.694,826.188L2558.694,826.188z"/>
				</g>
				<g>
					<path style="fill:#000072;" d="M2210.789,1388.037c1.511-30.898,7.19-61.226,20.303-90.659
						c6.619-14.656,15.354-28.762,26.389-41.399c11.025-12.625,24.551-23.743,40.208-31.848c7.869-3.965,16.201-7.175,24.514-9.434
						c8.369-2.141,16.726-3.64,24.99-4.348c16.587-1.406,32.437-0.588,48.101,1.724c31.248,4.702,61.55,15.51,86.685,33.918
						c-30.969-2.104-59.854-3.428-88.281-1.633c-28.528,1.707-55.92,5.215-77.273,16.35c-21.88,11.157-41.086,30.244-57.397,52.71
						C2242.341,1335.923,2228.542,1362.493,2210.789,1388.037z"/>
				</g>
				<g>
					<path style="fill:#000072;" d="M2048.55,1388.037c-17.756-25.544-31.553-52.117-48.237-74.617
						c-16.313-22.468-35.518-41.553-57.397-52.712c-21.353-11.138-48.743-14.641-77.271-16.35
						c-28.428-1.797-57.312-0.471-88.281,1.633c25.134-18.408,55.437-29.216,86.682-33.918c15.667-2.312,31.516-3.13,48.101-1.724
						c8.264,0.708,16.621,2.207,24.99,4.351c8.318,2.258,16.648,5.469,24.514,9.434c15.657,8.105,29.182,19.221,40.208,31.848
						c11.033,12.634,19.771,26.743,26.389,41.396C2041.362,1326.812,2047.036,1357.139,2048.55,1388.037z"/>
				</g>
				<g>
					<path style="fill:#000072;" d="M2151.846,873.237l-20.554,545.979l-20.557-545.979c-0.427-11.352,8.43-20.901,19.783-21.328
						c11.35-0.427,20.901,8.428,21.328,19.78C2151.863,872.192,2151.863,872.742,2151.846,873.237z"/>
				</g>
				<g>
					<path style="fill:#A16044;" d="M2349.393,1694.895c-91.508-102.561-99.735-244.551-18.371-317.149
						c81.359-72.598,221.499-48.308,313.012,54.253c91.508,102.561,99.735,244.556,18.376,317.149
						C2581.045,1821.746,2440.906,1797.456,2349.393,1694.895"/>
				</g>
				<g>
					<path style="fill:#A16044;" d="M1918.428,1679.815c91.513-102.561,99.74-244.551,18.376-317.149
						c-81.365-72.598-221.504-48.308-313.012,54.253c-91.513,102.561-99.74,244.551-18.376,317.149
						C1686.775,1806.667,1826.92,1782.371,1918.428,1679.815"/>
				</g>
				<g>
					<path style="fill:#000072;" d="M1912.112,1544.505c5.037-74.837-37.141-138.616-94.209-142.457s-107.413,53.71-112.45,128.547
						c-5.037,74.837,37.141,138.616,94.209,142.457S1907.075,1619.342,1912.112,1544.505"/>
				</g>
				<g>
					<path style="fill:#FFFFFF;" d="M1874.241,1517.387c1.609-23.905-8.38-44.053-22.316-44.991
						c-13.931-0.938-26.535,17.69-28.144,41.595c-1.61,23.912,8.384,44.053,22.316,44.991
						C1860.033,1559.92,1872.632,1541.3,1874.241,1517.387"/>
				</g>
				<g style="opacity:0.35;">
					<path style="fill:#FFFFFF;" d="M1761.346,1576.189c-5.114-20.918-15.377-36.388-22.922-34.543
						c-7.543,1.844-9.512,20.305-4.398,41.223c5.116,20.924,15.38,36.387,22.922,34.543
						C1764.493,1615.567,1766.462,1597.114,1761.346,1576.189"/>
				</g>
				<g>
					<path style="fill:#000072;" d="M2350.468,1544.505c-5.037-74.837,37.141-138.616,94.209-142.457
						c57.068-3.841,107.413,53.71,112.451,128.547c5.037,74.837-37.141,138.616-94.209,142.457
						C2405.851,1676.894,2355.506,1619.342,2350.468,1544.505"/>
				</g>
				<g>
					<path style="fill:#FFFFFF;" d="M2388.34,1517.387c-1.609-23.905,8.38-44.053,22.316-44.991
						c13.931-0.938,26.535,17.69,28.144,41.595c1.61,23.912-8.384,44.053-22.316,44.991
						C2402.548,1559.92,2389.949,1541.3,2388.34,1517.387"/>
				</g>
				<g style="opacity:0.35;">
					<path style="fill:#FFFFFF;" d="M2501.234,1576.189c5.114-20.918,15.377-36.388,22.922-34.543
						c7.543,1.844,9.512,20.305,4.398,41.223c-5.116,20.924-15.38,36.387-22.922,34.543
						C2498.087,1615.567,2496.119,1597.114,2501.234,1576.189"/>
				</g>
				<g>
					<g>
						<path style="fill:#000072;" d="M2116.343,953.906c11.353-10.847,24.626-19.258,38.496-25.11
							c13.889-5.879,28.35-9.302,42.698-10.82c28.743-2.957,57.095,1.289,83.086,10.901c25.771,9.619,48.94,23.735,70.217,39.48
							c21.318,15.781,40.913,33.24,60.439,50.698c-21.633-14.766-43.347-29.499-66.006-42.058
							c-22.612-12.556-46.277-22.871-70.627-28.452c-24.028-5.488-49.153-5.671-72.056-0.154
							c-22.893,5.454-43.252,17.129-56.296,33.674c-7.053,8.945-20.022,10.481-28.97,3.428c-8.945-7.053-10.481-20.022-3.428-28.967
							c0.583-0.737,1.204-1.426,1.86-2.063L2116.343,953.906z"/>
					</g>
					<g>
						<path style="fill:#000072;" d="M2116.292,982.065c-13.047-16.545-33.403-28.22-56.299-33.674
							c-22.903-5.518-48.025-5.335-72.056,0.154c-24.351,5.581-48.015,15.896-70.627,28.452
							c-22.659,12.559-44.373,27.293-66.006,42.058c19.526-17.458,39.121-34.917,60.439-50.698
							c21.277-15.745,44.446-29.861,70.22-39.48c25.991-9.612,54.343-13.858,83.083-10.901c14.348,1.519,28.809,4.941,42.698,10.82
							c13.87,5.852,27.144,14.263,38.496,25.11l0.5,0.479c8.235,7.871,8.53,20.928,0.659,29.163
							c-7.871,8.235-20.928,8.53-29.163,0.659C2117.559,983.557,2116.863,982.781,2116.292,982.065z"/>
					</g>
				</g>
				<g>
					<g>
						<path style="fill:#000072;" d="M2117.781,1065.676c10.066-9.597,21.829-17.029,34.109-22.192
							c12.297-5.188,25.093-8.201,37.781-9.524c25.415-2.581,50.459,1.208,73.406,9.731c22.749,8.53,43.181,21.021,61.934,34.944
							c18.789,13.955,36.05,29.385,53.25,44.812c-19.104-12.993-38.279-25.959-58.281-37.004
							c-19.961-11.038-40.84-20.098-62.302-24.976c-21.174-4.795-43.301-4.912-63.438-0.02c-20.134,4.839-37.988,15.144-49.39,29.68
							c-6.353,8.103-18.074,9.521-26.179,3.167c-8.103-6.355-9.519-18.076-3.167-26.179c0.54-0.686,1.118-1.326,1.729-1.917
							L2117.781,1065.676z"/>
					</g>
					<g>
						<path style="fill:#000072;" d="M2117.734,1091.128c-11.399-14.536-29.255-24.841-49.387-29.68
							c-20.139-4.893-42.266-4.775-63.44,0.02c-21.462,4.878-42.341,13.938-62.302,24.976c-20,11.045-39.177,24.011-58.281,37.004
							c17.2-15.427,34.46-30.857,53.252-44.812c18.752-13.923,39.182-26.414,61.931-34.944c22.949-8.523,47.991-12.312,73.408-9.731
							c12.688,1.323,25.481,4.336,37.778,9.524c12.28,5.164,24.045,12.595,34.111,22.192l0.471,0.452
							c7.451,7.107,7.732,18.909,0.625,26.362c-7.107,7.451-18.909,7.732-26.362,0.625
							C2118.906,1092.515,2118.262,1091.792,2117.734,1091.128z"/>
					</g>
				</g>
				<g>
					<g>
						<path style="fill:#FFFFFF;" d="M3203.369,1969.329c-24.203,39.619-123.326,79.289-123.326,79.289
							s83.708,127.694,74.921,156.316c-8.838,28.673-118.959,103.543-191.618,72.711c-40.903-17.368-88.024-82.115-121.477-135.453
							H1363.855c-33.452,53.339-80.573,118.085-121.476,135.453c-72.66,30.832-182.78-44.038-191.618-72.711
							c-8.787-28.622,74.921-156.316,74.921-156.316s-99.123-39.67-123.326-79.289c-24.254-39.67,35.199-169.574,72.66-213.612
							c37.409-44.089,79.288-28.673,160.735,24.203c59.659,38.694,108.681,109.195,130.674,144.24H2839.3
							c21.993-35.045,71.015-105.547,130.675-144.24c81.139-52.671,123.018-68.189,160.324-24.665
							c0.154,0.154,0.257,0.309,0.411,0.463C3168.17,1799.756,3227.623,1929.659,3203.369,1969.329z"/>
					</g>
					<g>
						<path style="fill:#000072;" d="M3001.916,2305.431c-16.904,0.002-32.607-2.942-46.592-8.877
							c-35.459-15.056-77.402-60.059-124.751-133.821H1375.183c-47.344,73.757-89.287,118.76-124.751,133.818
							c-35.654,15.132-82.485,10.823-131.87-12.144c-37.583-17.473-79.678-48.308-87.422-73.433
							c-8.579-27.942,27.456-95.002,64.175-153.135c-32.881-15.09-90.479-45.071-110.474-77.81
							c-32.656-53.403,36.572-193.008,74.541-237.642c51.441-60.623,112.759-28.293,187.583,20.278
							c57.397,37.227,104.6,100.759,130.737,140.928h1450.347c26.147-40.171,73.354-103.706,130.747-140.93
							c74.814-48.577,136.133-80.903,187.593-20.256c37.969,44.651,107.178,184.221,74.526,237.629
							c-20,32.732-77.593,62.715-110.474,77.803c36.714,58.132,72.749,125.19,64.175,153.115
							c-7.744,25.134-49.824,55.967-87.397,73.442C3057.199,2298.361,3028.113,2305.431,3001.916,2305.431z M1363.879,2121.625
							h1477.993c7.075,0,13.652,3.638,17.412,9.631c44.028,70.193,83.838,115.457,112.1,127.458
							c22.832,9.69,54.937,6.848,90.386-8.008c40.117-16.802,68.755-42.097,73.311-51.331c0.02-17.527-36.973-85.715-72.222-139.504
							c-3.379-5.154-4.263-11.555-2.412-17.434s6.24-10.62,11.963-12.913c35.889-14.387,98.423-46.365,113.428-70.923
							c15.596-25.51-32.417-144.482-70.776-189.578c-0.005-0.007-0.015-0.012-0.02-0.02
							c-23.721-27.966-47.524-27.908-133.867,28.142c-57.681,37.412-106.255,108.921-124.463,137.93
							c-3.76,5.991-10.332,9.626-17.407,9.626H1366.448c-7.075,0-13.652-3.638-17.412-9.629
							c-18.198-29.004-66.763-100.508-124.448-137.922c-86.348-56.057-110.151-56.113-133.877-28.147
							c-38.379,45.115-86.387,164.087-70.796,189.59c15.044,24.624,77.554,56.572,113.428,70.928
							c5.723,2.29,10.117,7.029,11.968,12.91s0.967,12.283-2.412,17.439c-35.288,53.843-72.319,122.114-72.227,139.558
							c4.307,8.958,33.023,34.404,73.32,51.282c35.454,14.846,67.554,17.69,90.381,8c28.267-12.002,68.076-57.268,112.095-127.454
							C1350.227,2125.265,1356.804,2121.625,1363.879,2121.625z M1070.696,2200.089v0.002V2200.089z"/>
					</g>
				</g>
				<g>
					<g>
						<path style="fill:#A16044;" d="M1901.147,1880.021l232.058,2.158c-25.641,22.61-138.845,113.923-295.109,113.923
							c-135.505,0-204.259-41.931-230.928-82.32l-0.051-0.103c-8.479-12.744-12.692-25.385-13.464-36.484L1901.147,1880.021z"/>
					</g>
					<g>
						<path style="fill:#916340;" d="M2138.704,1877.194c0,0,2.415,1.85,6.885,5.087l-6.885-0.052l-5.499-0.051
							C2136.854,1878.993,2138.704,1877.194,2138.704,1877.194z"/>
					</g>
					<g>
						<path style="fill:#A16044;" d="M2668.904,1887.112c0.925,42.393-56.165,108.99-216.385,108.99
							c-140.181,0-275.326-91.056-306.929-113.82L2668.904,1887.112z"/>
					</g>
					<g>
						<path style="fill:#000072;" d="M1603.464,1876.492c7.297,21.035,23.572,37.312,41.887,50.625
							c18.403,13.42,40.098,23.789,63.242,30.764c23.193,7.002,47.612,10.886,72.231,13.552c12.451,0.728,24.768,2.202,37.349,2.08
							l18.784,0.325c6.179-0.164,12.28-0.588,18.42-0.857c24.546-0.891,48.875-5.076,72.903-10.325l17.842-4.863
							c5.984-1.472,11.838-3.44,17.681-5.452c5.83-2.034,11.763-3.772,17.522-6.03l17.227-6.926
							c22.715-9.856,44.983-20.996,66.162-34.043c10.569-6.536,21.013-13.303,31.035-20.593c5.022-3.638,10.02-7.273,14.836-11.089
							c4.758-3.687,9.763-7.856,13.665-11.309l0.054-0.049c7.578-7.119,19.036-7.532,27.065-1.484
							c9.058,6.812,19.536,13.904,29.697,20.43c10.261,6.621,20.728,12.993,31.365,19.038c10.586,6.155,21.411,11.841,32.217,17.573
							c10.996,5.305,21.863,10.945,33.098,15.657c44.482,19.919,91.306,34.231,138.647,39.7c2.957,0.349,5.911,0.847,8.867,1.084
							l8.867,0.393l17.739,0.837l18.145-0.432l9.08-0.232c3.02-0.12,5.999-0.466,9.001-0.684l17.971-1.516
							c5.906-0.845,11.799-1.758,17.722-2.495c5.979-0.576,11.648-2.124,17.485-3.154l8.689-1.746l8.499-2.188
							c22.686-5.693,44.453-13.987,63.235-26.162c9.06-6.318,17.725-13.325,24.387-21.719c6.614-8.342,11.458-17.878,12.949-27.874
							l0.122-0.828c0.806-5.396,5.833-9.116,11.226-8.313c4.534,0.676,7.883,4.341,8.362,8.691
							c1.687,15.354-2.827,30.303-9.641,43.135c-6.99,12.905-16.794,23.477-27.258,32.954
							c-21.499,18.254-46.763,30.278-72.402,38.372c-25.764,7.847-52.188,12.373-78.386,13.835
							c-3.279,0.239-6.563,0.605-9.834,0.737l-9.807,0.264l-19.626,0.464l-20.01-0.85l-10.005-0.447
							c-3.315-0.256-6.589-0.779-9.888-1.157c-52.852-5.959-103.479-21.506-150.95-42.554c-12.012-5.017-23.55-10.938-35.247-16.558
							c-11.462-6.045-22.986-11.99-34.128-18.591c-11.228-6.455-22.258-13.242-33.125-20.332
							c-10.984-7.156-21.377-14.202-32.417-22.583l27.117-1.533c-5.588,5.43-10.437,9.751-15.752,14.277
							c-5.212,4.46-10.5,8.77-15.913,12.883c-10.784,8.308-21.919,16.057-33.289,23.469c-22.874,14.587-46.88,27.439-71.841,38.291
							c-24.944,10.93-51.035,19.272-77.568,25.881c-26.738,5.669-53.879,10.417-81.355,10.918
							c-6.848,0.193-13.733,0.522-20.544,0.576l-20.2-0.679c-13.442-0.122-26.975-1.895-40.454-2.954
							c-26.98-3.455-53.948-8.684-80.364-17.454l-19.614-7.402c-6.431-2.878-12.803-5.972-19.18-8.975
							c-6.213-3.518-12.444-7.012-18.467-10.894c-2.957-2.097-5.872-4.248-8.765-6.418l-4.336-3.245
							c-1.411-1.15-2.727-2.456-4.084-3.684l-8.008-7.507c-2.512-2.703-4.902-5.583-7.28-8.408l-3.508-4.287l-3.118-4.705
							c-1.951-3.237-4.265-6.089-5.789-9.639c-7.124-13.152-11.414-28.694-9.9-44.187c0.535-5.481,5.415-9.492,10.896-8.958
							c3.999,0.391,7.212,3.091,8.455,6.648L1603.464,1876.492z"/>
					</g>
					<g>
						<path style="fill:#000072;" d="M2138.694,1897.902c-11.436,0-20.708-9.27-20.708-20.708v-140.393
							c0-11.438,9.272-20.708,20.708-20.708s20.708,9.27,20.708,20.708v140.393
							C2159.402,1888.632,2150.129,1897.902,2138.694,1897.902z"/>
					</g>
					<g>
						<path style="fill:#000072;" d="M2265.873,1655.729c0,53.592-59.714,112.453-133.374,112.453s-133.374-58.861-133.374-112.453
							c0-53.592,59.714-81.621,133.374-81.621S2265.873,1602.137,2265.873,1655.729z"/>
					</g>
					<g>
						<ellipse style="fill:#FFFFFF;" cx="2132.911" cy="1621.594" rx="69.646" ry="19.683"/>
					</g>
				</g>
			</g>
			<g>
				<g>
					<path style="fill:#FF3691;" d="M2118.042,2691.024c-15.528,5.792-72.792,16.801-79.693,15.158
						c-228.03-53.69-320.006-159.51-337.177-259.455c-17.705-102.78,43.667-199.274,117.486-226.386
						c116.952-42.928,213.117,83.185,220.142,92.633c6.984-9.448,103.15-135.561,220.102-92.633
						c33.192,12.2,64.987,36.766,88.854,69.136C2424.574,2393.571,2419.644,2578.344,2118.042,2691.024z"/>
				</g>
				<g style="opacity:0.6;">
					<path style="fill:#FFFFFF;" d="M2387.206,2441.617c-5.241-35.045-19.629-67.264-39.465-94.139
						c-23.843-32.373-55.651-56.936-88.846-69.114c-83.965-30.832-157.189,25.487-194.444,63.153
						c-14.08,14.337-37.203,14.337-51.334,0.052c-23.278-23.586-60.636-54.418-105.856-66.699c0.411,1.49,0.617,2.98,0.617,4.522
						c0,17.42-25.334,31.551-56.576,31.551c-25.591,0-47.224-9.455-54.212-22.456c-48.457,27.543-87.922,84.736-96.966,151.332
						c-13.925-100.151,46.35-193.006,118.548-219.469c116.954-42.958,213.097,83.194,220.138,92.649
						c6.988-9.455,103.131-135.607,220.086-92.649c33.195,12.178,65.003,36.741,88.846,69.114
						C2378.162,2330.675,2395.788,2384.579,2387.206,2441.617z"/>
				</g>
				<g style="opacity:0.2;">
					<path style="fill:#000072;" d="M2118.042,2691.024c-15.528,5.792-72.792,16.801-79.693,15.158
						c-228.03-53.69-320.006-159.51-337.177-259.455c236.923,154.439,680.087-19.853,646.584-157.251
						C2424.574,2393.571,2419.644,2578.344,2118.042,2691.024z"/>
				</g>
				<g>
					<path style="fill:#000072;" d="M2039.797,2726.72c-2.515,0-4.609-0.166-6.157-0.532
						c-121.948-28.696-215.381-74.966-277.695-137.522c-67.466-67.722-81.938-137.771-82.197-184.607
						c-0.537-96.257,59.639-183.818,139.98-203.672c106.323-26.267,190.371,45.066,224.741,81.03
						c33.535-36.418,114.409-106.057,224.961-81.128c76.343,17.229,138.574,98.884,144.756,189.939
						c4.263,62.852-14.761,219.851-282.939,320.037C2113.606,2714.613,2061.257,2726.72,2039.797,2726.72z M2043.025,2686.166
						c0.015,0.002,0.02,0.005,0.029,0.007l0,0C2043.044,2686.171,2043.035,2686.168,2043.025,2686.166z M1859.353,2235.919
						c-11.567,0-23.511,1.348-35.762,4.375c-62.427,15.427-109.17,85.732-108.735,163.535
						c0.713,128.25,122.72,233.569,326.499,281.941c11.069-0.464,57.09-9.375,69.507-14.014
						c170.586-63.73,264.009-165.327,256.309-278.743c-5.488-80.84-61.66-141.084-112.793-152.622
						c-113.574-25.642-190.635,73.418-199.048,84.797c-3.867,5.234-9.985,8.328-16.499,8.337c-0.01,0-0.02,0-0.029,0
						c-6.499,0-12.612-3.074-16.494-8.289C2021.56,2324.23,1952.961,2235.919,1859.353,2235.919z"/>
				</g>
			</g>
			<g>
				<g>
					<path style="fill:#F7B77E;" d="M2224.775,2729.687c0,127.746-180.57,129.955-180.57,129.955s-176.202,191.618-347.985,118.907
						c-2.877-1.234-5.755-2.518-8.53-3.854c-162.996-77.028-156.573-315.51-152.205-317.668l198.195,70.501
						c263.045-240.075,468.64-137.817,489.4-17.78C2224.21,2716.378,2224.775,2723.007,2224.775,2729.687z"/>
				</g>
				<g style="opacity:0.6;">
					<path style="fill:#FFFFFF;" d="M1750.688,2722.75c0,0,182.156-83.686,290.382-83.686s183.716,90.648,183.716,90.648
						s15.544-144.933-186.333-144.933S1750.688,2722.75,1750.688,2722.75z"/>
				</g>
				<g style="opacity:0.2;">
					<path style="fill:#20003F;" d="M2224.775,2729.687c0,127.746-180.57,129.955-180.57,129.955s-176.202,191.618-347.985,118.907
						c-2.877-1.234-5.755-2.518-8.53-3.854l6.68-70.604c117.035,10.903,151.366-39.102,159.407-83.575
						c6.234-34.476,37.782-58.393,72.807-57.572c118.331,2.773,217.143-20.576,296.495-53.196
						C2224.21,2716.378,2224.775,2723.007,2224.775,2729.687z"/>
				</g>
				<g>
					<path style="fill:#000072;" d="M1545.413,2657.874c0.933,15.093,2.585,31.106,4.614,46.519
						c2.148,15.518,4.675,30.923,7.92,46.108c6.445,30.337,14.883,60.103,27.373,87.751c6.228,13.813,13.416,27.078,21.587,39.575
						c8.276,12.424,17.654,23.945,27.93,34.465c20.571,20.994,45.439,37.412,72.725,48.103c13.442,5.51,27.578,8.713,41.792,11.14
						c14.299,2.117,28.875,2.385,43.455,1.479c29.197-2.261,58.325-10.308,86.084-22.415c13.938-5.918,27.483-12.988,40.798-20.588
						c13.308-7.61,26.299-15.928,38.918-24.846c12.622-8.921,24.875-18.442,36.704-28.455c5.923-4.998,11.738-10.11,17.468-15.288
						c5.605-5.125,11.47-10.706,16.279-15.676l0.01-0.015c4.004-4.265,9.365-6.492,14.783-6.638l0.098-0.002
						c3.401-0.081,7.891-0.354,11.917-0.691c4.136-0.327,8.298-0.793,12.449-1.304c8.301-1.04,16.567-2.422,24.714-4.138
						c16.292-3.418,32.173-8.206,46.792-14.746c7.305-3.264,14.346-6.912,20.774-11.16c3.342-1.997,6.272-4.38,9.373-6.594
						c2.798-2.466,5.864-4.724,8.352-7.412c10.708-10.217,17.998-22.603,22.229-36.257c3.84-13.757,4.585-29.316,2.097-43.694
						c-2.507-14.573-8.291-28.804-16.694-41.592c-16.863-25.684-43.469-45.288-73.469-56.323
						c-15.01-5.569-30.815-9.402-47.019-11.284c-16.235-1.614-32.725-1.98-49.243-0.417c-33.054,2.922-65.833,12.2-97.224,25.093
						c-62.993,26.106-119.797,67.6-171.458,114.121l-0.212,0.19c-8.435,7.595-21.431,6.917-29.028-1.521
						c-7.595-8.435-6.914-21.431,1.521-29.026l0.007-0.007c54.18-48.74,114.229-92.974,183.438-121.736
						c34.526-14.177,71.194-24.673,109.309-28.062c19.033-1.787,38.367-1.436,57.62,0.527c19.255,2.236,38.379,6.804,56.799,13.657
						c36.775,13.604,70.83,38.037,93.328,72.231c11.189,17.026,19.268,36.489,22.825,57.087c3.496,20.759,2.603,41.699-3.147,62.317
						c-6.13,20.486-17.776,39.656-32.937,54.089c-3.645,3.813-7.732,6.953-11.67,10.322c-4.121,3.02-8.186,6.204-12.493,8.823
						c-8.479,5.569-17.341,10.149-26.313,14.163c-17.976,8.022-36.487,13.521-55.098,17.439c-9.312,1.958-18.66,3.521-28.064,4.7
						c-4.705,0.579-9.412,1.101-14.167,1.479c-4.866,0.391-9.285,0.701-14.802,0.83l14.878-6.638l-0.022,0.022
						c-6.221,6.755-11.919,12.383-18.04,18.281c-6.074,5.759-12.192,11.458-18.542,16.875
						c-12.622,10.925-25.696,21.318-39.255,31.13c-27.161,19.514-56.047,37.197-87.522,50.422
						c-31.257,13.464-65.022,22.869-100.09,25.435c-17.529,1.055-35.288,0.637-52.852-2.036c-4.39-0.605-8.723-1.641-13.076-2.493
						l-6.516-1.37l-6.394-1.853c-4.243-1.292-8.557-2.385-12.729-3.867l-12.405-4.751c-32.417-13.301-62.244-33.516-86.174-59.053
						c-11.924-12.773-22.593-26.599-31.824-41.201c-9.116-14.663-16.931-29.976-23.564-45.664
						c-6.658-15.684-12.117-31.763-16.26-48.088c-4.326-16.277-7.312-32.805-9.431-49.358c-1.997-16.575-3.066-33.196-3.015-49.802
						c0.142-16.707,0.95-32.944,3.928-49.985c0.952-5.439,6.133-9.08,11.572-8.127c4.648,0.813,7.983,4.714,8.262,9.226
						L1545.413,2657.874z"/>
				</g>
				<g>
					<path style="fill:#000072;" d="M2044.753,2880.193c-6.934-0.366-12.446-1.074-18.506-1.843
						c-5.903-0.82-11.753-1.724-17.546-2.803c-11.592-2.146-23.037-4.651-34.312-7.732c-11.27-3.071-22.422-6.428-33.347-10.398
						c-10.967-3.813-21.675-8.308-32.246-12.949c-4.873-2.139-7.09-7.827-4.951-12.7c1.929-4.39,6.729-6.624,11.223-5.464
						l0.266,0.068c10.674,2.742,21.34,5.31,32.141,7.188c10.754,2.039,21.604,3.455,32.427,4.59
						c10.823,1.143,21.68,1.716,32.454,1.943c5.388,0.122,10.757,0.071,16.079-0.056c5.168-0.171,10.901-0.43,15.212-0.938
						c11.321-1.338,21.582,6.755,22.917,18.074c1.338,11.321-6.755,21.582-18.076,22.917c-1.143,0.137-2.278,0.173-3.394,0.122
						L2044.753,2880.193z"/>
				</g>
			</g>
			<g>
				<g>
					<path style="fill:#F7B77E;" d="M1863.018,3283.011l-142.031-72.763l-495.257-253.693c0,0,77.644-139.975,259.088-140.952
						c96.657-0.514,163.818,40.133,209.552,88.538c66.802,70.759,87.767,158.115,87.767,158.115
						C1903.253,3126.13,1863.018,3283.011,1863.018,3283.011z"/>
				</g>
				<g style="opacity:0.6;">
					<path style="fill:#FFFFFF;" d="M1263.99,2918.053c0,0,137.765-74.179,260.479-38.943
						c122.714,35.236,195.388,170.195,195.388,170.195s106.788,72.225,149.573,200.885c0,0,34.316-112.315-105.527-230.135
						c0,0-72.667-204.459-290.698-204.459C1343.271,2815.596,1263.99,2918.053,1263.99,2918.053z"/>
				</g>
				<g style="opacity:0.2;">
					<path style="fill:#20003F;" d="M1782.137,3062.257c0,0-20.965-87.356-87.767-158.115c0,0,17.779,26.445,11.998,72.693
						c-4.434,35.475-24.075,55.053-24.075,55.053s175.586,134.374,38.694,178.361l142.031,72.763
						C1863.018,3283.011,1903.253,3126.13,1782.137,3062.257z"/>
				</g>
				<g>
					<path style="fill:#000072;" d="M1843.103,3277.922c0.396-1.594,0.957-4.27,1.379-6.501l1.24-7.131
						c0.764-4.805,1.345-9.673,1.855-14.543c0.962-9.756,1.382-19.568,1.248-29.314c-0.229-19.497-2.871-38.76-8.33-56.775
						c-2.659-9.038-6.218-17.671-10.457-25.845c-4.192-8.208-9.167-15.928-14.993-22.925c-2.734-3.655-6.052-6.797-9.099-10.178
						c-3.435-3.008-6.555-6.345-10.281-9.048c-6.992-5.916-15.032-10.623-23.115-15.225l-0.005-0.002
						c-5.125-2.754-8.633-7.341-10.149-12.517l-0.251-0.872c-0.759-2.617-1.975-6.318-3.059-9.514
						c-1.152-3.328-2.363-6.653-3.633-9.98c-2.59-6.631-5.237-13.269-8.147-19.805c-5.769-13.093-12.253-25.869-19.272-38.271
						c-14.102-24.783-30.818-47.842-50.034-68.159c-19.414-20.061-41.05-37.761-65.327-50.725
						c-11.98-6.76-24.673-12.08-37.551-16.887c-13.079-4.26-26.36-8.096-40.076-10.266c-27.263-4.556-55.74-5.825-83.713-2.988
						c-13.994,1.296-27.786,3.894-41.389,7.158c-13.655,3.123-26.975,7.544-39.99,12.742c-26.077,10.3-50.903,24.265-73.682,41.484
						c-11.499,8.479-22.378,17.896-32.82,27.864c-5.215,4.993-10.215,10.215-15.134,15.522c-4.773,5.281-9.79,10.991-13.794,16.218
						l-0.442,0.576c-3.391,4.429-9.731,5.269-14.16,1.877c-3.818-2.925-4.966-8.047-3.035-12.241
						c3.596-7.822,7.227-14.524,11.475-21.345c4.141-6.77,8.621-13.32,13.423-19.626c9.426-12.781,20.261-24.473,31.711-35.61
						c23.164-21.982,50.129-40.396,79.539-53.948c14.741-6.65,29.941-12.461,45.579-16.736c15.654-4.146,31.558-7.471,47.61-9.333
						c16.062-1.814,32.122-3.025,48.298-2.537l12.129,0.217c4.045,0.156,8.098,0.618,12.146,0.92l12.144,1.15l12.092,1.924
						c16.147,2.454,32.034,6.804,47.676,11.812c15.439,5.608,30.793,11.77,45.076,19.983c28.914,15.779,54.719,36.665,76.772,60.435
						c10.974,11.956,20.996,24.636,30.283,37.756c9.275,13.135,17.378,26.963,24.89,41.023
						c7.498,14.077,14.058,28.586,19.824,43.403c2.927,7.39,5.554,14.91,7.979,22.52c1.206,3.809,2.358,7.651,3.452,11.531
						c1.099,4.033,2.075,7.561,3.135,12.271l-10.398-13.386l0.005,0.002c20.674,11.177,40.217,25.999,55.2,44.861
						c7.664,9.25,14.202,19.395,19.622,29.978c5.474,10.562,9.958,21.567,13.279,32.783c6.787,22.427,9.819,45.444,10.105,68.157
						c0.154,11.37-0.334,22.688-1.445,33.95c-0.588,5.63-1.262,11.25-2.156,16.875c-0.452,2.817-0.928,5.632-1.472,8.472
						c-0.574,2.952-1.064,5.454-1.934,8.984c-2.717,11.023-13.855,17.754-24.878,15.037c-11.021-2.717-17.751-13.855-15.034-24.878
						l0.005-0.024L1843.103,3277.922z"/>
				</g>
				<g>
					<path style="fill:#000072;" d="M1771.877,3080.066c-0.398-0.273-1.582-0.908-2.537-1.436c-0.94-0.549-2.08-1.082-3.157-1.621
						c-2.134-1.108-4.387-2.139-6.702-3.127c-4.509-2.109-9.363-3.799-14.114-5.603c-9.692-3.252-19.607-6.233-29.79-8.206
						c-20.305-4.187-41.267-6.089-62.297-5.415c-5.259,0.1-10.496,0.742-15.762,1.077l-7.898,0.61l-7.837,1.235
						c-5.225,0.847-10.481,1.575-15.708,2.505l-15.525,3.718l-7.783,1.851l-7.627,2.466l-15.278,4.973
						c-10.083,3.652-19.885,8.157-29.895,12.19l-1.152,0.464c-6.248,2.517-13.352-0.508-15.869-6.753
						c-2.412-5.986,0.3-12.776,6.023-15.547c10.349-4.978,20.525-10.415,31.113-15.015l16.133-6.399l8.098-3.169l8.325-2.559
						l16.702-5.1c5.659-1.387,11.382-2.566,17.085-3.85l8.574-1.882l8.701-1.245c5.813-0.752,11.609-1.792,17.468-2.28
						c23.435-2.219,47.236-1.611,70.811,1.741c11.809,1.555,23.499,4.236,35.125,7.368c5.789,1.772,11.58,3.42,17.332,5.652
						c2.876,1.03,5.764,2.139,8.667,3.408c1.453,0.618,2.876,1.184,4.402,1.926c1.531,0.728,2.854,1.301,4.883,2.397l0.972,0.522
						c10.02,5.403,13.76,17.903,8.357,27.92c-5.4,10.02-17.903,13.76-27.92,8.357
						C1773.135,3080.884,1772.483,3080.481,1771.877,3080.066z"/>
				</g>
			</g>
			<g style="opacity:0.2;">
				<path style="fill:#000072;" d="M2670.24,1913.678l-0.052,0.103c-26.669,40.389-95.424,82.32-230.928,82.32
					c-156.264,0-269.468-91.313-295.109-113.923l-5.447,0.051h-0.052l-5.447-0.051c-25.641,22.61-138.845,113.923-295.109,113.923
					c-135.505,0-204.259-41.931-230.928-82.32l-0.051-0.103c0,0,96.349,45.425,199.788,10.483
					c30.729-10.38,62.177-26.567,94.242-44.141c75.897-41.52,155.34-90.748,237.506-89.052h0.052
					c82.166-1.696,161.609,47.532,237.506,89.052c32.065,17.574,63.513,33.761,94.242,44.141
					C2573.891,1959.104,2670.24,1913.678,2670.24,1913.678z"/>
			</g>
			<g style="opacity:0.2;">
				<path style="fill:#000072;" d="M3127.626,1755.718c-0.154-0.154-0.257-0.308-0.411-0.463
					c2.489,70.584-11.097,161.736-84.718,215.926c-22.154,16.307-28.807,46.449-14.321,69.835
					c23.96,38.679,50.848,91.922,35.063,115.769c-26.309,39.619-150.663,28.519-194.546-102.052h-767.038h-48.971h-715.652
					c-43.884,130.572-168.238,141.671-194.547,102.052c-15.785-23.847,11.103-77.09,35.063-115.769
					c14.486-23.385,7.833-53.528-14.321-69.835c-73.621-54.191-87.208-145.342-84.718-215.926c-0.154,0.154-0.257,0.309-0.411,0.463
					c-38.95,44.038-100.716,173.941-75.538,213.612c25.18,39.619,128.157,79.289,128.157,79.289s-86.945,127.694-77.85,156.316
					c9.198,28.673,123.635,103.543,199.172,72.711c42.496-17.368,91.467-82.115,126.204-135.453h674.441h48.971h725.827
					c34.737,53.339,83.708,118.085,126.204,135.453c75.538,30.832,189.974-44.038,199.172-72.711
					c9.095-28.622-77.85-156.316-77.85-156.316s102.978-39.67,128.156-79.289
					C3228.343,1929.659,3166.577,1799.756,3127.626,1755.718z"/>
			</g>
			<g>
				<path style="fill:#000072;" d="M2653.616,3305.381c0.542-2.087,1.116-5.598,1.506-8.511c0.417-3.054,0.759-6.165,0.94-9.243
					c0.391-6.16,0.491-12.356-0.081-18.252c-0.576-5.876-1.572-11.592-3.276-16.724c-1.782-5.054-4.155-9.5-7.151-13.274
					l-0.925-1.167c-5.066-6.384-3.994-15.667,2.39-20.732c5.723-4.539,13.772-4.146,19.028,0.581
					c6.97,6.257,12.358,13.77,16.382,21.563c3.921,7.822,6.47,15.837,8.391,23.821c1.897,7.996,2.871,15.923,3.464,23.848
					c0.308,3.967,0.425,7.913,0.435,11.895c-0.007,4.121-0.032,7.642-0.488,12.534l-0.071,0.762
					c-1.055,11.357-11.113,19.707-22.468,18.652c-11.357-1.055-19.707-11.116-18.652-22.471
					C2653.142,3307.576,2653.357,3306.406,2653.616,3305.381z"/>
			</g>
			<g>
				<path style="fill:#000072;" d="M2763.025,3261.118c0.581-2.849,1.084-6.755,1.475-10.237c0.41-3.584,0.732-7.212,0.959-10.835
					c0.459-7.249,0.635-14.539,0.371-21.75c-0.566-14.387-2.7-28.657-8.181-41.042l-0.242-0.552
					c-2.197-4.963,0.046-10.767,5.007-12.961c4.241-1.877,9.099-0.505,11.792,3.027c5.393,7.073,9.636,14.751,13.176,22.607
					c3.438,7.871,6.121,15.923,8.406,24.045c2.229,8.123,3.945,16.309,5.342,24.561c0.701,4.128,1.294,8.267,1.785,12.449
					c0.5,4.285,0.933,8.147,1.152,13.057l0.037,0.852c0.51,11.455-8.359,21.152-19.814,21.663
					c-11.453,0.51-21.15-8.359-21.66-19.814C2762.554,3264.485,2762.71,3262.72,2763.025,3261.118z"/>
			</g>
			<g>
				<path style="fill:#000072;" d="M1661.077,3327.473c0,0.234,0.31-0.518,0.488-0.93c0.21-0.471,0.42-1.021,0.627-1.577
					c0.427-1.079,0.813-2.297,1.208-3.474c0.752-2.415,1.475-4.91,2.063-7.473c1.204-5.12,2.158-10.417,2.712-15.798
					c0.52-5.376,0.894-10.845,0.752-16.335c-0.01-5.505-0.522-11.011-1.152-16.558l-0.088-0.776
					c-0.933-8.225,4.978-15.645,13.203-16.577c7.18-0.813,13.75,3.599,15.92,10.205c2.1,6.382,4.055,12.881,5.447,19.541
					c1.526,6.641,2.478,13.423,3.193,20.278c0.686,6.86,0.886,13.804,0.693,20.842c-0.083,3.518-0.339,7.07-0.691,10.674
					c-0.208,1.821-0.396,3.611-0.701,5.503l-0.479,2.878c-0.205,1.069-0.313,1.79-0.764,3.484
					c-3.84,11.719-16.453,18.105-28.171,14.265C1663.623,3351.804,1657.236,3339.192,1661.077,3327.473z"/>
			</g>
			<g>
				<path style="fill:#000072;" d="M1776.528,3303.655c-0.154,0.811,0.037,0.276,0.076,0.352c0.076-0.068,0.168-0.322,0.256-0.476
					c0.19-0.305,0.349-0.867,0.537-1.306c0.33-0.989,0.693-2.051,0.95-3.225c0.601-2.283,0.989-4.817,1.304-7.395
					c0.596-5.19,0.605-10.723,0.215-16.36c-0.415-5.647-1.357-11.404-2.642-17.19c-0.605-2.903-1.499-5.762-2.241-8.689
					l-2.815-8.674l-0.269-0.828c-1.938-5.969,1.328-12.378,7.297-14.316c4.915-1.597,10.132,0.349,12.903,4.412l5.872,8.628
					c1.792,3.008,3.728,5.962,5.413,9.092c3.428,6.226,6.572,12.742,9.185,19.648c2.581,6.917,4.753,14.153,6.157,21.848
					c0.679,3.862,1.245,7.793,1.47,11.953c0.159,2.053,0.173,4.204,0.151,6.421c-0.046,1.157-0.039,2.205-0.164,3.484l-0.178,1.904
					c-0.134,0.862-0.095,1.121-0.461,2.71c-3.311,11.877-15.623,18.823-27.502,15.513
					C1780.164,3327.847,1773.218,3315.535,1776.528,3303.655z"/>
			</g>
			<g>
				<path style="fill:#000072;" d="M2122.466,2600.249c-0.244,3.394-0.588,5.325-1.006,7.781c-0.393,2.327-0.886,4.58-1.399,6.814
					c-1.03,4.465-2.332,8.804-3.745,13.088c-2.908,8.54-6.692,16.765-11.26,24.524c-2.175,3.928-4.866,7.593-7.41,11.27
					c-2.883,3.491-5.51,7.109-8.752,10.254c-6.028,6.643-13.237,12.056-20.479,16.997c-5.442,3.711-12.861,2.31-16.575-3.132
					c-3.264-4.783-2.573-11.099,1.34-15.078l0.815-0.828c4.841-4.927,9.475-9.883,12.976-15.679
					c1.965-2.705,3.359-5.835,5.002-8.706c1.333-3.105,2.813-6.067,3.843-9.28c2.258-6.287,3.899-12.808,4.832-19.419
					c0.427-3.311,0.779-6.611,0.901-9.878c0.059-1.633,0.107-3.25,0.066-4.814c-0.015-1.431-0.105-3.401-0.259-3.914
					c-3.401-11.206,2.927-23.047,14.133-26.448c11.208-3.401,23.049,2.927,26.45,14.133c0.769,2.537,1.04,5.105,0.869,7.603
					L2122.466,2600.249z"/>
			</g>
			<g>
				<path style="fill:#000072;" d="M2229.824,2674.551c-0.305,1.37-0.505,1.895-0.732,2.651c-0.227,0.762-0.457,1.362-0.688,1.997
					c-0.452,1.292-0.938,2.502-1.44,3.652c-0.964,2.385-2.087,4.541-3.181,6.746c-2.314,4.28-4.78,8.384-7.583,12.19
					c-5.542,7.651-11.919,14.48-18.97,20.283c-7.144,5.659-14.597,10.74-22.585,14.448c-3.853,2.131-8.032,3.457-11.992,5.149
					c-4.05,1.47-8.186,2.59-12.227,3.855c-5.339,1.672-11.021-1.299-12.695-6.636c-1.433-4.58,0.549-9.412,4.509-11.75l1.077-0.632
					c3.142-1.855,6.343-3.523,9.343-5.447c2.869-2.126,5.967-3.853,8.55-6.221c5.544-4.233,10.134-9.346,14.302-14.475
					c4.055-5.254,7.278-10.95,9.727-16.76c1.26-2.891,2.178-5.872,2.981-8.772c0.313-1.445,0.708-2.91,0.884-4.272
					c0.129-0.703,0.22-1.365,0.261-1.968c0.029-0.308,0.076-0.647,0.056-0.842c-0.007-0.198,0.029-0.623-0.098-0.215
					c1.936-11.187,12.576-18.682,23.762-16.743C2224.268,2652.727,2231.763,2663.364,2229.824,2674.551z"/>
			</g>
		</g>
	</g>
</g>
</svg>
