<?xml version="1.0" encoding="utf-8"?>
<!-- Generator: Adobe Illustrator 27.5.0, SVG Export Plug-In . SVG Version: 6.00 Build 0)  -->
<svg version="1.1" xmlns="http://www.w3.org/2000/svg" xmlns:xlink="http://www.w3.org/1999/xlink" x="0px" y="0px"
	 viewBox="0 0 500 500" style="enable-background:new 0 0 500 500;" xml:space="preserve">
<g id="BACKGROUND">
	<rect style="fill:#BBF2FF;" width="500" height="500"/>
</g>
<g id="OBJECTS">
	<g>
		<g>
			<defs>
				<path id="XMLID_00000176021426940989862590000008781757806580193157_" d="M342.307,217.445c0,0,13.362-65.886,61.752-64.42
					c12.579,0.381-13.555,23.986-5.247,64.192c7.833,37.904,38.41,42.54,37.647,53.213c-0.762,10.673-67.851-15.629-91.865-5.718
					L342.307,217.445z"/>
			</defs>
			<use xlink:href="#XMLID_00000176021426940989862590000008781757806580193157_"  style="overflow:visible;fill:#E45C00;"/>
			<clipPath id="XMLID_00000018210849013085698040000018106761588083825591_">
				<use xlink:href="#XMLID_00000176021426940989862590000008781757806580193157_"  style="overflow:visible;"/>
			</clipPath>
			<path style="clip-path:url(#XMLID_00000018210849013085698040000018106761588083825591_);fill:#333A54;" d="M395.061,137.595
				c0,0-72.52,107.427,37.662,150.699s19.232-150.699,19.232-150.699H395.061z"/>
			<path style="clip-path:url(#XMLID_00000018210849013085698040000018106761588083825591_);fill:#FFEBD3;" d="M398.782,140.344
				c0,0-67.508,112.412,42.675,155.684c110.182,43.272,22.379-158.434,22.379-158.434L398.782,140.344z"/>
			
				<ellipse style="opacity:0.32;clip-path:url(#XMLID_00000018210849013085698040000018106761588083825591_);fill:#FFBE5F;" cx="373.097" cy="170.421" rx="47.481" ry="56.422"/>
			<path style="opacity:0.5;clip-path:url(#XMLID_00000018210849013085698040000018106761588083825591_);fill:#FFBE5F;" d="
				M345.09,210.641c0,0,22.091,32.012,27.084,36.61c10.701,9.853,43.609,13.149,43.746,17.447
				c0.136,4.299-67.661-9.315-67.661-9.315L345.09,210.641"/>
			
				<use xlink:href="#XMLID_00000176021426940989862590000008781757806580193157_"  style="overflow:visible;fill:none;stroke:#333A54;stroke-width:2.3;stroke-miterlimit:10;"/>
		</g>
		<g>
			<defs>
				<path id="XMLID_00000023993493628575574790000000721973191923385236_" d="M274.799,183.316c0,0,13.644-60.62,57.717-42.257
					c6.184,2.577-29.235,32.55,0,56.171c30.339,24.512,60.293,102.55-32.981,127.801C299.535,325.03,346.43,240.517,274.799,183.316
					z"/>
			</defs>
			<use xlink:href="#XMLID_00000023993493628575574790000000721973191923385236_"  style="overflow:visible;fill:#FFEBD3;"/>
			<clipPath id="XMLID_00000131366799600432791530000015599525884468238768_">
				<use xlink:href="#XMLID_00000023993493628575574790000000721973191923385236_"  style="overflow:visible;"/>
			</clipPath>
			<path style="clip-path:url(#XMLID_00000131366799600432791530000015599525884468238768_);fill:#E45C00;" d="M254.719,175.358
				c0,0,29.32-56.293,73.392-35.905c-13.268-4.024-39.771,30.014-10.671,56.388c39.136,35.471,55.289,108.82-37.985,136.855
				C279.455,332.696,326.35,238.865,254.719,175.358z"/>
			
				<circle style="opacity:0.32;clip-path:url(#XMLID_00000131366799600432791530000015599525884468238768_);fill:#FFBE5F;" cx="303.271" cy="149.192" r="39.036"/>
			<path style="opacity:0.62;clip-path:url(#XMLID_00000131366799600432791530000015599525884468238768_);fill:#FFBE5F;" d="
				M279.14,182.043c0,0,9.271-47.07,64.757-42.791c55.486,4.279,39.225-21.396,39.225-21.396l-91.858,6.74l-22.563,51.887
				L279.14,182.043z"/>
			
				<use xlink:href="#XMLID_00000023993493628575574790000000721973191923385236_"  style="overflow:visible;fill:none;stroke:#333A54;stroke-width:2.3;stroke-miterlimit:10;"/>
		</g>
		<g>
			<g>
				<defs>
					
						<ellipse id="XMLID_00000041297269274607065680000014969406986717602196_" transform="matrix(0.2562 -0.9666 0.9666 0.2562 -132.0645 285.1723)" cx="119.274" cy="228.402" rx="38.756" ry="33.141"/>
				</defs>
				<use xlink:href="#XMLID_00000041297269274607065680000014969406986717602196_"  style="overflow:visible;fill:#FFE9D1;"/>
				<clipPath id="XMLID_00000034081696418990084190000008288057014683930002_">
					<use xlink:href="#XMLID_00000041297269274607065680000014969406986717602196_"  style="overflow:visible;"/>
				</clipPath>
				
					<ellipse transform="matrix(0.2562 -0.9666 0.9666 0.2562 -121.9816 263.2822)" style="clip-path:url(#XMLID_00000034081696418990084190000008288057014683930002_);fill:#FFFFFF;" cx="110.094" cy="210.906" rx="30.429" ry="28.562"/>
				<g style="clip-path:url(#XMLID_00000034081696418990084190000008288057014683930002_);">
					<defs>
						
							<ellipse id="XMLID_00000119118190699167576000000008795709040105331624_" transform="matrix(0.2562 -0.9666 0.9666 0.2562 -130.9084 294.5144)" cx="125.924" cy="232.323" rx="32.367" ry="25.71"/>
					</defs>
					<use xlink:href="#XMLID_00000119118190699167576000000008795709040105331624_"  style="overflow:visible;fill:#96E3FF;"/>
					<clipPath id="XMLID_00000105425911127226645940000005116750302072841121_">
						<use xlink:href="#XMLID_00000119118190699167576000000008795709040105331624_"  style="overflow:visible;"/>
					</clipPath>
					<path style="clip-path:url(#XMLID_00000105425911127226645940000005116750302072841121_);fill:#3E8CB2;" d="M79.847,234.299
						c-2.615,9.867,11.369,30.972,28.454,35.501c17.085,4.529,30.802-9.234,33.417-19.101c2.615-9.867-12.035-1.171-29.12-5.7
						C95.513,240.471,82.462,224.432,79.847,234.299z"/>
				</g>
				
					<ellipse id="XMLID_00000124158868759019339910000006172059741188468896_" transform="matrix(0.2562 -0.9666 0.9666 0.2562 -131.24 299.2599)" style="clip-path:url(#XMLID_00000034081696418990084190000008288057014683930002_);fill:#333A54;" cx="128.842" cy="234.911" rx="26.855" ry="18.253"/>
				
					<use xlink:href="#XMLID_00000041297269274607065680000014969406986717602196_"  style="overflow:visible;fill:none;stroke:#333A54;stroke-width:2.3;stroke-miterlimit:10;"/>
			</g>
			<path style="fill:#FFFFFF;" d="M104.709,210.353c-0.916,3.456,0.886,6.932,4.025,7.764s6.426-1.295,7.342-4.751
				c0.916-3.456-0.886-6.932-4.025-7.764C108.912,204.77,105.625,206.897,104.709,210.353z"/>
		</g>
		<g>
			<defs>
				<path id="XMLID_00000013193269501075441570000003310323037267816864_" d="M198.256,357.743c0,0,29.108,20.727,76.543,17.272
					c47.435-3.454,26.708-23.414,26.708-23.414s14.712-9.98-19.512-13.434C281.996,338.168,253.145,359.278,198.256,357.743z"/>
			</defs>
			<use xlink:href="#XMLID_00000013193269501075441570000003310323037267816864_"  style="overflow:visible;fill:#E45C00;"/>
			<clipPath id="XMLID_00000152258511609381964910000012489394007701039261_">
				<use xlink:href="#XMLID_00000013193269501075441570000003310323037267816864_"  style="overflow:visible;"/>
			</clipPath>
			
				<ellipse style="clip-path:url(#XMLID_00000152258511609381964910000012489394007701039261_);fill:#A13800;" cx="256.273" cy="338.519" rx="77.326" ry="27.917"/>
			
				<use xlink:href="#XMLID_00000013193269501075441570000003310323037267816864_"  style="overflow:visible;fill:none;stroke:#333A54;stroke-width:2.3;stroke-miterlimit:10;"/>
		</g>
		<g>
			<defs>
				<path id="XMLID_00000124137826433939684250000002120983291041798056_" d="M112.501,259.429c0,0,16.697-146.144,158.479-134.131
					c4.714,0.399,7.321,5.684,4.747,9.653c-6.616,10.202-14.427,27.272-1.364,37.432c19.542,15.199,57.04,41.734,51.025,100.422
					c-5.934,57.896-61.815,110.076-166.104,79.252C61.556,323.173,96.305,259.317,112.501,259.429z"/>
			</defs>
			<use xlink:href="#XMLID_00000124137826433939684250000002120983291041798056_"  style="overflow:visible;fill:#FF7C02;"/>
			<clipPath id="XMLID_00000154406620107114609630000005223368817331833752_">
				<use xlink:href="#XMLID_00000124137826433939684250000002120983291041798056_"  style="overflow:visible;"/>
			</clipPath>
			<path style="clip-path:url(#XMLID_00000154406620107114609630000005223368817331833752_);fill:#333A54;" d="M162.507,143.122
				c0,0,108.657,16.308,112.293,115.925c3.635,99.616-103.554,110.685-103.554,110.685h168.358l8.156-276.314l-208.554,3.679
				L162.507,143.122z"/>
			<path style="clip-path:url(#XMLID_00000154406620107114609630000005223368817331833752_);fill:#FFEBD3;" d="M171.161,143.122
				c0,0,108.657,16.308,112.293,115.925c3.635,99.616-103.555,110.685-103.555,110.685h168.358l8.156-276.314l-208.554,3.679
				L171.161,143.122z"/>
			<path style="clip-path:url(#XMLID_00000154406620107114609630000005223368817331833752_);fill:#333A54;" d="M270.777,115.877
				c0,0-17.575,29.945-15.927,45.323c1.648,15.378,39.873,19.078,54.538,69.845s-7.854,95.676-37.512,138.687
				c-29.658,43.011,54.159,42.462,54.159,42.462l32.069-290.743L270.777,115.877z"/>
			<path style="clip-path:url(#XMLID_00000154406620107114609630000005223368817331833752_);fill:#FFBE5F;" d="M326.034,221.572
				c0,0-26.499,103.458-138.248,110.026c-101.939,5.991-95.936-35.672-96.45-61.029c-0.514-25.357-46.703-18.257-46.703-18.257
				l20.5,119.178l253.46,7.607l25.293-124.25L326.034,221.572z"/>
			<path style="opacity:0.62;clip-path:url(#XMLID_00000154406620107114609630000005223368817331833752_);fill:#FFBE5F;" d="
				M92.202,296.572c0,0,2.829-29.362,27.241-33.059c0,0,13.752-128.902,155.357-135.046c130.014-5.641,124.51-58.074,124.51-58.074
				L96.894,76.878l-68.132,196.15L92.202,296.572"/>
			
				<use xlink:href="#XMLID_00000124137826433939684250000002120983291041798056_"  style="overflow:visible;fill:none;stroke:#333A54;stroke-width:2.3;stroke-miterlimit:10;"/>
		</g>
		<g>
			<g>
				<defs>
					
						<ellipse id="XMLID_00000008867273728941245320000003876602462086134674_" transform="matrix(0.1237 -0.9923 0.9923 0.1237 -53.8453 413.2592)" cx="207.072" cy="237.118" rx="39.498" ry="35.005"/>
				</defs>
				<use xlink:href="#XMLID_00000008867273728941245320000003876602462086134674_"  style="overflow:visible;fill:#FFE9D1;"/>
				<clipPath id="XMLID_00000061432454164755950170000017972914363476616865_">
					<use xlink:href="#XMLID_00000008867273728941245320000003876602462086134674_"  style="overflow:visible;"/>
				</clipPath>
				
					<ellipse transform="matrix(0.1237 -0.9923 0.9923 0.1237 -48.1506 386.7714)" style="clip-path:url(#XMLID_00000061432454164755950170000017972914363476616865_);fill:#FFFFFF;" cx="194.909" cy="220.648" rx="31.012" ry="30.168"/>
				<g style="clip-path:url(#XMLID_00000061432454164755950170000017972914363476616865_);">
					<defs>
						
							<ellipse id="XMLID_00000057841631003875930980000011426564766376229287_" transform="matrix(0.1237 -0.9923 0.9923 0.1237 -50.3084 423.4251)" cx="214.599" cy="240.198" rx="32.986" ry="27.155"/>
					</defs>
					<use xlink:href="#XMLID_00000057841631003875930980000011426564766376229287_"  style="overflow:visible;fill:#96E3FF;"/>
					<clipPath id="XMLID_00000002385179197367999980000009001078476981668769_">
						<use xlink:href="#XMLID_00000057841631003875930980000011426564766376229287_"  style="overflow:visible;"/>
					</clipPath>
					<path style="clip-path:url(#XMLID_00000002385179197367999980000009001078476981668769_);fill:#3E8CB2;" d="M166.718,248.315
						c-1.287,10.323,16.427,29.805,34.953,32.115c18.526,2.31,30.847-13.426,32.134-23.749c1.287-10.323-12.753,0.414-31.279-1.896
						C184.001,252.475,168.005,237.992,166.718,248.315z"/>
				</g>
				
					<ellipse id="XMLID_00000073703717535379839250000005448020147952120192_" transform="matrix(0.1237 -0.9923 0.9923 0.1237 -45.3729 432.6817)" style="clip-path:url(#XMLID_00000061432454164755950170000017972914363476616865_);fill:#333A54;" cx="222.307" cy="242.032" rx="27.37" ry="19.28"/>
				
					<ellipse id="XMLID_00000102531895586774235660000011587172875767447193_" transform="matrix(0.1237 -0.9923 0.9923 0.1237 -48.6132 441.3473)" style="clip-path:url(#XMLID_00000061432454164755950170000017972914363476616865_);fill:#FFBE5F;" cx="225.593" cy="248.199" rx="21.656" ry="15.255"/>
				
					<use xlink:href="#XMLID_00000008867273728941245320000003876602462086134674_"  style="overflow:visible;fill:none;stroke:#333A54;stroke-width:2.3;stroke-miterlimit:10;"/>
			</g>
			<path style="fill:#FFFFFF;" d="M197.64,237.661c-0.557,4.467,3.719,8.678,9.552,9.405c5.833,0.727,11.012-2.305,11.569-6.772
				c0.557-4.467-3.719-8.678-9.552-9.405C203.376,230.162,198.197,233.194,197.64,237.661z"/>
			
				<ellipse transform="matrix(0.1238 -0.9923 0.9923 0.1238 -48.6845 388.0111)" style="fill:#FFFFFF;" cx="195.361" cy="221.572" rx="6.598" ry="6.21"/>
		</g>
		<g>
			<path style="fill:#FF7C02;" d="M161.654,288.425c0,0,10.045-20.842,37.252-23.484c27.208-2.643,39.416,10.515,39.416,10.515"/>
			<path style="fill:#A13800;" d="M161.654,288.425c7.555-15.85,24.988-24.69,42.16-24.795c8.778-0.155,17.76,1.285,25.624,5.325
				c3.24,1.737,6.404,3.766,8.884,6.501c-11.374-9.214-27.062-11.018-41.173-9.231C182.835,267.911,169.317,276.123,161.654,288.425
				L161.654,288.425z"/>
		</g>
		<g>
			<path style="fill:#FFBE5F;" d="M160.617,289.809c12.17-21.938,41-29.318,63.983-21.897c5.233,1.819,10.466,4.452,14.198,8.596
				c-5.916-4.257-13.009-6.314-20.102-7.377C196.967,266.13,174.875,272.442,160.617,289.809L160.617,289.809z"/>
		</g>
		<g>
			<path style="fill:#FFBE5F;" d="M115.898,301.582c4.902,3.317,15.675,5.518,21.436,6.142c19.859,2.163,42.695-2.474,54.77-19.646
				c1.055-1.482,2.012-3.03,2.903-4.614l2.987,1.719c-1.018,1.663-2.108,3.283-3.3,4.827
				c-13.188,17.391-36.891,20.825-57.465,18.569C127.671,307.53,120.128,305.429,115.898,301.582L115.898,301.582z"/>
			<path style="fill:#FFBE5F;" d="M187.673,282.371c-0.227,1.026,3.541,2.731,8.416,3.809c4.875,1.078,9.01,1.12,9.237,0.094
				c0.227-1.026-3.541-2.731-8.416-3.809C192.035,281.387,187.9,281.345,187.673,282.371z"/>
		</g>
		<g>
			<path style="fill:#A13800;" d="M117.527,302.79c4.363,3.669,17.053,5.227,22.814,5.85c19.859,2.163,42.695-2.474,54.77-19.646
				c1.055-1.481,2.012-3.03,2.903-4.614l2.987,1.719c-1.018,1.663-2.108,3.283-3.3,4.827
				c-13.188,17.392-36.958,22.551-57.428,19.485C134.5,309.566,121.757,306.638,117.527,302.79L117.527,302.79z"/>
			<path style="fill:#A13800;" d="M190.681,283.288c-0.227,1.026,3.541,2.731,8.416,3.809c4.875,1.078,9.01,1.12,9.237,0.094
				c0.227-1.026-3.541-2.731-8.416-3.809C195.043,282.305,190.908,282.263,190.681,283.288z"/>
		</g>
		<g>
			<g>
				<defs>
					<path id="XMLID_00000109011625661060636730000002894815027469570987_" d="M282.299,322.424
						c1.901-13.44,29.803-38.429,46.097-52.001c10.976-9.142,27.619,0.396,24.931,14.426c-0.588,3.071-1.907,6.438-4.216,10.1
						c0,0,27.08,9.132,11.258,31.286c0,0,14.144,19.185-8.456,36.674C329.313,380.399,279.602,341.487,282.299,322.424z"/>
				</defs>
				<use xlink:href="#XMLID_00000109011625661060636730000002894815027469570987_"  style="overflow:visible;fill:#333A54;"/>
				<clipPath id="XMLID_00000024709844755195636430000016362758398543282359_">
					<use xlink:href="#XMLID_00000109011625661060636730000002894815027469570987_"  style="overflow:visible;"/>
				</clipPath>
				<path style="clip-path:url(#XMLID_00000024709844755195636430000016362758398543282359_);fill:#FF7C02;" d="M275.584,322.424
					c2.697-19.063,57.699-61.359,57.699-61.359s23.326,11.346,9.112,33.884c0,0,27.08,9.132,11.258,31.286
					c0,0,14.144,19.185-8.456,36.674C322.598,380.399,272.887,341.487,275.584,322.424z"/>
				<path style="clip-path:url(#XMLID_00000024709844755195636430000016362758398543282359_);fill:#FFBE5F;" d="M284.943,315.382
					c-0.883,16.073,47.84,48.222,82.456,39.078c34.616-9.144,7.511,36.249,7.511,36.249l-76.978-0.98l-22.453-59.397l5.379-18.979
					L284.943,315.382"/>
				<path style="opacity:0.32;clip-path:url(#XMLID_00000024709844755195636430000016362758398543282359_);fill:#FFBE5F;" d="
					M288.61,309.703c0,0,41.568-31.007,82.504-34.156c40.937-3.149-12.451-31.759-12.451-31.759l-71.568,16.323L288.61,309.703"/>
				
					<use xlink:href="#XMLID_00000109011625661060636730000002894815027469570987_"  style="overflow:visible;fill:none;stroke:#333A54;stroke-width:2.3;stroke-miterlimit:10;"/>
			</g>
			<path style="fill:#E45C00;" d="M297.931,315.382c0,0,29.032-19.347,39.205-19.129c5.909,0.127,13.107,3.646,8.527,8.315
				C341.083,309.237,297.931,315.382,297.931,315.382z"/>
			<path style="fill:#E45C00;" d="M298.26,319.484c0,0,37.705,2.214,46.467,8.996c5.09,3.939,9.151,11.625,2.174,12.664
				C339.924,342.183,298.26,319.484,298.26,319.484z"/>
		</g>
		<path style="opacity:0.32;fill:#FFBE5F;" d="M164.761,219.377c0,0,7.724-41.93,50.431-32.115
			C215.192,187.262,179.849,186.504,164.761,219.377z"/>
	</g>
	<g>
		<circle style="fill:#FFFFFF;" cx="119.36" cy="149.382" r="9.797"/>
		<circle style="fill:#FFFFFF;" cx="326.034" cy="103.673" r="9.797"/>
		<path style="fill:#FFFFFF;" d="M118.07,113.47c0,2.168,1.757,3.925,3.925,3.925c2.168,0,3.925-1.757,3.925-3.925
			c0-2.168-1.757-3.925-3.925-3.925C119.828,109.545,118.07,111.302,118.07,113.47z"/>
		<path style="fill:#FFFFFF;" d="M183.122,97.802c1.646,2.398,2.612,5.299,2.612,8.427c0,8.239-6.679,14.917-14.917,14.917
			s-14.917-6.679-14.917-14.917c0-3.128,0.967-6.029,2.612-8.427c-2.441,2.84-3.925,6.526-3.925,10.565
			c0,8.963,7.266,16.23,16.23,16.23s16.23-7.266,16.23-16.23C187.047,104.328,185.562,100.642,183.122,97.802z"/>
		<path style="fill:#FFFFFF;" d="M85.153,170.76c-0.248,1.741-1.004,3.429-2.284,4.822c-3.37,3.669-9.076,3.912-12.746,0.542
			c-3.669-3.37-3.912-9.076-0.542-12.746c1.28-1.393,2.897-2.29,4.611-2.684c-2.249,0.266-4.418,1.301-6.07,3.1
			c-3.667,3.992-3.403,10.201,0.589,13.867c3.992,3.667,10.201,3.403,13.867-0.589C84.232,175.272,85.079,173.024,85.153,170.76z"/>
		<path style="fill:#FFFFFF;" d="M369.56,134.663c-0.248,1.741-1.004,3.428-2.284,4.822c-3.37,3.669-9.077,3.912-12.746,0.542
			c-3.669-3.37-3.912-9.077-0.542-12.746c1.28-1.393,2.897-2.29,4.611-2.685c-2.249,0.267-4.418,1.301-6.07,3.1
			c-3.667,3.992-3.403,10.201,0.589,13.867c3.992,3.667,10.201,3.403,13.867-0.589C368.638,139.175,369.485,136.926,369.56,134.663z
			"/>
	</g>
	<ellipse style="opacity:0.25;fill:#536186;" cx="250" cy="401.891" rx="72.885" ry="9.34"/>
</g>
</svg>
