<?xml version="1.0" encoding="utf-8"?>
<!-- Generator: Adobe Illustrator 27.5.0, SVG Export Plug-In . SVG Version: 6.00 Build 0)  -->
<svg version="1.1" xmlns="http://www.w3.org/2000/svg" xmlns:xlink="http://www.w3.org/1999/xlink" x="0px" y="0px"
	 viewBox="0 0 2200 2200" style="enable-background:new 0 0 2200 2200;" xml:space="preserve">
<g id="background">
	<rect x="0" style="fill:#FFFFFF;" width="2200" height="2200"/>
</g>
<g id="Objects">
	<g>
		<path style="fill:#172B2D;" d="M862.054,1653.875v23.234c0,38.514-27.445,71.581-65.306,78.621c-17.643,3.284-35.84,5-54.435,5
			c-9.297,0-18.495-0.429-27.581-1.269c-141.11-13.054-253.481-125.239-266.828-266.262c-0.877-9.285-1.331-18.694-1.331-28.21
			c0-18.346,1.673-36.3,4.869-53.72c6.953-37.911,40.094-65.387,78.633-65.387h23.987c19.354,0,35.05,15.691,35.05,35.05v77.215
			c0,19.36-15.697,35.051-35.05,35.051H542.06c12.531,92.856,79.815,160.146,172.671,172.678v-12.003
			c0-19.354,15.697-35.05,35.05-35.05h77.222C846.357,1618.825,862.054,1634.522,862.054,1653.875z"/>
		<path style="fill:#172B2D;" d="M660.029,1944.449c-53.567,0-105.54-10.495-154.476-31.193
			c-47.259-19.989-89.697-48.6-126.138-85.041c-36.44-36.441-65.052-78.879-85.041-126.138
			c-20.698-48.936-31.193-100.909-31.193-154.476s10.495-105.54,31.193-154.476c19.989-47.258,48.601-89.697,85.041-126.138
			c36.441-36.44,78.879-65.052,126.138-85.041c48.936-20.698,100.909-31.193,154.476-31.193c53.567,0,105.54,10.495,154.476,31.193
			c47.259,19.989,89.697,48.601,126.138,85.041c36.44,36.441,65.052,78.88,85.041,126.138
			c20.698,48.936,31.193,100.909,31.193,154.476s-10.495,105.54-31.193,154.476c-19.989,47.259-48.601,89.697-85.041,126.138
			c-36.441,36.44-78.879,65.052-126.138,85.041C765.569,1933.954,713.596,1944.449,660.029,1944.449z M660.029,1182.724
			c-49.265,0-97.048,9.645-142.021,28.667c-43.448,18.377-82.471,44.688-115.986,78.203s-59.826,72.538-78.202,115.985
			c-19.022,44.974-28.667,92.757-28.667,142.022c0,49.266,9.645,97.048,28.667,142.022c18.377,43.448,44.687,82.471,78.202,115.986
			s72.538,59.826,115.986,78.202c44.973,19.022,92.756,28.667,142.021,28.667s97.048-9.645,142.022-28.667
			c43.448-18.377,82.471-44.688,115.986-78.202s59.826-72.538,78.202-115.986c19.022-44.973,28.668-92.756,28.668-142.022
			c0-49.265-9.645-97.048-28.668-142.022c-18.377-43.447-44.687-82.47-78.202-115.985s-72.538-59.826-115.986-78.203
			C757.077,1192.369,709.294,1182.724,660.029,1182.724z"/>
	</g>
	<g>
		<path style="fill:#172B2D;" d="M1936.819,1547.601c0,53.574-10.495,105.54-31.196,154.471
			c-19.987,47.268-48.601,89.702-85.045,126.145c-36.444,36.444-78.877,65.044-126.132,85.045
			c-48.944,20.688-100.911,31.183-154.485,31.183c-53.56,0-105.54-10.495-154.471-31.183
			c-47.255-20.001-89.702-48.601-126.132-85.045c-36.444-36.444-65.058-78.877-85.045-126.145
			c-20.701-48.931-31.196-100.897-31.196-154.471c0-53.574,10.495-105.54,31.196-154.471
			c19.987-47.268,48.601-89.702,85.045-126.146c36.43-36.444,78.877-65.044,126.132-85.045
			c48.931-20.688,100.911-31.183,154.471-31.183c53.574,0,105.54,10.495,154.485,31.183c47.255,20.001,89.688,48.601,126.132,85.045
			c36.444,36.444,65.058,78.877,85.045,126.146C1926.324,1442.061,1936.819,1494.027,1936.819,1547.601z"/>
		<path style="fill:#FFFFFF;" d="M1741.993,1653.875v23.234c0,38.514-27.445,71.581-65.306,78.621c-17.644,3.284-35.84,5-54.435,5
			c-9.297,0-18.495-0.429-27.581-1.269c-141.11-13.054-253.481-125.239-266.828-266.262c-0.877-9.285-1.331-18.694-1.331-28.21
			c0-18.346,1.673-36.3,4.87-53.72c6.953-37.911,40.094-65.387,78.633-65.387h23.987c19.354,0,35.05,15.691,35.05,35.05v77.215
			c0,19.36-15.697,35.051-35.05,35.051h-12.003c12.531,92.856,79.815,160.146,172.671,172.678v-12.003
			c0-19.354,15.697-35.05,35.05-35.05h77.222C1726.296,1618.825,1741.993,1634.522,1741.993,1653.875z"/>
	</g>
	<g>
		<path style="fill:#21B79A;" d="M862.054,758.674v23.234c0,38.514-27.445,71.581-65.306,78.621c-17.643,3.284-35.84,5-54.435,5
			c-9.297,0-18.495-0.429-27.581-1.269c-141.11-13.054-253.481-125.239-266.828-266.262c-0.877-9.285-1.331-18.694-1.331-28.209
			c0-18.346,1.673-36.3,4.869-53.72c6.953-37.911,40.094-65.387,78.633-65.387h23.987c19.354,0,35.05,15.691,35.05,35.05v77.215
			c0,19.36-15.697,35.05-35.05,35.05H542.06c12.531,92.856,79.815,160.146,172.671,172.678v-12.003
			c0-19.354,15.697-35.05,35.05-35.05h77.222C846.357,723.623,862.054,739.32,862.054,758.674z"/>
		<path style="fill:#21B79A;" d="M660.029,1049.247c-53.567,0-105.54-10.495-154.476-31.193
			c-47.259-19.989-89.697-48.601-126.138-85.041c-36.44-36.441-65.052-78.879-85.041-126.138
			c-20.698-48.936-31.193-100.909-31.193-154.476c0-53.567,10.495-105.54,31.193-154.476
			c19.989-47.258,48.601-89.697,85.041-126.138c36.441-36.44,78.879-65.052,126.138-85.041
			c48.936-20.698,100.909-31.193,154.476-31.193c53.567,0,105.54,10.495,154.476,31.193c47.259,19.989,89.697,48.601,126.138,85.041
			c36.44,36.441,65.052,78.88,85.041,126.138c20.698,48.936,31.193,100.909,31.193,154.476c0,53.567-10.495,105.54-31.193,154.476
			c-19.989,47.259-48.601,89.697-85.041,126.138c-36.441,36.44-78.879,65.052-126.138,85.041
			C765.569,1038.752,713.596,1049.247,660.029,1049.247z M660.029,287.522c-49.265,0-97.048,9.645-142.021,28.667
			c-43.448,18.377-82.471,44.688-115.986,78.203s-59.826,72.538-78.202,115.985c-19.022,44.974-28.667,92.757-28.667,142.022
			c0,49.265,9.645,97.048,28.667,142.021c18.377,43.448,44.687,82.471,78.202,115.986s72.538,59.826,115.986,78.202
			c44.973,19.022,92.756,28.668,142.021,28.668s97.048-9.645,142.022-28.668c43.448-18.377,82.471-44.687,115.986-78.202
			s59.826-72.538,78.202-115.986c19.022-44.973,28.668-92.756,28.668-142.021c0-49.265-9.645-97.048-28.668-142.022
			c-18.377-43.447-44.687-82.47-78.202-115.985s-72.538-59.826-115.986-78.203C757.077,297.167,709.294,287.522,660.029,287.522z"/>
	</g>
	<g>
		<path style="fill:#21B79A;" d="M1936.819,652.399c0,53.574-10.495,105.54-31.196,154.471
			c-19.987,47.268-48.601,89.702-85.045,126.145c-36.444,36.444-78.877,65.044-126.132,85.045
			c-48.944,20.688-100.911,31.183-154.485,31.183c-53.56,0-105.54-10.495-154.471-31.183
			c-47.255-20.001-89.702-48.601-126.132-85.045c-36.444-36.444-65.058-78.877-85.045-126.145
			c-20.701-48.931-31.196-100.897-31.196-154.471c0-53.574,10.495-105.54,31.196-154.471
			c19.987-47.268,48.601-89.702,85.045-126.145c36.43-36.444,78.877-65.044,126.132-85.045
			c48.931-20.688,100.911-31.183,154.471-31.183c53.574,0,105.54,10.495,154.485,31.183c47.255,20.001,89.688,48.601,126.132,85.045
			c36.444,36.444,65.058,78.877,85.045,126.145C1926.324,546.859,1936.819,598.825,1936.819,652.399z"/>
		<path style="fill:#FFFFFF;" d="M1741.993,758.674v23.234c0,38.514-27.445,71.581-65.306,78.621c-17.644,3.284-35.84,5-54.435,5
			c-9.297,0-18.495-0.429-27.581-1.269c-141.11-13.054-253.481-125.239-266.828-266.262c-0.877-9.285-1.331-18.694-1.331-28.209
			c0-18.346,1.673-36.3,4.87-53.72c6.953-37.911,40.094-65.387,78.633-65.387h23.987c19.354,0,35.05,15.691,35.05,35.05v77.215
			c0,19.36-15.697,35.05-35.05,35.05h-12.003c12.531,92.856,79.815,160.146,172.671,172.678v-12.003
			c0-19.354,15.697-35.05,35.05-35.05h77.222C1726.296,723.623,1741.993,739.32,1741.993,758.674z"/>
	</g>
</g>
</svg>
